P2
64 64
255
16 19 23 22 22 18 16 26 20 28 49 68 70 73 91 102 117 128 137 144 152 149 151 152 157 157 157 152 145 132 112 91 65 38 25 46 102 93 57 85 24 20 44 73 44 47 34 36 37 39 44 35 21 25 29 14 67 140 118 94 39 52 54 42 
23 18 23 24 17 17 19 19 17 31 45 66 65 64 84 101 112 128 134 145 150 152 151 151 153 156 159 152 140 131 110 84 60 32 55 129 176 76 85 116 20 19 32 56 47 29 38 34 32 46 25 28 23 26 22 15 52 140 125 128 74 75 63 36 
20 22 24 22 20 15 17 15 16 28 45 60 59 57 73 96 112 125 135 143 150 153 149 154 153 154 152 151 139 129 107 81 55 65 152 190 74 36 82 98 24 15 24 61 52 30 35 39 35 42 25 30 21 21 20 14 47 123 109 136 106 55 56 38 
27 32 29 29 19 15 16 17 15 28 40 50 48 49 78 100 111 124 133 147 151 152 152 152 149 151 153 152 142 123 103 81 85 159 190 71 78 37 101 76 32 31 17 59 56 42 38 38 50 27 29 49 23 22 24 19 62 118 101 104 128 78 56 46 
30 34 35 33 26 20 21 16 12 26 32 47 47 47 74 99 108 122 133 142 150 149 149 151 150 154 157 150 138 122 106 105 171 176 66 48 38 31 90 41 18 17 21 56 65 44 30 41 41 32 31 68 33 32 28 23 51 107 109 89 120 125 69 38 
43 42 40 37 29 25 26 21 19 23 35 40 36 43 66 87 102 116 130 142 148 148 150 146 149 150 153 145 137 126 126 172 145 51 36 56 33 60 120 21 19 17 14 41 68 42 30 38 39 29 30 69 59 34 28 25 38 61 105 114 82 108 119 55 
78 66 53 43 37 28 27 22 22 31 35 36 28 33 52 77 96 116 130 142 150 148 146 147 149 146 154 147 142 140 180 140 68 34 36 48 42 126 86 17 15 19 10 31 58 46 18 36 27 25 27 71 77 41 41 37 35 23 56 119 96 65 108 102 
107 98 82 66 53 46 36 28 27 34 26 28 20 26 40 66 87 111 129 141 146 147 150 146 148 150 151 160 176 156 127 90 64 39 43 75 114 109 36 16 18 19 17 19 36 58 41 59 12 18 22 48 82 54 49 36 62 13 20 100 113 96 55 41 
113 113 107 95 72 61 52 39 35 44 30 25 21 23 38 62 84 109 126 139 146 145 148 151 150 148 159 167 154 135 116 93 66 44 77 96 169 40 17 16 16 17 14 20 18 45 79 73 6 15 22 37 96 68 49 56 67 12 10 34 98 119 102 73 
123 116 116 114 97 83 64 54 49 52 40 29 23 21 40 62 83 110 130 139 143 146 145 148 147 144 153 149 146 133 115 91 67 68 103 119 138 20 22 18 18 21 20 16 26 39 81 72 10 13 18 37 111 69 49 82 64 25 16 22 52 91 97 118 
122 118 125 121 114 103 87 75 64 63 50 34 19 16 39 61 82 109 130 139 144 146 146 147 147 150 149 150 142 132 114 89 100 117 94 122 71 21 16 21 16 15 14 15 59 85 89 68 21 14 25 85 117 47 55 71 37 28 16 44 77 50 33 74 
119 116 124 130 132 121 108 92 75 68 55 38 19 18 31 60 86 111 127 140 144 148 148 147 150 151 153 148 142 128 109 95 135 164 67 93 46 19 21 22 21 14 12 10 23 73 99 111 98 87 108 105 56 45 44 45 57 18 42 96 65 33 40 94 
110 118 127 135 138 131 124 109 95 79 59 40 24 13 31 61 89 110 129 145 150 153 150 150 148 151 156 152 142 128 106 123 197 149 61 64 49 34 21 16 17 15 19 18 22 41 33 37 59 86 76 48 45 55 33 39 48 64 101 83 22 18 50 121 
108 116 125 131 141 137 136 123 110 95 71 46 32 15 35 59 83 110 131 141 153 152 154 151 152 152 157 150 142 126 110 147 207 110 84 59 27 29 27 22 25 24 24 23 36 55 21 17 39 53 40 38 33 26 35 52 67 67 58 34 12 19 92 123 
108 104 114 130 139 141 139 130 119 115 87 60 31 14 34 55 86 111 131 142 153 156 154 152 150 153 157 149 140 127 112 156 202 88 110 120 12 16 13 24 32 34 30 35 40 51 34 20 47 54 35 29 35 40 38 32 25 22 29 33 24 27 86 103 
74 82 108 120 130 138 146 140 138 129 102 64 31 15 32 64 87 110 128 144 155 154 154 156 156 154 159 154 143 131 111 128 180 65 71 101 15 16 22 20 26 27 20 28 49 36 43 29 24 33 19 23 58 62 40 31 19 18 19 53 33 18 32 66 
41 58 92 112 125 138 153 152 149 132 112 79 32 15 30 58 86 115 132 143 156 156 156 154 154 158 161 151 144 129 113 135 126 88 47 31 16 16 24 16 17 26 20 30 51 24 35 30 22 22 16 25 74 75 33 44 25 20 18 60 55 16 20 48 
20 39 74 102 119 142 155 153 153 139 120 92 46 12 29 57 88 112 130 144 157 155 154 155 157 160 157 153 143 127 118 142 154 95 50 34 19 18 21 17 16 26 22 59 37 24 34 27 27 19 17 37 83 69 19 60 35 16 13 40 84 29 17 40 
12 24 57 89 114 147 152 157 157 142 123 102 49 12 24 55 88 117 131 146 153 157 159 158 155 157 159 153 143 132 115 116 158 87 64 55 14 13 22 15 23 21 29 70 24 26 22 42 28 23 19 40 96 70 20 49 34 13 12 20 73 52 18 30 
9 17 29 66 106 142 158 162 162 148 133 111 53 13 18 49 86 116 130 145 155 154 154 155 159 159 158 152 143 133 119 99 89 146 74 47 12 19 25 19 20 26 50 41 23 19 26 31 23 25 19 40 102 75 21 43 42 21 14 13 30 65 45 23 
7 9 21 53 109 140 158 159 159 150 136 111 56 10 11 43 91 113 131 143 153 159 159 153 153 158 159 157 146 135 120 99 80 146 50 26 19 23 20 17 33 33 38 27 20 22 29 25 17 19 21 44 108 66 16 38 56 23 13 13 16 27 68 59 
12 13 22 45 96 139 159 163 162 157 143 113 40 11 15 46 87 116 132 140 158 161 158 157 155 160 159 154 148 137 123 99 75 85 114 19 19 26 22 17 23 39 30 26 23 24 25 26 23 21 20 60 126 58 15 28 60 24 13 20 29 24 37 61 
10 17 21 39 88 135 155 163 164 156 143 104 43 13 13 50 87 115 130 144 156 161 160 158 159 160 159 158 150 138 124 103 101 95 104 23 29 23 20 24 38 34 26 30 24 24 27 28 25 25 23 86 126 56 14 16 56 40 12 30 29 18 39 26 
7 10 21 44 86 130 148 160 163 156 137 106 45 7 10 42 87 113 132 147 157 157 158 157 156 161 163 159 150 136 120 102 148 101 63 24 31 15 19 34 37 25 20 26 16 15 26 26 20 19 36 115 117 49 14 15 42 39 13 40 35 23 45 28 
7 7 9 30 82 130 144 158 162 159 141 109 48 7 13 40 83 114 131 144 155 162 158 160 158 159 163 159 151 138 122 101 142 94 57 21 28 19 26 41 27 22 22 20 22 17 30 12 12 19 73 112 106 46 22 24 27 36 16 51 30 28 28 36 
6 8 8 24 74 123 145 159 163 159 144 114 48 8 12 37 86 113 134 148 158 160 158 159 158 163 165 154 146 137 120 104 125 72 17 21 29 26 33 28 21 16 18 17 19 22 21 11 10 41 121 102 101 48 17 16 19 31 22 44 27 30 15 24 
9 8 8 20 64 116 148 161 164 159 143 116 57 9 11 34 86 111 133 146 160 160 158 157 162 161 163 159 151 138 123 103 113 70 22 25 33 36 29 13 21 17 20 18 21 22 14 17 37 94 90 69 73 29 19 17 21 25 41 44 17 31 11 13 
4 8 9 24 67 116 146 162 168 161 144 119 65 11 10 34 81 111 129 148 155 158 158 155 159 160 161 159 151 137 124 105 98 67 28 37 37 25 21 19 22 24 21 17 20 21 19 28 99 70 28 78 66 46 23 19 24 32 52 38 17 31 15 15 
6 8 7 19 68 118 143 158 165 159 144 120 73 16 11 35 79 112 132 147 159 155 156 158 158 157 157 156 145 135 125 112 90 75 39 37 34 18 20 21 25 19 22 20 23 23 41 49 46 20 25 98 59 49 26 22 20 33 54 35 18 21 21 17 
8 6 8 16 63 115 141 157 164 160 148 121 85 20 13 32 77 110 130 146 155 156 150 151 152 148 150 153 146 133 124 106 102 107 39 25 29 19 23 23 17 21 30 24 22 51 70 25 24 21 31 65 59 61 21 28 18 41 33 40 24 21 23 20 
7 6 8 17 57 106 144 158 164 161 149 126 84 15 11 35 74 108 130 146 155 157 156 155 154 153 160 156 146 133 120 108 114 98 38 38 19 18 20 22 20 19 28 27 20 41 34 22 27 27 28 66 62 50 26 24 35 37 22 36 24 28 24 26 
9 7 8 16 49 100 142 153 165 162 156 132 82 21 15 33 78 107 133 146 153 154 158 158 159 157 161 156 149 140 122 118 109 70 33 30 27 24 19 31 21 23 27 19 22 23 23 32 35 24 25 55 53 41 28 25 41 27 19 35 34 24 20 16 
7 8 9 17 36 95 136 154 163 164 155 132 85 28 14 37 75 107 127 146 152 157 157 158 160 160 162 159 150 139 122 111 115 69 27 21 22 33 18 20 17 19 27 24 24 27 33 40 27 23 31 50 45 33 25 34 27 24 27 43 44 21 16 14 
13 13 11 15 36 91 132 145 160 161 154 134 89 25 22 38 76 107 127 145 154 157 160 158 158 159 159 160 153 139 119 121 118 75 28 27 22 31 16 21 17 19 28 18 24 35 47 41 19 28 26 42 40 39 38 32 18 25 22 30 59 20 16 22 
10 9 10 11 32 84 129 147 163 161 152 135 95 36 24 35 71 106 126 141 152 158 158 156 158 157 159 156 151 136 115 128 122 96 27 37 18 30 19 17 13 26 28 24 55 63 38 27 22 21 29 41 34 35 35 28 29 30 30 27 41 30 17 18 
20 18 13 12 25 73 124 148 161 162 154 132 100 48 24 41 70 105 124 144 153 156 155 157 156 158 159 157 147 137 119 118 135 86 29 61 25 23 15 19 17 26 38 61 58 32 20 22 19 26 40 39 41 26 27 25 37 35 35 23 36 56 20 30 
16 13 12 9 23 67 117 145 158 162 155 137 110 58 30 37 69 105 127 142 152 156 154 154 158 158 158 158 147 136 119 112 142 89 37 66 29 22 17 20 31 55 59 35 31 25 25 22 19 27 45 32 45 28 29 35 41 44 41 26 23 44 35 27 
14 12 10 19 19 65 119 143 156 154 153 136 108 59 28 38 66 101 123 138 150 154 155 156 158 157 159 156 149 141 123 102 134 97 39 62 31 20 21 22 27 29 27 28 29 24 19 28 20 32 33 43 43 31 31 44 35 31 34 33 32 41 26 16 
14 14 8 14 19 69 120 141 152 156 153 135 109 60 35 38 65 100 123 139 149 155 157 155 158 156 159 155 149 138 124 100 116 94 43 53 37 26 20 18 20 24 27 27 23 20 24 31 25 44 30 41 31 33 39 62 41 23 25 23 34 24 22 14 
11 10 10 12 19 59 107 140 160 166 162 149 112 58 35 39 63 100 123 137 151 150 155 156 156 158 161 159 149 138 126 102 97 86 51 61 40 14 19 21 28 33 25 29 28 21 22 28 37 37 38 39 28 29 44 52 43 26 20 16 31 26 18 15 
11 14 8 10 19 43 102 151 163 166 165 150 121 71 33 32 61 96 118 135 148 151 156 153 157 158 159 159 152 142 127 107 95 80 51 59 50 16 18 23 37 23 17 23 22 21 27 40 42 26 42 38 29 29 39 38 46 29 25 20 19 16 26 17 
8 8 10 12 17 35 106 148 160 169 166 155 126 87 28 37 60 95 118 134 146 152 151 158 158 154 158 158 151 140 126 111 88 85 53 60 53 16 19 30 29 21 21 21 23 23 27 48 28 26 44 30 28 31 44 40 40 30 27 23 23 22 26 30 
15 14 9 6 12 34 108 143 160 167 167 155 135 97 34 37 62 92 118 136 146 151 154 156 159 154 161 161 154 139 129 107 62 97 58 65 50 13 19 28 17 23 21 18 21 29 45 38 24 27 47 30 27 28 40 40 43 33 40 28 17 19 25 27 
16 14 10 14 12 34 104 146 158 170 170 157 141 105 37 35 60 94 119 137 145 151 156 155 157 156 161 161 154 145 132 91 49 97 62 57 44 14 28 26 17 20 16 16 27 54 32 32 18 23 51 29 23 30 43 33 44 39 38 30 28 18 31 22 
23 21 24 29 28 39 101 145 161 171 171 162 151 107 43 38 63 96 119 135 146 153 157 156 155 157 165 163 154 146 132 87 57 105 53 38 30 16 32 20 18 25 18 27 35 37 26 35 27 27 41 27 21 36 48 33 36 35 34 24 35 34 27 19 
25 44 45 44 40 51 92 138 163 172 175 170 155 104 51 40 66 92 117 132 146 152 159 157 153 157 163 162 156 143 131 77 63 115 61 35 29 16 29 17 22 26 35 30 20 24 27 35 18 23 27 37 21 39 43 37 33 32 33 33 30 29 17 20 
54 61 58 54 57 66 94 132 159 174 178 170 153 114 63 45 63 92 116 135 147 156 157 159 154 157 166 166 153 148 124 76 68 112 70 34 22 18 28 24 29 50 37 22 24 19 27 33 29 29 27 35 29 43 31 39 40 37 39 31 25 24 22 21 
66 68 62 62 69 73 100 131 158 171 175 171 158 123 73 51 66 92 117 134 146 153 159 158 156 159 165 167 157 146 122 84 76 101 66 44 16 17 21 35 30 31 25 22 26 22 24 23 23 27 24 28 37 40 22 42 43 42 38 35 21 24 21 20 
58 65 62 67 74 85 110 137 159 170 176 174 161 129 84 48 68 88 116 134 147 155 157 160 157 158 165 167 160 150 121 76 78 95 64 42 22 24 23 21 19 25 25 21 22 17 30 36 32 27 23 21 25 20 31 45 46 33 29 38 41 18 24 20 
59 64 68 75 83 94 118 138 162 171 175 172 163 132 89 50 66 89 114 136 146 154 157 159 159 162 167 163 157 150 127 55 91 88 63 32 19 28 21 26 22 23 24 22 25 20 25 36 30 27 27 25 24 21 37 37 39 28 26 52 62 24 30 22 
45 61 75 87 92 99 115 134 161 167 171 166 159 132 92 53 70 90 115 134 144 154 157 158 158 164 167 166 155 147 129 54 98 84 58 20 19 29 24 28 22 27 20 31 29 21 27 36 26 21 26 22 25 39 52 46 49 21 33 61 65 24 21 27 
34 62 73 90 94 94 105 131 156 165 168 167 158 132 93 60 71 88 113 133 149 154 154 158 159 160 166 167 156 147 131 57 87 89 66 18 20 22 20 33 24 37 18 37 30 24 26 37 38 25 16 20 22 38 55 65 53 26 38 65 68 52 21 20 
25 52 71 86 86 83 93 120 150 163 170 169 160 130 90 61 71 86 113 132 146 154 158 159 159 161 164 162 158 146 136 62 72 83 50 19 17 24 24 33 24 33 22 39 29 21 22 30 50 38 21 24 22 45 48 76 55 23 35 64 75 65 31 21 
18 39 57 67 70 75 92 117 147 164 171 169 161 135 100 62 69 88 111 129 146 155 156 160 162 163 166 167 157 147 137 79 54 68 40 20 23 20 24 32 31 28 19 43 34 20 27 24 59 24 25 25 23 41 41 76 50 16 38 58 90 76 63 29 
19 31 41 60 68 71 86 111 144 163 168 167 159 138 107 70 69 86 110 129 142 152 156 159 163 162 166 167 158 149 137 91 38 54 21 24 23 18 21 26 25 30 29 39 31 28 27 27 70 23 23 26 28 33 34 77 42 17 36 69 95 89 84 39 
26 30 32 49 59 64 74 103 138 156 166 166 159 137 108 81 74 88 106 127 146 153 157 160 161 160 162 167 157 142 137 100 32 53 17 27 22 21 41 24 20 27 34 41 32 32 34 29 76 31 23 24 26 42 44 78 32 16 23 63 83 94 90 47 
31 34 29 39 54 61 64 98 133 158 169 172 163 144 114 87 75 86 106 128 143 153 156 160 161 163 163 164 157 146 137 91 34 49 29 28 24 24 28 31 14 25 32 42 37 37 33 27 58 53 24 21 25 31 66 67 24 19 20 59 79 71 106 66 
29 37 42 37 44 51 58 93 136 165 179 184 180 163 125 92 73 89 108 129 145 154 160 159 162 163 168 165 161 149 124 60 30 45 45 35 22 24 23 26 21 33 30 38 31 32 36 36 31 70 26 20 18 29 68 52 18 17 17 58 89 38 105 102 
26 32 30 30 40 41 45 88 141 182 194 194 191 185 149 95 84 90 110 132 144 155 157 159 161 164 166 167 159 139 83 44 27 37 26 30 20 32 26 24 20 28 37 36 29 31 35 39 22 65 50 18 21 26 96 64 23 25 22 64 94 29 82 118 
25 34 30 26 34 36 46 96 149 189 195 196 193 190 168 111 82 89 106 130 142 154 158 155 161 161 164 164 158 147 108 79 38 31 23 30 38 25 23 21 22 34 30 30 33 34 39 45 25 37 71 13 20 38 117 55 20 26 19 69 97 39 56 125 
24 28 29 27 37 30 41 98 164 188 193 196 195 188 176 130 80 91 109 127 141 155 156 156 160 158 163 163 158 144 110 99 51 30 22 26 29 24 31 24 34 45 37 29 32 33 41 43 33 23 74 31 21 45 114 49 23 22 26 81 101 29 52 84 
28 28 29 28 33 30 38 92 165 187 191 194 193 186 178 136 82 90 109 129 142 156 158 159 162 159 163 165 154 147 89 78 44 26 25 22 23 22 31 30 31 34 30 37 34 41 53 53 50 29 36 48 25 68 92 44 24 25 34 69 96 17 62 48 
20 25 26 26 32 27 37 79 161 187 189 191 190 184 174 135 78 92 109 132 142 154 158 159 160 161 163 163 158 145 73 65 34 36 29 17 15 29 37 20 42 30 41 40 35 45 42 52 53 27 27 47 45 110 72 31 32 32 30 75 98 16 56 51 
22 30 25 27 31 23 27 72 153 188 190 190 189 186 172 122 83 96 108 131 139 149 157 162 161 162 162 163 157 149 74 70 38 37 21 16 14 34 41 13 40 19 48 50 34 42 37 45 51 37 28 64 59 136 51 28 46 18 32 71 94 19 40 52 
