P2
85 85
255
101 100 101 103 103 101 100 102 105 101 101 105 103 105 105 105 103 104 103 107 104 102 101 100 101 101 99 99 106 105 100 100 100 97 101 104 102 103 106 100 102 96 105 111 103 99 98 101 99 102 98 98 101 96 105 98 99 98 99 99 97 97 97 98 94 98 98 92 91 89 90 87 84 80 72 76 85 96 108 113 121 127 131 136 138 
101 100 101 103 103 101 100 102 105 101 101 105 103 105 105 105 103 104 103 107 104 102 101 100 101 101 99 99 106 105 100 100 100 97 101 104 102 103 106 100 102 96 105 111 103 99 98 101 99 102 98 98 101 96 105 98 99 98 99 99 97 97 97 98 94 98 98 92 91 89 90 87 84 80 72 76 85 96 108 113 121 127 131 136 138 
101 102 102 102 105 100 98 101 102 100 101 104 102 103 101 104 103 102 103 104 106 101 98 98 100 100 98 98 102 106 98 99 99 96 102 101 102 102 103 101 99 97 103 106 103 99 98 99 99 99 99 97 100 97 104 93 97 99 99 96 97 98 96 98 95 96 96 91 91 91 89 86 83 79 74 74 84 95 106 111 121 125 129 134 138 
98 101 101 100 97 101 98 97 99 98 99 101 102 100 101 102 99 98 99 106 100 108 98 103 98 100 96 98 105 105 98 101 94 99 100 103 100 103 98 101 96 101 99 102 101 100 96 95 96 95 101 93 97 97 96 95 97 97 97 98 97 96 95 97 95 94 94 91 89 92 87 84 82 76 75 69 84 91 100 108 118 123 129 133 135 
104 103 99 98 103 103 100 98 107 100 100 102 100 96 100 98 100 98 95 96 99 98 103 98 95 93 96 102 103 103 100 93 95 98 100 99 98 96 99 97 97 98 99 99 101 100 96 97 97 95 98 93 97 96 95 92 94 94 93 98 97 94 96 98 91 94 93 94 92 88 88 83 79 81 75 71 73 83 93 102 113 120 123 129 132 
98 99 100 101 100 99 94 97 102 98 100 100 96 99 101 98 99 99 98 96 101 99 98 98 99 96 97 96 96 101 98 98 98 98 97 100 98 104 99 99 96 96 96 96 98 100 100 98 97 96 96 96 96 98 97 95 97 95 97 94 96 99 96 96 97 97 95 93 92 86 89 84 85 77 77 76 72 77 87 100 106 115 122 126 132 
99 103 102 98 97 98 102 100 99 99 98 95 100 95 100 96 98 98 101 100 99 100 99 97 96 98 94 98 99 99 99 95 95 100 98 103 103 103 100 101 98 100 98 98 99 98 97 102 100 96 98 94 99 97 97 94 98 95 98 94 93 96 96 94 96 100 94 92 91 92 89 86 79 80 83 80 73 71 82 95 107 113 118 125 127 
103 98 99 98 97 99 99 100 101 99 96 95 101 100 102 98 101 96 98 99 100 99 98 99 98 98 99 99 100 98 99 94 99 101 98 99 103 100 103 100 97 102 98 96 100 99 98 96 98 99 98 97 95 96 94 96 95 96 98 95 96 97 97 96 100 97 94 94 94 91 88 87 81 83 86 78 74 73 78 86 100 111 118 123 126 
103 102 100 106 101 102 97 100 101 101 99 97 96 101 101 99 97 101 102 101 103 101 98 102 100 96 95 95 101 100 99 98 95 98 99 102 105 102 106 101 99 100 97 101 98 99 97 100 98 95 96 97 96 96 96 93 91 95 95 98 97 98 96 97 95 97 97 95 96 89 89 84 81 84 89 77 79 74 72 82 94 111 118 118 125 
99 101 99 99 102 98 97 97 99 98 97 98 94 98 106 100 98 100 99 97 97 99 100 103 97 99 98 95 102 103 101 95 95 97 99 102 102 105 105 102 100 101 100 101 99 98 102 102 96 96 92 97 99 99 99 95 95 93 95 96 97 99 97 97 91 95 97 94 98 93 90 85 83 83 80 78 77 71 69 81 91 102 110 120 126 
97 98 99 99 96 97 99 95 97 98 99 99 96 101 98 96 96 94 101 101 97 97 97 97 98 106 98 100 99 99 98 94 95 98 97 99 101 102 107 111 101 100 97 101 97 97 98 102 96 97 93 98 95 96 96 96 92 90 95 96 93 96 96 94 95 95 94 94 91 93 91 101 86 80 83 76 74 77 70 79 86 100 111 121 122 
98 99 97 98 95 99 96 97 94 99 95 98 100 93 97 99 91 95 98 93 93 95 97 97 95 92 98 98 97 96 99 94 95 95 97 102 98 100 101 102 98 99 97 96 98 99 97 98 101 97 96 96 99 91 92 93 92 94 96 93 96 92 94 90 92 97 96 92 92 91 90 89 88 82 81 79 82 74 74 78 80 96 106 119 122 
99 101 100 95 97 95 95 96 95 98 102 103 100 96 96 93 94 94 93 90 93 94 90 93 93 92 94 92 93 95 94 94 95 92 93 97 96 97 100 100 99 98 99 98 99 99 100 95 96 93 92 94 97 96 92 95 91 92 94 95 95 93 92 91 91 96 95 92 91 94 90 95 85 81 77 77 77 74 76 84 89 97 106 116 123 
97 94 96 95 97 94 93 95 100 99 99 103 102 101 96 94 88 89 91 90 90 90 93 91 96 95 94 95 92 91 94 95 93 93 98 90 96 93 97 102 98 99 97 100 100 98 102 94 94 94 94 93 94 93 93 96 93 93 95 95 94 95 92 93 98 94 93 93 93 89 91 93 94 82 77 78 76 73 73 80 87 91 102 110 117 
96 95 100 93 96 92 93 94 93 94 101 102 104 103 97 91 90 91 91 89 86 87 90 86 92 98 94 90 92 92 90 89 94 94 92 96 97 98 94 97 96 98 98 97 100 104 98 98 92 95 93 95 96 96 96 94 92 95 92 92 92 93 90 90 97 94 95 92 91 93 85 87 86 88 79 81 78 75 76 80 87 96 101 112 118 
95 96 98 94 97 96 95 94 94 98 100 100 96 98 100 96 95 88 90 84 88 90 88 91 90 91 95 93 93 92 92 93 90 92 93 91 99 99 96 95 98 98 100 102 96 100 93 97 93 97 92 92 98 95 95 97 92 90 94 95 90 93 93 92 98 94 96 96 98 88 84 86 85 86 83 76 78 78 74 79 91 99 104 107 118 
98 98 95 95 97 101 96 94 94 96 95 99 98 99 91 92 96 91 87 89 90 87 86 90 86 91 93 93 90 93 92 92 90 91 92 90 95 97 95 98 96 93 96 103 97 99 95 95 94 94 94 97 97 94 94 96 94 89 95 95 91 92 90 94 91 95 95 93 94 91 87 87 84 82 81 76 77 71 73 76 88 94 100 105 112 
98 95 96 95 94 95 96 93 96 93 96 98 100 96 94 93 91 89 87 88 90 88 87 87 88 90 92 94 97 88 91 87 89 89 93 90 95 97 97 95 101 97 97 101 102 102 97 94 98 95 96 97 96 92 93 93 93 93 93 93 92 91 91 95 93 93 95 95 93 90 87 87 82 84 79 80 81 74 76 81 86 89 97 104 113 
91 94 95 95 98 103 98 95 95 94 92 94 95 93 93 89 92 91 90 91 91 88 89 93 88 95 93 93 92 88 87 92 88 85 93 89 93 96 96 97 96 100 97 101 98 101 97 96 93 94 94 96 96 96 93 93 93 89 89 89 93 95 90 92 92 92 93 95 87 86 89 86 81 88 83 84 79 73 74 77 85 91 98 106 109 
96 96 95 93 96 96 95 95 95 92 94 98 91 93 92 90 90 90 89 92 89 83 92 88 86 87 90 90 84 86 83 86 83 90 89 92 91 91 96 93 94 98 97 101 97 97 95 93 93 94 94 94 96 96 90 93 96 91 93 93 91 89 93 95 91 91 93 93 89 90 86 84 86 87 87 85 77 74 71 75 82 92 99 103 111 
97 95 93 96 92 96 92 97 94 92 93 94 94 92 93 92 92 94 90 92 91 88 91 89 89 84 84 87 86 87 88 86 86 88 86 87 87 94 95 93 97 101 97 98 97 94 93 94 94 90 93 93 95 95 93 92 88 93 94 94 93 94 93 91 92 94 92 92 91 89 84 84 82 83 83 81 80 79 75 78 84 90 97 102 111 
95 90 95 95 93 94 95 95 92 94 95 95 93 92 94 89 92 99 94 89 91 90 91 87 90 87 87 84 88 84 87 83 87 83 88 85 86 91 91 93 92 95 95 97 98 94 92 92 95 94 95 89 95 98 101 90 92 97 94 92 94 91 91 89 93 93 95 89 89 89 87 81 87 82 83 80 82 78 75 77 82 88 91 105 108 
98 94 95 94 98 92 97 91 94 90 91 98 98 90 94 88 89 91 94 91 90 88 89 88 100 104 135 117 134 121 117 105 106 90 88 86 87 88 91 88 87 94 92 90 91 88 93 94 94 94 94 93 94 96 97 96 92 93 93 92 96 98 91 93 93 93 93 92 90 93 89 83 83 81 82 86 79 74 73 76 79 83 94 104 108 
107 94 96 98 100 92 92 93 88 95 90 94 104 95 89 91 90 98 94 121 112 116 115 120 132 157 148 159 156 161 154 168 164 163 159 128 116 90 86 81 84 86 86 87 92 89 90 89 92 88 95 92 97 97 96 97 95 94 89 91 93 91 90 89 95 91 91 90 89 88 85 84 81 81 83 82 76 75 72 77 84 84 95 102 107 
93 93 97 98 96 92 94 93 95 88 90 93 92 104 105 113 113 126 125 124 123 126 136 149 145 148 165 161 163 158 172 164 179 168 176 178 163 166 151 118 96 86 85 85 88 86 92 90 89 91 93 95 101 99 97 99 99 95 91 97 90 94 92 91 96 91 91 93 89 88 85 88 85 77 78 78 80 76 73 75 80 87 92 100 107 
94 95 96 102 93 92 94 91 89 90 90 104 118 123 129 125 130 130 131 128 127 144 160 144 152 151 157 166 173 167 163 166 169 167 165 163 175 182 180 179 164 148 112 92 85 78 86 85 90 89 88 94 96 99 97 95 93 96 92 94 90 90 92 91 91 91 91 88 85 84 86 83 86 83 76 79 76 76 74 75 80 85 95 102 109 
92 92 91 94 93 91 90 91 90 102 115 118 125 125 134 122 115 124 122 123 138 149 156 155 152 156 163 170 167 166 164 172 153 156 159 170 167 169 178 173 185 183 178 165 132 100 80 82 82 89 88 91 92 96 91 90 92 94 92 92 93 91 94 87 89 89 93 87 84 86 84 82 83 82 78 80 81 74 72 72 77 88 98 102 110 
93 93 94 91 89 90 97 95 102 121 125 113 122 127 132 121 117 115 129 130 130 140 147 139 148 151 155 161 163 174 165 163 160 161 159 163 176 166 172 177 179 176 188 183 184 170 124 84 80 84 85 82 91 92 93 90 93 92 97 91 91 90 93 90 89 90 87 88 83 87 83 81 80 81 78 80 80 74 73 80 77 89 95 104 107 
93 97 101 112 111 105 96 99 115 127 118 122 119 123 117 121 122 130 130 120 129 129 133 144 135 146 147 148 159 163 168 162 166 162 169 157 170 174 167 171 181 179 179 186 192 187 182 158 105 80 79 84 88 93 91 96 95 94 91 90 90 91 91 89 90 86 88 87 85 82 82 78 81 81 78 81 74 79 72 81 78 89 94 106 112 
126 125 126 113 102 87 89 105 104 109 112 113 120 114 113 117 130 125 131 120 129 134 141 135 148 151 153 148 149 163 155 150 168 166 155 172 168 171 184 174 178 185 182 181 187 187 187 185 181 125 84 77 86 90 86 89 93 92 86 85 88 91 88 87 90 87 87 83 82 82 80 77 77 78 75 76 71 69 73 77 79 82 92 102 108 
125 117 110 98 98 91 91 95 99 107 108 110 102 107 106 121 113 117 129 123 132 128 132 133 147 143 146 158 155 148 152 161 164 171 163 158 180 173 172 183 176 176 183 186 186 180 186 191 189 186 156 103 81 88 79 83 82 86 88 89 86 88 87 86 85 88 88 86 83 80 80 79 80 78 76 76 75 68 68 74 78 81 95 100 111 
103 99 94 97 92 91 92 95 103 109 108 109 102 101 104 118 104 114 120 126 136 132 135 141 149 141 142 152 147 159 155 166 172 156 178 178 172 177 175 164 178 184 174 176 187 184 183 188 192 192 186 176 129 88 78 78 80 86 84 83 84 90 85 87 84 85 86 86 84 84 79 77 79 75 74 75 70 70 64 74 75 84 93 104 107 
95 88 92 92 91 96 93 98 109 110 107 105 100 104 112 115 112 112 116 124 125 116 133 131 146 133 136 150 141 166 155 154 166 173 177 178 175 165 175 177 178 181 181 176 173 184 187 186 184 187 190 189 182 150 99 75 77 77 78 83 89 84 84 83 84 83 82 83 83 83 81 77 79 77 79 70 75 70 69 69 75 83 95 102 109 
88 93 87 96 91 91 87 97 106 102 107 101 102 105 108 109 107 115 110 120 114 122 133 130 131 140 137 164 158 155 162 163 165 176 174 163 180 180 168 176 184 174 169 180 185 181 186 191 187 187 187 187 185 186 174 116 77 69 73 79 85 80 78 82 82 82 84 81 83 80 76 78 74 75 75 74 71 69 65 70 78 86 94 105 109 
86 88 95 101 91 88 91 100 100 104 107 102 102 102 106 111 113 106 107 112 119 120 118 128 134 136 146 146 164 161 160 163 163 165 171 172 170 175 175 175 170 185 180 175 179 184 185 184 188 193 188 182 188 190 193 189 149 87 68 77 73 71 73 76 81 79 80 80 79 79 78 76 79 78 72 73 74 71 69 70 78 80 95 106 112 
86 90 90 94 92 92 92 100 107 110 107 101 106 106 111 111 105 97 107 116 106 106 122 120 135 138 146 151 154 163 161 153 172 165 159 168 175 163 166 184 182 177 184 186 177 181 190 189 186 187 191 189 187 188 195 195 193 160 89 66 65 72 71 73 74 76 79 82 78 80 77 77 76 75 73 73 75 72 65 70 74 82 89 105 110 
83 84 86 94 92 98 94 96 105 93 103 109 106 108 109 110 100 101 114 110 124 114 123 125 119 140 133 149 151 144 162 152 156 173 176 169 168 180 183 177 182 185 180 180 187 183 185 186 191 187 186 185 192 191 193 194 194 196 165 98 61 65 62 65 67 72 76 81 75 80 76 73 71 74 76 79 73 69 65 69 73 83 94 105 113 
83 86 89 96 102 91 96 104 95 92 103 107 106 111 110 105 107 116 109 112 107 119 112 123 131 122 141 135 149 144 142 159 171 160 168 176 168 173 178 185 180 178 186 182 180 187 192 182 187 188 186 187 187 189 189 182 180 189 198 177 126 115 82 59 64 67 71 78 75 78 74 74 74 71 69 74 67 67 65 66 75 78 94 110 118 
88 89 84 92 87 99 98 92 94 102 108 100 104 98 109 113 111 111 106 108 115 101 120 126 124 126 127 145 130 153 164 153 166 172 169 169 179 177 168 177 184 180 175 183 184 186 184 187 188 184 182 186 184 171 176 189 197 206 212 217 218 215 189 95 53 59 68 76 72 74 76 72 68 71 71 73 70 70 65 69 75 83 97 109 114 
88 83 85 80 98 90 99 88 97 104 100 100 96 103 108 105 109 107 105 114 114 115 121 122 121 126 124 139 149 148 151 171 169 166 180 181 171 167 183 176 167 183 186 182 173 190 188 179 182 182 173 173 184 195 206 206 208 211 211 214 221 224 224 180 67 52 55 68 70 75 71 68 67 67 69 71 69 69 62 70 74 78 94 108 116 
81 81 87 93 93 91 92 93 94 101 100 99 91 105 100 107 103 113 105 104 104 114 130 107 123 128 138 140 125 159 161 159 175 178 168 166 182 171 167 178 184 175 179 183 185 177 174 176 170 176 190 203 207 204 204 211 206 206 209 211 214 222 225 218 127 49 52 62 66 70 68 72 67 70 70 65 67 67 64 68 78 80 96 102 114 
81 90 93 88 91 91 90 89 95 83 98 95 103 99 114 98 108 98 110 104 107 114 112 111 105 126 122 136 149 143 152 171 174 162 177 179 169 171 185 172 167 180 185 174 167 160 168 179 192 204 207 207 201 204 203 203 208 202 205 210 208 217 222 222 196 93 48 55 61 69 65 69 68 67 66 70 68 66 61 66 75 79 96 105 114 
93 91 86 90 90 92 84 94 87 97 95 102 102 105 108 114 105 118 98 111 107 113 114 105 122 117 127 139 134 153 155 155 174 174 168 172 180 185 176 177 180 166 163 156 163 178 196 204 206 202 204 203 201 201 204 201 203 205 197 201 208 211 219 219 223 180 66 50 54 59 62 61 67 63 64 68 64 64 63 62 75 80 93 101 109 
89 88 90 89 85 90 85 85 94 97 102 107 98 110 116 104 111 108 111 105 114 122 110 118 107 128 134 128 139 145 151 162 170 154 173 170 168 175 183 172 141 149 160 183 200 203 211 203 200 195 197 200 203 203 198 200 198 204 207 198 202 210 212 219 218 215 147 57 45 50 59 62 67 64 64 69 64 62 58 64 72 79 91 101 111 
84 80 96 84 86 84 84 87 98 94 103 94 107 106 110 105 100 113 102 110 116 109 114 116 127 118 125 134 125 146 148 147 163 168 161 161 179 166 149 148 148 179 191 205 204 204 202 200 197 193 197 202 197 199 200 195 201 198 200 206 197 203 204 208 223 218 211 136 50 47 48 57 60 66 63 65 63 65 61 64 71 80 90 103 112 
84 90 86 80 80 89 94 90 100 99 87 102 107 118 103 110 116 107 114 113 117 118 113 124 122 124 121 129 140 134 143 164 169 157 165 172 160 132 141 166 184 199 199 202 203 196 196 194 199 201 192 199 201 200 199 198 194 200 197 199 205 208 209 212 221 223 216 198 91 46 48 53 55 55 62 67 63 64 59 63 70 81 92 99 110 
85 85 78 77 84 93 98 101 97 100 103 103 119 109 115 117 112 119 110 119 118 119 116 113 114 112 118 123 129 145 158 153 160 168 150 138 131 157 190 196 196 191 197 191 193 198 203 207 199 195 196 191 195 195 193 193 195 198 207 205 209 208 211 211 220 224 220 218 178 65 44 49 48 54 56 56 58 59 59 64 70 81 92 105 113 
83 72 80 84 89 86 101 98 102 97 103 107 105 114 103 116 117 114 119 123 122 110 104 119 108 120 120 123 143 143 146 169 148 141 128 129 163 192 199 198 200 195 186 195 197 203 203 196 199 192 193 187 182 188 198 194 202 209 211 206 201 204 200 204 209 212 221 218 218 133 64 48 43 51 51 55 56 55 54 62 72 81 93 105 112 
87 86 90 88 91 96 91 106 94 104 101 111 108 98 113 111 116 115 120 122 108 113 114 111 114 116 121 130 128 147 158 145 120 115 148 172 195 194 194 193 194 194 194 195 201 189 196 192 184 188 188 200 193 195 202 196 193 197 192 194 196 198 201 201 206 208 208 211 217 206 159 96 62 43 46 48 50 57 52 58 67 82 93 103 110 
92 87 87 90 89 101 102 97 106 96 108 116 106 116 102 110 116 105 117 110 115 110 104 113 111 123 120 117 140 150 137 111 110 165 178 187 185 195 192 185 197 200 200 189 186 196 190 180 190 184 194 201 197 189 190 187 193 195 195 193 201 204 202 206 205 205 206 210 213 217 222 205 132 51 45 40 48 50 51 57 66 78 92 104 111 
87 87 88 95 100 97 102 97 96 110 102 111 111 102 110 112 116 113 111 108 109 105 107 108 114 110 119 126 140 128 104 130 177 189 181 180 185 182 198 191 187 195 193 192 185 187 193 187 198 181 188 187 191 196 196 196 197 199 198 198 200 202 203 202 205 203 205 209 211 213 218 221 214 140 70 35 41 46 49 54 65 77 88 104 113 
87 88 94 102 103 103 93 108 111 108 119 114 104 122 106 109 110 107 111 101 108 103 98 113 111 116 110 106 114 109 145 177 186 188 188 182 187 189 178 184 186 183 184 186 188 192 193 188 181 189 195 200 188 195 204 199 199 198 200 202 202 199 201 202 204 204 197 207 207 206 206 211 223 213 124 37 33 39 45 54 63 77 95 102 111 
85 88 95 104 97 102 114 105 116 118 110 114 108 110 118 113 109 116 102 109 108 108 104 109 113 107 101 105 124 154 165 181 182 191 190 190 174 184 183 177 182 184 179 186 186 180 182 192 197 197 190 198 201 189 198 200 201 200 198 199 202 195 197 201 204 202 200 206 210 207 209 206 215 216 206 85 23 33 41 52 61 78 90 99 110 
91 94 89 92 109 106 96 115 115 115 114 91 110 113 112 120 109 113 113 100 104 93 98 107 96 98 99 149 177 167 162 172 187 188 188 179 186 177 184 180 176 186 179 166 177 183 192 195 196 195 197 187 198 200 192 198 195 199 195 202 205 200 200 202 202 200 200 197 209 208 209 212 217 210 215 174 41 32 34 46 58 72 90 99 110 
95 94 88 98 93 106 105 111 122 103 96 107 108 105 116 106 110 108 99 108 95 95 95 96 91 115 157 160 184 172 174 176 179 178 182 177 181 186 173 184 178 168 176 179 188 191 188 194 196 196 198 199 191 205 194 189 201 201 198 199 201 199 199 199 196 195 195 195 201 207 211 209 218 217 221 209 101 59 31 41 55 70 85 98 110 
89 99 93 96 103 110 112 118 97 104 105 105 104 116 106 113 108 101 101 96 100 81 80 85 131 158 153 174 175 192 176 179 166 173 175 184 185 179 174 159 181 183 186 189 182 188 192 187 193 197 197 198 191 193 201 193 195 197 197 197 195 194 191 194 201 199 201 198 203 206 209 210 211 219 223 225 196 88 27 39 50 72 90 100 109 
96 94 98 105 104 115 103 102 106 105 104 109 108 108 114 112 108 98 94 98 80 78 96 152 166 168 170 175 175 182 177 166 174 168 181 176 172 160 163 180 190 191 183 190 190 183 182 190 192 196 199 199 194 192 197 198 195 198 197 193 181 192 195 198 204 206 202 199 200 205 206 207 207 213 220 223 223 176 33 32 47 70 87 99 107 
94 101 97 104 102 100 109 118 111 108 105 100 108 108 112 96 80 96 91 86 80 116 145 142 171 178 180 164 172 163 170 179 179 185 161 148 151 174 178 181 183 186 189 186 187 193 184 188 192 188 197 194 194 191 196 192 194 187 189 198 199 193 194 199 200 200 206 202 193 203 204 204 209 210 221 223 222 210 67 28 50 65 86 101 110 
97 99 103 110 107 102 100 115 106 90 102 106 111 107 91 84 91 87 83 92 122 155 161 153 173 186 176 168 153 156 161 176 183 170 158 167 179 172 178 177 186 184 186 191 180 187 189 186 188 187 186 195 196 189 187 185 188 199 199 195 202 199 189 194 200 200 201 205 199 202 204 203 205 208 210 222 219 219 126 28 42 63 82 99 108 
99 101 95 110 102 99 109 92 93 105 108 110 103 91 93 87 71 73 106 140 145 149 171 171 160 176 156 161 163 160 164 162 152 164 179 178 174 174 167 179 185 186 182 184 187 178 189 184 184 187 190 188 185 179 186 190 193 198 199 196 194 201 199 192 196 200 202 200 202 203 200 201 204 205 207 214 223 223 188 51 40 57 79 95 106 
93 104 96 92 104 98 78 95 109 105 107 97 89 104 82 76 77 110 147 155 157 164 175 151 144 157 162 157 163 171 146 147 156 174 172 175 170 175 179 173 184 183 180 187 183 186 178 186 179 183 178 176 180 190 197 193 194 194 198 197 192 189 199 198 188 195 199 200 199 200 198 194 197 199 202 211 220 222 215 129 38 51 78 94 109 
104 88 85 99 80 77 100 104 107 102 99 97 92 80 76 80 123 141 143 165 165 162 155 145 139 144 154 179 161 148 165 165 168 154 167 169 179 182 173 182 179 183 173 181 186 186 185 177 177 171 174 188 193 190 193 191 193 196 196 190 192 191 187 192 190 189 198 200 196 196 200 200 200 205 200 203 212 222 220 199 80 45 72 92 106 
88 96 89 80 91 99 104 103 95 92 99 81 80 76 73 130 149 156 154 167 158 147 144 146 145 151 165 143 145 166 175 171 164 156 154 181 178 184 175 171 176 172 182 172 182 187 180 166 171 189 186 186 189 191 187 185 188 194 193 188 193 194 190 189 194 192 197 200 202 198 203 204 202 202 200 201 207 212 217 217 162 53 67 91 105 
90 79 86 93 106 114 94 83 96 101 85 79 76 85 126 139 153 159 167 152 141 141 143 150 163 150 146 165 167 158 164 166 165 163 174 167 187 174 184 174 170 167 173 183 168 162 163 178 191 190 191 184 185 188 189 180 174 187 195 193 190 193 195 196 195 196 198 203 199 197 197 196 195 197 198 200 201 204 208 215 206 101 65 89 104 
78 90 95 95 103 99 93 98 105 95 82 71 89 139 138 139 157 156 148 147 137 132 155 162 140 151 165 166 169 161 155 159 170 178 176 170 166 177 168 180 174 179 165 160 157 173 183 179 184 189 189 191 180 182 191 190 186 178 189 194 193 189 191 194 201 196 190 191 185 189 196 198 199 196 200 199 201 201 204 210 214 182 103 87 98 
94 82 91 104 100 113 110 103 96 74 67 97 119 132 155 146 141 135 138 137 152 158 135 135 149 171 165 164 162 163 157 170 170 178 168 172 171 163 175 166 178 162 151 153 163 184 173 177 181 186 189 188 187 180 179 188 188 188 182 190 195 193 187 179 186 167 182 190 185 193 196 196 197 192 200 197 199 200 199 205 209 210 191 135 98 
89 94 96 103 99 90 93 95 72 59 100 137 139 128 139 155 125 119 129 153 160 132 136 152 157 154 171 161 156 173 173 159 159 165 175 167 165 168 162 176 151 148 154 166 179 181 174 167 172 182 181 186 188 187 185 186 185 188 190 183 194 197 185 149 147 180 193 193 191 190 197 192 195 194 193 195 196 194 195 198 207 207 211 206 141 
94 93 95 90 82 89 95 77 70 102 123 130 140 142 117 121 131 120 140 145 123 141 160 158 151 152 154 167 171 163 178 160 156 158 163 171 164 167 166 146 143 162 170 165 163 179 177 176 167 178 180 180 185 186 178 189 194 188 188 192 192 183 158 146 169 182 187 191 192 194 198 192 194 195 194 191 190 188 191 195 198 204 207 209 194 
97 97 88 85 94 86 78 77 105 123 141 133 134 132 116 112 116 153 121 108 140 152 156 155 155 160 165 156 162 159 153 165 161 154 168 160 175 165 143 140 156 178 174 169 163 170 179 179 172 172 181 178 175 183 175 184 192 193 191 192 184 142 147 177 184 181 184 189 193 190 192 193 194 193 192 192 191 189 185 190 192 194 200 200 205 
87 74 84 90 83 83 75 107 111 127 133 138 115 119 120 132 128 103 120 135 138 148 151 154 162 162 159 152 147 147 154 152 177 173 157 165 147 145 153 167 164 158 172 173 165 168 162 158 178 173 159 167 179 180 182 181 191 194 192 171 154 165 172 179 178 185 188 190 188 188 188 184 191 188 189 190 190 189 189 181 188 188 189 200 202 
73 87 92 83 82 85 115 121 119 123 126 123 117 117 129 136 100 121 137 144 141 128 152 166 160 157 145 147 147 146 143 169 166 176 166 137 131 153 172 160 157 161 154 172 170 160 163 163 154 165 171 157 166 183 186 180 170 176 166 152 172 178 183 177 177 172 175 183 180 186 188 186 182 184 181 180 187 189 188 181 178 186 180 185 194 
94 93 91 84 79 115 128 118 128 114 114 113 117 141 110 98 119 129 134 135 141 148 145 153 156 151 150 145 146 159 161 141 169 153 146 128 149 165 160 156 159 155 163 158 161 167 152 172 163 151 169 174 170 179 158 152 141 159 162 172 180 169 166 163 172 173 179 186 180 185 190 187 178 174 181 179 179 183 182 181 172 178 177 180 185 
95 93 79 75 106 119 120 125 130 113 103 116 132 112 97 116 126 138 132 129 147 152 131 128 141 147 151 159 152 150 166 154 131 136 136 164 160 153 160 163 162 163 153 158 158 154 167 157 168 167 168 179 174 178 154 153 170 174 172 179 172 158 164 180 180 186 178 188 184 181 184 181 172 170 175 179 178 174 180 177 173 174 182 175 176 
88 77 74 107 122 114 124 125 117 112 113 118 110 97 112 125 123 120 141 149 138 133 143 136 139 140 162 167 168 148 144 149 127 150 162 156 161 156 149 155 168 160 155 161 155 149 157 168 156 176 185 177 167 161 165 167 164 165 170 180 180 179 172 176 182 183 181 178 183 176 165 175 169 169 173 176 176 170 176 173 171 163 174 171 174 
80 70 104 116 124 119 114 109 112 120 124 97 95 112 120 117 126 127 128 147 124 125 133 141 145 157 145 157 164 157 131 128 142 155 169 160 146 156 157 151 151 163 155 159 155 152 148 151 168 166 167 164 165 168 169 169 170 172 164 165 176 178 184 174 177 181 179 178 169 170 168 155 163 171 174 175 164 174 169 173 164 153 155 169 170 
77 96 112 117 122 121 107 104 118 138 94 103 117 127 121 122 125 137 115 111 133 121 139 156 158 153 157 141 134 135 132 159 161 143 152 155 149 153 156 166 154 144 162 158 155 159 149 156 148 161 159 159 174 176 170 163 166 167 157 166 173 174 183 180 173 175 177 169 169 161 156 160 155 168 173 173 169 161 160 162 150 143 153 176 195 
99 114 105 119 121 107 110 117 128 89 89 112 123 124 121 129 134 121 103 112 112 134 141 143 165 152 147 138 111 138 163 160 160 154 140 140 159 156 154 162 167 154 149 160 157 155 152 143 152 150 155 167 165 165 162 158 168 172 169 159 167 174 181 181 178 167 161 165 168 173 162 154 163 151 170 169 168 150 159 138 145 162 190 194 179 
119 104 115 117 107 114 113 128 84 92 109 120 116 121 128 129 126 111 107 120 125 120 139 134 134 156 130 125 138 152 153 161 155 148 147 142 144 158 158 156 156 162 151 140 130 148 163 148 141 149 160 156 160 144 155 165 161 170 174 173 158 171 177 175 171 165 158 160 165 163 173 167 152 161 151 165 159 144 142 149 187 196 185 170 170 
115 108 101 110 109 127 114 79 87 114 118 123 122 121 130 118 124 114 124 132 138 114 110 146 131 116 125 145 158 157 146 142 144 153 149 147 146 138 150 159 150 139 141 147 143 141 140 152 156 151 142 141 147 160 153 156 164 159 174 173 170 161 167 167 160 161 157 150 166 168 167 165 150 153 137 154 145 147 169 194 192 167 171 183 180 
109 109 100 106 119 121 81 86 105 112 121 120 128 119 114 114 115 131 133 114 119 121 116 125 125 118 136 147 152 154 149 143 141 140 152 148 153 149 134 143 155 144 139 147 144 149 149 141 144 130 132 144 150 157 158 156 157 154 156 174 171 165 158 159 162 158 156 150 148 163 171 159 153 133 136 138 162 186 189 168 169 178 180 185 190 
104 100 107 111 113 80 90 105 108 108 120 127 116 115 107 115 129 117 126 119 137 133 123 105 125 149 130 136 143 136 138 152 150 139 146 149 146 147 139 133 130 159 148 140 144 151 141 125 139 148 147 152 149 148 159 158 149 151 147 161 171 163 158 147 153 157 158 144 154 149 162 154 142 131 147 177 191 170 165 172 170 177 191 200 196 
89 105 116 97 90 87 96 113 119 113 114 116 113 110 118 114 112 102 124 131 130 128 110 123 122 138 145 135 123 129 134 139 163 145 134 138 134 138 145 143 142 134 151 150 118 126 138 154 141 138 148 140 149 151 148 155 148 140 154 148 152 155 150 156 146 152 156 144 147 140 144 143 144 168 188 176 154 158 174 175 189 193 200 197 194 
101 108 102 79 97 99 116 114 112 126 107 105 112 121 104 105 113 125 120 125 112 104 125 137 143 126 131 134 134 128 132 139 138 140 130 134 135 141 139 145 151 142 129 121 119 144 155 142 146 148 152 143 135 151 148 156 146 147 140 149 139 136 145 155 150 139 149 146 127 138 129 148 180 181 164 160 169 173 184 192 196 193 190 188 185 
115 88 83 85 93 116 116 115 117 119 110 108 118 95 98 107 121 125 128 112 103 124 128 135 132 136 123 119 139 145 125 126 128 117 115 131 136 142 146 144 136 127 126 143 141 137 145 146 135 140 147 146 142 137 148 137 147 142 148 134 141 141 139 141 147 136 139 140 127 141 172 183 173 158 161 167 182 192 187 187 184 183 177 171 171 
95 87 90 93 116 108 108 117 122 104 116 105 91 93 104 122 128 115 122 100 121 135 136 129 129 132 124 125 119 139 137 139 133 126 118 106 98 102 84 94 134 137 138 142 143 140 143 135 145 136 134 143 149 141 133 148 137 145 144 144 132 145 146 123 139 132 127 133 164 179 181 151 159 177 171 184 195 194 187 179 176 173 173 175 177 
