P2
85 85
255
85 98 90 117 113 106 108 113 106 109 103 91 105 102 106 128 124 113 95 106 121 129 140 135 121 115 93 100 105 104 114 119 129 123 98 121 120 118 85 43 126 142 135 138 139 134 133 132 138 138 143 136 141 144 131 133 136 131 139 139 139 131 141 129 120 131 137 172 190 159 157 158 173 185 184 186 192 188 179 178 179 181 178 181 183 
92 91 111 117 114 107 110 108 115 101 86 99 106 115 109 108 119 91 122 121 118 123 119 100 68 79 92 87 73 69 65 77 102 108 80 124 120 132 119 77 94 121 126 138 138 142 140 116 117 122 121 125 142 136 140 121 105 90 55 130 134 134 118 128 114 150 180 176 159 151 169 182 185 189 190 186 188 182 177 179 183 183 183 184 185 
91 106 111 106 112 104 101 115 89 88 103 97 107 113 125 98 95 115 122 128 126 113 83 67 91 125 110 105 88 90 80 75 54 62 79 130 146 143 140 118 95 84 82 89 87 95 136 135 134 141 121 85 112 106 120 139 93 112 53 31 108 134 118 119 163 179 166 143 150 166 182 198 194 191 183 182 186 185 185 182 184 182 184 187 186 
108 113 110 105 100 110 101 90 87 97 100 104 106 110 109 96 109 117 121 119 123 104 82 110 111 110 92 89 84 75 70 68 62 37 78 137 147 140 140 108 104 108 101 105 100 74 56 74 96 98 111 86 76 66 35 54 36 69 70 13 52 133 136 166 174 142 137 146 167 181 177 188 189 188 182 183 187 186 186 186 186 182 185 187 188 
111 107 104 106 108 101 86 90 101 95 102 106 101 102 93 108 122 106 116 122 97 80 120 122 108 92 69 75 77 59 48 39 37 33 72 127 131 136 126 110 114 92 81 86 64 59 61 86 57 46 49 48 39 42 23 24 26 21 25 15 34 135 184 157 129 139 151 179 191 191 185 188 187 182 181 185 189 188 182 183 183 183 185 188 186 
103 103 102 107 108 90 100 96 103 100 107 107 99 90 106 112 116 110 107 93 81 104 109 113 91 65 78 85 66 66 79 80 58 66 93 98 108 108 119 103 80 48 42 36 39 56 99 77 31 53 42 24 23 24 15 21 21 20 19 34 110 174 150 124 145 175 187 189 189 187 184 189 184 184 184 188 187 185 185 180 182 187 186 187 191 
103 102 103 102 85 94 100 101 106 100 99 105 96 100 109 114 108 109 100 72 90 111 110 96 81 89 103 80 74 101 106 94 55 48 66 67 62 104 93 57 53 52 34 33 82 88 44 42 43 47 53 23 18 16 10 24 22 29 96 133 170 138 120 143 187 195 196 192 186 187 181 186 181 181 183 185 184 186 185 182 184 185 188 186 189 
103 104 100 90 87 92 100 105 106 106 101 88 96 108 112 105 104 109 73 97 105 101 91 79 86 97 86 86 79 87 61 55 34 42 45 43 69 87 78 84 60 50 66 86 59 49 65 46 36 62 49 33 22 14 11 10 17 68 164 160 117 117 153 172 187 189 189 185 187 185 185 183 185 183 182 187 187 184 185 183 183 185 182 186 190 
108 102 89 92 94 97 99 104 104 99 94 94 105 109 105 106 91 73 91 103 104 101 83 78 101 95 84 75 45 37 27 32 29 27 31 49 77 79 113 69 81 72 105 59 90 88 29 39 26 64 68 15 13 20 12 23 95 161 150 92 105 167 187 176 176 175 180 184 186 184 181 183 181 177 181 179 184 183 182 183 183 184 185 185 187 
102 80 93 95 90 103 101 103 103 95 90 110 107 106 107 97 70 92 99 102 106 97 79 75 71 48 46 50 48 46 29 29 34 29 43 84 73 111 66 61 34 58 65 79 88 48 60 61 19 65 64 11 9 14 43 110 174 134 90 101 161 184 185 173 169 172 172 182 184 181 179 180 183 171 176 183 182 179 181 179 186 184 186 188 187 
89 89 96 93 94 99 106 99 89 85 110 117 104 107 98 96 54 105 106 103 84 68 55 40 38 51 70 58 47 32 22 22 19 31 76 98 88 81 50 19 24 39 83 53 53 72 61 34 13 67 41 14 11 31 120 160 126 94 118 168 176 182 172 164 166 168 177 180 179 179 180 180 174 177 179 178 179 179 181 183 183 184 185 186 188 
87 92 97 94 93 95 101 95 89 95 106 102 107 106 105 104 62 104 101 77 62 43 27 33 73 76 39 31 29 28 18 30 17 59 105 93 89 50 20 13 24 91 69 44 73 76 21 14 14 86 64 16 47 126 158 113 101 133 179 183 181 175 169 166 168 176 176 176 175 178 177 177 174 174 174 179 180 183 178 181 182 185 186 185 190 
92 94 98 99 101 89 93 88 84 110 105 100 100 104 114 110 70 96 83 47 36 28 49 77 54 25 23 19 30 24 18 22 22 87 87 79 50 22 25 24 86 92 42 59 63 28 11 22 18 90 50 60 141 150 108 95 137 178 188 182 174 175 167 165 170 175 171 172 171 169 177 172 170 175 176 176 179 180 181 182 184 184 188 190 192 
91 95 94 91 96 94 86 87 108 99 76 65 70 96 112 106 68 65 42 48 36 55 65 34 35 19 18 34 34 12 18 22 59 107 46 52 25 17 32 86 102 68 63 82 18 15 52 8 29 87 75 139 144 100 103 146 173 186 188 173 170 166 164 169 174 172 171 167 166 169 166 168 172 172 174 177 182 184 180 181 185 187 187 187 163 
94 97 90 89 98 91 84 104 108 106 104 91 74 59 69 86 69 39 37 45 59 47 42 34 31 24 36 46 16 11 15 41 73 71 25 29 27 25 70 80 51 93 93 38 14 70 66 5 53 124 153 121 95 99 148 184 178 186 184 173 166 164 167 169 170 172 168 170 166 167 168 158 168 177 180 179 178 177 179 184 186 184 183 130 29 
97 86 89 84 90 86 99 102 110 108 106 71 45 70 54 43 58 56 43 51 63 49 42 31 22 39 78 26 10 11 25 61 58 51 19 22 22 35 78 42 67 78 49 13 61 120 22 13 105 147 123 89 102 152 183 188 184 179 180 175 170 166 169 169 164 170 169 165 161 162 164 165 164 174 180 180 185 181 179 182 182 168 102 45 26 
92 89 87 91 90 92 108 99 93 85 78 64 38 34 33 52 54 39 62 58 47 38 31 15 22 82 60 14 14 15 40 71 49 25 16 23 38 40 44 26 45 79 20 18 127 97 10 47 136 94 92 108 163 180 186 186 183 180 178 178 171 172 169 168 171 172 162 163 156 163 168 169 166 175 181 182 181 180 178 173 166 146 89 49 56 
95 90 91 85 92 105 97 82 82 83 87 74 72 60 57 38 35 53 65 37 26 20 13 23 51 102 50 11 12 17 42 73 47 16 26 30 23 29 22 20 63 72 11 31 125 54 75 105 81 78 105 170 183 187 182 182 183 175 174 172 170 167 164 170 170 172 163 151 154 167 170 167 170 176 178 176 178 170 165 175 177 162 129 65 44 
103 95 96 86 91 94 98 96 94 85 66 61 59 52 46 45 58 73 63 32 22 15 12 23 59 103 30 14 19 25 41 45 46 23 23 35 23 26 21 17 70 59 15 72 107 95 127 108 54 97 145 177 180 182 181 183 180 171 172 170 164 168 167 168 170 165 158 159 161 171 174 171 171 177 174 170 166 165 174 176 179 171 145 93 62 
88 82 93 100 94 85 81 95 81 66 49 37 54 44 58 58 68 72 44 27 27 21 14 26 77 85 21 15 25 69 20 26 24 29 33 57 61 61 61 36 88 55 41 82 80 94 108 93 96 156 158 176 175 174 175 180 176 172 169 167 166 167 164 167 161 160 162 161 159 172 172 172 170 172 169 173 170 175 180 185 185 174 160 113 72 
73 92 97 95 92 98 105 87 70 37 36 46 37 48 47 57 69 59 46 33 30 26 17 35 55 65 33 32 40 50 17 22 23 23 31 25 34 36 27 24 64 40 43 64 65 76 122 94 154 143 162 169 165 164 172 176 171 164 156 158 159 165 158 158 161 164 162 162 160 164 165 166 170 178 177 176 177 180 180 182 188 182 175 139 94 
102 102 98 91 70 72 103 92 68 41 44 41 30 33 33 49 64 55 42 33 22 25 28 45 35 52 62 62 34 21 22 19 19 19 22 26 22 20 15 14 44 42 70 59 46 75 93 108 125 138 160 165 157 165 168 171 161 158 155 150 166 159 159 162 163 161 160 161 164 154 163 175 181 183 176 178 175 181 181 180 181 181 179 155 110 
103 97 92 91 72 79 83 63 53 45 44 35 27 22 21 43 52 46 40 51 40 33 24 51 19 56 84 76 36 14 19 26 20 23 22 31 19 21 17 17 54 81 76 58 56 111 126 146 152 155 162 163 166 175 173 165 156 153 150 159 161 163 166 166 156 154 163 160 151 160 173 176 181 186 179 182 180 184 181 182 184 186 177 158 118 
99 99 97 80 59 49 54 29 34 65 45 24 22 21 19 27 55 43 47 58 62 31 23 51 20 35 81 103 58 17 21 20 25 20 16 22 19 10 13 39 77 95 47 66 95 135 122 165 168 163 168 170 176 177 169 162 151 144 151 154 155 166 167 160 143 146 155 151 164 173 181 180 186 190 182 181 179 182 182 187 181 182 177 157 135 
99 84 87 93 41 17 27 19 45 52 26 17 22 23 22 24 55 61 36 49 66 32 21 52 28 15 61 97 105 38 24 19 21 18 17 11 9 14 33 99 89 75 63 128 136 130 137 171 166 167 172 178 178 175 167 151 145 141 147 152 159 171 164 151 136 146 154 163 169 174 180 181 184 188 184 184 181 183 184 188 188 186 183 168 138 
85 82 92 92 59 18 14 29 61 31 21 21 17 19 24 19 35 56 46 37 56 46 20 58 32 12 24 66 119 72 66 69 30 10 14 10 13 28 107 125 69 73 129 157 132 107 142 176 163 169 179 182 183 168 155 148 145 140 147 157 168 170 157 143 141 149 151 166 168 176 182 178 182 189 186 186 186 188 190 191 191 191 189 176 148 
78 80 71 67 55 16 19 54 64 18 16 13 25 22 24 22 25 34 56 41 42 44 33 60 39 27 30 45 126 40 25 32 21 15 10 7 21 109 127 83 84 136 165 141 140 108 130 171 163 156 181 175 172 161 152 146 145 144 151 166 174 153 131 135 145 150 159 168 173 177 182 180 185 189 189 186 187 190 191 199 198 196 196 182 160 
57 48 36 46 51 28 20 68 48 17 17 15 32 21 33 21 24 21 40 46 34 34 39 60 35 44 27 36 117 46 15 12 12 9 7 15 90 142 83 83 136 171 148 143 142 118 131 154 149 155 180 164 168 155 155 155 150 148 155 165 137 122 136 142 151 157 166 168 177 178 186 182 187 188 188 187 186 189 194 195 198 199 199 190 171 
52 49 22 33 33 17 23 83 36 20 17 27 41 29 30 21 22 31 21 31 37 28 28 66 67 74 27 20 86 75 14 13 10 11 14 77 137 97 80 131 161 154 147 145 147 122 140 166 151 168 182 179 166 151 152 155 156 156 155 133 121 136 141 146 151 159 171 166 177 178 183 182 187 185 188 187 191 195 196 194 198 196 200 191 176 
56 29 23 26 16 15 27 80 25 13 20 47 32 28 27 18 27 29 18 25 37 26 23 51 82 98 49 24 53 103 17 8 9 13 68 137 103 88 124 168 152 167 155 146 153 126 139 156 160 171 182 182 162 151 154 156 151 145 125 122 126 139 144 145 155 165 175 174 174 180 186 185 183 190 189 187 190 197 196 198 197 201 199 191 181 
24 25 36 27 13 16 15 74 30 24 28 30 24 38 19 25 29 29 26 34 28 14 36 62 63 51 70 58 67 141 50 7 11 53 128 104 87 114 171 150 162 168 166 161 164 134 136 147 154 176 190 183 154 152 153 144 141 123 123 130 133 143 147 145 155 165 171 176 177 178 180 185 187 190 192 190 189 194 196 197 198 199 199 197 185 
26 47 60 17 17 15 15 54 56 41 34 25 35 33 20 25 29 21 29 48 30 13 23 75 45 45 41 18 29 124 42 7 38 118 113 84 101 160 150 151 163 176 173 165 166 130 123 147 158 181 188 166 148 144 147 145 122 127 129 137 143 147 149 148 155 166 170 178 179 180 182 185 186 190 189 191 192 194 195 197 200 200 200 200 193 
32 74 53 11 18 18 13 30 72 31 18 27 59 31 20 24 22 17 41 38 35 18 22 46 22 53 24 9 9 81 82 26 110 117 85 100 151 139 144 157 161 178 173 175 168 134 108 159 173 183 170 153 140 138 141 124 129 134 133 143 147 150 151 153 153 161 166 177 177 177 182 185 183 192 189 190 190 194 197 198 196 202 202 203 195 
12 69 33 13 45 22 20 11 29 50 24 58 50 21 14 24 23 14 56 23 52 22 18 20 32 72 27 8 5 28 85 99 130 89 90 141 145 139 137 145 165 178 172 176 172 148 107 158 179 171 153 141 133 127 127 127 131 135 138 145 149 146 152 152 157 160 166 174 178 181 181 186 184 184 187 189 189 192 195 197 197 200 200 201 199 
11 81 39 26 44 16 27 16 18 31 74 70 30 15 14 30 13 19 69 14 31 46 26 26 22 100 37 7 6 15 68 111 83 83 140 158 134 137 138 142 155 176 177 172 174 163 134 167 168 148 148 135 126 133 140 134 133 139 139 146 150 149 151 154 159 156 163 173 175 179 182 181 180 182 182 187 187 191 190 194 196 197 199 200 193 
13 87 56 29 17 26 20 41 35 77 60 42 25 11 18 31 14 25 64 13 27 74 30 19 61 47 16 18 11 50 113 75 69 128 161 140 143 147 137 140 156 178 180 171 176 167 161 169 159 147 131 125 134 137 139 138 138 141 142 148 156 153 152 156 155 152 158 168 171 176 183 182 180 179 183 186 187 188 191 193 196 197 200 198 197 
17 88 74 15 14 18 16 43 69 60 48 33 16 18 18 29 20 40 49 10 20 85 21 17 70 19 30 20 27 113 95 59 119 170 144 152 160 153 140 137 157 177 179 176 177 170 169 163 124 84 96 113 119 126 134 139 141 144 149 153 153 155 158 155 154 155 161 163 168 174 179 180 179 179 179 181 184 188 189 190 192 196 200 197 193 
33 99 56 9 19 25 34 38 28 27 30 16 13 18 18 25 24 39 24 10 46 79 19 37 55 36 17 18 91 124 68 93 175 154 146 162 170 151 132 129 155 179 182 185 179 179 159 80 41 58 74 80 95 103 106 114 127 141 147 150 156 159 157 153 153 152 153 161 161 170 180 182 180 175 173 180 181 185 187 186 190 194 194 194 189 
55 114 47 9 24 16 22 24 27 30 33 19 20 30 21 21 36 45 34 23 46 60 29 48 23 11 11 68 124 76 78 156 160 150 161 173 179 142 132 137 167 179 186 185 184 143 72 66 75 75 69 63 65 53 62 75 86 108 130 144 154 162 156 153 153 153 148 154 163 168 176 178 178 170 172 176 178 181 187 186 190 193 191 187 173 
67 111 53 7 17 13 33 50 41 26 46 32 19 28 18 17 15 44 71 24 60 39 37 41 13 14 42 121 96 71 139 156 153 162 169 185 173 135 133 149 174 179 186 182 131 90 100 116 113 114 104 93 80 60 33 35 35 52 69 105 130 150 152 153 157 152 150 151 155 169 175 177 178 168 171 173 175 178 186 184 184 184 172 143 113 
58 76 71 9 15 29 56 37 33 53 46 48 21 25 13 15 10 17 54 62 81 17 56 24 8 18 98 128 75 127 174 145 157 167 183 187 154 128 144 165 181 188 178 113 83 101 114 123 116 112 130 126 108 88 74 53 45 35 32 40 67 112 138 145 145 140 146 151 156 166 172 173 173 169 169 180 176 172 177 166 151 117 85 68 52 
23 51 103 18 17 21 40 28 16 20 49 75 34 13 10 15 15 13 34 54 89 21 41 8 7 62 132 98 107 171 151 151 164 177 190 179 140 134 158 180 189 172 94 81 92 93 106 105 106 72 118 130 116 90 96 62 63 55 49 47 50 70 104 137 137 139 141 143 149 163 168 175 176 171 169 172 168 162 161 123 83 55 60 73 73 
8 22 90 37 19 23 61 21 15 13 40 81 45 15 11 13 22 14 15 15 32 51 9 8 33 125 91 89 166 159 150 160 177 186 189 166 147 150 173 191 158 74 65 74 70 72 79 79 75 26 67 115 80 61 65 68 88 68 75 65 69 67 90 115 125 127 136 136 145 163 172 177 179 175 170 174 164 147 126 89 87 78 85 82 56 
8 17 59 57 16 26 65 18 14 12 27 65 80 22 19 19 16 18 20 16 13 22 19 9 89 120 74 144 169 150 155 169 186 192 186 170 156 168 190 144 54 53 54 51 59 36 33 35 30 16 29 46 24 20 25 52 86 64 92 85 81 81 89 101 116 127 129 127 142 158 175 175 181 177 174 172 166 134 109 96 87 52 40 25 20 
15 23 52 49 25 21 77 18 13 11 17 30 95 76 28 17 17 19 21 13 13 16 6 50 135 89 108 179 151 157 163 178 191 189 178 173 170 188 133 43 42 38 31 22 26 23 22 19 18 20 24 26 24 16 10 14 27 85 106 92 90 88 93 103 110 118 125 130 140 160 173 177 182 185 182 174 150 107 59 39 27 19 22 21 17 
17 21 50 16 46 26 86 21 16 12 10 12 44 95 89 43 10 12 18 17 15 10 18 110 110 86 169 160 148 160 167 180 193 185 178 179 182 141 42 31 30 19 20 21 22 24 18 14 16 16 37 67 57 27 17 14 12 27 74 102 96 90 91 99 106 114 119 128 140 162 175 187 187 191 185 159 90 40 29 25 30 22 39 39 24 
11 29 48 20 36 38 94 33 22 20 15 15 17 52 86 71 57 27 14 10 11 9 71 130 72 139 178 149 155 161 169 189 192 187 179 187 144 42 40 33 22 17 20 19 20 18 17 15 24 27 70 150 150 88 36 13 12 13 41 88 98 89 90 98 100 109 117 125 137 161 177 192 194 197 175 80 23 24 19 28 33 50 86 106 63 
16 28 30 14 23 17 79 60 22 19 17 18 20 24 27 19 40 55 24 9 7 24 120 92 92 179 151 154 165 164 174 196 190 186 192 154 55 52 42 26 17 11 26 49 29 34 28 9 30 48 56 173 188 168 126 43 25 59 40 79 87 81 86 95 101 110 111 125 138 156 185 199 204 195 111 31 23 22 19 24 42 119 91 143 101 
21 20 17 16 20 14 49 88 33 19 10 15 17 29 22 15 27 28 14 29 40 78 117 68 163 172 150 162 172 175 190 194 192 191 171 70 65 53 33 21 19 14 35 73 48 47 62 26 40 67 39 173 190 189 176 109 37 75 64 63 81 75 84 90 99 103 106 122 143 166 189 207 207 152 62 39 30 48 24 27 43 62 83 155 123 
21 23 21 23 15 14 31 99 40 18 19 16 19 30 16 12 16 13 15 12 40 93 63 107 164 134 128 145 165 185 193 191 188 177 90 71 82 72 56 49 26 14 38 72 88 39 54 59 55 31 97 198 199 197 192 147 64 53 82 57 72 74 80 84 94 99 112 130 146 170 195 206 197 112 60 81 38 68 61 53 64 36 114 149 121 
18 25 22 34 19 18 23 65 28 20 25 18 16 26 20 15 11 15 23 26 89 85 72 153 137 147 160 175 186 192 188 188 178 92 78 84 94 92 88 81 59 16 25 68 86 82 46 31 42 94 176 193 193 189 177 135 94 65 86 75 74 86 78 84 94 103 111 129 147 182 204 209 187 82 77 107 87 52 65 66 46 89 159 148 113 
30 20 18 29 19 14 18 35 23 28 28 18 17 22 18 14 12 8 26 67 119 66 129 167 130 158 168 183 188 191 187 170 89 81 86 82 86 104 105 99 83 53 50 63 81 101 96 90 117 167 183 190 196 191 158 108 115 91 78 95 80 78 84 90 91 95 105 126 152 189 212 210 173 79 60 91 112 95 72 77 108 161 160 146 103 
34 35 18 19 10 13 21 23 21 31 25 21 23 35 19 15 11 11 31 114 77 93 183 154 148 165 176 191 193 190 170 78 75 87 90 95 90 106 113 110 104 94 71 66 68 83 99 115 127 139 155 164 164 158 157 133 112 95 94 95 86 81 80 90 92 88 110 126 153 185 212 210 169 106 78 75 88 115 115 122 137 145 133 112 71 
49 57 19 20 13 19 19 21 19 20 18 22 28 22 12 10 9 10 78 114 61 149 172 147 158 173 185 195 190 173 76 67 80 95 93 100 98 105 109 110 112 107 91 98 91 71 81 62 91 103 102 109 99 125 145 151 155 141 109 87 86 85 90 88 92 92 107 121 151 182 212 213 176 151 142 128 112 118 100 93 109 112 73 52 37 
114 24 13 18 23 23 16 20 21 17 18 28 24 15 12 9 9 41 119 74 88 174 144 156 167 178 189 193 177 73 60 73 90 98 100 109 103 110 112 112 110 112 112 113 98 84 90 69 96 105 99 89 92 123 120 130 131 117 102 85 84 92 95 88 89 88 105 118 142 176 210 216 182 144 127 115 107 105 85 82 84 81 56 41 38 
41 14 27 24 18 25 23 17 23 21 21 28 23 16 9 6 16 102 112 70 129 153 148 163 167 186 195 181 78 48 64 80 92 98 103 113 110 115 115 120 113 107 112 118 107 106 103 95 99 106 107 105 119 126 129 124 117 121 118 89 86 96 98 92 90 86 95 120 138 177 207 216 190 156 136 125 110 100 94 99 92 94 80 62 52 
61 44 35 14 21 21 20 19 21 25 22 19 19 13 13 9 56 126 82 92 169 147 157 171 182 196 192 83 47 58 74 83 90 102 110 117 122 121 119 122 123 123 121 116 109 113 111 108 110 113 122 124 130 136 137 132 134 136 111 95 95 100 99 91 87 88 90 114 141 176 201 214 195 169 154 137 127 115 107 103 94 90 85 72 69 
77 30 24 20 17 20 17 18 16 25 23 23 25 17 12 25 111 101 69 126 161 164 170 180 195 197 104 37 57 71 75 83 97 97 107 117 121 123 125 131 133 132 132 128 121 123 128 123 131 134 138 141 144 139 143 134 141 132 107 93 99 106 99 87 90 89 89 113 137 167 201 216 196 174 164 142 131 127 120 112 95 93 94 86 79 
56 18 21 23 20 25 18 17 18 22 28 26 28 23 21 69 122 68 87 156 160 172 178 190 202 127 33 46 63 76 81 86 94 102 105 117 119 126 127 135 141 134 139 148 148 140 138 140 139 149 151 147 145 139 146 138 141 124 105 101 111 107 99 92 91 90 89 111 141 168 199 213 202 176 165 152 137 129 124 119 105 99 94 88 82 
35 37 33 26 20 26 24 21 17 23 25 26 22 24 29 120 95 74 138 158 168 179 184 193 154 30 38 52 70 76 85 87 90 104 102 112 120 125 127 133 145 135 140 147 152 147 143 142 143 148 148 144 142 147 147 141 130 121 108 103 109 101 96 89 91 89 85 101 127 168 192 214 204 177 164 158 143 131 122 115 106 100 98 93 87 
92 72 57 51 15 23 25 17 21 21 21 20 18 18 82 124 69 87 165 158 179 180 196 180 46 23 39 57 75 78 83 89 91 97 104 111 121 120 127 132 141 145 143 149 152 148 156 152 151 147 143 145 152 153 150 139 128 119 114 107 110 107 98 90 96 85 85 97 124 161 192 213 208 184 161 153 151 135 119 111 106 101 100 95 88 
117 103 79 51 24 24 22 25 23 22 22 23 19 32 125 97 79 124 167 174 183 193 199 71 13 25 46 60 76 79 84 87 90 99 105 112 118 118 126 132 140 147 147 149 158 151 144 156 154 157 155 151 152 154 149 143 133 120 115 117 112 107 99 94 94 88 91 98 118 154 194 212 206 187 160 146 139 137 129 117 105 98 94 90 91 
110 110 79 42 25 19 22 23 20 21 20 15 21 76 122 83 92 157 161 180 186 203 121 14 14 29 57 68 80 84 86 89 93 94 102 112 111 120 125 131 139 142 148 150 156 156 153 153 155 152 154 155 156 149 142 135 127 125 117 113 110 108 102 93 93 91 87 95 119 152 191 210 211 192 161 146 140 135 129 119 107 101 96 89 90 
101 113 81 75 24 22 19 21 14 24 18 12 37 125 101 84 128 178 176 176 191 161 23 16 22 33 56 71 82 82 86 86 87 95 104 107 115 120 122 126 135 145 150 152 156 155 157 161 156 153 149 154 149 148 142 136 131 121 116 115 115 111 105 98 96 86 94 96 118 143 189 214 215 195 160 145 136 134 131 119 113 107 96 94 89 
97 100 127 82 25 15 16 14 12 18 11 8 77 115 80 92 176 175 181 180 191 56 17 21 22 39 59 75 78 82 88 90 91 95 94 102 112 114 114 123 132 140 143 148 151 156 155 161 161 150 147 150 147 148 136 131 125 120 113 110 115 108 102 96 88 89 95 97 112 146 183 208 214 200 162 144 139 136 126 120 114 107 96 96 90 
94 74 137 119 55 13 15 13 10 11 7 28 120 94 84 119 179 179 188 199 111 23 21 28 24 34 57 71 84 81 83 91 96 93 96 104 110 110 115 122 123 128 137 139 146 153 155 153 161 152 148 151 145 141 136 131 123 109 109 104 112 104 101 92 85 92 92 100 115 136 173 205 215 202 163 144 144 132 129 122 114 109 100 93 90 
89 62 80 151 120 49 18 12 15 11 13 68 114 74 90 164 176 189 202 170 29 12 24 29 22 35 55 69 78 84 87 88 93 94 102 103 110 115 116 121 122 127 135 139 143 150 150 153 153 151 144 146 144 140 135 128 120 114 106 103 103 104 97 90 86 86 92 96 114 129 155 200 216 205 164 141 136 134 123 117 122 109 102 95 94 
113 96 41 80 140 124 25 15 15 13 17 105 97 76 109 191 190 196 201 66 12 12 27 36 24 38 52 65 74 79 88 91 91 94 97 105 103 113 119 120 126 124 130 139 142 152 148 149 149 149 142 145 140 137 134 124 120 107 98 99 98 103 95 87 88 83 89 99 105 128 156 195 213 209 170 134 134 131 126 114 115 104 102 96 93 
143 133 55 33 96 131 40 7 9 6 55 120 85 85 153 192 196 199 131 15 12 10 28 42 20 29 50 64 74 78 84 93 91 96 95 98 107 109 115 119 126 127 131 130 135 141 148 139 145 147 144 145 141 136 135 127 120 103 97 97 98 96 94 91 82 82 87 92 98 130 156 193 211 214 183 139 140 128 123 113 112 105 98 96 94 
162 164 86 20 55 106 31 6 3 13 104 105 88 100 174 193 198 163 22 10 11 10 33 47 25 32 49 67 70 79 87 90 92 90 93 99 99 108 114 119 124 122 129 134 128 134 142 141 144 142 143 141 135 134 130 123 117 105 100 94 95 96 91 88 84 82 85 88 105 125 151 180 209 219 197 129 132 126 122 116 112 108 98 93 93 
157 170 110 16 29 55 7 6 5 42 117 83 87 132 192 198 190 49 14 12 10 11 31 57 29 36 46 63 72 78 92 83 90 92 97 100 100 106 114 111 121 118 127 132 127 129 131 134 140 137 140 135 137 138 130 121 111 103 98 94 92 93 91 86 82 82 84 88 101 121 139 169 209 221 205 136 134 125 123 115 113 104 100 95 92 
56 103 74 16 15 25 10 14 10 83 107 87 98 181 198 195 93 11 16 14 10 10 39 65 28 39 49 60 71 80 83 90 92 91 95 97 101 106 108 113 117 118 118 121 126 126 124 131 136 138 133 133 134 128 124 114 109 100 90 89 86 94 99 85 84 85 78 90 98 120 137 161 207 223 207 145 130 127 121 119 113 103 102 94 93 
79 66 28 14 19 22 7 28 65 100 81 89 130 191 153 133 22 7 12 13 13 10 41 74 30 36 47 59 68 78 82 87 90 92 95 99 94 100 107 113 115 120 119 119 120 122 129 130 131 137 131 135 130 127 119 115 112 95 82 78 89 96 99 92 87 86 84 93 99 114 138 157 203 224 211 151 118 118 120 121 110 104 97 91 89 
60 39 15 10 19 9 20 104 117 102 80 80 123 136 139 120 36 13 11 13 14 18 42 74 37 37 47 58 74 78 83 88 89 88 95 95 102 103 110 109 111 120 120 117 121 123 125 126 130 129 131 132 131 124 117 108 109 83 69 81 95 103 100 103 103 95 87 89 97 108 137 160 199 224 210 148 116 117 117 116 108 100 94 93 87 
18 11 10 12 12 5 75 148 143 137 134 119 125 167 156 75 10 6 19 17 13 12 45 78 48 33 49 62 74 79 88 83 93 88 92 95 97 103 107 109 109 112 119 119 120 127 125 127 128 129 133 130 129 125 118 114 111 86 68 81 99 105 101 106 107 106 89 81 87 108 134 163 190 212 205 143 116 118 117 109 104 100 92 89 87 
13 13 13 17 6 7 131 147 154 156 155 164 167 160 91 26 10 10 17 17 17 9 46 76 45 34 51 59 75 79 87 88 90 87 90 94 97 107 102 109 107 114 118 117 117 116 121 126 122 129 128 129 128 126 117 113 109 83 70 86 99 97 94 85 97 96 91 80 79 97 117 152 183 194 189 127 117 116 114 112 109 104 95 91 81 
15 18 19 11 5 28 163 160 175 165 174 172 157 84 22 8 7 9 16 21 13 12 43 75 52 40 55 61 74 79 82 81 87 90 89 94 101 100 102 108 107 119 113 118 120 123 120 122 125 127 128 130 127 130 121 114 107 97 79 94 97 87 30 18 37 61 66 81 83 86 98 138 172 186 152 124 118 117 116 110 104 94 91 90 65 
22 25 19 9 7 82 143 150 175 173 183 182 104 14 10 15 12 14 19 20 19 9 41 87 57 43 61 65 70 76 83 82 86 90 91 92 98 99 106 112 110 111 119 117 115 117 118 126 127 128 127 128 128 129 120 117 115 102 80 86 92 80 55 46 66 66 55 54 71 81 91 118 162 172 144 137 117 115 112 106 104 99 96 86 39 
27 32 32 37 53 94 112 132 141 153 166 141 41 10 8 23 22 23 15 18 16 18 46 90 58 41 63 67 77 75 83 85 84 90 90 93 98 98 105 109 111 111 116 117 110 119 119 122 122 122 127 131 126 131 124 117 118 111 93 81 85 89 91 91 93 91 79 75 70 81 89 123 169 158 144 131 123 116 109 105 102 94 95 70 24 
57 80 79 89 113 78 91 91 101 172 176 35 14 10 15 45 62 38 17 15 13 23 45 95 69 46 58 71 74 79 82 85 86 88 94 90 95 98 99 108 110 109 115 111 113 118 115 125 117 123 127 128 128 128 127 120 119 115 108 102 95 84 87 89 93 96 81 81 101 133 157 171 171 153 139 128 123 116 109 103 98 98 88 46 18 
79 89 128 161 109 78 68 89 139 207 91 15 17 16 17 24 36 29 23 22 14 13 50 96 66 45 57 71 76 80 83 84 85 89 90 87 94 95 97 103 106 110 109 111 113 116 114 122 122 123 122 128 128 130 125 125 125 121 115 109 107 96 96 96 107 123 116 110 138 178 184 181 171 151 139 123 120 115 112 103 100 94 76 27 24 
101 133 166 141 68 75 91 118 188 149 26 22 28 28 24 30 35 29 27 24 19 19 49 96 71 47 61 71 76 83 84 84 88 83 89 93 95 98 102 104 108 108 108 111 107 111 118 120 122 125 128 130 128 128 128 124 127 120 117 117 112 107 105 109 124 156 158 124 144 179 182 179 174 154 134 125 117 112 107 97 98 94 57 27 27 
147 162 171 72 68 57 104 172 175 46 23 22 33 34 30 36 37 39 34 24 20 25 47 89 77 56 64 72 79 86 86 87 91 92 93 93 96 103 103 104 104 102 107 106 110 115 121 121 121 121 122 125 128 127 126 122 121 122 120 116 116 112 112 123 141 177 180 143 152 180 183 180 177 150 133 117 113 115 105 103 102 84 27 24 27 
160 175 128 61 62 64 106 186 57 16 17 20 21 23 20 22 29 40 36 24 18 17 30 89 78 58 63 73 75 83 83 88 87 88 87 93 95 100 101 106 107 103 102 104 103 108 113 118 118 120 120 118 122 121 126 122 117 119 119 116 116 117 121 127 154 190 186 158 151 184 187 184 179 147 130 120 111 114 103 101 96 55 21 26 27 
183 173 73 72 59 80 163 93 17 14 18 29 21 21 16 20 24 45 30 21 23 9 31 81 75 70 60 70 75 80 81 86 88 94 92 87 96 99 98 104 101 104 103 108 105 107 108 112 115 116 118 115 120 121 127 121 116 114 120 122 119 122 123 136 163 197 192 167 153 186 191 181 173 149 131 114 114 111 104 104 89 26 23 21 24 
