P2
85 85
255
185 98 68 58 66 136 129 23 15 23 22 29 27 21 23 19 31 43 39 22 20 15 23 75 71 80 49 71 73 79 83 85 91 88 91 90 93 101 97 102 108 100 101 107 99 106 103 105 112 114 115 112 113 115 124 114 119 113 117 120 125 126 129 141 166 198 194 167 147 175 192 184 174 147 121 109 112 107 106 100 63 22 22 23 25 
131 68 57 64 107 160 23 16 13 34 42 25 24 17 24 24 25 45 44 27 18 11 19 79 67 76 47 59 73 74 86 84 88 89 90 92 95 99 100 104 108 102 105 100 99 102 102 106 105 107 111 112 112 109 116 110 112 113 114 116 122 124 130 141 168 193 199 174 168 195 191 184 176 150 115 106 106 106 106 96 30 18 20 21 38 
61 74 67 94 163 63 23 17 15 50 58 26 24 15 26 22 27 39 55 34 15 13 19 70 62 76 52 56 69 74 79 86 88 89 93 91 92 102 99 101 102 104 103 101 99 100 105 108 107 101 106 110 103 103 111 114 112 106 110 121 127 133 130 131 132 147 153 179 180 155 139 136 154 145 102 94 100 108 105 68 25 20 18 26 38 
74 55 79 146 113 13 16 14 16 43 64 18 20 15 26 25 30 44 44 33 20 11 21 73 55 72 46 51 63 74 83 84 89 92 93 88 94 94 96 98 101 105 106 101 102 101 106 99 95 92 91 95 100 102 110 105 111 107 111 106 104 101 96 93 91 105 104 118 122 111 101 104 115 106 76 91 107 111 101 31 23 19 23 28 25 
66 67 123 165 24 18 15 21 16 24 51 17 18 17 22 26 37 37 40 43 13 15 17 82 51 68 44 48 60 71 77 82 92 94 88 88 88 91 95 94 99 103 107 107 106 107 114 91 57 53 70 83 88 93 95 92 91 87 81 78 79 79 75 76 72 81 87 101 97 62 51 67 78 61 70 97 113 111 74 23 22 19 23 29 23 
65 99 181 73 12 21 23 25 15 21 45 29 12 18 19 26 31 31 43 50 12 11 17 72 40 68 51 41 59 70 82 80 92 94 89 91 87 92 94 99 103 102 105 108 110 110 110 84 58 59 46 41 47 53 57 58 64 72 62 59 56 52 47 52 63 71 76 81 68 62 54 68 86 81 92 107 116 104 36 20 21 19 24 28 20 
92 168 125 22 20 23 21 21 20 17 35 32 20 19 25 26 31 27 39 52 21 17 17 70 42 61 54 46 54 64 77 82 84 91 86 84 88 92 93 98 99 97 101 115 112 112 110 91 86 87 82 70 61 59 64 68 76 78 77 79 79 75 77 78 75 85 95 101 106 98 86 92 106 102 105 113 110 67 20 23 23 22 29 25 21 
146 166 35 23 28 28 26 23 17 21 34 31 17 20 28 33 32 29 34 49 28 18 21 67 40 54 53 49 54 63 77 79 83 89 83 84 88 89 89 94 97 101 102 112 115 112 110 109 102 90 86 86 84 81 77 75 83 90 95 89 108 119 123 132 132 146 160 164 158 119 95 98 113 116 109 112 95 29 19 23 22 22 26 22 23 
173 69 27 30 28 27 26 21 18 17 24 27 24 15 21 32 26 33 33 43 31 17 26 57 36 56 54 38 46 58 73 75 75 84 79 82 86 87 90 89 92 95 102 109 112 110 110 115 104 96 92 86 87 84 86 75 77 80 90 101 121 139 155 155 154 158 168 176 159 110 96 104 117 119 108 105 53 19 18 19 23 24 26 17 15 
93 22 29 21 26 28 29 24 19 16 18 27 27 22 19 27 31 32 35 44 39 18 23 43 33 55 54 34 51 59 66 72 76 81 80 80 86 83 83 89 92 89 97 108 105 109 115 112 109 103 98 88 87 82 86 85 89 82 80 91 106 109 117 124 120 110 112 122 119 95 107 113 120 116 109 87 21 19 19 19 21 29 20 19 16 
30 29 29 26 30 33 32 30 22 21 29 27 25 28 22 25 40 29 34 42 40 19 26 54 46 56 48 33 42 54 66 72 74 76 77 76 81 83 89 87 95 89 95 102 104 105 108 112 108 104 99 96 93 87 84 85 88 89 85 83 94 98 97 106 105 99 98 99 95 102 116 117 123 108 101 52 19 24 24 21 25 29 22 25 19 
28 33 29 28 30 34 28 42 29 28 30 28 22 32 31 33 32 37 35 44 43 31 21 45 47 51 50 34 43 45 59 66 67 67 75 79 82 84 88 88 96 97 97 99 101 102 104 105 107 109 99 98 94 95 89 91 87 81 81 81 88 90 93 100 93 91 86 85 100 117 120 115 115 105 67 35 13 23 21 25 29 22 27 31 25 
28 28 32 32 30 30 32 28 22 25 32 25 24 29 33 36 30 39 33 39 38 28 24 36 50 43 54 31 39 39 49 60 71 68 66 75 76 81 81 84 90 91 92 99 96 102 101 106 107 102 104 99 96 95 91 94 90 88 84 81 77 77 81 79 76 80 84 103 126 121 111 113 113 76 41 27 19 19 15 18 23 18 28 30 34 
30 28 27 25 28 31 32 30 20 21 28 22 24 33 28 32 31 30 31 30 35 27 25 29 44 36 58 35 35 43 44 53 59 64 67 71 69 78 79 84 88 92 92 95 96 104 102 105 108 103 102 98 99 96 94 96 92 97 99 94 90 87 90 93 97 104 117 122 124 111 104 111 107 32 42 24 20 23 20 19 28 28 27 42 36 
27 25 26 23 33 29 31 32 24 26 33 26 29 27 27 34 31 30 31 32 34 39 25 24 36 31 51 38 29 43 43 53 54 60 67 68 73 74 82 85 91 89 92 97 95 99 105 101 102 102 101 103 98 101 102 98 101 108 112 113 115 120 120 117 119 122 123 126 119 103 112 110 73 14 43 27 21 19 21 21 30 26 30 31 35 
31 22 24 23 27 29 31 30 18 23 32 20 27 28 22 25 30 34 30 31 35 35 23 21 32 31 36 43 28 36 38 37 52 53 65 67 69 73 74 84 90 85 93 97 99 105 99 101 102 105 105 106 106 104 111 109 112 118 123 128 133 140 136 128 126 126 128 124 117 114 115 110 30 19 46 24 15 20 25 24 27 27 38 31 38 
33 31 28 25 26 32 32 27 21 24 34 25 26 29 21 19 19 32 30 28 33 37 23 20 28 36 32 44 25 29 42 31 33 48 59 60 67 70 73 77 87 91 92 95 99 103 101 103 103 107 109 109 111 115 124 121 118 118 131 139 140 145 145 137 131 125 129 124 117 117 120 82 10 20 34 22 20 23 25 23 30 36 33 44 28 
23 25 26 18 35 39 28 25 18 25 33 20 23 29 19 21 22 23 29 25 28 32 29 24 25 34 31 34 26 28 46 33 18 30 45 50 58 64 66 74 81 85 95 96 96 97 102 102 105 110 109 109 115 120 127 133 128 127 131 142 148 145 141 143 134 138 135 125 117 124 117 47 17 28 36 19 22 24 23 29 33 36 29 37 20 
30 24 29 21 45 36 30 27 16 27 34 23 18 29 28 20 21 23 23 27 30 28 28 28 27 33 29 37 34 24 44 43 19 18 25 38 48 60 60 66 76 85 89 89 93 97 100 100 108 115 114 113 122 125 133 141 142 137 134 139 142 138 136 144 142 141 135 119 117 125 102 20 17 38 28 22 28 30 23 30 30 39 34 32 18 
24 24 30 25 34 34 34 25 22 27 38 23 27 24 31 20 20 22 24 32 30 28 26 28 28 35 28 34 39 26 40 44 26 18 15 20 34 45 47 56 69 79 84 90 93 97 99 102 104 109 113 115 117 121 126 141 145 141 140 143 138 141 138 145 151 148 133 117 122 121 74 17 20 37 28 31 33 31 29 31 29 35 40 23 19 
28 22 25 23 32 31 36 23 21 29 40 22 25 24 36 28 19 24 20 23 32 33 25 33 24 27 34 32 39 26 34 42 42 23 19 16 17 29 40 48 62 73 82 82 84 92 95 98 99 107 114 112 117 118 118 130 137 137 141 146 146 142 140 141 142 139 127 114 120 108 63 14 19 35 27 34 35 35 32 31 33 37 45 21 28 
29 30 29 32 37 42 44 27 21 28 40 23 27 31 27 31 23 25 28 24 25 33 31 37 37 27 30 32 35 28 34 45 42 33 23 22 18 21 25 44 45 56 60 64 73 86 85 92 92 98 102 105 111 113 118 125 124 136 140 139 145 134 133 134 133 131 122 113 114 103 64 18 23 36 37 36 38 36 36 34 31 43 42 29 38 
28 29 27 29 38 46 38 19 19 33 44 26 24 23 28 30 22 22 24 16 21 27 27 33 32 29 39 37 39 29 32 43 43 44 33 27 27 23 30 28 34 32 34 38 47 59 64 77 83 89 91 100 105 110 119 120 115 125 135 137 138 131 123 121 123 123 112 112 107 94 48 23 23 27 31 33 30 35 35 32 29 43 32 28 30 
29 29 28 32 50 48 40 24 20 29 45 24 27 24 24 31 23 23 26 23 21 27 26 33 37 33 35 37 37 32 26 32 38 54 45 33 30 34 47 46 53 53 61 71 72 76 75 80 85 92 88 95 99 99 117 116 124 122 129 139 137 130 126 125 124 112 104 105 108 85 51 29 30 30 34 39 40 31 37 33 28 44 36 32 25 
23 28 22 27 47 51 39 17 16 31 36 24 24 24 23 28 24 21 27 22 21 26 23 30 36 34 29 33 32 32 25 25 39 44 45 48 49 62 76 79 81 91 96 98 101 111 112 106 105 108 112 110 117 116 135 130 137 131 132 137 142 142 147 149 148 147 149 154 157 142 97 64 46 34 39 40 34 35 32 33 31 35 33 32 24 
23 24 25 28 45 55 31 18 15 42 39 22 22 21 22 29 27 22 25 23 19 26 23 31 31 34 26 37 30 26 21 21 35 44 51 53 65 75 79 90 93 96 94 95 99 108 105 104 105 107 111 106 109 116 122 125 129 124 123 127 128 130 130 132 136 147 155 166 178 183 183 173 143 92 57 34 35 31 35 28 25 28 32 26 21 
28 26 30 35 45 58 30 22 23 46 45 23 23 27 23 26 29 22 20 23 21 24 24 29 31 35 28 29 34 28 22 24 27 45 50 57 69 80 86 95 95 94 88 95 96 97 101 101 103 105 106 109 112 117 118 121 123 119 121 117 117 119 121 128 135 148 159 168 180 183 185 188 189 188 162 106 63 43 40 30 28 27 32 23 20 
21 25 31 41 43 57 31 22 22 36 47 30 28 31 22 21 25 33 27 21 28 29 29 24 27 35 37 28 31 28 31 21 30 50 55 57 74 84 90 93 95 89 91 92 96 102 97 100 103 107 105 103 109 112 117 118 115 113 112 115 113 113 117 127 139 153 158 169 179 186 186 188 190 191 194 191 169 117 68 43 33 29 30 32 25 
30 20 27 26 40 48 22 19 21 43 49 24 26 28 24 22 22 31 27 23 26 25 22 26 22 33 34 31 31 31 28 24 24 42 56 61 76 79 88 87 91 90 90 89 89 94 98 100 106 103 104 106 107 112 114 112 107 113 107 112 114 113 123 128 146 150 161 172 180 185 186 189 190 189 192 191 192 191 178 123 63 31 24 23 16 
56 19 25 28 40 52 22 22 23 45 49 20 24 24 19 26 19 30 27 24 22 25 20 23 30 36 38 31 32 31 30 25 20 40 53 60 77 88 88 85 90 89 92 91 90 91 95 106 104 101 102 103 106 108 108 105 109 107 110 112 111 115 124 132 146 151 166 174 177 184 184 187 188 190 191 192 189 192 196 196 177 118 53 23 14 
124 34 27 23 39 47 24 20 14 42 44 20 23 22 19 23 18 28 31 29 26 23 20 27 32 28 35 33 47 33 27 25 21 32 48 62 71 80 82 87 89 88 86 91 90 95 93 103 102 100 99 103 106 108 104 111 106 107 111 113 117 119 128 136 149 159 171 175 177 179 183 181 186 188 189 191 193 191 194 194 198 199 169 86 34 
118 87 24 27 40 40 23 17 13 52 44 27 26 33 22 26 18 32 30 38 33 28 24 27 26 28 32 37 44 39 32 27 24 32 52 67 72 78 78 81 89 88 91 93 96 94 94 97 102 101 107 105 110 106 107 109 105 109 114 112 118 125 131 140 151 157 166 173 175 177 175 178 183 183 185 189 190 190 192 192 198 200 201 191 126 
76 133 44 28 37 28 25 20 21 49 46 24 28 29 27 28 24 26 31 38 44 28 29 26 29 30 33 33 44 52 34 29 26 31 54 66 71 82 81 82 85 88 91 90 94 90 97 100 104 105 110 107 108 107 103 106 100 108 114 115 120 128 135 146 154 160 166 171 177 176 174 177 183 182 181 187 190 190 193 194 196 198 199 202 202 
46 109 108 25 34 33 30 25 25 53 45 29 31 30 25 25 23 31 31 36 36 34 28 25 24 36 37 37 36 53 36 27 30 28 57 63 75 81 82 83 83 91 92 90 90 97 97 100 105 110 112 108 107 109 99 101 102 110 113 117 126 131 137 141 147 152 163 168 173 171 173 178 177 178 179 184 186 190 192 192 195 197 198 200 202 
25 63 154 40 27 30 21 20 21 47 43 29 28 26 32 29 25 28 31 40 38 28 28 27 25 38 33 38 44 58 53 30 21 24 56 57 80 79 80 87 94 89 90 83 90 102 105 102 100 104 110 107 108 108 102 103 106 107 115 122 128 133 137 142 144 149 160 162 168 167 170 176 174 177 179 184 185 184 191 191 195 196 199 201 202 
42 69 117 80 23 19 18 23 22 44 44 26 29 26 27 30 28 27 30 39 39 26 25 30 30 45 42 32 48 63 65 35 19 19 48 52 83 81 79 85 96 85 79 87 97 102 108 103 99 102 105 104 109 106 107 105 110 113 119 124 128 133 137 139 144 149 156 158 162 162 166 171 172 175 178 181 181 183 187 189 194 194 197 198 201 
114 69 64 140 32 26 23 30 30 51 45 32 35 32 35 35 32 33 36 39 46 33 34 36 33 53 47 34 54 70 72 48 27 20 45 56 89 87 84 82 87 78 87 102 97 99 106 102 103 105 109 110 104 104 105 107 113 118 119 126 131 137 135 143 145 147 145 155 157 164 159 164 174 173 173 179 179 182 187 189 192 196 197 198 201 
132 56 29 163 52 24 22 23 21 52 39 37 37 25 23 28 19 25 34 35 44 30 30 25 23 35 41 36 54 76 76 55 21 16 39 54 89 88 79 77 83 95 93 97 98 103 104 104 108 106 105 111 104 110 108 108 113 118 120 124 131 137 134 138 140 144 150 156 154 157 157 165 163 166 167 174 181 183 185 188 190 194 194 197 201 
120 133 25 148 100 14 14 19 16 50 36 28 33 23 22 24 20 24 26 37 46 25 23 21 16 35 41 36 62 80 83 69 23 16 33 57 80 84 69 79 98 102 93 92 101 103 103 104 104 108 103 103 105 103 109 113 109 116 120 121 125 134 135 133 137 143 145 153 157 154 156 158 166 166 167 172 180 181 183 187 190 193 195 197 200 
41 167 58 128 143 15 12 16 17 44 35 31 37 24 27 25 24 26 27 36 36 34 30 26 17 34 40 35 63 85 81 69 32 14 35 54 75 71 76 91 98 99 93 94 98 101 102 107 107 107 102 106 103 105 110 108 114 111 120 121 121 127 136 133 137 140 141 147 154 153 158 163 159 165 173 172 176 177 182 183 186 191 191 195 197 
14 81 94 116 171 17 11 12 13 40 38 28 40 22 24 23 18 21 29 51 43 27 30 39 17 28 28 36 67 83 84 73 37 10 27 48 72 84 84 88 97 100 97 98 92 100 101 101 108 107 109 108 109 106 107 109 108 117 120 123 125 129 132 135 137 137 142 148 147 152 153 159 161 165 169 171 176 177 182 184 188 189 191 193 197 
10 37 122 121 194 24 21 16 14 41 37 30 47 23 23 20 20 26 25 39 47 26 30 29 18 30 28 50 76 81 83 68 33 11 24 52 75 80 81 92 97 94 97 97 99 97 99 103 105 108 105 107 107 109 109 112 113 114 117 117 121 125 129 135 133 142 141 141 145 152 155 159 160 167 163 172 178 178 181 184 187 190 194 195 196 
16 38 142 145 195 32 17 15 14 47 33 32 50 25 25 24 23 26 31 41 34 22 22 25 19 24 27 58 67 73 82 65 40 17 23 58 69 83 82 92 95 88 93 101 99 95 96 102 100 108 107 109 107 107 108 116 117 120 119 117 122 126 126 131 134 137 138 144 148 150 153 155 161 163 163 169 173 174 179 185 185 190 191 194 198 
56 22 133 168 181 17 12 12 13 46 30 37 64 22 22 22 20 25 25 38 33 23 23 35 28 27 40 65 78 74 62 68 48 17 25 59 71 84 86 93 95 88 90 97 100 101 102 104 102 106 105 105 108 108 110 115 117 115 112 120 119 122 129 128 132 135 136 139 146 152 152 156 159 158 169 169 176 174 178 185 187 189 194 196 198 
27 21 126 179 148 18 14 20 21 55 38 35 66 29 29 27 31 21 28 40 30 18 18 23 23 27 49 69 71 63 71 79 48 17 26 61 67 80 90 97 94 92 92 98 103 103 104 104 102 102 104 105 107 109 111 107 112 116 112 115 121 126 129 127 131 131 133 143 143 149 150 156 154 161 170 170 169 174 177 181 187 189 193 195 199 
20 17 119 176 86 26 9 13 22 58 32 39 53 20 32 25 21 24 24 41 40 26 18 20 30 26 57 61 64 70 89 83 53 17 26 65 72 82 92 96 92 92 96 104 101 100 103 103 103 98 101 103 104 105 105 109 116 113 113 115 119 123 125 125 130 130 138 141 142 147 150 151 156 161 162 167 173 173 179 181 184 188 190 194 196 
41 32 140 141 59 115 14 12 27 55 36 43 41 24 30 25 25 20 29 27 29 35 25 26 33 33 52 69 78 86 87 83 55 13 33 63 74 79 93 96 95 96 95 102 99 98 103 101 101 99 100 101 102 101 107 115 113 113 115 114 119 122 123 125 130 130 135 138 144 141 147 152 156 157 160 164 173 173 176 182 183 187 191 195 197 
72 107 164 119 124 177 28 15 29 44 31 39 33 31 27 34 30 22 23 26 24 29 31 28 27 47 70 81 87 88 90 84 57 14 43 60 75 81 96 96 96 103 99 103 101 102 100 100 99 103 104 101 101 103 109 110 112 112 112 116 115 120 123 125 128 131 138 135 138 142 141 153 158 155 161 164 173 172 176 180 181 187 193 194 196 
53 136 149 108 113 94 19 19 34 39 23 32 33 39 26 33 33 26 34 21 22 24 24 38 40 57 83 83 89 90 86 84 45 16 53 63 76 83 87 93 93 99 103 103 101 105 102 102 100 99 101 103 104 104 103 107 108 110 113 114 120 117 122 128 129 133 131 139 136 142 143 151 156 150 161 166 169 173 174 180 182 184 190 190 198 
141 173 124 29 18 14 37 33 40 31 25 34 29 35 21 32 29 23 35 27 23 28 30 40 45 67 87 90 90 87 83 75 37 15 59 62 74 88 88 92 96 98 101 102 105 102 103 104 102 102 103 106 105 105 104 109 111 111 113 112 117 119 118 126 126 128 133 132 137 139 140 145 154 156 161 164 165 173 178 181 184 185 188 191 197 
145 149 127 88 37 38 66 21 44 27 29 38 28 36 33 35 28 24 34 22 23 22 33 40 51 71 88 91 90 87 90 80 32 16 59 64 74 89 95 95 98 94 99 103 102 108 106 100 100 102 102 100 102 103 105 105 106 105 108 112 116 116 116 124 125 130 129 134 136 140 145 147 149 155 158 159 165 173 177 178 181 185 185 192 196 
115 97 142 151 119 118 82 62 70 37 32 31 32 48 57 30 24 30 31 20 20 21 40 41 53 73 90 90 89 87 89 78 27 21 60 70 81 87 90 97 97 95 100 106 104 110 106 104 101 106 98 96 98 101 103 105 107 110 111 109 113 116 118 121 124 128 130 135 133 134 138 142 148 147 150 161 169 171 179 178 179 186 189 191 193 
47 48 28 35 63 70 81 111 108 91 115 95 89 61 30 32 22 22 30 20 22 28 40 52 64 79 92 87 91 93 87 71 37 30 63 71 84 90 92 98 99 97 97 102 105 108 105 103 105 103 100 98 98 99 102 105 103 110 110 109 110 119 122 120 126 126 125 132 134 133 140 145 147 144 152 160 167 169 173 176 179 184 187 188 191 
31 70 16 21 48 10 18 46 47 37 99 91 74 79 47 32 25 33 28 21 26 38 45 54 67 84 88 90 95 94 92 59 29 39 64 69 88 96 92 97 100 98 103 106 104 107 103 103 100 105 102 97 98 98 101 102 103 107 111 112 111 115 116 121 122 122 129 132 130 131 136 143 146 144 152 160 161 164 170 178 180 181 185 187 191 
28 84 14 30 23 15 28 44 31 26 48 34 36 62 92 38 26 21 23 20 30 42 53 60 73 86 88 92 94 95 93 59 22 51 70 77 95 97 95 98 99 102 103 107 103 103 103 107 106 105 98 99 99 99 102 107 105 107 105 108 109 114 116 116 119 123 131 131 131 134 139 142 145 147 154 153 157 166 171 178 179 181 184 186 189 
22 89 18 25 16 22 38 31 36 23 41 31 31 23 44 37 26 20 16 17 36 49 54 66 74 86 90 91 97 95 84 47 24 57 76 81 95 95 95 102 103 104 103 102 108 108 107 110 108 104 102 99 102 99 102 104 106 104 108 109 112 112 115 118 120 125 126 127 130 135 139 142 143 145 146 153 158 165 168 172 181 180 183 187 188 
55 75 32 30 12 28 36 31 20 22 35 39 26 26 26 35 24 23 19 25 35 51 56 72 73 87 85 93 94 93 77 35 29 58 72 84 95 98 97 105 107 105 106 103 107 106 106 107 103 105 101 102 103 100 102 106 102 102 105 108 108 116 116 117 116 119 127 127 129 131 137 141 144 143 144 150 155 165 166 173 176 182 181 188 188 
109 95 70 124 12 22 32 29 27 32 32 33 23 27 23 28 23 17 20 31 48 53 59 75 80 86 91 92 90 86 68 28 44 65 76 91 94 102 102 104 107 106 104 108 112 105 102 103 102 103 102 104 99 105 102 101 101 102 106 108 110 111 116 117 122 122 125 123 130 131 133 136 138 140 146 151 151 157 162 172 171 180 179 185 187 
140 118 142 101 15 23 28 20 18 30 27 22 24 24 23 18 25 18 21 31 44 62 69 79 84 85 93 89 88 84 50 22 52 66 85 93 97 100 102 103 109 109 106 108 112 109 107 103 105 105 104 103 99 101 100 100 101 99 108 111 107 112 115 114 118 119 123 125 125 128 131 132 139 137 143 149 156 157 167 169 171 176 180 183 187 
110 165 151 36 19 22 29 21 22 33 33 23 25 24 16 19 22 18 24 40 46 61 76 79 80 88 94 89 88 73 31 30 61 68 90 94 100 98 103 104 103 106 106 104 111 115 108 104 104 106 107 108 104 102 99 103 107 102 107 108 108 111 114 118 119 120 121 122 123 128 130 133 135 138 143 146 154 157 162 166 168 175 180 184 184 
52 119 86 13 23 30 24 14 21 28 25 19 19 16 16 18 25 24 30 41 54 69 75 80 82 85 92 88 87 57 28 37 60 80 96 97 103 101 105 102 105 104 103 109 109 109 111 106 106 107 108 106 106 101 103 103 103 107 104 110 111 111 113 119 118 117 121 123 126 124 130 135 136 140 144 147 151 152 157 164 169 173 178 181 183 
70 92 65 12 22 29 18 23 24 18 25 26 16 11 12 18 26 38 40 43 61 78 78 83 83 90 92 90 79 37 24 47 64 90 102 99 98 99 102 104 107 107 110 108 110 108 111 108 106 106 109 103 103 100 104 104 99 103 104 106 107 113 114 116 119 117 123 124 126 124 127 135 137 138 140 146 149 149 152 161 166 175 175 177 181 
74 98 31 17 25 23 13 21 25 22 24 18 16 15 15 21 26 43 44 54 70 80 82 82 79 86 86 85 56 15 36 58 72 95 96 98 100 101 101 103 110 109 111 110 116 107 103 106 110 109 108 108 104 101 100 103 100 102 103 108 105 112 112 113 114 117 121 121 123 129 129 131 134 136 141 145 147 149 153 156 164 174 173 177 179 
34 51 27 20 22 17 12 31 19 18 21 20 18 16 15 32 27 47 49 60 76 81 87 84 82 83 86 75 25 16 48 67 86 96 100 95 103 97 98 101 105 106 107 107 111 108 103 105 111 105 102 106 103 101 103 102 101 102 101 103 107 111 109 110 114 114 118 117 122 124 127 130 134 135 139 145 148 151 151 152 162 172 171 177 179 
21 22 28 35 28 19 20 26 20 17 19 14 17 19 18 26 32 51 52 67 81 85 86 81 88 84 80 42 13 22 59 79 93 98 100 100 98 99 101 101 106 107 106 105 111 106 104 106 110 110 105 106 103 102 103 104 99 96 102 100 106 109 107 113 108 113 119 119 121 122 123 128 133 134 138 141 146 148 148 151 160 167 170 174 178 
17 22 27 29 19 19 22 20 15 12 16 14 15 14 19 32 39 58 60 71 82 79 83 83 85 84 52 13 14 43 67 86 97 98 102 103 98 101 104 104 105 105 105 104 106 106 108 110 109 109 105 107 102 104 106 102 102 100 104 104 105 107 103 113 113 112 114 120 119 121 123 126 129 132 133 139 141 147 146 155 159 164 171 174 175 
15 22 29 17 21 24 29 28 19 20 14 11 16 13 21 37 45 59 68 75 79 80 85 83 85 65 23 12 25 59 82 94 96 100 102 103 100 102 104 103 107 103 104 102 106 106 110 107 113 105 110 109 106 106 104 103 102 103 100 103 106 103 102 107 110 111 117 122 121 123 127 128 128 131 134 135 140 141 148 153 159 159 165 169 172 
15 26 24 14 19 16 13 19 15 14 16 14 17 21 35 42 51 63 72 78 78 83 80 88 76 30 16 20 48 74 92 94 96 102 102 102 101 104 100 101 104 104 104 103 107 107 113 108 111 109 108 106 105 105 105 102 101 103 99 104 110 102 106 105 110 106 112 117 116 120 124 124 129 131 129 133 138 143 146 156 158 159 167 170 174 
22 28 20 20 20 17 14 18 14 14 21 17 14 28 48 46 60 70 81 83 80 87 85 78 39 17 16 31 63 85 96 93 100 100 99 99 102 109 102 106 103 106 104 105 105 104 111 108 111 110 111 108 111 109 104 103 104 104 103 103 105 105 106 105 105 107 112 114 116 114 119 128 128 131 127 130 136 140 144 151 152 153 164 164 171 
27 20 19 18 18 22 19 17 14 9 15 17 19 40 45 45 61 75 81 83 82 87 79 37 12 23 37 57 80 93 93 94 103 100 100 99 103 107 108 105 103 103 106 103 105 103 111 108 108 109 110 109 109 106 103 105 110 104 102 101 104 104 108 106 103 107 112 112 117 114 119 124 125 129 127 130 136 137 147 149 147 153 157 165 173 
22 22 19 24 17 22 17 11 10 16 24 20 32 42 51 52 71 77 90 84 81 75 35 11 10 31 56 74 92 92 93 95 98 101 102 98 103 104 106 104 106 104 107 105 103 103 110 110 108 107 107 110 112 104 107 108 104 103 101 100 106 105 108 110 107 105 109 115 113 114 122 123 123 123 129 133 137 138 141 139 146 152 156 167 166 
22 21 25 26 19 18 18 16 13 18 20 27 44 43 51 66 70 81 86 78 68 27 10 18 34 54 69 86 88 90 93 97 93 101 102 100 106 103 107 103 104 101 108 103 104 102 108 112 111 107 107 110 112 109 107 107 109 105 103 102 108 104 110 106 111 106 108 114 114 114 116 118 120 123 127 129 136 138 144 137 142 151 156 159 162 
19 21 21 22 20 17 15 11 17 27 26 40 47 52 66 69 70 79 69 38 17 14 15 44 62 72 79 88 89 93 93 95 96 101 103 100 106 106 104 103 105 105 103 105 105 106 107 110 107 105 108 109 111 111 108 108 107 108 103 106 107 105 110 104 104 101 108 112 112 114 117 119 117 126 126 125 135 138 138 143 146 147 146 156 157 
18 19 24 24 14 13 18 12 12 13 28 48 49 60 65 65 53 31 18 15 18 36 57 66 74 81 83 91 88 93 96 97 99 100 102 101 103 105 101 103 108 110 108 104 104 106 108 109 110 110 115 110 113 111 109 109 111 111 110 108 108 106 108 105 105 107 104 109 110 113 119 116 118 120 124 127 134 135 138 139 146 144 146 155 157 
13 23 24 16 17 14 23 20 17 25 41 49 48 44 30 26 25 18 19 36 47 63 66 75 83 87 84 89 92 101 96 95 97 103 101 100 103 103 98 102 108 107 104 104 103 112 108 108 110 112 112 116 116 114 113 113 112 109 109 108 107 106 106 104 106 108 104 106 112 111 117 117 120 120 126 128 129 132 135 136 146 148 151 153 155 
14 20 27 20 27 17 19 19 21 23 22 20 24 14 15 26 33 43 59 65 67 72 77 84 85 93 88 87 89 94 95 96 94 99 103 102 104 100 106 102 106 106 101 102 107 109 108 107 110 111 111 116 112 115 115 115 110 108 110 112 111 106 103 107 112 109 110 108 111 112 113 115 120 121 122 126 128 131 135 134 140 147 149 157 157 
16 19 17 20 24 28 17 19 15 12 17 21 22 40 40 46 53 57 60 70 80 84 86 93 90 92 94 96 93 94 91 96 97 99 99 96 105 102 101 105 104 101 102 106 105 104 106 105 108 115 109 110 113 113 114 115 111 110 110 110 109 111 104 106 105 111 110 108 109 111 113 116 117 122 122 126 132 134 134 135 140 145 148 158 159 
26 31 32 27 17 14 14 14 16 25 33 35 40 52 52 59 58 72 75 83 87 87 84 86 87 90 94 92 94 92 94 95 91 98 101 95 98 101 104 101 101 100 103 108 107 108 106 107 108 109 112 114 115 115 116 110 109 115 110 114 110 114 108 107 112 108 111 108 109 113 110 114 121 122 119 123 127 131 131 132 143 139 144 151 157 
19 34 20 13 14 14 18 27 28 38 47 55 54 67 72 70 76 80 83 85 86 87 88 89 90 90 92 98 96 91 93 89 94 94 100 100 103 100 101 99 98 102 111 110 105 105 108 109 104 107 108 113 113 112 111 113 110 115 111 112 111 118 110 110 111 108 108 107 113 111 112 116 118 118 118 121 127 130 126 134 136 144 145 146 155 
17 23 21 19 21 23 17 22 29 42 53 58 66 79 78 78 79 78 84 88 89 89 93 90 93 93 94 92 92 95 93 90 95 103 98 100 104 102 100 100 102 101 106 105 103 103 107 109 106 109 107 109 113 112 115 112 111 115 115 112 113 119 114 112 111 113 114 110 112 116 117 118 119 118 123 122 125 128 129 132 138 139 141 145 149 
17 24 27 25 20 22 16 33 48 56 63 66 78 77 79 82 78 81 83 87 90 90 90 91 93 94 89 97 92 94 96 94 94 100 96 101 99 100 99 103 102 102 105 104 102 102 108 106 108 108 109 113 112 111 110 114 114 116 113 114 113 116 114 114 114 110 114 111 118 113 115 117 119 119 119 122 122 127 132 133 139 140 144 147 149 
15 13 14 19 23 26 33 47 54 60 69 71 77 80 80 84 83 82 83 87 88 92 90 87 93 90 88 94 94 96 99 96 94 94 96 96 100 96 103 104 104 101 99 103 102 106 104 105 106 106 104 110 112 107 112 113 114 116 115 112 116 120 112 117 115 114 119 118 116 116 116 121 119 120 123 125 122 125 132 132 138 141 144 150 147 
11 8 12 15 22 34 46 53 57 68 71 71 78 74 80 83 83 85 81 86 89 96 92 92 92 89 91 93 97 95 95 97 96 94 95 95 100 97 100 102 101 98 102 108 106 104 104 107 102 107 107 112 110 110 114 111 112 117 113 116 115 113 118 118 115 117 120 114 114 116 115 118 121 121 126 124 123 122 131 134 139 143 145 144 145 
33 12 12 18 29 37 43 53 57 69 68 71 80 80 79 87 85 84 86 88 87 94 92 89 91 93 96 95 97 93 96 98 97 91 94 103 100 106 102 100 98 96 102 105 106 102 109 106 103 105 109 110 111 113 116 113 115 106 113 115 113 113 114 122 118 119 115 119 117 114 116 119 122 122 126 125 127 126 131 132 139 139 138 137 145 
87 35 24 35 45 51 48 55 62 70 72 76 81 83 79 84 87 88 86 91 90 89 90 93 92 93 93 94 94 92 92 96 95 94 94 99 96 101 100 104 101 94 99 99 100 104 103 103 108 106 110 113 113 112 112 114 114 107 114 114 115 114 114 119 120 117 115 118 121 121 115 119 123 119 121 128 127 128 129 132 136 141 142 142 144 
