P2
64 64
255
34 27 24 22 21 24 23 27 24 15 30 72 112 119 113 103 117 133 141 141 139 138 137 133 134 134 138 137 135 134 132 131 135 136 136 138 136 137 137 134 133 133 132 134 135 138 134 136 137 136 137 136 134 130 128 126 129 128 125 125 122 118 119 114 
37 27 19 23 25 23 26 30 25 12 26 84 116 115 108 107 121 136 138 139 138 138 137 134 136 133 130 136 136 135 134 136 135 135 137 137 137 138 139 132 134 133 136 131 135 133 133 134 134 134 136 135 133 132 127 128 124 127 125 124 122 119 117 115 
30 21 21 24 23 24 26 31 23 15 35 94 121 114 110 115 133 141 140 139 136 135 134 130 135 132 132 132 134 131 135 137 132 131 134 135 135 135 135 132 135 133 134 135 132 134 132 130 134 132 133 132 128 126 127 123 125 122 122 120 120 120 118 114 
28 20 18 22 22 24 29 24 23 23 58 106 120 117 111 123 137 142 136 139 137 133 135 132 131 130 130 133 130 131 131 137 131 131 135 138 134 131 134 132 133 132 136 134 131 132 133 130 130 132 132 128 126 124 124 122 121 116 117 118 119 115 116 112 
30 18 20 21 31 30 22 20 20 33 80 114 122 115 112 127 138 139 137 135 137 135 136 129 135 133 131 132 130 131 132 133 131 131 133 129 131 133 134 134 133 132 131 134 132 131 129 128 130 133 130 125 124 122 120 118 116 118 112 116 115 113 114 112 
26 20 25 25 22 26 18 20 30 47 94 118 116 115 114 131 140 137 137 135 136 137 133 132 130 130 130 131 133 131 128 130 130 132 130 130 130 131 128 133 132 131 131 131 127 129 126 126 128 127 125 125 122 121 122 118 115 110 113 111 110 108 110 117 
22 20 25 26 28 27 23 25 24 63 106 119 116 110 121 132 140 136 138 137 135 138 131 132 132 132 131 130 128 129 131 132 131 134 130 131 136 132 131 130 131 128 128 126 129 131 125 126 125 125 121 123 117 120 117 111 109 110 105 109 111 121 129 140 
23 28 26 23 36 24 19 19 25 77 114 121 117 115 127 137 140 137 135 133 133 135 130 133 128 132 130 131 132 131 128 131 128 132 133 129 130 129 132 130 129 131 128 124 128 127 125 129 123 126 120 115 116 116 113 109 110 108 114 121 131 138 147 158 
24 25 20 21 29 27 24 18 40 90 117 115 113 115 131 141 137 137 135 135 134 132 132 131 130 130 130 132 144 133 131 133 131 133 135 135 133 131 131 129 129 130 128 127 128 123 123 121 121 120 119 121 113 113 110 107 116 126 134 143 150 157 162 171 
17 22 18 22 28 30 17 27 55 102 119 115 110 122 136 140 135 133 137 134 131 133 131 131 126 131 131 134 139 147 131 133 129 132 134 134 129 130 127 128 127 125 125 124 121 124 121 120 116 118 120 115 113 110 115 124 141 147 152 163 166 170 173 178 
24 24 22 21 35 26 24 59 75 106 116 109 111 124 138 138 134 136 135 134 129 131 130 127 128 130 129 134 140 145 131 131 130 132 133 135 134 130 129 125 125 125 123 119 117 120 120 115 112 117 116 116 114 123 134 147 158 165 168 172 175 174 176 179 
25 26 16 30 29 24 25 56 93 115 113 108 117 132 141 140 137 134 133 133 132 132 133 131 132 129 127 130 131 129 130 133 128 128 130 133 130 130 128 125 123 124 121 120 119 116 114 114 115 113 114 122 135 145 157 165 171 172 179 178 179 176 176 176 
21 16 19 40 27 19 20 62 106 113 109 104 120 138 141 137 136 132 134 131 132 128 131 129 133 131 132 132 128 129 130 130 131 129 129 130 131 127 126 126 122 126 120 118 120 117 114 116 111 112 126 141 154 165 173 176 179 180 180 179 180 179 176 177 
26 22 24 39 23 16 24 73 112 112 109 108 125 137 136 137 135 129 134 134 131 128 127 131 133 130 128 129 128 128 129 129 129 130 131 132 125 122 125 122 121 119 121 122 116 114 114 109 116 130 151 165 173 177 182 182 181 181 179 178 178 179 177 178 
21 14 24 28 20 18 32 87 115 113 110 113 127 137 138 133 136 136 129 131 129 130 129 131 131 130 129 131 132 129 128 129 129 127 128 129 126 124 124 123 120 121 119 121 113 110 109 113 136 155 171 181 183 184 184 184 182 181 181 178 178 178 179 179 
20 15 26 27 17 16 43 95 112 109 110 118 136 139 134 135 136 132 131 130 130 129 128 130 127 134 132 131 130 126 128 130 128 126 125 128 125 124 123 120 123 122 119 115 112 111 114 140 159 171 181 187 187 186 185 181 180 181 179 178 179 179 177 179 
23 18 27 24 18 23 63 102 117 110 109 124 138 140 138 133 135 132 131 128 128 131 132 130 130 130 130 129 128 127 130 126 127 125 125 123 123 120 121 120 116 117 115 114 112 115 139 158 173 181 187 189 188 187 184 182 182 179 177 176 178 180 180 181 
15 24 29 21 19 26 79 112 114 110 109 134 140 138 136 135 136 131 133 131 133 132 130 130 135 131 130 133 130 130 129 127 128 124 126 125 124 121 119 117 119 114 114 113 114 136 155 173 182 188 189 189 188 185 184 182 180 179 178 179 182 180 181 183 
17 25 26 18 17 41 91 117 113 109 118 133 141 139 136 136 132 134 136 129 129 130 130 131 127 127 136 130 129 124 126 126 125 125 126 123 122 121 118 116 115 112 112 112 129 153 172 181 185 188 187 187 186 185 185 182 182 180 179 181 183 182 184 186 
15 25 24 15 15 53 100 114 115 110 122 137 142 137 137 136 134 135 136 132 131 132 133 129 130 129 129 128 128 128 126 124 125 129 124 121 125 123 120 116 115 110 113 120 147 170 179 183 185 185 186 186 188 185 186 184 183 181 182 183 185 188 191 192 
33 25 22 20 18 69 108 121 116 112 131 142 143 138 135 132 135 136 135 131 127 130 130 127 128 126 127 125 128 128 127 123 125 124 128 123 121 121 116 114 111 107 113 141 163 177 184 184 184 184 184 185 185 185 182 185 184 183 186 187 190 192 193 194 
38 26 22 16 28 79 110 115 113 120 136 143 140 136 134 131 135 133 132 133 130 127 127 129 129 129 126 126 128 124 128 125 125 121 125 123 120 120 117 113 109 104 128 155 175 183 188 186 182 182 181 185 186 184 185 185 186 187 190 192 197 195 197 195 
41 31 27 20 42 96 115 115 112 135 152 147 140 136 135 134 135 137 131 132 128 130 129 128 125 125 124 127 128 124 124 125 120 124 120 121 120 116 111 110 106 116 144 170 179 185 186 184 184 185 183 185 184 186 185 187 192 192 196 197 198 198 197 197 
35 28 28 19 56 105 115 113 110 132 153 149 136 135 135 135 134 132 133 130 134 127 127 128 126 125 127 127 125 124 123 121 124 123 123 122 119 114 112 108 110 134 161 176 184 186 186 182 183 181 181 184 183 185 187 192 196 198 199 198 198 197 195 195 
30 29 17 22 80 111 115 113 120 141 140 144 137 136 138 133 132 135 131 130 129 127 127 127 127 124 125 124 125 123 123 127 122 119 124 118 116 115 110 111 123 149 171 183 186 185 183 181 184 181 183 184 186 189 192 196 199 202 202 199 197 194 195 194 
29 23 15 42 89 117 114 111 123 142 141 142 142 135 137 136 136 133 134 132 132 129 128 130 125 126 126 126 124 122 122 124 120 118 122 117 118 114 106 111 138 166 181 185 187 186 183 181 182 182 183 187 190 194 198 199 203 203 202 201 197 193 194 193 
23 20 15 53 101 118 113 112 131 140 140 141 136 135 133 131 132 135 133 130 132 131 129 130 127 127 128 128 126 125 123 123 120 118 117 119 113 111 107 124 152 176 183 187 185 184 181 182 182 184 185 191 194 198 200 202 203 203 203 199 197 194 194 195 
18 22 22 68 109 116 111 116 131 142 140 140 138 133 123 133 135 134 132 133 129 131 133 129 125 127 130 126 124 125 124 120 118 117 121 116 115 110 113 137 167 180 186 186 184 183 183 184 182 185 187 195 200 201 201 202 202 201 202 200 199 198 196 198 
15 17 37 82 116 115 113 117 138 140 138 139 135 135 130 132 131 132 130 134 135 133 129 127 129 128 130 128 124 126 124 125 123 116 121 115 109 109 126 158 176 185 187 186 184 182 182 183 184 189 195 198 202 203 202 199 201 199 200 201 201 200 198 198 
13 14 49 95 119 119 114 122 143 140 137 136 134 134 134 130 132 129 126 128 130 130 129 128 129 127 128 128 126 124 124 122 120 118 116 111 109 115 141 168 183 188 186 184 185 184 184 183 189 194 198 203 202 202 201 198 197 200 200 201 201 201 200 200 
13 16 70 105 123 121 116 127 141 137 136 133 133 133 130 129 129 133 128 129 131 129 129 134 130 130 128 129 126 126 132 124 119 117 113 108 109 122 151 178 185 189 186 183 183 184 184 187 192 195 200 202 202 200 200 196 198 199 200 200 203 201 200 200 
11 15 80 114 120 121 115 134 140 139 136 135 136 134 129 129 130 129 129 130 129 128 126 127 131 126 128 129 125 124 124 124 122 114 115 106 111 136 161 181 187 187 187 185 183 184 184 189 195 199 201 200 201 200 198 197 199 199 201 202 201 203 201 198 
12 22 86 122 124 117 122 139 141 139 136 133 132 133 132 128 133 131 130 130 133 131 131 128 127 131 127 128 126 126 124 119 118 116 112 108 116 149 170 183 188 185 183 182 182 185 189 194 196 198 198 200 199 198 201 200 199 200 200 204 203 202 201 199 
19 44 99 126 123 120 126 140 139 136 134 135 135 132 128 130 130 127 128 129 128 129 124 122 125 129 125 123 122 123 124 121 121 113 112 107 124 153 174 183 187 187 185 186 185 189 194 197 199 199 197 198 198 200 203 201 202 203 203 203 205 203 201 200 
31 59 110 125 120 118 129 137 137 136 133 132 132 130 130 130 128 128 128 132 129 128 127 127 126 124 123 123 124 127 122 119 119 114 112 112 131 161 179 185 188 186 187 186 188 191 197 198 199 200 198 199 200 201 203 205 203 203 204 204 205 202 200 200 
35 79 119 124 123 123 131 140 139 138 135 134 130 129 129 129 130 129 132 131 126 129 128 128 127 125 127 124 125 121 120 121 118 115 109 116 141 165 183 186 186 186 186 186 190 195 201 199 200 201 201 202 201 200 204 205 204 203 204 203 202 200 199 200 
35 96 120 123 119 123 138 139 138 133 133 134 131 131 131 129 127 127 130 130 129 128 128 127 124 127 127 124 121 122 122 123 116 112 110 121 148 173 184 186 187 185 186 189 195 196 201 201 199 199 201 200 200 202 205 205 204 203 205 203 200 200 200 202 
46 108 123 120 123 128 140 137 134 136 136 132 129 131 132 130 129 128 127 128 130 131 127 126 127 127 124 126 126 121 120 118 114 114 111 124 155 177 185 184 186 186 188 192 196 199 202 200 199 200 199 199 200 202 204 203 204 204 206 202 202 201 202 204 
65 113 121 120 119 131 139 135 134 133 135 135 130 132 132 128 128 127 126 127 128 129 127 124 125 124 128 124 123 123 122 120 112 112 112 133 157 176 185 185 185 186 188 194 198 202 201 201 201 198 198 201 202 202 203 204 204 205 203 203 203 204 205 204 
86 118 124 117 124 130 140 134 137 135 135 131 130 130 130 130 128 129 128 129 128 123 126 126 127 126 127 125 125 119 118 120 114 109 113 137 164 181 187 185 185 188 193 198 202 202 202 200 200 198 198 200 201 202 202 203 203 205 203 207 203 206 204 204 
93 119 122 114 125 136 137 134 134 134 132 131 130 130 130 128 129 127 127 126 123 124 124 126 126 125 124 128 124 119 122 120 114 110 116 144 166 183 185 187 186 191 196 200 202 203 201 199 200 199 199 200 203 202 201 203 204 206 205 205 205 206 204 205 
98 118 122 118 126 136 134 133 136 134 132 130 129 128 127 127 126 128 131 129 127 122 124 126 120 125 125 125 125 122 120 119 114 108 115 145 173 184 185 185 188 194 200 203 202 201 201 198 200 201 201 200 203 200 202 203 205 206 205 204 205 204 204 206 
106 117 119 122 129 137 132 137 135 130 135 133 133 127 128 131 126 127 129 128 125 126 125 126 125 127 125 124 120 122 115 112 109 109 119 151 174 184 187 186 191 197 200 203 202 201 200 200 201 202 201 200 202 201 201 204 208 206 205 204 204 206 205 206 
108 114 118 125 134 138 134 133 136 136 129 133 128 127 126 127 128 126 130 126 125 128 125 124 126 124 123 123 123 119 116 114 111 107 122 152 175 186 186 189 196 199 203 202 202 200 202 201 203 202 202 200 200 201 206 206 207 206 207 206 205 205 206 205 
113 116 119 122 132 137 135 135 134 133 129 131 132 129 125 127 130 133 128 128 127 127 120 125 125 125 123 122 121 118 118 115 109 106 122 156 173 186 189 194 196 202 206 203 203 201 201 202 203 203 203 202 202 203 205 204 210 208 207 206 205 207 205 205 
117 122 118 122 134 138 134 136 134 131 129 129 129 125 127 123 127 132 126 127 130 128 125 125 126 124 122 122 119 119 116 114 108 104 126 154 176 185 193 196 200 204 204 203 202 200 202 203 202 203 203 202 204 204 207 206 207 208 207 207 206 208 206 206 
121 119 124 118 134 136 137 136 130 131 133 130 130 130 128 126 131 128 129 127 129 127 126 124 126 124 123 123 124 121 117 114 107 104 130 159 176 189 197 200 203 205 203 204 204 203 203 201 200 203 201 202 205 205 208 207 207 208 208 206 206 207 207 210 
124 120 123 125 138 134 145 133 133 133 134 132 130 131 127 128 127 129 129 125 126 129 126 125 123 123 125 123 122 120 116 110 106 106 132 165 179 189 198 202 206 204 205 204 204 202 202 201 202 202 204 204 204 204 206 206 207 210 211 208 207 208 208 206 
125 120 126 125 137 136 136 135 131 133 132 133 131 130 134 128 127 130 126 129 131 130 126 126 124 125 125 124 124 118 117 111 106 110 138 167 184 195 201 204 206 205 204 205 204 202 204 201 203 205 205 204 205 204 207 207 208 209 209 208 207 207 207 205 
129 119 127 128 139 137 136 132 131 134 135 131 134 131 132 128 128 128 125 125 128 127 127 123 127 126 122 125 122 118 117 110 102 109 138 170 187 196 206 206 207 206 204 204 205 205 205 203 206 205 206 206 207 209 208 208 208 207 206 206 205 206 206 205 
128 119 128 130 138 138 137 138 132 136 132 131 133 134 132 131 132 131 130 127 131 126 126 125 129 127 123 125 122 122 112 110 102 110 142 173 192 203 206 207 205 205 206 204 205 205 205 204 205 207 206 206 207 208 209 208 208 207 207 205 205 204 205 202 
133 121 128 129 138 138 139 138 138 139 135 135 133 132 134 135 130 132 131 133 128 123 125 125 128 124 122 126 121 118 114 107 103 109 145 178 196 204 210 208 207 205 206 203 206 206 206 207 208 206 207 207 209 208 208 207 206 203 202 205 201 200 200 200 
134 123 129 134 137 138 137 135 132 134 136 134 133 133 135 132 134 129 130 134 128 127 125 129 126 126 126 123 125 118 114 110 100 109 145 184 201 207 210 209 207 207 206 205 205 207 208 208 209 208 209 210 210 209 206 203 204 202 199 200 199 198 198 198 
133 127 131 137 138 138 136 137 135 134 137 138 136 133 133 132 131 133 131 130 130 127 127 126 126 124 121 118 121 116 112 108 99 107 148 185 202 209 211 210 209 206 207 206 208 207 210 210 210 210 210 208 208 205 202 199 199 198 197 197 199 200 197 198 
130 124 131 136 138 135 135 136 133 135 135 134 136 134 133 138 135 132 131 132 130 131 126 127 125 124 122 123 119 117 111 104 96 106 150 189 205 212 212 209 208 207 207 207 208 210 211 212 212 211 208 205 204 201 199 199 199 199 199 201 200 201 203 202 
127 123 134 135 138 139 135 139 135 137 135 136 135 136 138 138 138 134 133 134 130 129 127 127 126 125 123 122 121 113 111 104 95 103 148 190 206 213 212 210 208 210 209 209 208 210 211 211 210 207 205 203 202 200 200 201 203 203 204 203 203 204 205 203 
124 123 138 133 138 139 137 135 135 134 137 135 136 132 135 135 135 134 130 132 129 129 128 126 126 124 125 121 120 115 107 103 98 102 151 192 210 213 214 214 210 209 208 211 211 210 211 210 207 207 203 203 202 204 204 204 203 205 203 204 204 205 204 204 
120 127 137 138 139 140 141 137 136 134 137 134 134 132 131 135 135 135 132 133 129 132 127 127 127 124 124 120 118 113 105 104 97 100 157 194 208 214 214 214 211 210 209 211 209 208 207 208 208 205 205 204 206 207 206 206 204 205 203 203 203 203 202 200 
117 134 134 143 139 139 137 139 137 135 138 133 132 134 132 133 137 136 130 131 132 129 125 128 124 122 123 122 119 113 108 101 95 105 162 196 210 215 213 214 211 208 207 207 207 206 206 206 206 206 206 207 206 206 207 204 201 201 201 201 200 199 197 198 
116 130 134 144 139 141 134 140 135 137 135 133 132 134 131 136 134 135 133 134 133 130 128 124 125 123 123 120 117 115 108 104 96 112 172 202 214 215 214 213 210 208 208 205 207 205 206 207 210 208 208 207 205 205 202 202 203 200 200 200 199 198 198 195 
121 131 134 142 140 140 138 132 131 133 133 132 132 132 131 132 133 134 130 131 129 129 123 125 123 122 122 117 115 113 109 103 94 118 180 204 214 217 215 212 207 205 205 206 206 206 209 209 209 209 207 205 203 200 201 199 198 198 199 199 197 198 195 192 
120 128 137 139 139 140 138 135 130 130 134 133 134 134 133 130 134 131 132 132 132 129 126 124 123 121 120 122 118 113 109 99 98 127 184 208 217 219 214 210 205 204 205 205 207 208 208 209 209 209 205 203 202 197 197 199 196 195 195 195 192 187 181 170 
124 129 131 133 137 135 136 133 129 135 132 132 133 134 132 131 134 133 132 130 126 125 124 124 121 119 119 119 114 109 105 98 99 137 190 209 219 218 212 208 205 204 206 207 208 209 210 210 208 206 203 201 198 198 199 195 194 189 185 180 170 156 134 103 
120 116 117 123 124 127 126 127 129 134 128 134 132 132 131 129 129 131 130 129 127 124 125 121 121 122 117 118 117 110 104 99 101 152 195 211 217 215 213 208 204 205 207 207 207 208 208 208 205 205 200 200 198 196 194 190 187 175 155 133 101 70 45 28 
