P2
64 64
255
111 103 99 98 101 99 102 98 98 101 96 105 98 99 98 99 99 97 97 97 98 94 98 98 92 91 89 90 87 84 80 72 76 85 96 108 113 121 127 131 136 138 141 130 121 125 127 127 128 127 130 128 134 130 128 128 126 127 127 127 125 130 129 127 
111 103 99 98 101 99 102 98 98 101 96 105 98 99 98 99 99 97 97 97 98 94 98 98 92 91 89 90 87 84 80 72 76 85 96 108 113 121 127 131 136 138 141 130 121 125 127 127 128 127 130 128 134 130 128 128 126 127 127 127 125 130 129 127 
106 103 99 98 99 99 99 99 97 100 97 104 93 97 99 99 96 97 98 96 98 95 96 96 91 91 91 89 86 83 79 74 74 84 95 106 111 121 125 129 134 138 138 131 124 127 126 126 125 126 130 127 130 131 128 127 126 126 126 127 126 128 132 128 
102 101 100 96 95 96 95 101 93 97 97 96 95 97 97 97 98 97 96 95 97 95 94 94 91 89 92 87 84 82 76 75 69 84 91 100 108 118 123 129 133 135 136 131 129 125 125 127 124 128 127 126 129 130 127 127 128 127 126 128 130 128 127 125 
99 101 100 96 97 97 95 98 93 97 96 95 92 94 94 93 98 97 94 96 98 91 94 93 94 92 88 88 83 79 81 75 71 73 83 93 102 113 120 123 129 132 138 133 129 130 128 126 131 132 130 129 132 128 129 131 131 129 129 126 127 129 125 129 
96 98 100 100 98 97 96 96 96 96 98 97 95 97 95 97 94 96 99 96 96 97 97 95 93 92 86 89 84 85 77 77 76 72 77 87 100 106 115 122 126 132 136 134 131 128 130 127 129 131 134 131 133 129 131 131 131 129 127 130 128 133 129 126 
98 99 98 97 102 100 96 98 94 99 97 97 94 98 95 98 94 93 96 96 94 96 100 94 92 91 92 89 86 79 80 83 80 73 71 82 95 107 113 118 125 127 134 135 135 132 131 133 129 134 134 136 136 137 134 132 132 130 129 130 132 130 129 128 
96 100 99 98 96 98 99 98 97 95 96 94 96 95 96 98 95 96 97 97 96 100 97 94 94 94 91 88 87 81 83 86 78 74 73 78 86 100 111 118 123 126 132 137 136 138 135 136 133 135 136 138 137 140 135 132 132 131 128 129 130 129 126 130 
101 98 99 97 100 98 95 96 97 96 96 96 93 91 95 95 98 97 98 96 97 95 97 97 95 96 89 89 84 81 84 89 77 79 74 72 82 94 111 118 118 125 131 132 136 141 138 134 134 134 137 139 136 138 137 134 132 133 137 134 130 129 127 126 
101 99 98 102 102 96 96 92 97 99 99 99 95 95 93 95 96 97 99 97 97 91 95 97 94 98 93 90 85 83 83 80 78 77 71 69 81 91 102 110 120 126 130 132 136 140 136 138 137 134 137 138 141 136 140 139 133 132 133 134 134 130 130 127 
101 97 97 98 102 96 97 93 98 95 96 96 96 92 90 95 96 93 96 96 94 95 95 94 94 91 93 91 101 86 80 83 76 74 77 70 79 86 100 111 121 122 128 131 137 139 138 141 137 134 136 137 136 141 135 137 136 131 131 130 131 132 127 130 
96 98 99 97 98 101 97 96 96 99 91 92 93 92 94 96 93 96 92 94 90 92 97 96 92 92 91 90 89 88 82 81 79 82 74 74 78 80 96 106 119 122 128 132 136 137 138 138 134 138 135 136 135 141 135 136 138 137 131 128 130 130 127 128 
98 99 99 100 95 96 93 92 94 97 96 92 95 91 92 94 95 95 93 92 91 91 96 95 92 91 94 90 95 85 81 77 77 77 74 76 84 89 97 106 116 123 126 133 136 138 139 137 140 141 134 134 136 136 135 136 135 136 132 128 128 132 129 129 
100 100 98 102 94 94 94 94 93 94 93 93 96 93 93 95 95 94 95 92 93 98 94 93 93 93 89 91 93 94 82 77 78 76 73 73 80 87 91 102 110 117 127 134 133 135 137 136 137 136 135 134 133 135 133 134 135 135 135 130 131 132 130 131 
97 100 104 98 98 92 95 93 95 96 96 96 94 92 95 92 92 92 93 90 90 97 94 95 92 91 93 85 87 86 88 79 81 78 75 76 80 87 96 101 112 118 126 130 131 134 136 138 138 135 137 135 134 135 137 130 136 133 132 133 132 129 131 129 
102 96 100 93 97 93 97 92 92 98 95 95 97 92 90 94 95 90 93 93 92 98 94 96 96 98 88 84 86 85 86 83 76 78 78 74 79 91 99 104 107 118 123 128 132 129 133 139 134 134 132 130 134 132 136 133 133 131 132 132 131 128 129 129 
103 97 99 95 95 94 94 94 97 97 94 94 96 94 89 95 95 91 92 90 94 91 95 95 93 94 91 87 87 84 82 81 76 77 71 73 76 88 94 100 105 112 119 124 128 131 134 134 135 136 132 134 133 133 136 136 132 135 133 132 132 130 131 131 
101 102 102 97 94 98 95 96 97 96 92 93 93 93 93 93 93 92 91 91 95 93 93 95 95 93 90 87 87 82 84 79 80 81 74 76 81 86 89 97 104 113 119 124 125 129 130 133 132 136 132 132 133 132 134 133 132 131 131 130 134 133 128 131 
101 98 101 97 96 93 94 94 96 96 96 93 93 93 89 89 89 93 95 90 92 92 92 93 95 87 86 89 86 81 88 83 84 79 73 74 77 85 91 98 106 109 116 122 125 128 130 128 131 132 131 133 129 133 132 135 134 129 131 128 135 131 127 132 
101 97 97 95 93 93 94 94 94 96 96 90 93 96 91 93 93 91 89 93 95 91 91 93 93 89 90 86 84 86 87 87 85 77 74 71 75 82 92 99 103 111 118 122 121 126 127 128 131 132 133 134 130 134 130 130 130 131 129 130 131 129 125 126 
98 97 94 93 94 94 90 93 93 95 95 93 92 88 93 94 94 93 94 93 91 92 94 92 92 91 89 84 84 82 83 83 81 80 79 75 78 84 90 97 102 111 114 119 119 123 126 127 128 130 129 133 133 129 132 130 129 128 130 128 130 127 125 125 
97 98 94 92 92 95 94 95 89 95 98 101 90 92 97 94 92 94 91 91 89 93 93 95 89 89 89 87 81 87 82 83 80 82 78 75 77 82 88 91 105 108 112 116 120 121 122 126 127 125 132 130 132 126 130 128 127 130 128 129 127 126 127 129 
90 91 88 93 94 94 94 94 93 94 96 97 96 92 93 93 92 96 98 91 93 93 93 93 92 90 93 89 83 83 81 82 86 79 74 73 76 79 83 94 104 108 110 118 116 119 121 125 124 124 128 129 130 131 128 127 127 128 128 126 130 127 127 130 
87 92 89 90 89 92 88 95 92 97 97 96 97 95 94 89 91 93 91 90 89 95 91 91 90 89 88 85 84 81 81 83 82 76 75 72 77 84 84 95 102 107 113 115 116 115 117 120 123 122 128 128 127 131 128 130 125 125 126 125 127 127 129 127 
85 88 86 92 90 89 91 93 95 101 99 97 99 99 95 91 97 90 94 92 91 96 91 91 93 89 88 85 88 85 77 78 78 80 76 73 75 80 87 92 100 107 113 115 113 116 120 116 122 122 125 126 128 128 128 128 122 125 126 125 125 127 128 127 
92 85 78 86 85 90 89 88 94 96 99 97 95 93 96 92 94 90 90 92 91 91 91 91 88 85 84 86 83 86 83 76 79 76 76 74 75 80 85 95 102 109 114 116 115 114 116 117 118 121 122 123 128 127 127 127 126 127 127 128 127 124 126 123 
165 132 100 80 82 82 89 88 91 92 96 91 90 92 94 92 92 93 91 94 87 89 89 93 87 84 86 84 82 83 82 78 80 81 74 72 72 77 88 98 102 110 110 120 115 115 113 116 118 119 119 124 122 130 125 126 127 123 123 123 126 123 123 124 
183 184 170 124 84 80 84 85 82 91 92 93 90 93 92 97 91 91 90 93 90 89 90 87 88 83 87 83 81 80 81 78 80 80 74 73 80 77 89 95 104 107 114 115 116 114 115 115 117 118 120 121 125 126 125 127 127 123 121 123 125 123 121 118 
186 192 187 182 158 105 80 79 84 88 93 91 96 95 94 91 90 90 91 91 89 90 86 88 87 85 82 82 78 81 81 78 81 74 79 72 81 78 89 94 106 112 109 115 118 117 114 116 116 118 121 118 124 123 123 124 124 125 121 118 121 120 119 118 
181 187 187 187 185 181 125 84 77 86 90 86 89 93 92 86 85 88 91 88 87 90 87 87 83 82 82 80 77 77 78 75 76 71 69 73 77 79 82 92 102 108 114 118 117 117 116 115 115 116 118 122 118 120 124 125 125 124 122 117 119 116 119 119 
186 186 180 186 191 189 186 156 103 81 88 79 83 82 86 88 89 86 88 87 86 85 88 88 86 83 80 80 79 80 78 76 76 75 68 68 74 78 81 95 100 111 114 116 117 117 116 114 112 118 119 117 114 117 125 124 121 124 125 121 116 113 116 113 
176 187 184 183 188 192 192 186 176 129 88 78 78 80 86 84 83 84 90 85 87 84 85 86 86 84 84 79 77 79 75 74 75 70 70 64 74 75 84 93 104 107 112 118 118 116 115 114 115 116 119 118 119 117 117 122 119 121 125 125 119 117 114 109 
176 173 184 187 186 184 187 190 189 182 150 99 75 77 77 78 83 89 84 84 83 84 83 82 83 83 83 81 77 79 77 79 70 75 70 69 69 75 83 95 102 109 115 118 121 117 116 115 115 113 116 114 116 115 117 116 117 124 123 121 120 112 111 109 
180 185 181 186 191 187 187 187 187 185 186 174 116 77 69 73 79 85 80 78 82 82 82 84 81 83 80 76 78 74 75 75 74 71 69 65 70 78 86 94 105 109 116 119 120 121 119 115 117 113 115 116 113 113 111 112 116 116 120 122 123 113 112 107 
175 179 184 185 184 188 193 188 182 188 190 193 189 149 87 68 77 73 71 73 76 81 79 80 80 79 79 78 76 79 78 72 73 74 71 69 70 78 80 95 106 112 117 122 123 121 120 119 116 115 114 114 109 116 109 111 109 110 113 123 122 115 115 112 
186 177 181 190 189 186 187 191 189 187 188 195 195 193 160 89 66 65 72 71 73 74 76 79 82 78 80 77 77 76 75 73 73 75 72 65 70 74 82 89 105 110 119 122 121 122 121 123 120 119 114 109 106 108 106 106 103 107 110 119 121 118 115 112 
180 187 183 185 186 191 187 186 185 192 191 193 194 194 196 165 98 61 65 62 65 67 72 76 81 75 80 76 73 71 74 76 79 73 69 65 69 73 83 94 105 113 117 125 123 124 125 120 121 116 115 109 103 101 102 99 98 98 104 111 120 121 118 114 
182 180 187 192 182 187 188 186 187 187 189 189 182 180 189 198 177 126 115 82 59 64 67 71 78 75 78 74 74 74 71 69 74 67 67 65 66 75 78 94 110 118 122 124 124 129 128 125 119 119 120 110 101 98 91 93 89 92 98 110 114 121 118 115 
183 184 186 184 187 188 184 182 186 184 171 176 189 197 206 212 217 218 215 189 95 53 59 68 76 72 74 76 72 68 71 71 73 70 70 65 69 75 83 97 109 114 123 125 127 127 128 125 122 124 120 110 100 92 86 80 84 83 95 101 112 117 120 117 
182 173 190 188 179 182 182 173 173 184 195 206 206 208 211 211 214 221 224 224 180 67 52 55 68 70 75 71 68 67 67 69 71 69 69 62 70 74 78 94 108 116 118 123 128 125 128 124 122 122 124 114 102 87 80 68 74 73 83 93 107 111 119 119 
183 185 177 174 176 170 176 190 203 207 204 204 211 206 206 209 211 214 222 225 218 127 49 52 62 66 70 68 72 67 70 70 65 67 67 64 68 78 80 96 102 114 119 124 126 125 127 125 123 124 123 113 103 90 74 62 59 59 73 85 98 106 115 120 
174 167 160 168 179 192 204 207 207 201 204 203 203 208 202 205 210 208 217 222 222 196 93 48 55 61 69 65 69 68 67 66 70 68 66 61 66 75 79 96 105 114 117 122 127 122 126 124 122 124 122 115 108 95 78 55 49 49 53 73 90 104 110 115 
156 163 178 196 204 206 202 204 203 201 201 204 201 203 205 197 201 208 211 219 219 223 180 66 50 54 59 62 61 67 63 64 68 64 64 63 62 75 80 93 101 109 119 128 127 124 123 122 125 123 120 113 107 95 78 57 37 34 40 64 83 98 103 113 
183 200 203 211 203 200 195 197 200 203 203 198 200 198 204 207 198 202 210 212 219 218 215 147 57 45 50 59 62 67 64 64 69 64 62 58 64 72 79 91 101 111 121 125 126 122 123 124 124 124 122 112 107 98 80 55 28 22 26 52 75 88 102 108 
205 204 204 202 200 197 193 197 202 197 199 200 195 201 198 200 206 197 203 204 208 223 218 211 136 50 47 48 57 60 66 63 65 63 65 61 64 71 80 90 103 112 121 126 124 125 126 122 123 119 121 117 107 97 85 64 34 18 22 35 59 81 91 104 
202 203 196 196 194 199 201 192 199 201 200 199 198 194 200 197 199 205 208 209 212 221 223 216 198 91 46 48 53 55 55 62 67 63 64 59 63 70 81 92 99 110 120 125 127 128 126 123 123 122 123 120 111 100 86 65 36 13 16 23 48 70 81 95 
191 193 198 203 207 199 195 196 191 195 195 193 193 195 198 207 205 209 208 211 211 220 224 220 218 178 65 44 49 48 54 56 56 58 59 59 64 70 81 92 105 113 122 125 127 124 125 124 125 124 124 115 112 103 90 66 35 16 15 23 43 68 75 88 
195 197 203 203 196 199 192 193 187 182 188 198 194 202 209 211 206 201 204 200 204 209 212 221 218 218 133 64 48 43 51 51 55 56 55 54 62 72 81 93 105 112 120 125 126 124 126 122 125 127 123 118 112 98 85 59 37 13 13 21 35 60 71 86 
195 201 189 196 192 184 188 188 200 193 195 202 196 193 197 192 194 196 198 201 201 206 208 208 211 217 206 159 96 62 43 46 48 50 57 52 58 67 82 93 103 110 119 125 125 125 125 121 123 126 121 118 112 99 89 60 34 15 24 25 32 50 66 73 
189 186 196 190 180 190 184 194 201 197 189 190 187 193 195 195 193 201 204 202 206 205 205 206 210 213 217 222 205 132 51 45 40 48 50 51 57 66 78 92 104 111 118 127 125 124 128 126 124 122 125 121 113 100 85 61 37 17 17 25 20 20 49 63 
192 185 187 193 187 198 181 188 187 191 196 196 196 197 199 198 198 200 202 203 202 205 203 205 209 211 213 218 221 214 140 70 35 41 46 49 54 65 77 88 104 113 122 126 126 124 126 123 120 125 126 131 108 100 82 64 39 20 19 16 13 20 29 52 
186 188 192 193 188 181 189 195 200 188 195 204 199 199 198 200 202 202 199 201 202 204 204 197 207 207 206 206 211 223 213 124 37 33 39 45 54 63 77 95 102 111 120 128 124 124 125 122 124 122 128 120 108 98 82 64 39 16 23 15 11 18 18 41 
186 186 180 182 192 197 197 190 198 201 189 198 200 201 200 198 199 202 195 197 201 204 202 200 206 210 207 209 206 215 216 206 85 23 33 41 52 61 78 90 99 110 121 121 125 123 122 125 122 123 125 119 109 100 84 66 45 20 17 15 13 14 13 21 
166 177 183 192 195 196 195 197 187 198 200 192 198 195 199 195 202 205 200 200 202 202 200 200 197 209 208 209 212 217 210 215 174 41 32 34 46 58 72 90 99 110 118 123 124 125 125 126 123 124 123 118 110 98 88 69 44 23 17 19 19 16 13 15 
179 188 191 188 194 196 196 198 199 191 205 194 189 201 201 198 199 201 199 199 199 196 195 195 195 201 207 211 209 218 217 221 209 101 59 31 41 55 70 85 98 110 117 123 125 124 127 125 122 126 122 119 107 99 83 66 43 24 16 18 17 14 10 11 
189 182 188 192 187 193 197 197 198 191 193 201 193 195 197 197 197 195 194 191 194 201 199 201 198 203 206 209 210 211 219 223 225 196 88 27 39 50 72 90 100 109 117 121 123 122 126 125 126 124 124 120 109 98 83 67 46 26 21 17 18 17 12 10 
190 190 183 182 190 192 196 199 199 194 192 197 198 195 198 197 193 181 192 195 198 204 206 202 199 200 205 206 207 207 213 220 223 223 176 33 32 47 70 87 99 107 120 121 120 120 125 123 122 126 125 126 111 96 88 69 42 27 18 15 17 17 13 16 
186 187 193 184 188 192 188 197 194 194 191 196 192 194 187 189 198 199 193 194 199 200 200 206 202 193 203 204 204 209 210 221 223 222 210 67 28 50 65 86 101 110 118 121 120 122 124 124 123 125 120 124 110 98 89 65 48 23 18 17 20 16 16 10 
191 180 187 189 186 188 187 186 195 196 189 187 185 188 199 199 195 202 199 189 194 200 200 201 205 199 202 204 203 205 208 210 222 219 219 126 28 42 63 82 99 108 118 122 122 125 126 125 126 126 123 122 112 99 85 73 47 23 19 18 16 14 12 12 
184 187 178 189 184 184 187 190 188 185 179 186 190 193 198 199 196 194 201 199 192 196 200 202 200 202 203 200 201 204 205 207 214 223 223 188 51 40 57 79 95 106 116 120 123 123 126 122 123 127 123 123 113 99 82 66 40 24 17 16 14 11 14 17 
187 183 186 178 186 179 183 178 176 180 190 197 193 194 194 198 197 192 189 199 198 188 195 199 200 199 200 198 194 197 199 202 211 220 222 215 129 38 51 78 94 109 124 122 125 124 127 129 126 124 125 123 115 99 81 67 44 19 18 14 17 14 19 77 
181 186 186 185 177 177 171 174 188 193 190 193 191 193 196 196 190 192 191 187 192 190 189 198 200 196 196 200 200 200 205 200 203 212 222 220 199 80 45 72 92 106 109 132 126 125 127 128 126 123 122 119 111 98 85 60 29 14 14 12 14 30 105 194 
172 182 187 180 166 171 189 186 186 189 191 187 185 188 194 193 188 193 194 190 189 194 192 197 200 202 198 203 204 202 202 200 201 207 212 217 217 162 53 67 91 105 115 129 128 127 131 129 129 126 128 122 108 98 77 60 26 13 12 16 39 137 197 209 
183 168 162 163 178 191 190 191 184 185 188 189 180 174 187 195 193 190 193 195 196 195 196 198 203 199 197 197 196 195 197 198 200 201 204 208 215 206 101 65 89 104 117 123 127 125 128 127 126 128 125 116 111 89 71 58 21 14 19 61 158 208 210 185 
