P2
85 85
255
43 40 40 39 37 32 37 38 34 34 36 45 52 74 93 112 123 130 139 141 147 149 150 153 151 156 158 156 144 133 116 92 67 46 37 45 52 48 66 108 91 74 97 78 31 33 62 85 108 59 18 28 44 53 42 40 45 29 65 44 46 46 46 94 35 51 92 108 97 98 99 70 137 25 26 12 35 43 60 77 73 100 131 144 172 
41 37 38 36 35 37 37 37 29 32 38 43 54 70 92 109 123 131 138 144 147 147 151 153 155 158 159 158 147 132 116 94 71 43 34 45 49 59 103 104 71 70 100 72 32 53 60 77 92 39 25 28 35 50 40 50 42 46 55 54 42 45 45 74 66 27 36 92 119 91 116 120 91 7 19 13 49 97 95 75 80 111 141 155 187 
43 31 31 32 35 41 38 36 32 31 35 38 52 68 93 110 126 131 140 145 148 150 150 154 157 160 161 155 149 130 114 94 73 42 37 39 47 90 109 67 65 72 93 61 38 42 23 88 72 30 34 29 52 38 37 57 43 69 57 64 52 46 53 55 70 64 26 44 107 98 114 132 48 17 16 47 96 114 150 149 126 149 179 184 157 
40 29 29 30 34 34 38 35 36 28 32 44 50 69 96 111 125 137 138 145 149 149 149 152 154 162 160 156 148 133 117 89 67 45 38 41 65 114 73 58 61 73 108 62 31 16 34 89 97 34 36 32 42 36 31 43 40 59 83 65 74 62 60 51 42 90 58 29 47 66 100 115 104 31 20 84 66 94 151 190 189 193 188 164 69 
28 29 27 29 28 31 37 36 32 28 32 42 51 67 95 112 127 139 143 148 151 150 155 154 158 160 157 158 146 131 114 91 68 41 33 54 105 88 54 56 72 97 114 51 24 18 52 32 70 40 38 37 45 41 33 29 33 64 107 69 81 78 62 51 42 48 91 59 53 79 75 103 78 85 94 136 107 104 162 182 200 197 179 83 76 
29 27 27 30 33 35 37 31 29 28 37 46 57 75 98 118 125 134 142 151 154 155 156 158 157 160 158 155 147 131 110 89 67 45 38 109 102 58 48 58 101 121 108 48 26 40 60 17 29 31 42 39 49 44 37 28 30 74 122 97 84 74 86 64 61 38 53 93 102 78 41 77 51 48 105 112 93 138 178 187 203 192 120 60 74 
25 28 27 28 29 31 37 32 30 32 35 56 58 75 96 117 125 136 144 151 153 155 156 155 156 161 162 155 143 130 110 91 66 47 92 113 66 45 50 76 113 109 94 44 27 50 35 25 16 37 44 43 53 36 48 41 32 72 118 107 76 72 74 78 84 68 59 76 124 73 38 50 33 62 103 109 98 97 187 215 204 172 75 69 56 
29 28 30 28 30 28 32 31 28 33 43 61 65 81 100 115 125 136 143 153 155 154 156 158 162 162 161 153 143 129 113 86 67 103 124 66 43 46 59 97 113 89 81 55 39 38 46 24 29 20 28 24 55 37 40 56 26 81 149 103 48 69 75 75 79 80 70 72 50 68 67 57 75 95 125 109 96 86 142 217 188 111 71 69 87 
27 30 29 30 30 33 35 34 26 30 42 55 64 74 97 115 125 133 139 151 154 156 158 159 161 163 161 156 144 131 112 86 103 124 69 41 44 47 75 117 86 79 74 57 41 34 83 40 32 15 20 20 66 42 33 74 22 87 156 100 42 40 73 87 93 68 60 66 37 45 86 80 102 104 121 111 98 79 121 203 131 70 78 103 153 
29 29 24 27 30 29 30 31 25 27 47 58 64 72 94 113 125 134 140 147 154 157 160 157 161 161 158 152 143 144 124 108 112 65 36 36 43 57 96 120 73 73 68 43 49 50 121 41 15 16 16 37 78 42 32 70 34 102 153 102 49 32 61 60 76 102 80 63 53 45 64 73 119 112 124 106 85 104 175 176 63 86 106 152 149 
31 24 26 28 26 23 27 27 24 27 43 56 63 67 92 112 125 133 140 149 152 159 158 160 162 162 163 154 145 140 148 110 77 39 30 36 47 82 129 81 67 79 61 28 38 84 102 31 23 24 20 46 75 33 65 56 53 131 131 93 97 31 57 70 37 78 106 83 83 75 90 80 129 131 119 115 73 127 203 112 82 116 144 185 105 
22 21 24 25 25 24 26 25 23 27 47 56 68 64 89 109 121 131 137 146 157 159 157 161 161 160 163 155 145 130 116 89 64 40 34 39 59 122 103 68 72 87 57 28 26 116 93 18 21 26 24 69 68 25 57 56 59 154 104 68 121 68 67 99 51 42 70 109 77 119 111 84 101 143 128 112 74 126 187 104 119 144 183 122 44 
37 25 20 23 22 31 27 25 26 27 51 65 55 60 86 105 118 129 134 149 156 161 158 159 156 162 161 155 145 127 113 91 64 40 33 36 84 127 69 66 76 78 34 28 38 125 84 13 23 18 23 80 48 24 33 60 69 175 117 48 81 113 86 108 61 43 35 80 127 113 77 111 62 119 94 122 85 143 194 130 151 164 165 41 30 
26 22 25 28 20 22 21 17 21 33 60 66 61 61 86 104 114 123 131 146 156 157 159 158 161 162 164 153 143 132 113 91 65 41 29 39 88 117 64 70 81 55 24 30 50 116 61 20 22 20 39 72 38 29 21 38 102 167 127 71 52 130 97 110 71 59 54 90 109 119 99 77 55 102 77 99 81 168 172 122 155 174 55 23 26 
28 21 25 23 23 20 23 20 17 44 75 70 69 74 87 100 112 122 132 145 154 156 157 158 156 159 162 154 146 131 116 94 66 41 29 35 88 112 60 66 57 49 39 31 51 97 32 27 22 15 45 63 29 40 25 27 127 150 122 112 59 102 123 111 84 83 107 75 65 107 105 67 45 109 100 96 86 159 184 166 191 81 30 28 26 
27 25 24 23 21 19 17 19 19 52 73 75 70 74 90 104 111 118 130 144 151 156 156 157 157 158 159 154 144 135 116 95 67 43 32 36 70 104 71 72 67 53 38 55 51 67 30 26 21 17 52 60 27 41 31 33 107 147 113 79 109 77 146 112 87 97 90 49 69 98 109 68 38 97 81 102 101 189 202 189 116 35 21 21 27 
21 23 20 22 22 22 23 23 29 59 70 72 70 73 93 100 113 118 131 146 151 155 157 155 155 158 158 151 140 129 114 93 67 49 34 37 58 92 81 77 51 45 45 74 62 56 29 21 16 19 58 58 19 31 34 26 87 120 89 84 95 83 113 125 92 94 78 59 58 65 111 79 69 107 58 89 73 149 199 138 35 27 25 27 29 
17 22 20 23 24 21 23 26 28 54 74 74 68 75 93 100 110 124 133 143 155 153 153 157 157 156 158 156 142 132 114 90 66 46 30 42 55 76 72 73 56 46 53 58 71 50 34 27 18 18 63 54 22 25 34 41 79 113 80 66 89 99 93 115 104 108 95 83 57 53 121 82 76 112 54 75 80 117 185 57 31 32 23 23 27 
20 23 21 22 21 19 24 21 31 59 72 74 70 71 91 103 109 120 135 143 155 157 155 158 157 155 158 153 143 133 114 92 66 43 30 44 52 78 71 75 38 41 42 35 92 47 30 31 25 20 60 50 19 33 31 50 76 100 88 35 38 51 96 104 122 115 106 101 80 56 122 97 71 128 65 53 85 88 172 41 57 31 26 28 30 
21 20 28 27 17 17 24 23 35 53 60 65 66 72 92 103 108 123 133 146 153 155 155 153 157 157 160 154 144 134 114 94 69 42 33 44 55 71 79 47 34 35 33 38 107 42 33 35 27 25 51 49 22 33 23 44 93 105 88 38 32 31 53 90 117 115 89 115 114 87 104 109 101 119 71 69 73 64 48 41 54 30 29 28 36 
24 17 26 27 24 21 23 20 27 45 57 66 71 80 96 104 110 124 134 147 152 155 153 156 157 157 160 154 146 133 113 94 64 42 32 40 52 70 79 29 26 31 25 45 94 60 24 36 41 23 49 42 20 28 19 23 92 115 114 50 29 42 56 73 88 100 106 122 120 90 95 99 116 125 76 68 72 78 37 43 35 33 25 27 29 
24 22 19 20 19 14 22 27 25 35 52 67 71 83 99 99 113 123 134 145 151 151 150 155 154 159 157 154 146 134 117 94 65 41 31 37 51 91 51 32 21 25 40 62 60 52 24 38 40 34 46 44 23 26 26 17 82 131 115 79 29 56 53 67 87 75 101 97 134 130 125 94 115 130 142 52 65 77 73 34 31 33 28 31 28 
16 19 23 22 22 18 16 26 20 28 49 68 70 73 91 102 117 128 137 144 152 149 151 152 157 157 157 152 145 132 112 91 65 38 25 46 102 93 57 85 24 20 44 73 44 47 34 36 37 39 44 35 21 25 29 14 67 140 118 94 39 52 54 42 67 95 103 69 94 123 83 109 116 141 134 103 120 104 110 48 25 22 25 28 27 
23 18 23 24 17 17 19 19 17 31 45 66 65 64 84 101 112 128 134 145 150 152 151 151 153 156 159 152 140 131 110 84 60 32 55 129 176 76 85 116 20 19 32 56 47 29 38 34 32 46 25 28 23 26 22 15 52 140 125 128 74 75 63 36 54 103 119 73 59 99 83 110 131 146 121 113 134 153 144 101 40 30 28 30 28 
20 22 24 22 20 15 17 15 16 28 45 60 59 57 73 96 112 125 135 143 150 153 149 154 153 154 152 151 139 129 107 81 55 65 152 190 74 36 82 98 24 15 24 61 52 30 35 39 35 42 25 30 21 21 20 14 47 123 109 136 106 55 56 38 32 72 118 66 53 111 111 61 123 139 125 83 49 78 134 145 96 47 20 18 22 
27 32 29 29 19 15 16 17 15 28 40 50 48 49 78 100 111 124 133 147 151 152 152 152 149 151 153 152 142 123 103 81 85 159 190 71 78 37 101 76 32 31 17 59 56 42 38 38 50 27 29 49 23 22 24 19 62 118 101 104 128 78 56 46 24 37 70 64 90 141 112 62 81 136 146 119 64 33 54 148 162 131 48 20 23 
30 34 35 33 26 20 21 16 12 26 32 47 47 47 74 99 108 122 133 142 150 149 149 151 150 154 157 150 138 122 106 105 171 176 66 48 38 31 90 41 18 17 21 56 65 44 30 41 41 32 31 68 33 32 28 23 51 107 109 89 120 125 69 38 18 34 86 101 120 141 80 67 82 101 127 84 104 70 32 94 147 149 130 48 26 
43 42 40 37 29 25 26 21 19 23 35 40 36 43 66 87 102 116 130 142 148 148 150 146 149 150 153 145 137 126 126 172 145 51 36 56 33 60 120 21 19 17 14 41 68 42 30 38 39 29 30 69 59 34 28 25 38 61 105 114 82 108 119 55 42 57 80 119 146 107 48 74 69 70 101 112 68 63 56 73 136 105 140 130 34 
78 66 53 43 37 28 27 22 22 31 35 36 28 33 52 77 96 116 130 142 150 148 146 147 149 146 154 147 142 140 180 140 68 34 36 48 42 126 86 17 15 19 10 31 58 46 18 36 27 25 27 71 77 41 41 37 35 23 56 119 96 65 108 102 111 115 119 147 133 51 62 60 90 74 78 113 86 45 104 114 147 101 54 153 104 
107 98 82 66 53 46 36 28 27 34 26 28 20 26 40 66 87 111 129 141 146 147 150 146 148 150 151 160 176 156 127 90 64 39 43 75 114 109 36 16 18 19 17 19 36 58 41 59 12 18 22 48 82 54 49 36 62 13 20 100 113 96 55 41 65 77 107 142 70 54 70 80 63 98 93 89 91 80 102 140 149 83 54 66 147 
113 113 107 95 72 61 52 39 35 44 30 25 21 23 38 62 84 109 126 139 146 145 148 151 150 148 159 167 154 135 116 93 66 44 77 96 169 40 17 16 16 17 14 20 18 45 79 73 6 15 22 37 96 68 49 56 67 12 10 34 98 119 102 73 66 58 87 112 34 85 85 76 84 75 102 102 93 89 97 102 146 67 58 47 68 
123 116 116 114 97 83 64 54 49 52 40 29 23 21 40 62 83 110 130 139 143 146 145 148 147 144 153 149 146 133 115 91 67 68 103 119 138 20 22 18 18 21 20 16 26 39 81 72 10 13 18 37 111 69 49 82 64 25 16 22 52 91 97 118 84 81 123 83 46 45 98 91 90 89 63 135 105 103 118 97 104 135 45 24 82 
122 118 125 121 114 103 87 75 64 63 50 34 19 16 39 61 82 109 130 139 144 146 146 147 147 150 149 150 142 132 114 89 100 117 94 122 71 21 16 21 16 15 14 15 59 85 89 68 21 14 25 85 117 47 55 71 37 28 16 44 77 50 33 74 93 121 75 40 49 53 49 102 102 94 72 111 140 104 115 88 76 111 123 25 32 
119 116 124 130 132 121 108 92 75 68 55 38 19 18 31 60 86 111 127 140 144 148 148 147 150 151 153 148 142 128 109 95 135 164 67 93 46 19 21 22 21 14 12 10 23 73 99 111 98 87 108 105 56 45 44 45 57 18 42 96 65 33 40 94 104 59 52 35 50 63 58 63 96 105 101 133 126 126 114 118 38 28 102 96 25 
110 118 127 135 138 131 124 109 95 79 59 40 24 13 31 61 89 110 129 145 150 153 150 150 148 151 156 152 142 128 106 123 197 149 61 64 49 34 21 16 17 15 19 18 22 41 33 37 59 86 76 48 45 55 33 39 48 64 101 83 22 18 50 121 45 33 45 35 34 62 78 59 82 98 109 119 119 121 127 140 68 12 66 161 71 
108 116 125 131 141 137 136 123 110 95 71 46 32 15 35 59 83 110 131 141 153 152 154 151 152 152 157 150 142 126 110 147 207 110 84 59 27 29 27 22 25 24 24 23 36 55 21 17 39 53 40 38 33 26 35 52 67 67 58 34 12 19 92 123 27 36 39 54 41 42 76 80 65 68 91 117 118 113 146 130 123 26 20 127 162 
108 104 114 130 139 141 139 130 119 115 87 60 31 14 34 55 86 111 131 142 153 156 154 152 150 153 157 149 140 127 112 156 202 88 110 120 12 16 13 24 32 34 30 35 40 51 34 20 47 54 35 29 35 40 38 32 25 22 29 33 24 27 86 103 49 23 40 58 53 48 55 89 74 64 75 111 128 115 126 97 119 86 45 86 154 
74 82 108 120 130 138 146 140 138 129 102 64 31 15 32 64 87 110 128 144 155 154 154 156 156 154 159 154 143 131 111 128 180 65 71 101 15 16 22 20 26 27 20 28 49 36 43 29 24 33 19 23 58 62 40 31 19 18 19 53 33 18 32 66 86 37 28 42 41 54 46 66 93 70 60 109 126 115 115 96 105 120 77 89 82 
41 58 92 112 125 138 153 152 149 132 112 79 32 15 30 58 86 115 132 143 156 156 156 154 154 158 161 151 144 129 113 135 126 88 47 31 16 16 24 16 17 26 20 30 51 24 35 30 22 22 16 25 74 75 33 44 25 20 18 60 55 16 20 48 84 71 27 36 50 51 44 52 81 88 62 107 129 109 111 123 110 134 69 99 36 
20 39 74 102 119 142 155 153 153 139 120 92 46 12 29 57 88 112 130 144 157 155 154 155 157 160 157 153 143 127 118 142 154 95 50 34 19 18 21 17 16 26 22 59 37 24 34 27 27 19 17 37 83 69 19 60 35 16 13 40 84 29 17 40 62 58 67 34 45 58 54 51 49 91 67 104 90 91 98 129 120 160 121 91 19 
12 24 57 89 114 147 152 157 157 142 123 102 49 12 24 55 88 117 131 146 153 157 159 158 155 157 159 153 143 132 115 116 158 87 64 55 14 13 22 15 23 21 29 70 24 26 22 42 28 23 19 40 96 70 20 49 34 13 12 20 73 52 18 30 73 36 63 65 36 75 71 57 40 59 72 103 63 94 106 100 123 157 144 75 17 
9 17 29 66 106 142 158 162 162 148 133 111 53 13 18 49 86 116 130 145 155 154 154 155 159 159 158 152 143 133 119 99 89 146 74 47 12 19 25 19 20 26 50 41 23 19 26 31 23 25 19 40 102 75 21 43 42 21 14 13 30 65 45 23 68 35 41 77 62 63 81 87 76 49 61 92 61 110 114 88 122 155 135 81 34 
7 9 21 53 109 140 158 159 159 150 136 111 56 10 11 43 91 113 131 143 153 159 159 153 153 158 159 157 146 135 120 99 80 146 50 26 19 23 20 17 33 33 38 27 20 22 29 25 17 19 21 44 108 66 16 38 56 23 13 13 16 27 68 59 62 46 25 49 64 60 81 92 93 74 48 68 58 101 121 130 116 144 99 27 41 
12 13 22 45 96 139 159 163 162 157 143 113 40 11 15 46 87 116 132 140 158 161 158 157 155 160 159 154 148 137 123 99 75 85 114 19 19 26 22 17 23 39 30 26 23 24 25 26 23 21 20 60 126 58 15 28 60 24 13 20 29 24 37 61 69 58 26 53 45 72 70 91 82 74 57 67 53 84 135 141 125 140 132 29 21 
10 17 21 39 88 135 155 163 164 156 143 104 43 13 13 50 87 115 130 144 156 161 160 158 159 160 159 158 150 138 124 103 101 95 104 23 29 23 20 24 38 34 26 30 24 24 27 28 25 25 23 86 126 56 14 16 56 40 12 30 29 18 39 26 26 37 20 58 38 71 69 81 73 69 52 65 57 86 123 138 118 129 141 62 20 
7 10 21 44 86 130 148 160 163 156 137 106 45 7 10 42 87 113 132 147 157 157 158 157 156 161 163 159 150 136 120 102 148 101 63 24 31 15 19 34 37 25 20 26 16 15 26 26 20 19 36 115 117 49 14 15 42 39 13 40 35 23 45 28 14 29 28 46 51 55 78 81 93 75 62 52 50 89 126 120 93 142 116 94 30 
7 7 9 30 82 130 144 158 162 159 141 109 48 7 13 40 83 114 131 144 155 162 158 160 158 159 163 159 151 138 122 101 142 94 57 21 28 19 26 41 27 22 22 20 22 17 30 12 12 19 73 112 106 46 22 24 27 36 16 51 30 28 28 36 20 29 22 27 50 48 61 81 99 72 54 52 37 83 144 109 105 143 109 124 95 
6 8 8 24 74 123 145 159 163 159 144 114 48 8 12 37 86 113 134 148 158 160 158 159 158 163 165 154 146 137 120 104 125 72 17 21 29 26 33 28 21 16 18 17 19 22 21 11 10 41 121 102 101 48 17 16 19 31 22 44 27 30 15 24 20 34 23 22 43 40 52 64 112 89 32 33 38 88 136 122 131 144 65 76 125 
9 8 8 20 64 116 148 161 164 159 143 116 57 9 11 34 86 111 133 146 160 160 158 157 162 161 163 159 151 138 123 103 113 70 22 25 33 36 29 13 21 17 20 18 21 22 14 17 37 94 90 69 73 29 19 17 21 25 41 44 17 31 11 13 23 41 33 13 47 38 37 36 100 103 40 46 69 99 122 123 137 145 121 68 113 
4 8 9 24 67 116 146 162 168 161 144 119 65 11 10 34 81 111 129 148 155 158 158 155 159 160 161 159 151 137 124 105 98 67 28 37 37 25 21 19 22 24 21 17 20 21 19 28 99 70 28 78 66 46 23 19 24 32 52 38 17 31 15 15 20 39 35 9 40 45 31 58 99 90 91 76 84 102 120 123 122 75 119 121 129 
6 8 7 19 68 118 143 158 165 159 144 120 73 16 11 35 79 112 132 147 159 155 156 158 158 157 157 156 145 135 125 112 90 75 39 37 34 18 20 21 25 19 22 20 23 23 41 49 46 20 25 98 59 49 26 22 20 33 54 35 18 21 21 17 22 38 40 11 40 64 28 26 46 52 93 107 114 105 114 135 105 54 75 109 118 
8 6 8 16 63 115 141 157 164 160 148 121 85 20 13 32 77 110 130 146 155 156 150 151 152 148 150 153 146 133 124 106 102 107 39 25 29 19 23 23 17 21 30 24 22 51 70 25 24 21 31 65 59 61 21 28 18 41 33 40 24 21 23 20 24 48 21 25 43 65 36 23 21 30 58 105 128 112 100 125 108 85 61 58 81 
7 6 8 17 57 106 144 158 164 161 149 126 84 15 11 35 74 108 130 146 155 157 156 155 154 153 160 156 146 133 120 108 114 98 38 38 19 18 20 22 20 19 28 27 20 41 34 22 27 27 28 66 62 50 26 24 35 37 22 36 24 28 24 26 20 41 29 28 66 64 29 23 11 21 52 102 132 101 114 112 112 70 73 10 11 
9 7 8 16 49 100 142 153 165 162 156 132 82 21 15 33 78 107 133 146 153 154 158 158 159 157 161 156 149 140 122 118 109 70 33 30 27 24 19 31 21 23 27 19 22 23 23 32 35 24 25 55 53 41 28 25 41 27 19 35 34 24 20 16 17 37 31 23 79 55 17 44 15 32 52 89 107 73 129 79 97 108 89 48 12 
7 8 9 17 36 95 136 154 163 164 155 132 85 28 14 37 75 107 127 146 152 157 157 158 160 160 162 159 150 139 122 111 115 69 27 21 22 33 18 20 17 19 27 24 24 27 33 40 27 23 31 50 45 33 25 34 27 24 27 43 44 21 16 14 20 37 16 26 79 57 17 35 63 44 64 76 104 91 99 108 81 109 115 101 20 
13 13 11 15 36 91 132 145 160 161 154 134 89 25 22 38 76 107 127 145 154 157 160 158 158 159 159 160 153 139 119 121 118 75 28 27 22 31 16 21 17 19 28 18 24 35 47 41 19 28 26 42 40 39 38 32 18 25 22 30 59 20 16 22 29 34 14 50 58 52 62 28 64 66 62 76 73 103 96 88 73 90 115 128 72 
10 9 10 11 32 84 129 147 163 161 152 135 95 36 24 35 71 106 126 141 152 158 158 156 158 157 159 156 151 136 115 128 122 96 27 37 18 30 19 17 13 26 28 24 55 63 38 27 22 21 29 41 34 35 35 28 29 30 30 27 41 30 17 18 31 35 19 72 43 37 76 49 19 84 78 77 72 108 117 98 60 37 69 106 125 
20 18 13 12 25 73 124 148 161 162 154 132 100 48 24 41 70 105 124 144 153 156 155 157 156 158 159 157 147 137 119 118 135 86 29 61 25 23 15 19 17 26 38 61 58 32 20 22 19 26 40 39 41 26 27 25 37 35 35 23 36 56 20 30 25 40 45 49 37 36 57 81 19 22 112 150 98 124 100 94 76 46 43 100 101 
16 13 12 9 23 67 117 145 158 162 155 137 110 58 30 37 69 105 127 142 152 156 154 154 158 158 158 158 147 136 119 112 142 89 37 66 29 22 17 20 31 55 59 35 31 25 25 22 19 27 45 32 45 28 29 35 41 44 41 26 23 44 35 27 17 42 82 26 23 28 36 89 52 22 31 65 63 98 104 100 55 27 30 74 102 
14 12 10 19 19 65 119 143 156 154 153 136 108 59 28 38 66 101 123 138 150 154 155 156 158 157 159 156 149 141 123 102 134 97 39 62 31 20 21 22 27 29 27 28 29 24 19 28 20 32 33 43 43 31 31 44 35 31 34 33 32 41 26 16 16 54 70 24 15 23 48 96 66 47 23 29 27 29 72 125 88 26 27 48 66 
14 14 8 14 19 69 120 141 152 156 153 135 109 60 35 38 65 100 123 139 149 155 157 155 158 156 159 155 149 138 124 100 116 94 43 53 37 26 20 18 20 24 27 27 23 20 24 31 25 44 30 41 31 33 39 62 41 23 25 23 34 24 22 14 17 66 32 28 24 23 64 104 103 48 54 30 31 17 27 95 109 27 34 74 70 
11 10 10 12 19 59 107 140 160 166 162 149 112 58 35 39 63 100 123 137 151 150 155 156 156 158 161 159 149 138 126 102 97 86 51 61 40 14 19 21 28 33 25 29 28 21 22 28 37 37 38 39 28 29 44 52 43 26 20 16 31 26 18 15 22 57 17 32 43 29 43 100 103 103 34 40 29 16 28 49 60 35 28 86 91 
11 14 8 10 19 43 102 151 163 166 165 150 121 71 33 32 61 96 118 135 148 151 156 153 157 158 159 159 152 142 127 107 95 80 51 59 50 16 18 23 37 23 17 23 22 21 27 40 42 26 42 38 29 29 39 38 46 29 25 20 19 16 26 17 25 27 26 44 48 87 77 77 112 133 59 25 48 48 23 35 33 22 37 98 46 
8 8 10 12 17 35 106 148 160 169 166 155 126 87 28 37 60 95 118 134 146 152 151 158 158 154 158 158 151 140 126 111 88 85 53 60 53 16 19 30 29 21 21 21 23 23 27 48 28 26 44 30 28 31 44 40 40 30 27 23 23 22 26 30 24 19 38 68 14 65 90 68 104 105 142 62 37 39 39 49 56 49 69 132 23 
15 14 9 6 12 34 108 143 160 167 167 155 135 97 34 37 62 92 118 136 146 151 154 156 159 154 161 161 154 139 129 107 62 97 58 65 50 13 19 28 17 23 21 18 21 29 45 38 24 27 47 30 27 28 40 40 43 33 40 28 17 19 25 27 29 28 30 30 11 26 70 57 90 97 127 126 95 31 53 75 93 91 36 35 23 
16 14 10 14 12 34 104 146 158 170 170 157 141 105 37 35 60 94 119 137 145 151 156 155 157 156 161 161 154 145 132 91 49 97 62 57 44 14 28 26 17 20 16 16 27 54 32 32 18 23 51 29 23 30 43 33 44 39 38 30 28 18 31 22 34 33 21 18 27 25 22 73 76 103 113 111 130 83 103 72 66 83 70 26 20 
23 21 24 29 28 39 101 145 161 171 171 162 151 107 43 38 63 96 119 135 146 153 157 156 155 157 165 163 154 146 132 87 57 105 53 38 30 16 32 20 18 25 18 27 35 37 26 35 27 27 41 27 21 36 48 33 36 35 34 24 35 34 27 19 18 35 34 25 29 22 13 30 70 86 125 132 90 118 91 70 65 47 83 52 16 
25 44 45 44 40 51 92 138 163 172 175 170 155 104 51 40 66 92 117 132 146 152 159 157 153 157 163 162 156 143 131 77 63 115 61 35 29 16 29 17 22 26 35 30 20 24 27 35 18 23 27 37 21 39 43 37 33 32 33 33 30 29 17 20 13 20 44 24 23 38 22 21 22 60 96 142 127 112 108 56 78 96 110 58 17 
54 61 58 54 57 66 94 132 159 174 178 170 153 114 63 45 63 92 116 135 147 156 157 159 154 157 166 166 153 148 124 76 68 112 70 34 22 18 28 24 29 50 37 22 24 19 27 33 29 29 27 35 29 43 31 39 40 37 39 31 25 24 22 21 21 17 20 34 29 54 31 23 18 19 56 109 113 129 123 82 88 62 81 95 21 
66 68 62 62 69 73 100 131 158 171 175 171 158 123 73 51 66 92 117 134 146 153 159 158 156 159 165 167 157 146 122 84 76 101 66 44 16 17 21 35 30 31 25 22 26 22 24 23 23 27 24 28 37 40 22 42 43 42 38 35 21 24 21 20 30 28 15 33 42 42 32 28 20 25 44 58 97 126 151 116 67 71 105 95 25 
58 65 62 67 74 85 110 137 159 170 176 174 161 129 84 48 68 88 116 134 147 155 157 160 157 158 165 167 160 150 121 76 78 95 64 42 22 24 23 21 19 25 25 21 22 17 30 36 32 27 23 21 25 20 31 45 46 33 29 38 41 18 24 20 24 38 34 17 36 43 37 30 34 46 35 47 45 56 90 120 102 97 50 28 23 
59 64 68 75 83 94 118 138 162 171 175 172 163 132 89 50 66 89 114 136 146 154 157 159 159 162 167 163 157 150 127 55 91 88 63 32 19 28 21 26 22 23 24 22 25 20 25 36 30 27 27 25 24 21 37 37 39 28 26 52 62 24 30 22 16 38 63 28 21 37 53 29 23 62 59 29 63 65 79 59 102 132 63 21 23 
45 61 75 87 92 99 115 134 161 167 171 166 159 132 92 53 70 90 115 134 144 154 157 158 158 164 167 166 155 147 129 54 98 84 58 20 19 29 24 28 22 27 20 31 29 21 27 36 26 21 26 22 25 39 52 46 49 21 33 61 65 24 21 27 15 39 68 62 29 30 66 26 38 48 74 39 61 108 108 38 49 63 73 25 25 
34 62 73 90 94 94 105 131 156 165 168 167 158 132 93 60 71 88 113 133 149 154 154 158 159 160 166 167 156 147 131 57 87 89 66 18 20 22 20 33 24 37 18 37 30 24 26 37 38 25 16 20 22 38 55 65 53 26 38 65 68 52 21 20 19 32 67 43 44 34 43 64 31 43 33 58 48 84 135 76 52 20 65 38 21 
25 52 71 86 86 83 93 120 150 163 170 169 160 130 90 61 71 86 113 132 146 154 158 159 159 161 164 162 158 146 136 62 72 83 50 19 17 24 24 33 24 33 22 39 29 21 22 30 50 38 21 24 22 45 48 76 55 23 35 64 75 65 31 21 26 20 70 41 19 23 36 104 36 37 30 57 57 65 129 96 53 30 46 46 20 
18 39 57 67 70 75 92 117 147 164 171 169 161 135 100 62 69 88 111 129 146 155 156 160 162 163 166 167 157 147 137 79 54 68 40 20 23 20 24 32 31 28 19 43 34 20 27 24 59 24 25 25 23 41 41 76 50 16 38 58 90 76 63 29 24 22 44 74 17 28 37 72 96 35 32 40 66 87 100 151 95 27 28 43 17 
19 31 41 60 68 71 86 111 144 163 168 167 159 138 107 70 69 86 110 129 142 152 156 159 163 162 166 167 158 149 137 91 38 54 21 24 23 18 21 26 25 30 29 39 31 28 27 27 70 23 23 26 28 33 34 77 42 17 36 69 95 89 84 39 33 26 28 84 40 25 23 36 97 55 49 33 62 98 94 113 121 69 31 37 18 
26 30 32 49 59 64 74 103 138 156 166 166 159 137 108 81 74 88 106 127 146 153 157 160 161 160 162 167 157 142 137 100 32 53 17 27 22 21 41 24 20 27 34 41 32 32 34 29 76 31 23 24 26 42 44 78 32 16 23 63 83 94 90 47 17 19 59 71 90 14 12 43 45 87 42 46 40 104 94 67 75 90 65 28 21 
31 34 29 39 54 61 64 98 133 158 169 172 163 144 114 87 75 86 106 128 143 153 156 160 161 163 163 164 157 146 137 91 34 49 29 28 24 24 28 31 14 25 32 42 37 37 33 27 58 53 24 21 25 31 66 67 24 19 20 59 79 71 106 66 16 11 37 78 106 45 12 26 50 63 76 36 43 82 88 98 52 83 67 34 17 
29 37 42 37 44 51 58 93 136 165 179 184 180 163 125 92 73 89 108 129 145 154 160 159 162 163 168 165 161 149 124 60 30 45 45 35 22 24 23 26 21 33 30 38 31 32 36 36 31 70 26 20 18 29 68 52 18 17 17 58 89 38 105 102 30 16 21 72 102 72 25 8 24 66 96 40 26 55 86 97 83 54 42 34 19 
26 32 30 30 40 41 45 88 141 182 194 194 191 185 149 95 84 90 110 132 144 155 157 159 161 164 166 167 159 139 83 44 27 37 26 30 20 32 26 24 20 28 37 36 29 31 35 39 22 65 50 18 21 26 96 64 23 25 22 64 94 29 82 118 70 34 16 70 85 79 47 15 14 47 67 104 29 20 51 73 98 46 18 36 20 
25 34 30 26 34 36 46 96 149 189 195 196 193 190 168 111 82 89 106 130 142 154 158 155 161 161 164 164 158 147 108 79 38 31 23 30 38 25 23 21 22 34 30 30 33 34 39 45 25 37 71 13 20 38 117 55 20 26 19 69 97 39 56 125 106 34 15 20 64 84 34 35 13 38 47 88 70 17 48 48 91 73 53 52 21 
24 28 29 27 37 30 41 98 164 188 193 196 195 188 176 130 80 91 109 127 141 155 156 156 160 158 163 163 158 144 110 99 51 30 22 26 29 24 31 24 34 45 37 29 32 33 41 43 33 23 74 31 21 45 114 49 23 22 26 81 101 29 52 84 128 52 17 18 42 92 43 38 33 23 58 46 78 29 41 44 84 71 85 95 29 
28 28 29 28 33 30 38 92 165 187 191 194 193 186 178 136 82 90 109 129 142 156 158 159 162 159 163 165 154 147 89 78 44 26 25 22 23 22 31 30 31 34 30 37 34 41 53 53 50 29 36 48 25 68 92 44 24 25 34 69 96 17 62 48 122 99 25 16 47 95 88 26 37 38 47 60 42 42 21 47 64 73 57 102 94 
20 25 26 26 32 27 37 79 161 187 189 191 190 184 174 135 78 92 109 132 142 154 158 159 160 161 163 163 158 145 73 65 34 36 29 17 15 29 37 20 42 30 41 40 35 45 42 52 53 27 27 47 45 110 72 31 32 32 30 75 98 16 56 51 60 105 70 25 39 111 87 24 14 23 40 60 48 39 25 23 28 75 44 63 102 
