P2
85 85
255
62 63 63 66 65 65 62 62 64 66 68 71 72 83 95 108 122 135 139 148 151 148 150 150 147 148 144 136 124 113 97 67 53 42 39 46 52 59 62 65 60 66 65 62 61 60 66 66 62 62 66 64 64 62 64 60 58 46 45 171 197 189 171 189 147 155 137 141 113 125 109 126 103 97 67 51 82 98 106 104 101 91 105 111 92 
67 62 66 64 60 64 68 65 64 64 72 69 72 83 98 110 121 134 142 150 148 150 151 149 148 151 146 140 126 111 90 67 53 39 40 48 52 55 59 67 66 61 63 60 59 60 65 62 63 65 60 61 67 63 65 60 55 47 43 172 204 185 192 161 170 137 152 128 141 130 124 121 122 90 68 72 93 95 94 96 98 96 113 96 78 
66 68 63 67 62 65 65 65 65 66 67 68 72 82 100 112 123 132 143 148 147 152 150 150 152 151 144 140 130 111 93 72 54 42 36 42 57 56 61 65 64 62 65 64 68 62 61 68 63 63 59 66 64 62 58 62 60 47 43 169 201 197 170 194 153 151 135 141 126 117 131 122 123 94 80 90 85 91 93 94 93 110 92 78 87 
67 66 62 67 68 64 63 66 66 62 64 66 73 84 100 111 123 134 143 149 150 150 157 150 150 151 146 138 128 112 92 72 51 38 43 48 48 55 60 62 65 64 61 64 65 62 64 66 61 66 64 64 63 61 62 59 52 45 43 156 209 182 194 169 181 158 154 131 117 125 112 133 112 104 83 80 91 84 80 91 101 96 77 93 88 
64 68 66 65 63 73 64 67 69 71 70 71 79 89 101 113 125 133 143 149 153 149 152 151 151 152 147 137 127 111 92 72 55 41 36 43 50 53 60 62 60 62 62 70 69 61 63 70 62 64 65 62 63 63 64 60 57 47 44 153 197 203 175 189 175 170 158 139 115 97 119 108 147 97 75 75 83 94 83 98 95 70 82 88 104 
66 65 69 70 68 66 68 64 66 69 70 70 74 83 104 114 126 133 146 151 150 151 153 150 151 152 145 140 126 112 93 76 51 45 37 45 49 54 63 61 64 62 65 65 65 63 66 69 61 61 63 62 66 60 60 63 58 51 42 121 213 184 191 176 187 179 154 135 107 101 83 127 104 78 73 75 81 91 92 91 66 78 89 102 113 
63 68 69 72 70 64 67 65 68 64 72 72 74 85 101 113 125 138 147 147 153 149 149 152 148 153 147 137 129 114 93 74 48 37 40 48 51 56 61 63 61 67 65 61 60 66 64 66 61 65 64 63 67 65 67 61 60 52 44 90 205 200 181 190 189 178 161 131 100 80 97 93 99 85 83 82 78 84 100 69 82 80 94 106 104 
67 67 69 71 69 66 65 60 65 74 72 70 75 86 99 113 124 137 149 150 147 147 151 151 150 151 149 138 128 111 95 70 51 45 40 49 50 60 62 68 61 62 68 66 66 62 68 65 64 64 66 63 66 59 62 60 58 51 43 57 202 194 196 189 182 186 165 145 93 81 73 113 107 100 82 90 83 90 77 77 82 91 108 107 103 
66 68 69 70 70 68 63 61 64 70 67 69 77 88 101 112 125 135 146 150 152 150 149 153 149 149 144 140 131 110 94 70 51 41 44 48 46 58 59 61 59 63 66 63 66 61 67 66 64 61 68 62 64 61 62 60 58 58 44 47 181 204 192 192 188 188 164 129 110 74 89 137 108 123 86 94 88 78 67 84 89 102 102 110 105 
73 73 71 69 72 65 61 64 62 67 70 72 74 86 99 115 121 134 143 149 148 147 150 154 148 150 147 139 129 112 96 69 54 49 43 43 51 57 61 59 60 61 63 64 62 66 64 68 64 59 64 65 66 58 60 60 63 61 54 46 144 200 186 193 183 197 167 133 94 96 119 109 124 94 115 93 70 72 77 83 100 99 108 104 104 
71 73 75 68 70 60 66 65 66 65 65 69 72 89 97 113 122 134 142 148 152 150 150 148 151 149 146 139 129 114 93 72 55 42 39 45 52 60 60 62 61 65 62 65 62 64 68 65 66 65 64 67 63 60 64 64 65 60 52 38 95 208 195 184 186 177 174 134 125 92 100 119 118 127 101 90 68 80 78 94 106 102 97 108 97 
76 70 73 72 69 69 71 65 66 66 66 68 76 86 101 116 123 132 141 148 148 148 146 148 148 149 145 137 126 114 97 76 55 43 43 48 49 53 57 59 61 61 63 63 64 60 64 63 66 63 67 64 69 62 66 65 65 61 57 45 55 193 197 189 175 188 172 164 125 108 92 127 103 121 104 71 69 85 94 110 101 104 105 101 79 
76 71 70 68 73 68 69 64 65 65 66 65 75 84 97 113 124 131 142 146 150 150 148 152 146 148 147 139 129 114 95 74 56 42 41 45 50 52 59 60 64 63 60 65 67 66 63 65 65 64 66 62 59 61 63 66 67 66 59 47 43 143 204 187 185 173 188 160 155 132 113 104 128 91 91 76 80 83 104 104 105 99 96 76 75 
76 76 72 70 70 71 72 64 67 68 65 70 74 83 95 112 121 136 141 151 150 149 148 149 150 149 148 140 127 111 96 75 56 41 40 47 55 54 58 63 61 62 61 64 66 65 67 65 67 66 64 65 64 60 66 66 66 66 59 51 45 112 210 191 179 193 174 188 152 135 153 114 141 93 64 80 96 99 107 102 107 100 73 70 86 
74 74 72 72 69 69 69 68 67 69 65 66 72 85 97 111 121 134 140 149 149 149 150 150 149 147 148 136 129 114 98 78 56 40 42 45 54 59 60 62 61 61 62 64 63 63 65 64 61 61 62 65 65 64 67 68 69 69 64 57 47 69 193 198 199 177 195 161 135 161 144 139 108 93 65 90 91 95 104 106 99 88 81 95 91 
70 73 71 72 72 67 67 65 66 65 68 70 69 79 93 110 122 135 146 148 153 146 149 147 148 150 149 141 130 113 101 75 53 37 36 44 47 57 56 59 62 62 59 60 62 61 67 67 61 62 62 63 62 62 69 68 70 67 68 62 57 53 118 215 193 205 180 159 136 157 160 143 95 55 78 100 100 91 96 101 81 67 98 95 93 
78 75 75 75 72 71 72 66 65 65 69 64 68 80 93 108 122 138 144 150 147 146 148 151 148 151 148 136 129 112 97 76 52 40 37 46 52 54 58 62 62 59 63 60 62 60 59 58 63 65 60 63 64 63 70 67 69 73 69 67 61 51 65 182 211 194 198 167 132 152 159 156 101 66 94 103 100 98 93 90 78 84 91 93 96 
72 74 74 78 76 72 71 69 63 64 62 62 67 80 93 109 123 132 143 148 151 148 149 151 153 150 147 137 129 117 96 73 51 43 40 47 53 47 55 60 59 61 64 65 64 64 61 61 62 62 60 62 64 65 68 70 71 72 72 67 67 58 50 97 198 207 197 174 166 152 167 165 103 99 95 97 100 100 90 81 84 92 98 101 97 
78 77 75 74 69 69 71 68 67 66 61 61 63 75 92 106 121 133 141 142 151 149 151 153 152 151 147 142 128 114 98 76 51 40 40 45 46 53 58 60 55 66 62 65 63 62 61 65 65 63 61 62 66 68 67 70 74 70 71 70 67 63 55 53 149 209 195 177 183 170 173 125 61 121 93 85 97 98 90 86 88 94 100 93 110 
75 74 76 75 70 72 69 67 63 68 62 59 63 73 92 107 116 136 145 149 150 150 150 148 154 155 148 141 128 116 96 74 54 41 39 44 48 52 55 61 58 67 64 62 62 60 63 64 60 65 66 66 66 69 68 70 73 72 76 74 74 69 55 52 78 199 190 183 179 176 182 102 103 111 84 80 92 86 78 96 95 96 101 93 94 
75 76 78 75 70 66 70 71 68 63 62 58 58 73 93 107 122 135 140 150 152 148 151 153 151 151 149 141 128 118 101 75 53 38 35 43 50 52 56 56 58 62 60 62 64 60 61 63 65 64 62 63 63 69 68 72 74 75 79 74 75 69 65 55 54 168 216 193 180 180 186 119 117 92 89 83 85 72 76 89 97 99 94 78 81 
72 77 75 70 70 72 67 66 66 64 61 59 59 74 90 105 122 130 141 146 151 153 151 150 153 152 149 143 129 114 99 79 54 38 37 42 49 50 57 53 62 61 63 61 62 62 62 58 61 64 63 64 65 65 67 72 70 74 80 77 74 71 66 59 53 151 209 209 192 186 180 155 104 88 93 93 74 68 82 96 94 93 87 83 81 
73 74 72 71 71 70 69 66 65 65 61 55 58 73 88 106 118 128 142 145 150 146 147 151 154 151 152 142 129 115 98 77 51 39 38 47 44 49 60 58 58 66 65 64 66 65 66 64 63 64 62 64 67 67 71 67 77 80 77 74 76 74 68 58 50 149 211 205 200 188 181 134 87 89 90 92 84 82 92 92 84 84 82 96 108 
75 72 72 72 70 74 72 62 64 63 58 54 60 76 90 104 117 130 140 148 152 149 153 154 152 152 151 141 129 116 102 79 52 40 37 44 52 55 62 56 65 62 64 63 67 69 65 65 62 62 60 60 64 65 70 71 75 77 76 80 76 70 68 61 51 145 212 204 208 200 168 82 70 88 94 86 86 92 92 87 69 78 96 106 100 
75 75 68 75 74 73 71 69 65 66 58 58 55 69 91 104 117 130 140 146 147 151 151 153 151 152 149 139 127 116 96 77 50 41 41 38 52 54 61 59 64 65 62 65 67 64 63 66 64 63 65 64 65 69 69 72 77 81 83 80 78 75 74 60 52 139 210 208 201 203 125 69 66 85 86 84 89 91 92 74 78 92 102 99 101 
72 73 74 75 73 69 70 67 64 65 63 59 58 73 90 105 119 129 139 146 148 150 151 151 150 148 148 139 131 115 101 79 59 44 37 42 49 52 63 60 62 64 67 65 66 68 67 64 64 62 66 65 69 72 70 74 74 76 77 78 77 74 74 64 56 114 214 208 205 185 87 68 69 75 81 80 83 83 74 81 92 92 90 78 101 
67 71 73 69 72 67 68 66 69 69 63 55 61 73 90 105 120 130 141 146 152 149 148 154 151 152 147 140 130 123 99 80 60 42 34 46 48 52 60 58 62 63 65 65 64 64 68 66 63 65 64 65 69 68 68 74 73 76 83 84 77 76 74 67 62 79 200 209 211 154 70 74 75 75 76 85 82 85 88 96 91 97 97 65 82 
69 72 70 72 72 71 70 69 64 67 63 57 59 73 91 106 119 131 138 144 149 150 149 151 155 150 152 145 131 117 102 81 57 43 40 45 46 52 63 60 62 66 68 67 67 68 68 64 68 67 66 66 68 67 63 70 109 81 79 81 78 79 75 73 62 62 171 214 211 129 80 75 83 83 79 80 70 75 103 97 87 84 83 54 48 
65 73 72 67 72 71 68 68 68 65 62 60 61 71 88 106 118 134 139 149 149 151 151 153 155 151 150 145 130 117 100 79 60 45 41 42 47 48 57 59 63 67 70 68 68 73 68 71 64 64 66 63 64 62 71 118 131 73 77 83 78 78 76 74 70 68 117 220 211 109 79 78 88 87 81 64 75 102 96 93 103 84 70 66 49 
72 76 73 75 70 68 69 70 66 69 62 57 59 74 89 106 116 131 141 148 150 150 153 152 151 153 150 145 132 116 99 80 63 44 41 46 49 54 60 65 67 66 66 71 73 73 67 69 68 63 65 64 66 63 89 110 80 78 82 79 81 78 83 81 76 73 83 185 215 126 76 81 80 81 84 77 92 87 95 94 101 99 81 74 70 
69 72 73 70 69 62 66 66 66 65 58 57 66 71 87 104 116 129 140 148 148 153 154 153 151 154 154 143 130 117 103 84 62 49 45 51 51 55 63 65 68 67 66 67 70 65 67 66 65 64 64 68 68 72 80 80 78 82 79 84 81 85 80 82 81 75 71 123 220 155 84 83 78 70 86 92 92 94 85 103 94 85 68 66 32 
72 74 72 72 68 62 64 69 63 61 60 57 60 71 87 100 115 129 140 145 150 152 155 156 153 152 151 145 130 116 102 81 59 47 47 52 59 61 63 59 64 65 70 68 67 68 67 67 67 68 69 66 70 69 77 92 77 77 80 88 83 83 84 82 82 79 75 86 189 172 88 87 78 71 100 91 92 99 99 90 91 60 62 40 26 
69 73 70 70 69 67 64 66 61 60 59 54 51 70 90 101 118 130 141 148 153 153 153 156 154 153 150 142 131 115 104 78 59 42 46 45 60 57 62 62 64 66 68 65 68 66 70 70 69 69 69 66 69 71 73 94 77 85 80 84 85 84 86 88 84 80 80 83 124 161 89 83 69 95 97 102 95 97 104 100 77 53 22 24 24 
67 71 69 66 68 67 66 62 66 64 60 54 57 71 89 105 118 123 139 147 151 153 155 153 154 152 150 140 133 122 103 78 56 47 42 47 56 57 64 61 69 68 67 65 69 69 73 68 66 67 67 66 70 73 73 80 82 81 78 80 81 79 81 82 79 81 91 98 90 113 76 83 84 97 106 102 104 99 95 82 56 26 29 45 13 
67 71 66 72 70 67 68 60 64 68 60 55 58 69 89 103 117 127 143 151 152 153 155 154 157 157 151 144 132 116 101 78 58 43 43 48 51 54 61 64 69 65 69 67 72 70 71 71 70 65 66 69 72 71 75 77 82 82 83 79 79 78 76 75 75 80 109 86 56 77 84 70 99 89 100 101 94 102 93 72 46 16 49 41 12 
67 72 69 69 67 63 67 60 63 66 62 53 57 68 88 105 122 134 141 147 148 152 156 154 155 154 151 146 131 115 98 75 59 46 39 46 53 53 60 63 66 69 70 64 70 67 69 69 68 70 68 67 72 74 75 75 81 81 83 85 83 87 82 85 82 91 118 56 86 132 143 76 86 94 96 109 92 84 92 70 30 28 83 32 10 
63 72 65 65 67 64 67 63 60 64 59 56 58 70 86 108 118 129 140 147 149 151 153 155 156 155 154 145 132 119 102 78 57 47 41 44 51 58 60 63 69 66 65 69 72 69 68 66 67 69 66 64 71 71 76 79 78 83 79 83 84 85 86 84 90 91 149 91 90 105 156 102 86 94 103 97 84 92 85 34 20 44 88 16 10 
71 67 69 68 64 65 64 64 62 65 61 59 56 69 85 105 113 131 140 148 152 152 154 155 154 155 151 144 133 118 100 77 58 46 41 48 54 55 60 64 65 70 70 69 68 62 69 66 67 66 66 71 71 73 76 80 79 84 83 83 85 82 81 134 174 132 97 15 20 24 39 89 106 100 99 86 76 81 57 22 46 58 74 9 13 
63 67 65 66 68 67 65 66 68 63 59 59 60 67 88 102 118 130 141 144 153 154 156 156 154 156 150 147 132 120 99 80 57 47 44 50 54 50 57 62 65 64 70 70 71 71 68 67 67 66 70 67 70 71 74 78 83 82 82 85 85 83 89 189 136 60 31 12 13 12 38 120 159 167 86 65 69 51 19 30 63 78 37 15 16 
65 70 68 66 69 66 69 63 65 65 60 60 54 65 87 105 121 129 139 146 151 152 156 156 157 155 154 144 134 123 103 77 54 45 43 48 54 52 65 60 63 69 71 68 66 67 73 71 67 69 66 65 70 70 75 84 80 81 82 87 91 90 98 163 134 54 28 20 11 17 76 129 148 139 82 43 45 43 28 41 66 94 16 15 34 
71 71 68 68 72 67 66 69 68 64 61 60 56 65 83 103 117 127 141 149 152 149 155 153 156 156 153 145 131 117 104 82 57 44 48 49 55 57 57 61 63 67 74 69 69 65 64 64 65 64 69 65 69 73 72 77 81 81 82 83 96 109 105 108 132 87 31 19 11 17 76 110 91 58 67 32 55 42 29 62 66 31 17 25 65 
66 66 71 66 73 74 70 69 65 64 65 53 55 65 84 97 118 123 136 147 155 148 154 153 155 156 155 147 133 120 103 81 58 44 49 49 55 58 65 62 64 74 71 65 68 65 66 64 58 66 62 71 67 68 73 71 73 78 79 101 123 127 111 110 124 85 30 58 48 16 79 99 97 49 53 55 34 26 45 77 54 22 24 64 77 
65 69 69 70 74 70 71 66 67 62 57 54 52 67 86 103 118 128 137 150 154 152 152 154 154 156 157 147 135 124 108 83 58 44 41 50 51 55 61 65 68 68 67 66 68 65 68 66 61 69 65 65 67 68 73 71 75 76 84 120 129 128 121 117 133 159 110 123 108 70 98 85 106 61 40 33 24 36 54 96 48 38 47 87 49 
64 69 68 72 70 68 66 65 67 60 60 51 49 63 87 100 117 128 139 150 156 156 152 155 156 156 154 142 135 125 109 81 60 43 40 47 51 51 64 63 65 66 66 69 65 63 65 65 64 63 58 62 66 64 69 77 89 110 112 115 127 129 127 123 126 150 137 142 137 87 46 35 32 22 49 34 40 58 93 61 28 54 51 91 38 
64 72 68 68 65 67 64 67 61 65 56 55 48 62 86 102 117 124 140 147 152 157 155 159 156 156 152 146 134 120 103 82 59 51 42 42 49 51 57 60 64 68 66 67 65 64 65 60 62 62 65 60 58 61 81 123 141 139 113 119 122 127 124 123 127 120 77 84 109 60 16 14 8 23 56 55 58 82 106 38 35 71 52 96 35 
62 68 66 62 68 64 60 60 60 60 52 48 48 56 79 100 116 128 141 146 153 154 157 158 156 154 153 141 131 119 109 82 59 47 37 45 50 54 54 52 63 61 71 66 64 62 61 64 62 63 59 53 52 69 129 153 198 122 108 117 118 123 125 123 122 102 66 28 59 45 12 9 20 71 87 51 57 98 49 66 48 64 66 111 33 
62 61 65 60 61 63 58 59 57 56 53 44 43 53 80 97 114 125 141 152 155 154 154 157 154 156 154 143 132 120 101 82 56 40 38 40 49 54 57 58 62 61 62 65 60 60 62 58 61 57 56 47 46 132 184 180 186 90 110 113 118 127 127 97 111 94 45 44 28 14 10 13 85 94 39 25 89 41 27 60 65 53 94 108 27 
62 69 66 60 59 63 58 57 58 53 47 48 40 52 77 101 115 128 142 153 155 153 156 156 155 157 153 144 132 118 102 83 57 42 40 44 51 53 60 62 65 62 62 62 61 67 60 65 58 55 53 51 48 143 170 185 128 94 108 116 122 127 113 67 105 93 43 36 13 21 22 61 86 35 16 72 56 12 15 53 95 70 88 67 24 
67 66 65 63 63 64 61 59 54 51 49 44 39 56 80 102 114 130 142 155 157 157 153 158 159 159 157 153 132 120 100 82 57 40 41 47 50 58 65 61 63 65 66 63 62 65 68 66 63 57 57 51 33 90 161 165 168 130 118 116 120 120 107 91 123 56 24 22 15 31 69 67 19 18 50 48 33 16 20 57 100 59 91 61 28 
65 65 70 61 67 61 63 60 56 58 50 44 38 52 78 98 114 129 141 151 155 157 158 160 163 160 156 147 134 117 102 83 62 43 42 49 49 61 65 64 68 67 66 70 68 70 69 64 69 63 60 39 15 76 149 50 94 176 173 137 127 122 81 44 47 22 13 15 24 71 72 29 17 50 45 28 55 20 28 69 94 57 118 61 20 
70 66 66 64 65 64 66 56 61 56 48 42 37 51 76 97 115 128 140 151 158 157 156 162 162 159 156 150 136 117 100 83 63 50 43 51 54 58 64 65 68 70 67 69 73 63 70 73 89 49 31 29 19 28 141 98 152 169 200 209 173 84 24 18 18 16 12 23 59 58 31 34 28 47 42 33 46 42 48 92 98 61 122 71 19 
64 70 67 65 64 66 64 57 59 57 49 42 35 54 76 96 116 126 140 149 158 158 160 159 159 157 159 149 135 120 100 81 62 47 49 52 56 62 67 69 70 74 71 72 71 69 63 51 40 23 49 36 60 95 152 129 148 184 238 221 114 32 48 15 17 14 18 52 74 59 53 39 19 47 54 60 58 67 47 98 85 48 115 88 29 
68 68 70 65 65 66 63 55 56 57 54 40 37 50 79 99 115 127 139 149 155 159 161 159 164 159 159 151 137 122 102 86 63 51 53 51 56 60 64 69 71 75 72 73 77 92 23 16 16 29 82 107 126 126 148 170 159 201 147 60 25 28 72 24 23 41 79 111 90 65 15 14 13 65 26 66 54 49 55 106 103 40 131 98 62 
73 72 68 68 73 69 61 57 56 49 47 45 36 50 76 97 115 130 142 149 153 157 160 161 161 162 160 153 139 123 106 85 63 49 48 55 60 62 69 71 77 76 79 74 93 88 14 13 42 74 133 130 119 121 113 137 165 105 32 31 20 21 70 79 79 86 69 47 70 30 12 14 26 88 23 71 54 43 55 89 118 70 135 81 65 
67 67 72 72 66 68 59 56 51 51 45 39 35 47 71 98 115 129 141 152 155 157 161 165 167 163 165 151 143 125 103 87 66 47 48 54 62 67 68 69 76 74 74 70 87 104 24 43 98 108 141 110 105 106 99 126 83 38 45 32 23 24 30 102 94 43 30 85 73 19 17 21 25 82 36 66 74 23 50 88 93 90 115 68 85 
68 71 70 67 66 66 59 56 49 53 47 41 37 43 74 97 113 127 142 149 155 159 159 163 163 163 163 153 142 124 106 87 67 45 45 49 57 62 66 69 75 80 74 70 73 121 97 111 114 100 115 137 93 56 43 52 70 50 27 15 20 20 16 52 123 107 88 114 75 75 34 31 13 67 39 49 88 43 54 78 80 108 109 107 123 
67 71 67 67 63 61 56 53 50 53 46 37 29 45 69 94 113 128 142 149 157 157 162 161 162 164 158 156 140 126 109 90 65 43 43 52 60 61 67 70 72 71 71 70 68 95 128 119 143 141 112 82 51 50 43 56 63 39 18 14 35 22 24 27 54 124 118 103 103 82 33 25 16 43 53 37 79 83 69 51 50 88 86 122 82 
68 66 63 60 61 56 54 51 49 47 41 29 23 36 68 96 113 126 138 146 153 160 162 162 163 163 163 154 139 126 109 89 62 46 46 54 56 60 65 68 72 74 70 70 73 78 106 139 121 88 87 73 38 34 58 74 46 31 14 23 56 28 44 49 72 77 70 67 79 47 19 14 15 32 49 38 33 90 97 79 85 72 67 86 47 
68 60 57 56 60 53 49 45 49 46 38 30 28 36 64 95 113 125 140 149 155 158 162 162 163 163 163 154 142 125 107 89 64 51 42 50 56 61 63 72 76 76 75 74 74 86 93 94 79 81 69 45 63 75 80 49 25 27 19 29 65 43 74 91 97 63 27 53 81 35 13 17 26 31 64 64 31 32 114 133 96 44 64 65 140 
60 59 58 56 53 52 52 46 46 46 34 29 27 42 63 93 108 124 138 146 154 158 158 159 165 161 162 152 140 126 109 89 67 48 45 49 57 60 64 67 72 75 74 78 77 86 80 76 109 119 99 118 136 117 74 35 31 30 26 42 83 49 100 87 83 55 53 103 63 14 14 18 20 38 74 100 63 49 51 68 100 71 97 140 102 
58 60 68 58 55 53 53 51 45 44 35 28 27 40 62 89 110 128 141 149 156 157 158 160 163 160 160 152 140 127 108 84 63 48 43 50 59 58 62 62 66 72 81 92 110 120 125 137 137 146 121 94 85 63 41 33 37 44 32 59 77 54 95 87 65 88 98 69 24 14 15 14 25 25 30 67 78 88 92 76 61 124 140 91 46 
55 58 65 55 52 48 47 47 43 39 35 28 23 39 72 92 112 127 138 148 155 157 159 160 162 161 160 153 137 125 107 89 64 43 42 48 54 55 62 68 78 104 132 122 127 112 112 116 112 58 32 39 61 41 31 37 38 36 38 71 66 59 94 63 101 109 73 41 24 25 20 16 16 18 23 42 50 56 95 107 106 54 25 18 50 
54 52 58 53 47 44 53 45 42 38 38 28 25 39 67 92 115 126 141 149 154 156 159 156 160 166 162 150 139 128 109 87 61 47 44 48 54 57 68 97 104 92 81 87 100 96 100 75 54 36 41 58 54 35 38 32 39 41 63 60 55 90 88 117 108 101 31 23 29 21 20 24 23 20 23 27 46 63 31 44 67 19 12 21 59 
51 51 48 48 47 40 46 47 42 40 33 27 28 32 64 93 110 126 142 150 155 155 158 159 164 159 158 152 139 121 107 84 67 47 41 53 52 60 71 77 71 76 78 86 100 79 69 61 72 62 64 63 48 41 28 31 45 72 87 32 54 107 118 97 41 48 49 25 27 20 22 21 20 20 30 23 22 46 57 31 53 19 11 16 68 
50 47 48 46 45 44 42 42 43 40 35 32 27 35 63 91 109 122 140 146 153 155 160 160 158 159 156 150 137 120 108 89 64 48 45 52 56 64 63 75 75 76 78 82 95 60 59 52 53 73 77 48 76 49 26 44 78 93 41 30 67 126 80 85 42 56 50 26 19 18 22 30 26 23 28 23 25 37 30 27 56 20 7 18 67 
50 49 44 42 40 42 39 39 39 36 31 28 22 37 58 92 111 125 136 147 150 155 159 155 155 155 153 148 137 125 107 91 64 44 45 50 56 57 68 70 70 70 77 77 79 42 61 99 109 96 47 60 81 52 52 88 80 40 25 30 45 106 97 75 62 38 39 25 20 23 29 28 29 23 27 25 29 31 29 20 44 23 10 32 68 
45 44 46 43 47 46 45 39 36 38 31 23 24 33 58 91 114 124 134 145 147 154 154 151 155 156 155 149 139 124 107 90 62 42 44 50 61 71 63 67 70 73 73 75 77 74 134 121 88 49 59 85 71 44 93 78 37 37 38 37 27 66 118 67 84 29 38 31 27 24 35 21 23 24 20 18 19 35 80 19 16 32 18 15 66 
45 46 45 44 42 46 49 39 40 39 32 24 24 32 62 89 112 126 133 147 154 153 151 150 154 156 157 143 133 120 108 89 62 44 38 45 74 104 64 62 71 70 83 113 134 119 76 41 30 61 113 84 49 103 73 25 26 71 44 48 31 89 122 80 112 39 32 33 34 25 40 22 24 16 20 23 13 33 53 30 30 27 17 31 72 
53 45 46 46 47 47 43 43 39 36 29 20 18 38 66 90 109 124 136 141 150 151 151 150 158 157 158 144 135 121 107 86 64 40 41 39 79 103 61 57 81 117 141 121 107 57 16 27 49 100 128 69 92 66 27 25 36 94 60 44 52 133 112 91 90 68 25 29 46 32 34 18 14 15 14 21 17 36 57 45 49 20 45 52 87 
48 49 46 47 52 47 49 40 33 35 30 21 20 35 57 90 111 122 135 146 149 151 150 149 153 155 155 145 135 121 109 88 57 40 41 38 62 119 80 83 134 114 82 99 102 37 23 44 97 108 66 83 62 34 34 31 64 72 101 53 84 112 88 111 62 113 34 35 41 26 32 18 11 13 12 17 28 60 90 58 38 19 55 72 112 
49 48 49 45 46 43 43 39 38 32 25 23 14 25 60 93 107 125 136 146 148 151 152 150 151 155 155 148 137 122 108 87 59 42 39 38 49 82 119 106 89 75 82 94 89 47 32 64 104 79 56 74 59 84 32 51 73 64 104 40 97 93 91 136 59 114 35 19 25 33 32 19 11 16 14 31 29 42 81 62 26 49 69 94 70 
47 50 51 43 47 39 43 44 38 30 21 20 16 21 57 88 107 124 135 145 148 153 153 156 154 156 154 149 137 125 109 84 59 42 40 42 49 62 69 80 89 98 99 103 99 53 23 56 84 62 69 62 70 33 57 65 51 104 79 51 90 66 101 143 52 74 42 15 20 20 27 21 18 17 18 22 52 61 54 56 42 118 97 83 42 
50 49 47 47 45 47 48 45 32 30 22 21 11 25 56 88 106 123 136 144 149 152 155 152 154 158 156 149 141 125 109 86 64 44 38 44 50 59 71 92 83 78 95 101 88 38 42 63 51 57 86 72 47 58 67 46 50 113 36 39 88 51 102 145 61 48 80 13 20 28 17 28 28 24 18 13 34 55 38 46 70 119 72 51 31 
52 49 49 46 48 47 43 38 29 27 24 16 10 20 53 87 104 124 138 144 150 154 151 153 154 156 159 149 140 126 108 87 64 42 33 45 63 92 100 84 71 77 82 81 59 37 45 64 43 73 102 55 54 54 45 34 93 88 21 45 108 49 94 136 84 31 102 21 17 22 33 47 24 16 8 25 37 55 79 83 60 109 131 99 66 
54 56 50 49 48 45 43 39 37 30 25 16 11 24 60 88 106 122 139 146 150 152 154 153 157 158 157 149 140 126 109 86 59 44 44 70 102 100 75 69 72 79 83 79 55 43 38 64 59 98 90 50 59 43 50 31 116 58 19 42 112 56 71 140 97 23 89 39 27 43 36 21 19 36 9 17 31 54 106 75 21 37 63 83 33 
61 51 48 54 47 50 42 40 35 32 32 18 12 34 62 90 106 122 138 145 150 149 152 150 152 157 159 151 142 127 105 89 69 62 79 80 72 62 62 64 68 84 88 79 53 37 38 66 77 91 77 55 45 18 40 84 101 46 26 26 97 67 51 129 126 29 79 98 20 28 21 21 28 51 10 15 27 44 31 18 14 27 66 82 48 
50 53 47 48 47 44 45 42 33 32 31 24 19 38 69 92 111 122 137 144 145 151 151 152 154 157 156 151 141 124 110 91 74 60 42 44 51 57 61 68 67 77 84 79 52 42 44 68 67 108 85 54 39 9 53 138 72 40 47 23 87 78 62 118 159 51 53 126 24 23 25 45 33 51 11 13 17 24 35 33 21 103 118 20 10 
47 48 47 45 45 46 49 40 34 33 35 30 29 47 77 98 116 125 135 143 149 152 151 154 153 156 157 148 144 126 109 92 70 46 37 45 52 58 61 65 68 76 81 63 49 53 48 66 72 111 72 49 17 16 92 109 38 50 64 39 72 81 65 106 153 78 37 132 27 21 19 52 36 40 28 10 12 12 16 45 48 118 100 21 21 
47 53 46 45 43 45 41 39 37 40 38 36 35 54 83 103 121 128 139 144 148 151 148 153 155 157 156 152 142 128 107 91 63 46 38 50 56 60 65 68 73 77 87 62 61 50 53 61 49 66 49 39 13 64 119 80 36 70 70 24 74 96 71 97 126 117 44 134 42 9 11 19 19 88 101 26 20 14 7 18 84 98 30 13 31 
44 51 43 48 43 40 43 41 32 34 40 40 47 59 87 108 119 129 138 142 146 146 147 149 151 157 160 155 143 125 113 94 68 46 38 48 56 58 63 65 73 90 83 64 50 25 47 65 49 52 33 10 43 108 77 42 61 58 51 39 69 95 53 94 93 145 72 120 75 7 17 28 14 104 139 71 13 8 9 30 93 63 27 13 59 
44 51 46 43 38 48 46 42 35 38 41 42 52 66 92 110 123 132 138 145 144 146 146 150 154 154 159 154 144 126 111 91 66 49 38 48 53 58 63 63 75 82 81 82 27 14 36 62 51 39 24 31 101 71 32 30 57 50 52 70 81 85 66 107 65 126 91 120 105 20 15 25 16 90 140 124 19 9 12 73 35 37 41 50 68 
46 51 45 46 51 48 47 42 40 38 35 43 58 71 94 114 126 131 138 144 144 147 150 151 151 156 156 154 143 129 111 95 68 49 44 48 53 58 59 65 67 77 104 112 36 14 37 61 37 44 34 102 94 39 21 30 49 49 49 75 97 81 90 96 51 101 110 120 121 56 17 30 22 67 103 64 30 18 43 36 21 47 91 85 91 
51 48 39 42 46 46 41 40 38 29 28 41 63 73 96 112 123 132 138 140 145 147 147 152 155 158 159 154 144 128 114 96 70 47 42 47 56 62 63 67 73 100 121 87 44 25 38 65 41 65 91 108 46 31 25 30 44 51 43 56 81 63 88 101 68 82 119 89 123 89 45 42 52 57 70 59 39 39 37 16 21 59 115 110 125 
41 46 37 42 40 39 42 42 33 30 29 40 55 78 99 113 125 133 137 145 146 147 146 149 154 159 157 151 145 129 113 92 68 51 42 47 50 53 60 59 90 118 90 80 47 38 41 49 71 110 79 41 39 21 28 24 48 47 47 45 59 46 86 82 73 54 108 80 132 99 51 50 74 63 60 55 22 27 31 16 42 142 137 131 149 
44 44 37 42 40 40 42 35 31 30 30 39 61 77 98 112 124 133 140 141 147 145 145 151 153 160 159 155 145 132 113 96 70 49 37 42 52 53 59 80 120 87 85 81 31 34 43 59 107 89 17 22 65 28 33 28 46 40 48 40 57 46 65 97 41 57 97 101 128 104 64 36 110 61 32 29 17 11 32 52 79 122 127 135 160 
