P2
64 64
255
175 200 210 208 207 206 205 198 187 196 196 199 205 211 217 226 220 75 16 16 22 23 31 30 27 19 18 15 17 24 18 19 21 20 23 27 25 20 17 22 42 91 124 131 127 122 116 126 136 139 137 137 139 135 138 136 139 135 138 134 135 134 137 137 
204 212 207 204 203 202 198 193 194 196 195 202 207 214 218 222 217 68 14 17 21 25 30 34 31 21 23 17 16 17 15 20 22 26 23 22 19 12 10 30 68 116 130 127 120 119 121 134 140 142 140 137 137 136 137 136 138 139 135 134 132 129 136 134 
207 206 201 201 200 196 195 191 194 195 200 207 210 212 218 221 213 56 22 22 24 26 24 28 32 21 25 21 20 22 16 26 27 27 30 27 11 7 15 52 102 123 129 124 118 119 127 138 138 139 139 136 135 135 134 136 135 132 135 137 134 134 134 134 
205 202 196 196 197 192 192 193 197 199 200 206 211 214 216 219 205 36 24 14 20 21 20 24 32 33 30 22 19 17 23 26 22 26 25 19 8 10 30 83 116 132 130 123 117 127 134 139 138 140 138 135 137 135 134 133 136 134 133 134 132 131 133 133 
201 195 194 197 192 192 194 196 196 201 206 209 210 213 217 220 184 20 20 26 27 26 22 23 24 26 24 18 14 19 17 25 23 25 26 18 9 20 57 102 127 131 124 121 124 131 139 142 137 141 140 135 135 135 136 133 139 135 131 134 131 132 132 131 
195 193 194 191 196 195 195 196 202 205 208 208 212 216 216 218 152 20 18 21 27 24 24 21 24 25 25 20 19 19 14 24 24 21 22 19 20 46 89 121 129 128 122 118 125 135 139 140 138 136 138 136 136 136 133 136 135 135 136 133 133 131 133 132 
192 192 193 196 196 198 194 198 199 204 206 207 213 216 217 219 117 20 25 33 30 28 25 26 24 22 18 18 13 18 20 26 25 30 25 30 36 72 109 123 128 122 121 122 131 137 139 141 139 138 134 136 134 139 135 137 134 132 133 133 134 131 133 128 
194 193 194 196 197 196 196 196 195 200 203 208 214 216 217 217 81 27 24 26 26 30 28 25 24 22 17 12 18 27 20 26 24 31 33 39 55 92 121 124 120 118 119 128 136 141 136 136 138 138 140 135 135 134 135 136 136 134 133 131 132 131 132 131 
192 194 198 199 196 195 193 191 193 202 204 207 214 217 219 214 53 17 26 26 24 31 23 28 29 20 21 17 21 23 18 23 27 29 36 48 80 114 124 124 121 118 125 131 138 140 139 136 138 137 136 135 135 133 137 134 131 133 132 133 134 130 133 132 
192 196 197 197 194 196 187 186 195 203 203 204 215 217 221 196 27 17 19 17 20 18 23 35 30 23 18 14 23 23 20 30 35 36 49 72 102 122 125 120 118 121 131 137 139 139 141 138 138 137 137 134 134 136 134 137 134 133 134 134 133 133 136 134 
195 197 195 196 197 186 176 184 195 201 202 206 214 216 216 154 15 11 18 20 23 17 24 23 19 17 15 22 22 26 30 27 21 36 58 91 116 127 125 119 118 125 134 136 142 140 140 137 138 135 134 136 134 134 137 134 136 135 134 133 134 133 135 133 
193 197 196 198 191 167 160 177 190 198 200 202 209 212 213 94 16 11 19 20 18 27 21 30 28 20 20 17 21 31 27 19 17 41 77 111 124 125 121 117 121 128 137 138 141 140 137 139 137 139 139 134 135 138 136 137 135 135 138 134 133 136 138 133 
197 195 198 198 165 149 149 164 181 198 195 198 208 209 201 43 16 14 16 17 18 24 23 36 37 16 22 21 28 31 27 17 18 50 99 124 131 122 117 121 131 138 140 137 140 140 137 139 140 139 139 137 135 136 137 139 136 136 136 136 134 137 140 134 
195 197 197 176 147 137 140 155 183 181 176 187 202 206 149 16 17 21 19 20 23 24 19 25 22 18 20 20 20 22 28 24 33 74 110 127 126 120 118 127 136 140 140 142 143 140 138 135 138 140 138 134 136 134 137 136 136 135 135 140 136 136 134 134 
199 193 191 154 139 135 139 164 163 128 158 183 195 206 75 18 17 33 30 24 22 31 25 24 20 14 21 18 14 23 38 47 57 99 121 127 121 118 121 130 135 138 138 139 139 137 138 138 135 142 137 134 140 135 140 135 138 136 140 139 134 134 137 134 
198 199 163 139 131 146 164 163 106 122 158 179 194 181 23 21 12 27 34 32 27 25 19 17 19 18 26 16 22 32 46 56 88 115 123 124 118 118 128 136 138 139 139 140 137 132 138 138 138 137 136 138 136 137 135 136 138 137 137 140 135 134 136 135 
199 189 134 136 142 162 165 107 109 138 160 180 208 117 13 13 13 15 25 40 36 22 15 15 21 25 23 17 23 34 49 73 110 122 127 122 118 122 131 137 140 141 140 143 141 134 140 135 136 138 138 139 139 133 134 135 134 136 140 139 138 133 137 134 
200 151 134 145 161 160 112 119 134 153 159 181 210 66 11 16 14 18 24 23 25 20 16 19 26 23 22 19 28 46 55 94 123 132 121 117 119 127 137 138 139 142 137 138 142 136 135 136 137 137 138 138 138 137 136 136 136 133 137 135 134 136 138 137 
182 133 134 157 157 119 127 143 150 137 163 203 184 23 19 19 21 22 23 26 22 38 15 18 24 24 24 21 35 43 77 111 130 126 119 120 121 129 135 137 141 139 140 137 136 135 134 133 134 136 138 137 135 136 136 135 139 137 136 134 136 134 134 134 
141 132 149 152 117 135 151 136 117 127 179 217 116 20 14 17 23 25 24 22 26 19 35 26 29 26 20 31 43 55 100 124 128 125 116 117 127 137 136 139 140 139 135 137 134 131 135 136 136 138 137 136 134 138 136 134 138 137 134 135 136 135 136 136 
130 149 145 121 140 136 101 85 108 157 203 210 47 14 17 21 23 31 27 27 33 25 33 44 29 23 28 21 38 73 113 127 126 121 118 123 132 135 138 136 137 136 136 135 136 134 136 133 134 135 138 136 135 134 136 135 136 138 137 135 137 136 134 132 
147 139 129 123 84 77 62 88 122 181 216 171 19 14 11 20 28 27 24 22 24 21 28 41 26 29 29 32 49 96 125 129 120 120 122 129 135 139 139 137 137 136 136 136 134 133 133 133 136 135 133 135 134 135 136 133 136 136 135 136 133 134 134 133 
136 130 90 58 49 64 72 117 161 207 218 94 10 9 10 19 21 23 22 18 19 21 27 28 23 27 26 38 75 109 127 127 118 118 126 131 137 139 136 138 136 137 137 134 133 136 135 133 134 136 134 134 134 135 132 135 133 138 136 136 131 133 132 133 
104 59 51 59 59 76 96 154 197 214 186 26 12 13 12 20 25 22 23 21 18 26 24 31 26 27 32 50 95 121 125 124 120 119 130 139 140 136 137 137 136 139 135 135 135 135 136 135 134 136 134 135 131 135 134 136 135 133 134 134 132 129 136 130 
50 58 63 66 65 92 134 181 208 211 76 16 13 26 18 22 20 24 19 16 16 27 27 27 22 23 37 76 111 124 126 119 118 124 133 139 143 140 139 136 139 137 139 137 134 133 136 135 136 133 133 134 136 132 131 131 133 132 132 133 132 131 135 129 
55 56 60 70 83 129 173 198 211 144 17 12 14 20 25 23 20 27 16 19 17 26 29 22 19 23 59 95 121 128 120 118 118 130 137 142 139 138 141 136 139 138 139 134 135 133 134 135 136 134 133 134 132 133 135 134 133 132 135 133 135 133 133 130 
56 63 65 88 130 166 183 204 195 46 36 17 19 25 22 25 23 24 20 24 23 28 22 20 14 26 73 111 126 122 118 115 124 135 139 142 141 141 140 138 138 138 139 139 138 137 134 134 137 128 130 132 134 134 135 135 134 132 132 132 134 134 134 131 
67 83 100 137 169 181 192 188 79 15 20 16 20 25 27 21 26 27 23 18 27 27 20 20 16 41 88 119 123 120 119 120 131 141 145 139 140 141 139 138 139 140 140 137 136 136 138 137 135 133 133 133 133 131 135 134 132 135 134 133 130 130 132 131 
87 124 143 166 186 191 115 40 17 11 16 21 21 24 23 20 23 20 27 27 28 28 20 15 18 63 106 126 124 119 118 128 137 142 144 142 142 139 139 142 138 140 139 139 137 138 135 135 135 136 136 136 135 132 131 134 134 135 132 133 132 131 131 131 
134 157 176 189 196 116 18 17 15 18 20 23 27 23 17 17 25 15 24 24 31 30 22 22 37 83 116 124 124 117 121 132 141 143 143 142 141 141 135 139 140 140 138 140 138 139 135 137 135 136 134 133 133 132 134 133 131 132 134 133 132 134 132 133 
153 168 180 193 157 27 18 21 20 20 19 26 23 27 18 18 18 22 28 32 38 39 25 28 59 100 122 123 124 116 129 141 147 146 145 143 143 142 140 142 139 139 141 140 137 138 135 137 138 136 134 138 136 136 137 134 134 134 135 134 133 131 134 128 
159 172 192 147 35 12 19 22 21 20 30 28 28 26 17 18 17 16 25 34 24 39 37 40 82 115 125 124 121 120 133 144 146 143 144 142 141 141 141 139 141 139 140 141 139 140 140 139 139 137 134 134 136 133 133 133 135 134 135 134 133 129 130 127 
166 191 145 27 16 18 18 21 22 31 29 23 29 23 25 21 14 16 29 33 33 27 25 51 99 120 123 123 114 121 140 146 144 147 143 147 147 145 144 142 143 143 141 140 140 138 135 138 139 134 134 134 136 134 135 134 135 137 135 135 134 131 130 130 
195 163 32 14 14 16 20 26 32 32 27 24 24 18 25 21 24 23 30 22 15 23 29 79 111 124 122 122 115 128 146 146 143 146 147 147 147 146 142 140 142 140 141 140 138 142 137 138 137 136 135 133 137 135 133 135 134 138 135 132 135 131 130 129 
163 40 16 14 12 19 24 23 25 31 28 30 31 20 18 19 21 26 28 30 19 29 42 93 123 122 119 120 122 137 146 145 148 145 144 148 147 144 143 142 142 143 141 138 138 138 137 138 139 138 136 137 136 134 136 137 134 133 133 132 133 131 131 129 
41 15 18 17 20 21 23 25 29 27 25 26 26 22 18 23 22 25 24 26 25 27 65 106 121 121 115 118 130 143 145 146 149 147 145 148 148 145 145 142 143 144 145 141 141 140 139 138 136 134 136 136 138 137 135 136 135 133 133 132 136 132 133 130 
21 11 14 16 18 24 26 24 26 30 32 31 22 24 19 19 22 24 23 24 26 40 80 111 118 120 111 121 136 147 147 149 144 150 144 144 145 147 146 144 143 144 144 142 138 139 137 138 139 138 137 138 138 136 134 137 136 136 135 132 136 129 132 130 
19 10 19 18 21 20 21 31 32 33 36 28 23 24 18 17 24 26 27 22 34 52 93 114 110 112 107 126 143 147 149 148 148 148 147 149 145 141 144 145 146 142 143 144 140 141 139 139 137 137 139 134 139 137 136 136 137 135 133 130 133 131 130 131 
17 13 20 22 27 25 21 29 28 32 25 21 18 24 18 18 28 29 25 36 40 71 103 111 107 105 111 134 150 150 146 148 146 145 144 144 143 142 142 143 144 144 143 142 140 141 143 140 140 141 140 139 138 140 137 137 137 136 135 134 134 131 127 129 
16 18 23 29 28 25 22 28 28 27 29 22 21 23 17 23 29 25 27 36 52 87 112 110 102 99 118 141 148 150 150 149 146 143 142 145 145 141 143 144 146 145 142 144 141 139 140 141 137 135 139 143 141 140 135 137 136 138 132 137 134 133 135 132 
13 20 28 29 33 27 27 30 27 28 27 17 14 20 18 25 30 23 34 41 62 100 112 105 99 106 127 147 150 151 151 147 143 143 145 146 145 144 145 146 141 142 142 144 141 141 140 139 141 139 140 138 139 136 138 136 138 136 136 133 135 131 131 128 
22 21 24 29 29 29 31 32 29 32 22 14 20 22 24 25 25 20 32 47 78 106 111 102 104 109 135 149 153 148 151 149 147 144 147 145 142 147 145 143 143 141 141 145 143 144 142 140 143 142 143 139 138 139 138 137 136 136 138 131 134 132 128 132 
25 26 27 29 31 31 28 28 29 24 21 16 14 23 28 25 22 28 39 60 100 112 108 97 100 116 136 148 149 147 151 147 147 146 152 143 146 144 146 147 146 143 142 144 143 143 141 144 142 144 142 139 138 136 137 138 136 136 135 133 137 130 131 131 
30 31 28 26 30 32 37 36 28 21 22 16 17 18 24 23 23 28 42 78 103 112 105 97 106 126 137 146 148 150 148 146 148 149 145 143 145 144 145 144 145 146 143 141 143 144 137 140 140 142 141 139 142 135 138 139 138 138 137 135 133 133 134 129 
21 32 27 33 28 30 35 29 28 23 25 18 15 21 26 23 20 24 61 97 114 112 106 101 115 134 140 144 144 148 147 146 144 146 145 147 141 143 143 144 144 142 146 146 144 143 143 141 143 140 139 141 138 138 142 139 135 138 136 135 135 130 127 128 
27 24 33 30 32 43 34 37 27 20 18 19 20 22 20 18 24 32 73 106 118 113 101 107 124 134 133 134 144 147 148 147 146 149 147 145 144 141 141 141 143 142 143 144 143 145 142 140 140 139 142 138 137 137 138 137 137 140 136 134 133 134 132 126 
22 27 30 28 36 34 35 30 21 20 20 16 19 25 21 26 26 49 92 117 117 110 106 121 130 133 129 130 134 138 143 145 149 149 148 148 145 144 145 142 141 142 140 145 145 146 142 141 141 138 139 138 136 138 140 138 137 139 135 135 135 132 132 126 
27 29 29 31 31 39 38 25 19 16 18 19 22 25 16 23 33 65 105 120 113 106 111 130 135 133 130 128 132 131 134 137 138 142 146 142 143 143 144 141 140 141 141 144 144 146 143 140 141 139 139 139 135 137 137 137 139 140 136 136 134 132 130 127 
28 26 30 32 41 36 32 23 20 22 21 25 29 28 16 20 39 86 116 122 109 100 123 136 142 133 134 130 131 129 129 130 132 132 135 139 142 139 139 144 143 140 142 143 145 143 145 140 141 141 140 143 135 139 137 136 137 135 135 133 134 129 130 127 
32 29 34 33 39 39 29 25 19 17 22 26 27 25 17 19 50 98 120 114 108 111 130 142 141 137 132 132 131 128 129 128 128 129 127 129 133 132 139 139 139 140 140 141 140 141 142 144 143 139 140 137 141 136 135 136 134 136 134 133 134 133 130 127 
30 34 32 35 42 35 26 22 17 19 22 27 28 23 18 26 67 108 120 115 104 121 137 149 143 140 137 136 133 133 134 130 133 128 129 128 134 129 132 131 132 132 136 139 139 142 143 141 141 143 140 138 137 138 135 137 136 134 132 133 132 129 128 124 
36 32 34 36 39 37 29 18 21 22 22 26 25 19 19 42 92 118 120 112 107 125 142 148 147 143 140 137 136 132 131 131 130 129 125 127 128 130 130 129 126 124 129 130 132 137 139 141 139 140 137 135 136 137 135 134 133 132 134 132 130 126 128 124 
32 35 30 35 40 33 31 20 22 25 26 31 28 19 23 66 108 122 117 109 113 132 148 147 146 147 146 145 144 138 137 136 133 135 133 132 132 132 130 128 125 127 127 127 123 126 132 131 134 135 137 137 131 134 131 133 132 134 133 136 131 130 129 124 
36 29 33 35 31 27 28 23 20 21 29 25 19 18 28 77 115 123 115 110 123 141 149 149 145 146 145 142 143 142 143 142 140 136 135 134 133 134 134 129 127 128 126 127 130 129 127 125 129 127 125 129 132 130 133 130 133 129 133 132 130 130 127 125 
33 37 37 40 34 23 24 24 27 27 30 21 16 29 61 100 119 116 111 112 125 145 147 145 143 143 144 146 142 143 149 148 142 143 144 142 140 134 136 137 132 128 124 125 128 130 125 126 122 124 124 121 124 126 126 132 129 132 133 136 131 130 127 127 
33 40 40 36 32 24 18 23 23 26 28 20 18 29 77 107 119 113 110 114 131 144 145 146 142 141 142 142 141 143 145 148 147 144 147 148 141 138 135 137 133 132 127 129 130 131 125 125 125 125 121 120 120 122 125 124 124 132 134 129 129 129 129 128 
33 38 40 37 28 26 28 26 23 28 22 22 20 43 90 116 116 108 104 122 136 144 143 145 145 144 141 143 142 145 142 147 148 150 147 150 147 141 140 139 136 132 129 131 128 130 125 124 125 122 124 122 123 123 120 122 122 125 125 128 126 126 129 132 
36 36 41 31 24 22 28 25 26 33 23 19 31 64 98 114 114 108 110 128 140 143 145 143 145 143 144 141 141 143 145 145 146 146 151 148 145 145 141 138 138 140 135 133 131 132 127 127 125 124 125 123 121 122 123 121 118 121 122 120 119 124 123 125 
41 48 48 33 23 21 26 24 26 29 22 23 33 78 109 116 111 104 114 133 141 143 141 138 141 142 139 141 142 142 138 143 144 144 145 146 146 144 138 137 137 138 136 138 133 133 133 131 129 128 128 128 128 125 123 121 122 122 123 120 120 117 116 118 
39 45 37 26 21 22 22 29 27 25 19 23 46 87 112 118 111 102 122 138 144 141 141 140 138 139 139 140 138 139 140 139 138 141 144 144 141 145 144 137 134 134 140 137 138 137 137 134 132 131 134 127 130 126 122 123 121 120 119 119 119 119 115 113 
39 34 30 32 28 23 25 24 34 25 23 23 57 99 115 112 106 108 128 140 146 143 137 140 138 138 138 138 136 139 136 136 137 139 138 140 141 142 141 136 134 135 135 138 135 135 134 137 135 138 133 135 130 130 125 124 123 122 125 119 119 113 111 111 
43 36 28 20 27 24 21 23 33 28 26 28 69 111 116 108 104 116 132 142 141 142 139 139 138 137 138 139 138 138 136 135 135 138 139 140 140 141 140 135 138 136 134 136 137 136 139 136 136 137 138 137 135 132 129 129 124 124 123 120 117 114 115 110 
40 40 28 24 27 24 27 27 30 30 30 35 82 113 115 107 106 125 138 141 143 139 139 140 137 136 136 137 137 135 134 137 135 134 138 137 139 140 137 136 136 135 134 134 136 135 139 138 136 137 138 134 134 132 133 132 130 128 125 120 117 113 113 110 
40 34 23 22 22 25 27 29 27 21 32 51 98 114 113 103 107 128 139 141 137 137 135 134 137 134 135 135 136 135 134 135 135 137 136 139 140 139 138 136 136 136 134 134 134 134 131 136 138 139 139 137 139 134 129 131 134 133 127 124 118 117 117 110 
