P2
85 85
255
141 130 121 125 127 127 128 127 130 128 134 130 128 128 126 127 127 127 125 130 129 127 131 132 134 129 133 136 132 129 132 147 185 199 206 208 212 212 212 200 169 113 77 72 79 79 88 89 90 93 97 88 94 89 93 99 91 92 90 91 90 90 94 93 95 95 96 94 94 86 96 96 98 96 91 98 97 91 86 86 86 92 123 145 148 
141 130 121 125 127 127 128 127 130 128 134 130 128 128 126 127 127 127 125 130 129 127 131 132 134 129 133 136 132 129 132 147 185 199 206 208 212 212 212 200 169 113 77 72 79 79 88 89 90 93 97 88 94 89 93 99 91 92 90 91 90 90 94 93 95 95 96 94 94 86 96 96 98 96 91 98 97 91 86 86 86 92 123 145 148 
138 131 124 127 126 126 125 126 130 127 130 131 128 127 126 126 126 127 126 128 132 128 131 130 133 130 132 133 132 128 129 145 181 197 205 208 211 211 213 203 176 122 77 71 76 81 88 89 88 92 95 90 92 91 94 96 92 91 90 89 90 92 94 93 94 94 96 95 93 87 95 94 98 95 93 98 95 91 85 86 89 94 116 133 125 
136 131 129 125 125 127 124 128 127 126 129 130 127 127 128 127 126 128 130 128 127 125 127 130 130 130 132 132 129 130 127 129 161 190 201 207 210 212 213 210 195 157 100 71 73 79 85 85 90 84 90 89 90 95 90 96 91 94 95 92 94 96 95 95 96 93 92 92 91 94 90 94 95 92 92 98 96 95 91 91 96 98 85 69 44 
138 133 129 130 128 126 131 132 130 129 132 128 129 131 131 129 129 126 127 129 125 129 130 131 130 128 128 129 128 129 129 125 136 174 194 204 208 211 210 212 205 183 131 84 76 77 82 82 87 90 92 90 90 93 91 93 92 92 87 90 92 94 95 91 95 90 95 92 94 93 92 96 96 95 96 96 97 98 97 94 95 78 47 27 22 
136 134 131 128 130 127 129 131 134 131 133 129 131 131 131 129 127 130 128 133 129 126 127 129 125 128 127 131 127 127 130 123 126 151 185 198 206 208 211 213 211 198 164 107 73 73 76 82 83 85 91 89 88 94 90 92 88 92 89 90 88 92 91 93 92 93 94 91 93 91 93 93 93 94 92 94 100 102 103 95 72 44 23 21 21 
134 135 135 132 131 133 129 134 134 136 136 137 134 132 132 130 129 130 132 130 129 128 129 126 130 127 125 129 128 128 130 124 125 132 168 191 202 208 211 213 214 209 187 143 87 75 77 84 83 84 87 89 88 92 92 90 91 91 89 88 93 91 94 91 93 89 92 92 92 91 97 96 91 96 93 94 104 103 92 79 43 36 20 18 22 
132 137 136 138 135 136 133 135 136 138 137 140 135 132 132 131 128 129 130 129 126 130 129 130 125 124 124 127 128 127 127 129 126 121 147 182 196 205 210 213 213 213 201 175 123 76 77 77 78 79 89 84 86 91 88 89 96 90 88 91 89 91 91 89 91 93 94 95 95 93 94 94 96 98 100 101 106 90 69 37 21 30 24 22 27 
131 132 136 141 138 134 134 134 137 139 136 138 137 134 132 133 137 134 130 129 127 126 124 128 132 124 126 123 128 125 126 125 124 123 126 165 190 202 209 211 214 213 210 194 157 98 73 76 78 80 88 84 86 89 89 91 91 89 91 95 91 94 93 94 96 95 92 98 96 96 98 98 97 99 103 102 92 64 32 21 19 18 24 24 14 
130 132 136 140 136 138 137 134 137 138 141 136 140 139 133 132 133 134 134 130 130 127 128 129 129 126 126 126 125 127 127 127 125 122 120 136 176 196 206 211 212 213 213 204 180 132 78 73 77 78 84 85 83 87 89 92 94 91 95 96 92 93 94 97 93 95 94 97 97 94 98 101 102 103 104 89 62 35 17 23 24 19 27 22 19 
128 131 137 139 138 141 137 134 136 137 136 141 135 137 136 131 131 130 131 132 127 130 129 131 125 126 126 127 128 129 126 125 124 125 123 120 155 187 201 207 210 214 215 211 198 166 105 76 81 78 84 80 88 87 88 89 92 96 90 91 92 96 90 93 96 104 97 97 98 101 100 104 105 107 92 63 35 23 19 30 29 22 22 23 23 
128 132 136 137 138 138 134 138 135 136 135 141 135 136 138 137 131 128 130 130 127 128 127 127 125 127 123 127 125 125 124 123 125 125 117 118 132 171 195 204 210 212 213 215 209 188 140 84 73 80 80 82 85 89 86 86 85 91 95 91 92 87 92 89 97 97 101 100 100 101 102 104 108 92 62 30 30 21 28 25 32 24 21 23 23 
126 133 136 138 139 137 140 141 134 134 136 136 135 136 135 136 132 128 128 132 129 129 128 129 126 127 126 127 124 125 127 125 124 123 121 119 121 150 185 199 208 212 214 216 214 202 175 119 74 74 79 83 88 93 90 92 90 92 94 90 92 90 90 89 93 98 93 99 100 100 105 105 92 60 35 52 24 18 21 19 19 20 19 24 28 
127 134 133 135 137 136 137 136 135 134 133 135 133 134 135 135 135 130 131 132 130 131 131 127 128 126 127 128 127 126 128 124 125 126 119 121 118 127 171 194 204 210 213 216 218 212 194 156 91 74 78 82 85 83 97 93 96 89 93 94 90 92 86 97 94 91 95 98 100 103 104 94 61 28 19 27 23 15 14 19 18 22 17 26 28 
126 130 131 134 136 138 138 135 137 135 134 135 137 130 136 133 132 133 132 129 131 129 130 127 131 130 129 131 128 125 126 126 126 123 120 120 119 118 143 184 199 208 211 214 216 216 208 184 129 73 77 79 84 85 86 90 91 94 92 91 93 89 91 92 93 98 94 101 101 106 90 56 25 15 14 21 21 22 18 21 23 22 23 27 23 
123 128 132 129 133 139 134 134 132 130 134 132 136 133 133 131 132 132 131 128 129 129 132 128 125 131 131 132 129 130 126 127 122 127 121 118 119 116 123 165 192 202 209 213 217 217 215 202 167 100 73 79 79 85 85 88 85 94 93 89 90 91 94 95 91 96 98 103 102 89 60 21 14 20 21 19 22 18 25 20 22 23 23 20 29 
119 124 128 131 134 134 135 136 132 134 133 133 136 136 132 135 133 132 132 130 131 131 131 128 131 129 133 130 130 131 128 128 126 126 126 123 118 114 112 130 173 196 205 211 215 218 219 214 198 154 91 77 77 80 85 87 85 87 90 95 94 93 97 93 95 99 103 103 91 66 35 13 21 13 30 26 25 16 28 25 26 22 23 23 30 
119 124 125 129 130 133 132 136 132 132 133 132 134 133 132 131 131 130 134 133 128 131 131 133 129 127 130 128 130 130 129 125 127 126 125 120 122 115 116 118 158 191 203 210 215 218 219 218 205 179 118 75 73 78 80 81 86 86 91 93 90 91 93 100 98 100 104 93 62 27 18 13 15 17 22 33 25 28 27 19 26 22 23 29 27 
116 122 125 128 130 128 131 132 131 133 129 133 132 135 134 129 131 128 135 131 127 132 131 130 130 129 130 130 128 127 131 125 123 123 123 121 123 118 116 113 129 173 197 208 214 216 218 219 213 197 158 94 68 70 79 82 83 83 89 94 93 97 95 101 101 101 86 58 29 14 16 16 20 24 25 26 27 28 24 25 26 23 21 29 21 
118 122 121 126 127 128 131 132 133 134 130 134 130 130 130 131 129 130 131 129 125 126 129 133 131 131 128 130 127 126 126 126 122 121 122 121 119 117 113 112 113 149 188 202 212 217 217 219 219 210 190 131 74 68 79 79 79 82 85 87 89 95 97 100 104 87 61 28 16 21 20 19 15 27 34 39 34 36 35 26 26 25 21 19 20 
114 119 119 123 126 127 128 130 129 133 133 129 132 130 129 128 130 128 130 127 125 125 128 130 133 130 129 128 128 125 125 125 122 122 123 117 117 115 116 112 110 126 173 199 209 214 218 219 221 215 200 169 102 69 75 79 76 81 82 84 90 92 100 99 91 63 30 20 17 20 16 20 20 25 25 27 28 25 24 26 21 18 22 17 19 
112 116 120 121 122 126 127 125 132 130 132 126 130 128 127 130 128 129 127 126 127 129 126 127 126 129 128 126 126 124 122 119 120 118 116 118 115 115 113 112 110 115 147 186 204 213 216 218 218 219 211 189 138 77 71 76 76 79 81 82 89 93 104 89 61 33 19 16 15 18 21 21 27 30 34 37 30 25 29 25 24 22 18 19 20 
110 118 116 119 121 125 124 124 128 129 130 131 128 127 127 128 128 126 130 127 127 130 128 126 126 128 127 125 122 122 122 119 117 113 119 113 113 116 113 114 112 114 123 169 197 206 213 218 218 220 217 203 173 103 70 73 75 80 85 81 94 97 88 63 30 20 19 19 19 20 22 24 25 31 31 34 30 29 24 26 28 16 17 21 20 
113 115 116 115 117 120 123 122 128 128 127 131 128 130 125 125 126 125 127 127 129 127 127 128 124 125 124 124 121 117 120 118 119 117 117 114 115 117 112 117 115 112 113 141 181 199 211 215 219 219 219 212 195 149 82 87 79 82 85 89 95 85 55 31 20 18 21 24 17 21 22 24 29 31 33 35 31 28 28 21 19 21 19 18 21 
113 115 113 116 120 116 122 122 125 126 128 128 128 128 122 125 126 125 125 127 128 127 126 127 123 123 122 124 121 120 118 115 118 115 117 114 112 114 114 113 114 111 117 120 161 191 205 212 216 218 219 218 207 180 119 78 74 84 85 95 83 64 28 13 19 17 17 20 18 22 26 33 26 36 36 34 34 30 24 15 16 16 23 19 22 
114 116 115 114 116 117 118 121 122 123 128 127 127 127 126 127 127 128 127 124 126 123 126 128 122 124 122 117 117 119 116 113 113 114 112 111 111 112 111 112 110 110 111 118 131 176 197 208 213 218 220 223 216 201 161 98 80 88 93 87 61 27 17 15 16 18 17 17 19 20 30 26 26 27 26 29 29 28 22 16 17 16 16 18 17 
110 120 115 115 113 116 118 119 119 124 122 130 125 126 127 123 123 123 126 123 123 124 122 124 120 122 115 118 115 114 116 111 110 113 111 110 110 112 113 115 115 110 112 113 116 149 187 202 210 216 220 222 223 213 193 141 89 89 88 71 29 18 13 13 20 17 20 22 18 22 29 29 25 25 26 24 25 26 21 20 25 23 22 18 17 
114 115 116 114 115 115 117 118 120 121 125 126 125 127 127 123 121 123 125 123 121 118 117 121 118 119 116 116 113 112 118 115 110 110 111 108 110 111 114 111 112 110 110 114 107 117 170 196 208 216 219 220 223 221 209 183 117 91 68 33 20 15 18 20 23 24 23 27 25 30 29 31 26 25 26 20 19 19 28 29 22 20 21 18 18 
109 115 118 117 114 116 116 118 121 118 124 123 123 124 124 125 121 118 121 120 119 118 116 120 118 115 116 114 113 116 112 111 113 107 110 108 107 111 111 112 112 111 111 112 107 107 136 181 203 214 218 220 222 224 221 204 158 77 34 16 17 18 15 16 19 22 29 31 28 24 30 25 25 26 23 21 21 28 31 24 19 20 18 19 24 
114 118 117 117 116 115 115 116 118 122 118 120 124 125 125 124 122 117 119 116 119 119 114 114 118 116 116 116 113 111 113 111 111 111 110 112 108 108 108 108 111 110 111 114 109 107 112 159 196 207 214 219 222 223 224 217 188 72 17 17 14 16 20 20 22 17 25 29 24 25 28 24 29 27 21 27 21 24 25 20 21 25 23 18 18 
114 116 117 117 116 114 112 118 119 117 114 117 125 124 121 124 125 121 116 113 116 113 112 114 114 116 115 118 113 113 111 112 112 112 111 108 112 111 109 111 112 113 111 114 111 108 106 125 176 197 210 216 221 224 227 222 189 46 9 17 14 17 20 23 21 22 29 28 26 25 28 31 20 19 18 21 25 34 26 23 17 28 24 18 27 
112 118 118 116 115 114 115 116 119 118 119 117 117 122 119 121 125 125 119 117 114 109 109 113 114 115 118 116 113 115 112 114 116 111 111 111 111 112 111 112 114 113 115 113 108 111 112 115 149 187 207 215 222 226 226 211 124 14 15 17 18 18 18 19 22 26 28 28 25 28 27 21 19 18 17 24 32 23 19 19 19 20 20 23 31 
115 118 121 117 116 115 115 113 116 114 116 115 117 116 117 124 123 121 120 112 111 109 110 111 110 112 112 118 112 111 113 114 114 111 110 107 112 109 107 112 117 114 115 116 114 112 113 110 121 164 202 215 223 224 212 165 41 12 17 12 14 17 24 21 23 31 26 24 28 29 24 17 19 17 20 25 25 26 22 17 17 19 22 28 23 
116 119 120 121 119 115 117 113 115 116 113 113 111 112 116 116 120 122 123 113 112 107 110 110 110 112 115 115 116 112 111 114 111 112 112 111 112 111 111 112 115 116 112 115 116 113 117 115 115 131 190 210 219 209 170 66 16 16 18 19 20 17 23 20 29 32 26 31 29 28 27 15 18 22 23 28 22 16 20 19 24 27 28 27 15 
117 122 123 121 120 119 116 115 114 114 109 116 109 111 109 110 113 123 122 115 115 112 109 111 114 114 115 117 116 111 113 112 111 112 111 110 113 112 112 114 113 115 110 115 115 117 117 120 120 120 162 200 204 167 71 17 16 19 21 17 17 19 21 27 22 22 28 28 28 22 20 22 21 27 27 23 19 20 19 18 31 34 32 19 8 
119 122 121 122 121 123 120 119 114 109 106 108 106 106 103 107 110 119 121 118 115 112 112 111 114 111 115 115 116 111 111 112 112 111 111 110 114 113 114 116 111 114 116 116 115 118 116 122 124 123 145 179 142 59 21 18 21 19 19 19 20 23 21 22 24 25 29 25 23 18 24 31 29 28 25 27 19 23 23 24 40 44 29 10 5 
117 125 123 124 125 120 121 116 115 109 103 101 102 99 98 98 104 111 120 121 118 114 110 111 112 113 116 116 114 112 112 112 111 111 111 114 113 115 114 115 113 118 112 117 119 121 120 119 126 126 131 111 50 22 19 20 22 16 21 23 21 25 27 24 25 26 23 25 18 16 24 35 25 22 28 21 20 29 29 40 45 30 17 8 14 
122 124 124 129 128 125 119 119 120 110 101 98 91 93 89 92 98 110 114 121 118 115 112 110 113 116 116 120 119 107 110 112 110 110 112 111 114 115 115 114 116 122 116 118 120 119 120 122 127 127 107 55 23 20 18 17 20 15 14 19 25 31 32 25 23 21 18 18 13 18 26 28 30 29 20 28 26 30 36 43 33 17 7 13 58 
123 125 127 127 128 125 122 124 120 110 100 92 86 80 84 83 95 101 112 117 120 117 112 114 115 114 120 117 116 110 110 111 112 112 111 113 114 113 113 114 117 113 113 117 118 120 122 127 129 119 75 24 18 20 19 17 18 16 18 27 24 26 29 29 24 19 16 20 22 29 31 29 24 24 23 23 27 33 50 36 17 13 14 48 105 
118 123 128 125 128 124 122 122 124 114 102 87 80 68 74 73 83 93 107 111 119 119 115 114 113 114 114 116 115 112 110 114 111 113 111 111 113 112 112 111 116 114 117 119 119 122 125 128 123 86 38 24 17 20 21 11 25 16 19 24 24 23 26 22 16 18 16 22 26 31 25 29 24 23 23 26 35 45 55 31 14 19 39 88 126 
119 124 126 125 127 125 123 124 123 113 103 90 74 62 59 59 73 85 98 106 115 120 117 115 111 112 110 116 113 112 112 110 113 111 112 117 113 116 114 114 114 114 115 118 115 121 127 122 95 46 16 26 18 23 17 19 24 21 23 31 21 28 26 24 25 18 16 29 28 31 21 22 24 18 22 31 45 58 53 29 18 41 88 119 131 
117 122 127 122 126 124 122 124 122 115 108 95 78 55 49 49 53 73 90 104 110 115 118 115 114 110 114 117 113 112 111 110 114 112 110 112 113 117 113 114 115 115 117 117 118 126 128 109 60 21 18 17 11 14 15 16 20 23 25 28 27 24 23 19 18 17 20 29 28 24 20 24 24 21 29 40 45 48 43 24 38 82 112 126 134 
119 128 127 124 123 122 125 123 120 113 107 95 78 57 37 34 40 64 83 98 103 113 118 117 116 110 113 117 116 114 111 113 113 110 109 113 115 111 112 112 115 116 119 118 120 126 118 76 29 16 16 12 12 16 20 22 27 27 27 24 27 23 23 18 19 23 25 27 25 19 20 21 27 26 34 49 54 40 36 49 78 109 126 125 126 
121 125 126 122 123 124 124 124 122 112 107 98 80 55 28 22 26 52 75 88 102 108 117 117 118 113 111 111 114 115 109 109 115 111 112 111 114 112 110 111 112 110 112 120 125 123 99 36 17 10 14 13 13 14 19 25 25 27 27 27 28 25 18 12 25 26 29 25 20 20 22 28 48 50 39 54 48 41 50 75 107 124 129 122 122 
121 126 124 125 126 122 123 119 121 117 107 97 85 64 34 18 22 35 59 81 91 104 112 117 122 116 111 112 111 116 113 111 112 112 112 113 113 115 109 113 112 113 117 122 124 108 52 20 17 16 18 17 17 22 30 30 28 29 27 27 24 22 20 19 32 33 24 20 18 20 25 35 38 40 44 55 47 51 80 105 122 129 129 119 114 
120 125 127 128 126 123 123 122 123 120 111 100 86 65 36 13 16 23 48 70 81 95 106 116 117 119 113 111 114 111 112 109 112 109 114 110 112 114 111 117 118 118 120 126 114 66 22 19 55 48 30 17 18 28 30 25 25 28 29 26 22 23 20 25 29 29 23 23 23 23 24 36 37 43 52 48 57 75 102 117 124 128 130 113 109 
122 125 127 124 125 124 125 124 124 115 112 103 90 66 35 16 15 23 43 68 75 88 103 110 115 119 115 111 115 112 110 113 111 109 114 111 113 114 113 112 117 117 125 127 90 32 19 18 20 21 17 17 20 23 24 25 21 25 25 22 20 20 24 32 35 20 24 29 24 25 24 34 42 46 55 58 74 97 116 121 126 129 124 111 127 
120 125 126 124 126 122 125 127 123 118 112 98 85 59 37 13 13 21 35 60 71 86 99 105 112 118 117 117 112 112 107 113 107 112 112 110 113 112 113 114 115 119 123 109 54 17 13 12 20 17 19 22 26 26 27 24 32 27 18 18 12 17 30 29 29 19 23 24 25 23 30 31 38 52 56 79 98 118 126 127 122 124 112 123 139 
119 125 125 125 125 121 123 126 121 118 112 99 89 60 34 15 24 25 32 50 66 73 92 98 108 116 116 117 113 109 110 109 109 108 111 113 113 113 115 119 121 122 116 78 26 21 10 11 15 17 23 28 28 34 26 23 26 17 18 14 17 28 30 26 17 21 29 29 29 32 42 38 34 51 72 100 114 123 126 127 119 116 125 135 142 
118 127 125 124 128 126 124 122 125 121 113 100 85 61 37 17 17 25 20 20 49 63 84 91 103 111 118 116 114 113 112 109 108 107 110 112 113 114 116 120 122 119 94 42 15 14 12 13 16 22 26 34 29 29 29 28 24 18 15 21 19 31 29 19 20 21 28 29 25 29 33 35 40 59 91 113 122 122 127 128 118 124 140 147 144 
122 126 126 124 126 123 120 125 126 131 108 100 82 64 39 20 19 16 13 20 29 52 70 86 96 103 115 115 115 114 110 108 107 113 111 109 113 116 117 120 123 106 56 14 11 13 13 16 16 18 27 27 29 31 28 25 26 20 16 20 31 27 22 18 28 19 30 30 32 30 32 36 57 82 110 119 120 120 129 122 120 137 144 147 145 
120 128 124 124 125 122 124 122 128 120 108 98 82 64 39 16 23 15 11 18 18 41 60 70 96 100 111 117 116 115 113 108 108 107 110 113 116 116 121 124 115 80 20 16 13 15 15 18 22 22 32 27 24 23 29 28 18 19 23 29 29 32 20 20 33 25 24 26 28 27 31 51 85 108 121 119 118 122 120 119 133 144 148 147 146 
121 121 125 123 122 125 122 123 125 119 109 100 84 66 45 20 17 15 13 14 13 21 43 62 86 92 102 110 114 115 110 107 107 106 106 116 113 116 122 121 99 40 15 17 16 21 19 19 23 24 25 29 24 26 34 24 21 20 27 32 21 17 16 23 24 27 36 25 25 26 39 78 107 123 123 119 120 113 115 126 137 148 147 147 146 
118 123 124 125 125 126 123 124 123 118 110 98 88 69 44 23 17 19 19 16 13 15 30 50 68 85 96 103 111 117 114 107 105 107 107 113 114 118 122 108 61 19 19 17 18 17 19 18 25 27 25 28 33 27 28 22 21 21 27 28 25 19 24 26 28 21 25 20 27 37 62 98 121 129 123 114 110 112 126 139 142 146 145 147 147 
117 123 125 124 127 125 122 126 122 119 107 99 83 66 43 24 16 18 17 14 10 11 17 34 56 73 86 95 105 112 112 106 105 104 109 113 116 118 118 82 25 17 16 18 17 19 28 22 28 22 22 29 24 27 25 18 24 29 30 27 24 24 26 30 29 26 20 19 28 60 95 121 128 124 120 113 109 125 134 140 144 143 142 143 146 
117 121 123 122 126 125 126 124 124 120 109 98 83 67 46 26 21 17 18 17 12 10 11 16 35 58 71 86 118 144 159 162 138 104 110 132 122 119 98 38 17 18 16 22 17 20 26 26 36 24 22 28 29 26 26 25 24 29 29 19 24 26 28 32 23 20 12 17 41 84 115 125 124 120 112 112 121 136 140 139 145 142 142 142 141 
120 121 120 120 125 123 122 126 125 126 111 96 88 69 42 27 18 15 17 17 13 16 12 9 18 42 84 160 192 206 212 209 196 160 174 195 148 109 56 19 18 15 21 24 21 23 28 23 28 27 23 32 33 31 27 28 24 26 20 21 26 30 27 23 22 21 16 33 73 110 125 126 118 111 112 118 132 140 140 142 141 140 137 137 138 
118 121 120 122 124 124 123 125 120 124 110 98 89 65 48 23 18 17 20 16 16 10 11 11 27 106 190 208 216 208 192 186 194 204 208 212 213 143 26 14 19 20 19 28 18 25 32 23 27 25 25 29 35 27 25 29 30 21 20 24 26 31 24 18 14 22 36 65 103 122 126 121 118 112 120 130 137 143 144 142 138 140 138 140 137 
118 122 122 125 126 125 126 126 123 122 112 99 85 73 47 23 19 18 16 14 12 12 20 30 123 200 212 209 192 178 187 201 206 213 215 217 210 196 43 13 21 20 22 22 21 27 34 28 28 38 31 23 26 27 28 27 30 27 20 26 34 39 27 17 17 18 53 95 119 126 125 118 116 115 129 137 145 149 139 139 141 140 137 137 137 
116 120 123 123 126 122 123 127 123 123 113 99 82 66 40 24 17 16 14 11 14 17 51 153 203 217 200 174 182 201 209 217 222 223 225 228 224 221 104 17 20 21 22 19 27 34 29 23 24 31 31 27 24 25 25 26 26 25 27 27 27 28 25 17 16 35 81 116 128 125 118 116 116 126 135 143 145 146 140 141 137 139 138 135 139 
124 122 125 124 127 129 126 124 125 123 115 99 81 67 44 19 18 14 17 14 19 77 171 207 213 188 155 186 206 213 216 220 219 217 218 222 229 229 171 22 21 21 21 21 21 25 29 27 29 23 23 21 20 23 23 23 20 24 28 31 25 25 21 19 36 68 105 126 127 123 117 117 123 134 138 141 142 141 138 142 139 140 139 140 135 
109 132 126 125 127 128 126 123 122 119 111 98 85 60 29 14 14 12 14 30 105 194 208 203 169 148 195 209 213 213 212 211 211 210 215 216 223 231 203 40 21 18 17 22 26 27 27 29 27 24 24 22 24 28 25 18 26 24 25 24 28 25 20 29 56 98 119 128 126 119 113 122 133 138 139 141 138 141 140 139 137 137 137 136 138 
115 129 128 127 131 129 129 126 128 122 108 98 77 60 26 13 12 16 39 137 197 209 196 155 155 193 211 215 210 207 205 206 210 205 198 208 219 230 212 67 20 18 19 22 21 25 23 27 28 24 20 25 20 19 15 17 28 24 31 30 27 26 22 37 81 115 130 126 121 118 119 130 137 138 139 139 134 139 139 140 139 138 137 139 137 
117 123 127 125 128 127 126 128 125 116 111 89 71 58 21 14 19 61 158 208 210 185 143 161 199 210 213 211 207 203 203 204 201 197 198 209 216 227 219 77 20 16 18 19 22 25 24 28 30 19 20 21 21 18 14 22 22 20 27 28 27 20 26 63 106 129 130 122 120 120 125 135 139 137 134 136 135 137 138 136 137 134 137 137 137 
116 121 125 126 129 127 127 126 120 115 104 81 66 45 21 35 102 183 210 204 180 150 175 200 210 208 207 206 205 198 187 196 196 199 205 211 217 226 220 75 16 16 22 23 31 30 27 19 18 15 17 24 18 19 21 20 23 27 25 20 17 22 42 91 124 131 127 122 116 126 136 139 137 137 139 135 138 136 139 135 138 134 135 134 137 
112 121 123 124 128 126 127 125 119 116 97 80 53 37 73 155 201 209 190 170 162 192 204 212 207 204 203 202 198 193 194 196 195 202 207 214 218 222 217 68 14 17 21 25 30 34 31 21 23 17 16 17 15 20 22 26 23 22 19 12 10 30 68 116 130 127 120 119 121 134 140 142 140 137 137 136 137 136 138 139 135 134 132 129 136 
106 119 121 123 123 125 123 121 118 109 91 73 68 121 188 211 196 182 168 170 194 208 207 206 201 201 200 196 195 191 194 195 200 207 210 212 218 221 213 56 22 22 24 26 24 28 32 21 25 21 20 22 16 26 27 27 30 27 11 7 15 52 102 123 129 124 118 119 127 138 138 139 139 136 135 135 134 136 135 132 135 137 134 134 134 
124 118 127 127 123 120 121 119 111 101 94 115 172 207 211 189 179 178 180 200 208 205 205 202 196 196 197 192 192 193 197 199 200 206 211 214 216 219 205 36 24 14 20 21 20 24 32 33 30 22 19 17 23 26 22 26 25 19 8 10 30 83 116 132 130 123 117 127 134 139 138 140 138 135 137 135 134 133 136 134 133 134 132 131 133 
161 116 126 123 122 116 121 117 109 126 172 200 209 192 177 180 170 187 201 207 205 203 201 195 194 197 192 192 194 196 196 201 206 209 210 213 217 220 184 20 20 26 27 26 22 23 24 26 24 18 14 19 17 25 23 25 26 18 9 20 57 102 127 131 124 121 124 131 139 142 137 141 140 135 135 135 136 133 139 135 131 134 131 132 132 
190 120 123 125 120 117 112 118 158 195 209 198 177 182 180 172 195 203 206 203 200 198 195 193 194 191 196 195 195 196 202 205 208 208 212 216 216 218 152 20 18 21 27 24 24 21 24 25 25 20 19 19 14 24 24 21 22 19 20 46 89 121 129 128 122 118 125 135 139 140 138 136 138 136 136 136 133 136 135 135 136 133 133 131 133 
196 131 121 122 120 119 143 178 201 205 181 179 181 169 183 202 205 201 199 196 193 193 192 192 193 196 196 198 194 198 199 204 206 207 213 216 217 219 117 20 25 33 30 28 25 26 24 22 18 18 13 18 20 26 25 30 25 30 36 72 109 123 128 122 121 122 131 137 139 141 139 138 134 136 134 139 135 137 134 132 133 133 134 131 133 
193 167 113 119 133 175 193 200 185 182 188 179 177 193 203 205 198 198 194 192 192 194 194 193 194 196 197 196 196 196 195 200 203 208 214 216 217 217 81 27 24 26 26 30 28 25 24 22 17 12 18 27 20 26 24 31 33 39 55 92 121 124 120 118 119 128 136 141 136 136 138 138 140 135 135 134 135 136 136 134 133 131 132 131 132 
182 190 143 154 190 206 193 169 179 177 179 192 198 200 200 197 196 195 192 194 191 194 192 194 198 199 196 195 193 191 193 202 204 207 214 217 219 214 53 17 26 26 24 31 23 28 29 20 21 17 21 23 18 23 27 29 36 48 80 114 124 124 121 118 125 131 138 140 139 136 138 137 136 135 135 133 137 134 131 133 132 133 134 130 133 
176 184 185 196 198 184 181 185 183 187 194 201 197 195 196 195 193 193 192 190 189 192 192 196 197 197 194 196 187 186 195 203 203 204 215 217 221 196 27 17 19 17 20 18 23 35 30 23 18 14 23 23 20 30 35 36 49 72 102 122 125 120 118 121 131 137 139 139 141 138 138 137 137 134 134 136 134 137 134 133 134 134 133 133 136 
181 193 191 176 173 189 186 183 194 201 204 199 194 188 191 194 193 192 191 191 189 194 195 197 195 196 197 186 176 184 195 201 202 206 214 216 216 154 15 11 18 20 23 17 24 23 19 17 15 22 22 26 30 27 21 36 58 91 116 127 125 119 118 125 134 136 142 140 140 137 138 135 134 136 134 134 137 134 136 135 134 133 134 133 135 
194 171 165 166 186 188 188 196 202 204 199 196 183 187 192 191 192 192 186 190 191 194 193 197 196 198 191 167 160 177 190 198 200 202 209 212 213 94 16 11 19 20 18 27 21 30 28 20 20 17 21 31 27 19 17 41 77 111 124 125 121 117 121 128 137 138 141 140 137 139 137 139 139 134 135 138 136 137 135 135 138 134 133 136 138 
158 163 185 185 190 196 198 199 198 198 193 186 188 191 191 193 191 191 190 191 195 195 197 195 198 198 165 149 149 164 181 198 195 198 208 209 201 43 16 14 16 17 18 24 23 36 37 16 22 21 28 31 27 17 18 50 99 124 131 122 117 121 131 138 140 137 140 140 137 139 140 139 139 137 135 136 137 139 136 136 136 136 134 137 140 
182 178 186 192 197 197 195 193 193 192 188 188 190 192 192 191 189 191 191 193 195 197 195 197 197 176 147 137 140 155 183 181 176 187 202 206 149 16 17 21 19 20 23 24 19 25 22 18 20 20 20 22 28 24 33 74 110 127 126 120 118 127 136 140 140 142 143 140 138 135 138 140 138 134 136 134 137 136 136 135 135 140 136 136 134 
185 193 196 194 194 192 188 183 185 185 188 189 187 192 191 191 188 195 194 192 196 197 199 193 191 154 139 135 139 164 163 128 158 183 195 206 75 18 17 33 30 24 22 31 25 24 20 14 21 18 14 23 38 47 57 99 121 127 121 118 121 130 135 138 138 139 139 137 138 138 135 142 137 134 140 135 140 135 138 136 140 139 134 134 137 
198 197 192 189 189 187 181 181 180 184 187 186 192 190 192 192 190 194 191 196 195 199 198 199 163 139 131 146 164 163 106 122 158 179 194 181 23 21 12 27 34 32 27 25 19 17 19 18 26 16 22 32 46 56 88 115 123 124 118 118 128 136 138 139 139 140 137 132 138 138 138 137 136 138 136 137 135 136 138 137 137 140 135 134 136 
195 192 191 185 174 183 185 181 181 186 187 189 193 193 192 193 192 195 192 200 199 199 199 189 134 136 142 162 165 107 109 138 160 180 208 117 13 13 13 15 25 40 36 22 15 15 21 25 23 17 23 34 49 73 110 122 127 122 118 122 131 137 140 141 140 143 141 134 140 135 136 138 138 139 139 133 134 135 134 136 140 139 138 133 137 
191 186 182 184 184 185 183 183 185 188 189 192 193 194 191 193 195 195 196 199 200 202 200 151 134 145 161 160 112 119 134 153 159 181 210 66 11 16 14 18 24 23 25 20 16 19 26 23 22 19 28 46 55 94 123 132 121 117 119 127 137 138 139 142 137 138 142 136 135 136 137 137 138 138 138 137 136 136 136 133 137 135 134 136 138 
184 183 179 185 184 185 187 186 188 191 192 194 194 193 193 196 194 196 198 201 202 202 182 133 134 157 157 119 127 143 150 137 163 203 184 23 19 19 21 22 23 26 22 38 15 18 24 24 24 21 35 43 77 111 130 126 119 120 121 129 135 137 141 139 140 137 136 135 134 133 134 136 138 137 135 136 136 135 139 137 136 134 136 134 134 
182 180 182 186 187 188 187 187 193 193 195 195 196 194 193 195 196 198 202 202 204 197 141 132 149 152 117 135 151 136 117 127 179 217 116 20 14 17 23 25 24 22 26 19 35 26 29 26 20 31 43 55 100 124 128 125 116 117 127 137 136 139 140 139 135 137 134 131 135 136 136 138 137 136 134 138 136 134 138 137 134 135 136 135 136 
181 184 185 185 186 189 190 192 195 196 195 196 195 194 194 197 196 201 202 203 208 170 130 149 145 121 140 136 101 85 108 157 203 210 47 14 17 21 23 31 27 27 33 25 33 44 29 23 28 21 38 73 113 127 126 121 118 123 132 135 138 136 137 136 136 135 136 134 136 133 134 135 138 136 135 134 136 135 136 138 137 135 137 136 134 
