P2
64 64
255
38 47 59 64 77 83 89 91 100 105 110 119 120 115 125 135 137 138 131 123 121 123 123 112 112 107 94 48 23 23 27 31 33 30 35 35 32 29 43 32 28 30 28 22 29 36 46 79 66 62 60 56 47 61 58 54 38 54 32 40 142 143 135 129 
71 72 76 75 80 85 92 88 95 99 99 117 116 124 122 129 139 137 130 126 125 124 112 104 105 108 85 51 29 30 30 34 39 40 31 37 33 28 44 36 32 25 27 26 24 36 44 78 65 60 67 60 52 52 56 53 37 48 41 42 142 142 137 121 
98 101 111 112 106 105 108 112 110 117 116 135 130 137 131 132 137 142 142 147 149 148 147 149 154 157 142 97 64 46 34 39 40 34 35 32 33 31 35 33 32 24 28 27 25 37 41 76 72 56 69 58 49 56 58 47 40 43 43 52 150 135 136 109 
95 99 108 105 104 105 107 111 106 109 116 122 125 129 124 123 127 128 130 130 132 136 147 155 166 178 183 183 173 143 92 57 34 35 31 35 28 25 28 32 26 21 25 33 23 39 40 74 70 55 70 58 50 53 58 56 44 43 37 58 148 127 133 101 
95 96 97 101 101 103 105 106 109 112 117 118 121 123 119 121 117 117 119 121 128 135 148 159 168 180 183 185 188 189 188 162 106 63 43 40 30 28 27 32 23 20 22 26 27 45 49 71 74 50 59 65 51 48 58 54 48 47 43 62 153 128 128 98 
92 96 102 97 100 103 107 105 103 109 112 117 118 115 113 112 115 113 113 117 127 139 153 158 169 179 186 186 188 190 191 194 191 169 117 68 43 33 29 30 32 25 27 27 29 40 62 72 79 53 61 60 47 50 61 52 42 55 44 71 158 126 118 98 
89 89 94 98 100 106 103 104 106 107 112 114 112 107 113 107 112 114 113 123 128 146 150 161 172 180 185 186 189 190 189 192 191 192 191 178 123 63 31 24 23 16 18 14 22 33 60 56 79 46 57 55 46 46 60 51 38 51 35 81 154 126 115 102 
91 90 91 95 106 104 101 102 103 106 108 108 105 109 107 110 112 111 115 124 132 146 151 166 174 177 184 184 187 188 190 191 192 189 192 196 196 177 118 53 23 14 16 11 18 30 49 58 80 39 58 56 49 43 56 42 41 36 35 87 146 124 116 107 
91 90 95 93 103 102 100 99 103 106 108 104 111 106 107 111 113 117 119 128 136 149 159 171 175 177 179 183 181 186 188 189 191 193 191 194 194 198 199 169 86 34 18 12 18 37 45 60 79 44 55 51 46 39 52 44 43 40 35 94 142 122 118 117 
93 96 94 94 97 102 101 107 105 110 106 107 109 105 109 114 112 118 125 131 140 151 157 166 173 175 177 175 178 183 183 185 189 190 190 192 192 198 200 201 191 126 44 17 17 33 29 58 77 36 48 52 42 42 49 39 47 31 35 108 141 121 111 124 
90 94 90 97 100 104 105 110 107 108 107 103 106 100 108 114 115 120 128 135 146 154 160 166 171 177 176 174 177 183 182 181 187 190 190 193 194 196 198 199 202 202 153 58 25 27 23 49 75 40 50 52 40 48 56 39 44 25 37 122 133 119 113 126 
90 90 97 97 100 105 110 112 108 107 109 99 101 102 110 113 117 126 131 137 141 147 152 163 168 173 171 173 178 177 178 179 184 186 190 192 192 195 197 198 200 202 204 166 64 26 17 36 65 33 40 44 34 40 52 40 40 21 34 133 127 116 116 133 
83 90 102 105 102 100 104 110 107 108 108 102 103 106 107 115 122 128 133 137 142 144 149 160 162 168 167 170 176 174 177 179 184 185 184 191 191 195 196 199 201 202 203 206 172 68 20 31 58 29 33 37 31 45 47 42 35 15 34 132 129 117 116 130 
87 97 102 108 103 99 102 105 104 109 106 107 105 110 113 119 124 128 133 137 139 144 149 156 158 162 162 166 171 172 175 178 181 181 183 187 189 194 194 197 198 201 202 206 207 170 58 31 52 34 34 34 39 53 49 44 41 20 46 142 124 119 119 128 
102 97 99 106 102 103 105 109 110 104 104 105 107 113 118 119 126 131 137 135 143 145 147 145 155 157 164 159 164 174 173 173 179 179 182 187 189 192 196 197 198 201 201 206 209 208 158 44 33 28 22 27 32 44 34 47 44 17 51 147 117 119 118 126 
97 98 103 104 104 108 106 105 111 104 110 108 108 113 118 120 124 131 137 134 138 140 144 150 156 154 157 157 165 163 166 167 174 181 183 185 188 190 194 194 197 201 201 205 206 210 210 135 29 21 13 18 29 45 33 36 33 17 64 147 113 116 124 129 
92 101 103 103 104 104 108 103 103 105 103 109 113 109 116 120 121 125 134 135 133 137 143 145 153 157 154 156 158 166 166 167 172 180 181 183 187 190 193 195 197 200 199 205 207 208 211 204 100 29 17 18 23 38 23 37 22 14 73 147 113 117 126 128 
94 98 101 102 107 107 107 102 106 103 105 110 108 114 111 120 121 121 127 136 133 137 140 141 147 154 153 158 163 159 165 173 172 176 177 182 183 186 191 191 195 197 199 203 204 209 211 215 185 60 19 18 22 30 17 32 23 18 92 135 108 118 120 128 
98 92 100 101 101 108 107 109 108 109 106 107 109 108 117 120 123 125 129 132 135 137 137 142 148 147 152 153 159 161 165 169 171 176 177 182 184 188 189 191 193 197 196 202 204 207 211 216 214 145 20 13 21 49 15 33 16 17 106 129 109 119 125 130 
97 99 97 99 103 105 108 105 107 107 109 109 112 113 114 117 117 121 125 129 135 133 142 141 141 145 152 155 159 160 167 163 172 178 178 181 184 187 190 194 195 196 197 202 203 205 210 214 214 201 69 19 14 22 14 24 10 19 113 128 107 117 131 129 
101 99 95 96 102 100 108 107 109 107 107 108 116 117 120 119 117 122 126 126 131 134 137 138 144 148 150 153 155 161 163 163 169 173 174 179 185 185 190 191 194 198 199 200 202 206 209 211 213 216 149 18 14 19 11 15 9 26 121 136 109 119 131 129 
97 100 101 102 104 102 106 105 105 108 108 110 115 117 115 112 120 119 122 129 128 132 135 136 139 146 152 152 156 159 158 169 169 176 174 178 185 187 189 194 196 198 199 204 202 204 207 211 213 215 202 59 13 16 10 13 5 31 128 133 108 124 131 131 
98 103 103 104 104 102 102 104 105 107 109 111 107 112 116 112 115 121 126 129 127 131 131 133 143 143 149 150 156 154 161 170 170 169 174 177 181 187 189 193 195 199 197 203 202 204 207 210 212 214 214 133 10 9 7 10 5 46 122 131 113 125 129 130 
104 101 100 103 103 103 98 101 103 104 105 105 109 116 113 113 115 119 123 125 125 130 130 138 141 142 147 150 151 156 161 162 167 173 173 179 181 184 188 190 194 196 196 201 204 204 205 207 211 214 216 192 32 17 8 9 6 63 121 123 121 127 130 129 
102 99 98 103 101 101 99 100 101 102 101 107 115 113 113 115 114 119 122 123 125 130 130 135 138 144 141 147 152 156 157 160 164 173 173 176 182 183 187 191 195 197 201 200 200 205 205 209 207 213 214 213 101 11 6 7 5 75 118 117 123 127 129 127 
103 101 102 100 100 99 103 104 101 101 103 109 110 112 112 112 116 115 120 123 125 128 131 138 135 138 142 141 153 158 155 161 164 173 172 176 180 181 187 193 194 196 200 199 202 205 204 206 206 211 214 215 156 10 4 4 9 89 114 123 121 137 129 130 
103 101 105 102 102 100 99 101 103 104 104 103 107 108 110 113 114 120 117 122 128 129 133 131 139 136 142 143 151 156 150 161 166 169 173 174 180 182 184 190 190 198 195 198 199 203 203 206 207 208 212 216 196 40 7 5 13 95 110 119 120 138 124 129 
102 105 102 103 104 102 102 103 106 105 105 104 109 111 111 113 112 117 119 118 126 126 128 133 132 137 139 140 145 154 156 161 164 165 173 178 181 184 185 188 191 197 196 198 199 202 201 204 206 206 210 212 207 89 4 5 20 107 108 121 121 137 127 124 
103 102 108 106 100 100 102 102 100 102 103 105 105 106 105 108 112 116 116 116 124 125 130 129 134 136 140 145 147 149 155 158 159 165 173 177 178 181 185 185 192 196 194 197 198 201 203 203 205 206 209 211 214 143 5 5 20 105 110 118 123 132 131 123 
106 104 110 106 104 101 106 98 96 98 101 103 105 107 110 111 109 113 116 118 121 124 128 130 135 133 134 138 142 148 147 150 161 169 171 179 178 179 186 189 191 193 194 197 197 201 204 203 206 205 206 210 212 183 26 5 30 104 115 122 124 132 137 124 
102 105 108 105 103 105 103 100 98 98 99 102 105 103 110 110 109 110 119 122 120 126 126 125 132 134 133 140 145 147 144 152 160 167 169 173 176 179 184 187 188 191 194 194 196 198 202 202 206 205 207 209 210 203 61 6 41 104 115 124 123 127 137 126 
106 104 107 103 103 100 105 102 97 98 98 101 102 103 107 111 112 111 115 116 121 122 122 129 132 130 131 136 143 146 144 152 160 161 164 170 178 180 181 185 187 191 193 194 195 198 199 201 203 204 204 207 207 209 112 5 56 105 118 123 124 130 130 131 
107 103 103 103 107 106 105 98 99 99 99 102 107 105 107 105 108 109 114 116 116 119 123 131 131 131 134 139 142 145 147 154 153 157 166 171 178 179 181 184 186 189 192 197 197 197 199 200 203 203 204 203 207 210 160 9 62 98 120 123 127 130 130 130 
102 108 108 107 110 108 104 102 99 102 99 102 104 106 104 108 109 112 112 115 118 120 125 126 127 130 135 139 142 143 145 146 153 158 165 168 172 181 180 183 187 188 190 194 195 197 197 200 201 204 205 203 206 207 191 32 66 101 120 126 128 133 129 127 
103 107 106 106 107 103 105 101 102 103 100 102 106 102 102 105 108 108 116 116 117 116 119 127 127 129 131 137 141 144 143 144 150 155 165 166 173 176 182 181 188 188 189 193 194 197 196 199 201 204 202 204 203 207 204 86 71 106 121 123 120 131 129 124 
108 112 105 102 103 102 103 102 104 99 105 102 101 101 102 106 108 110 111 116 117 122 122 125 123 130 131 133 136 138 140 146 151 151 157 162 172 171 180 179 185 187 188 192 195 196 196 201 201 202 203 203 204 205 205 139 76 111 120 116 103 114 119 118 
108 112 109 107 103 105 105 104 103 99 101 100 100 101 99 108 111 107 112 115 114 118 119 123 125 125 128 131 132 139 137 143 149 156 157 167 169 171 176 180 183 187 188 189 193 197 198 201 203 202 203 202 203 204 207 182 87 118 119 100 89 99 101 104 
104 111 115 108 104 104 106 107 108 104 102 99 103 107 102 107 108 108 111 114 118 119 120 121 122 123 128 130 133 135 138 143 146 154 157 162 166 168 175 180 184 184 189 191 192 196 199 199 200 201 204 204 204 203 207 202 115 118 105 79 68 84 79 89 
109 109 109 111 106 106 107 108 106 106 101 103 103 103 107 104 110 111 111 113 119 118 117 121 123 126 124 130 135 136 140 144 147 151 152 157 164 169 173 178 181 183 187 191 192 193 197 200 200 202 201 204 204 203 207 209 151 107 75 63 51 72 59 68 
108 110 108 111 108 106 106 109 103 103 100 104 104 99 103 104 106 107 113 114 116 119 117 123 124 126 124 127 135 137 138 140 146 149 149 152 161 166 175 175 177 181 184 190 193 196 198 199 201 205 202 206 205 205 207 211 185 90 54 49 39 53 43 56 
110 116 107 103 106 110 109 108 108 104 101 100 103 100 102 103 108 105 112 112 113 114 117 121 121 123 129 129 131 134 136 141 145 147 149 153 156 164 174 173 177 179 183 190 193 196 197 198 201 203 201 203 203 208 208 211 201 85 43 52 48 58 40 42 
107 111 108 103 105 111 105 102 106 103 101 103 102 101 102 101 103 107 111 109 110 114 114 118 117 122 124 127 130 134 135 139 145 148 151 151 152 162 172 171 177 179 184 189 190 193 196 197 199 201 202 204 203 207 208 209 210 113 47 58 55 62 50 53 
105 111 106 104 106 110 110 105 106 103 102 103 104 99 96 102 100 106 109 107 113 108 113 119 119 121 122 123 128 133 134 138 141 146 148 148 151 160 167 170 174 178 183 187 190 193 196 196 199 201 202 202 203 204 209 208 211 149 44 57 61 66 67 62 
104 106 106 108 110 109 109 105 107 102 104 106 102 102 100 104 104 105 107 103 113 113 112 114 120 119 121 123 126 129 132 133 139 141 147 146 155 159 164 171 174 175 182 189 187 191 196 195 199 198 201 204 202 204 207 207 211 186 54 57 66 71 70 67 
102 106 106 110 107 113 105 110 109 106 106 104 103 102 103 100 103 106 103 102 107 110 111 117 122 121 123 127 128 128 131 134 135 140 141 148 153 159 159 165 169 172 179 185 186 190 193 195 196 197 199 203 202 204 207 207 208 205 93 53 68 72 78 76 
103 107 107 113 108 111 109 108 106 105 105 105 102 101 103 99 104 110 102 106 105 110 106 112 117 116 120 124 124 129 131 129 133 138 143 146 156 158 159 167 170 174 180 184 185 187 193 194 198 199 198 202 203 204 205 206 208 208 136 56 66 74 81 78 
105 105 104 111 108 111 110 111 108 111 109 104 103 104 104 103 103 105 105 106 105 105 107 112 114 116 114 119 128 128 131 127 130 136 140 144 151 152 153 164 164 171 178 181 185 187 190 192 195 197 200 198 201 202 206 204 206 211 173 61 62 73 73 80 
103 105 103 111 108 108 109 110 109 109 106 103 105 110 104 102 101 104 104 108 106 103 107 112 112 117 114 119 124 125 129 127 130 136 137 147 149 147 153 157 165 173 176 180 185 186 190 194 196 198 197 199 200 203 203 203 207 209 199 76 55 67 79 84 
105 103 103 110 110 108 107 107 110 112 104 107 108 104 103 101 100 106 105 108 110 107 105 109 115 113 114 122 123 123 123 129 133 137 138 141 139 146 152 156 167 166 171 178 179 185 190 190 194 196 198 199 198 203 204 199 203 207 206 115 51 65 74 82 
103 104 102 108 112 111 107 107 110 112 109 107 107 109 105 103 102 108 104 110 106 111 106 108 114 114 114 116 118 120 123 127 129 136 138 144 137 142 151 156 159 162 168 176 179 181 187 190 193 196 196 201 202 202 203 200 204 206 207 161 55 59 66 74 
105 105 106 107 110 107 105 108 109 111 111 108 108 107 108 103 106 107 105 110 104 104 101 108 112 112 114 117 119 117 126 126 125 135 138 138 143 146 147 146 156 157 166 173 176 177 186 187 190 194 198 198 199 201 204 201 203 206 208 190 66 57 67 74 
104 104 106 108 109 110 110 115 110 113 111 109 109 111 111 110 108 108 106 108 105 105 107 104 109 110 113 119 116 118 120 124 127 134 135 138 139 146 144 146 155 157 162 170 174 177 182 185 189 192 193 197 199 202 202 203 204 207 207 202 93 54 65 71 
104 103 112 108 108 110 112 112 116 116 114 113 113 112 109 109 108 107 106 106 104 106 108 104 106 112 111 117 117 120 120 126 128 129 132 135 136 146 148 151 153 155 162 166 170 178 181 185 188 190 196 197 199 202 203 201 202 205 206 206 135 51 58 71 
102 107 109 108 107 110 111 111 116 112 115 115 115 110 108 110 112 111 106 103 107 112 109 110 108 111 112 113 115 120 121 122 126 128 131 135 134 140 147 149 157 157 160 163 172 173 179 181 188 190 192 195 199 195 202 201 204 206 203 205 174 57 59 64 
106 105 104 106 105 108 115 109 110 113 113 114 115 111 110 110 110 109 111 104 106 105 111 110 108 109 111 113 116 117 122 122 126 132 134 134 135 140 145 148 158 159 161 167 169 171 178 180 185 188 191 194 197 201 202 202 204 205 206 207 193 72 55 59 
108 107 108 106 107 108 109 112 114 115 115 116 110 109 115 110 114 110 114 108 107 112 108 111 108 109 113 110 114 121 122 119 123 127 131 131 132 143 139 144 151 157 162 166 170 173 175 179 181 186 191 191 193 196 203 203 202 203 204 206 204 108 52 56 
110 105 105 108 109 104 107 108 113 113 112 111 113 110 115 111 112 111 118 110 110 111 108 108 107 113 111 112 116 118 118 118 121 127 130 126 134 136 144 145 146 155 155 163 164 170 175 175 179 184 185 191 193 196 202 202 202 203 204 206 206 147 52 51 
105 103 103 107 109 106 109 107 109 113 112 115 112 111 115 115 112 113 119 114 112 111 113 114 110 112 116 117 118 119 118 123 122 125 128 129 132 138 139 141 145 149 153 161 160 163 171 174 176 184 183 187 192 194 199 201 201 198 204 204 205 175 51 47 
104 102 102 108 106 108 108 109 113 112 111 110 114 114 116 113 114 113 116 114 114 114 110 114 111 118 113 115 117 119 119 119 122 122 127 132 133 139 140 144 147 149 156 160 164 166 169 172 174 180 186 189 191 192 196 198 201 199 198 204 205 194 75 46 
103 102 106 104 105 106 106 104 110 112 107 112 113 114 116 115 112 116 120 112 117 115 114 119 118 116 116 116 121 119 120 123 125 122 125 132 132 138 141 144 150 147 153 160 164 160 169 172 173 180 187 186 190 192 195 196 199 200 201 204 204 202 110 46 
108 106 104 104 107 102 107 107 112 110 110 114 111 112 117 113 116 115 113 118 118 115 117 120 114 114 116 115 118 121 121 126 124 123 122 131 134 139 143 145 144 145 154 160 158 162 167 172 175 178 182 185 190 191 195 196 199 200 201 201 203 206 147 46 
105 106 102 109 106 103 105 109 110 111 113 116 113 115 106 113 115 113 113 114 122 118 119 115 119 117 114 116 119 122 122 126 125 127 126 131 132 139 139 138 137 145 150 157 154 163 169 172 174 178 181 184 188 190 193 194 198 198 201 201 201 205 177 58 
99 100 104 103 103 108 106 110 113 113 112 112 114 114 107 114 114 115 114 114 119 120 117 115 118 121 121 115 119 123 119 121 128 127 128 129 132 136 141 142 142 144 146 151 153 158 164 169 175 177 179 183 184 191 191 192 195 198 200 199 202 206 196 86 
100 97 102 104 103 109 105 103 111 109 114 109 111 110 109 113 114 113 114 113 118 120 121 119 118 120 120 121 120 123 122 123 132 132 130 128 132 136 139 143 140 144 148 148 152 156 165 170 171 179 179 183 181 185 190 191 194 197 199 196 202 203 199 110 
