P2
64 64
255
60 61 63 64 61 65 66 63 64 62 65 61 63 80 93 102 117 130 136 141 145 143 146 143 143 140 135 127 116 101 82 69 52 42 46 45 49 55 58 61 62 62 64 67 66 69 65 63 63 68 72 72 71 72 74 74 77 79 80 70 63 90 207 185 
61 63 62 63 65 64 68 64 64 62 62 61 63 78 89 110 116 127 138 142 145 143 145 143 140 143 135 129 118 101 83 69 51 47 43 47 52 56 61 62 65 67 65 68 66 64 67 67 66 64 69 73 70 71 76 76 77 79 77 73 65 113 205 186 
63 67 66 62 64 68 64 63 62 60 62 56 65 74 95 105 117 128 136 141 140 142 143 146 144 144 139 126 119 103 82 67 51 42 45 46 53 61 63 63 67 67 62 71 69 65 68 74 69 64 68 71 74 75 75 75 82 79 79 70 62 145 201 189 
66 65 65 68 65 66 68 69 65 63 60 62 63 72 92 105 120 128 134 141 143 142 144 140 143 145 138 128 118 104 86 67 50 42 47 48 52 52 62 60 64 65 65 66 66 67 71 71 67 64 64 68 79 73 75 78 75 80 80 68 66 171 201 177 
70 67 66 68 69 63 66 66 66 62 64 59 65 78 92 107 118 128 134 138 142 144 148 146 142 143 140 130 120 105 85 73 50 41 44 47 54 52 59 64 69 70 68 67 67 69 62 72 66 62 64 65 72 71 73 78 76 79 73 64 64 191 201 158 
66 66 70 69 67 66 66 65 68 63 63 65 70 79 92 108 119 123 130 142 141 145 149 147 146 147 147 128 120 102 87 69 48 45 44 48 54 59 60 61 63 64 64 69 69 68 63 69 68 65 63 67 68 72 72 73 77 75 71 60 76 204 188 137 
67 69 65 62 65 63 67 66 69 60 65 63 72 78 95 108 120 126 135 141 143 147 147 150 147 148 144 134 122 106 88 69 51 43 41 48 56 62 57 64 66 68 64 68 67 64 68 68 67 66 65 69 67 72 73 73 71 73 69 60 97 209 190 131 
69 66 66 64 63 64 66 66 70 63 62 64 71 78 95 108 122 132 139 140 147 150 150 148 150 150 147 135 122 105 87 66 50 46 46 51 58 59 60 60 69 64 63 68 66 67 66 64 59 65 67 70 69 74 71 75 71 70 65 54 130 209 179 143 
66 70 66 64 67 68 67 64 69 65 64 61 66 80 93 108 121 133 138 142 146 145 149 151 149 151 146 139 122 109 84 70 53 43 46 50 62 63 56 60 63 68 68 66 64 65 64 65 60 64 70 65 69 69 69 70 71 67 59 57 156 205 181 143 
64 65 67 67 69 64 60 66 68 63 63 65 72 81 96 108 123 129 139 144 149 149 153 153 151 150 145 135 122 107 86 72 51 44 42 45 53 54 58 63 57 65 65 70 63 65 62 63 62 67 62 64 65 68 69 74 70 65 57 60 188 205 171 152 
70 64 65 66 68 57 64 65 68 64 67 65 72 81 93 107 120 133 141 146 149 149 155 151 151 151 146 136 123 106 81 73 53 43 42 47 52 55 61 58 61 60 64 71 66 64 62 66 64 64 67 63 64 68 72 68 66 64 55 70 205 199 174 159 
70 65 62 67 67 64 62 64 62 61 64 63 69 80 92 110 120 129 142 148 150 153 154 150 150 152 144 136 120 104 84 73 50 39 41 46 53 56 61 64 62 64 61 65 63 62 64 65 64 61 63 66 66 69 72 70 65 70 54 76 207 197 167 161 
65 61 64 67 68 67 63 65 64 65 62 61 67 77 92 109 119 133 140 144 152 149 152 148 151 150 146 137 118 106 91 73 52 44 43 46 51 58 62 63 60 65 62 65 63 66 65 64 63 67 63 63 69 68 67 72 67 66 55 84 212 190 172 154 
60 67 70 63 60 63 63 64 64 68 63 63 68 81 92 110 119 133 141 146 151 149 153 150 149 152 145 135 121 108 88 74 55 44 46 52 59 58 61 58 61 67 66 68 64 61 66 67 61 67 62 63 69 68 70 72 67 64 54 92 214 194 168 149 
64 64 64 66 62 64 62 63 61 64 61 63 70 78 96 110 122 133 140 150 151 150 151 152 147 150 145 134 123 105 88 70 50 46 42 51 56 62 63 62 63 63 72 66 66 63 63 66 63 64 62 67 66 67 65 68 66 65 53 86 211 181 166 152 
64 65 61 68 59 64 65 64 63 62 62 65 66 78 97 111 127 134 144 149 147 147 152 149 145 148 141 136 122 107 91 71 54 48 45 46 54 62 62 62 69 67 64 63 66 63 64 64 64 64 63 69 66 66 71 64 66 63 55 95 212 181 173 144 
64 64 59 62 61 58 59 63 61 62 63 64 66 81 98 113 123 134 141 146 147 147 148 148 146 148 143 134 122 107 87 71 55 41 47 45 52 60 58 64 63 68 66 64 63 66 62 65 64 62 64 65 68 65 68 65 63 62 51 108 204 176 165 150 
59 74 61 64 61 66 64 61 61 62 63 63 68 83 96 110 123 134 142 144 150 149 149 150 150 149 145 136 124 113 89 70 54 42 44 48 56 61 61 65 65 66 65 64 66 59 62 65 64 65 64 65 70 63 65 64 63 55 49 122 206 174 160 154 
62 63 63 60 61 62 62 60 59 61 60 63 68 80 100 109 124 134 143 148 150 149 147 148 148 147 148 136 121 109 92 71 59 44 47 50 54 58 61 65 64 62 64 64 63 60 65 63 63 65 70 68 66 63 68 65 60 56 49 145 196 170 169 153 
65 65 67 60 56 61 62 63 60 62 59 65 73 85 97 109 123 134 141 147 147 150 146 148 152 146 146 136 122 113 90 74 51 43 46 49 57 58 60 64 65 65 63 63 65 63 65 63 59 62 63 64 64 60 66 66 58 53 47 158 190 182 164 174 
61 62 65 65 65 60 63 63 63 63 64 64 71 84 98 112 121 133 142 146 149 150 152 152 151 151 144 136 123 114 93 77 58 41 46 44 54 57 61 62 60 66 60 61 63 57 63 64 65 65 64 63 62 66 65 61 58 50 48 175 196 184 185 156 
62 63 63 66 65 65 62 62 64 66 68 71 72 83 95 108 122 135 139 148 151 148 150 150 147 148 144 136 124 113 97 67 53 42 39 46 52 59 62 65 60 66 65 62 61 60 66 66 62 62 66 64 64 62 64 60 58 46 45 171 197 189 171 189 
67 62 66 64 60 64 68 65 64 64 72 69 72 83 98 110 121 134 142 150 148 150 151 149 148 151 146 140 126 111 90 67 53 39 40 48 52 55 59 67 66 61 63 60 59 60 65 62 63 65 60 61 67 63 65 60 55 47 43 172 204 185 192 161 
66 68 63 67 62 65 65 65 65 66 67 68 72 82 100 112 123 132 143 148 147 152 150 150 152 151 144 140 130 111 93 72 54 42 36 42 57 56 61 65 64 62 65 64 68 62 61 68 63 63 59 66 64 62 58 62 60 47 43 169 201 197 170 194 
67 66 62 67 68 64 63 66 66 62 64 66 73 84 100 111 123 134 143 149 150 150 157 150 150 151 146 138 128 112 92 72 51 38 43 48 48 55 60 62 65 64 61 64 65 62 64 66 61 66 64 64 63 61 62 59 52 45 43 156 209 182 194 169 
64 68 66 65 63 73 64 67 69 71 70 71 79 89 101 113 125 133 143 149 153 149 152 151 151 152 147 137 127 111 92 72 55 41 36 43 50 53 60 62 60 62 62 70 69 61 63 70 62 64 65 62 63 63 64 60 57 47 44 153 197 203 175 189 
66 65 69 70 68 66 68 64 66 69 70 70 74 83 104 114 126 133 146 151 150 151 153 150 151 152 145 140 126 112 93 76 51 45 37 45 49 54 63 61 64 62 65 65 65 63 66 69 61 61 63 62 66 60 60 63 58 51 42 121 213 184 191 176 
63 68 69 72 70 64 67 65 68 64 72 72 74 85 101 113 125 138 147 147 153 149 149 152 148 153 147 137 129 114 93 74 48 37 40 48 51 56 61 63 61 67 65 61 60 66 64 66 61 65 64 63 67 65 67 61 60 52 44 90 205 200 181 190 
67 67 69 71 69 66 65 60 65 74 72 70 75 86 99 113 124 137 149 150 147 147 151 151 150 151 149 138 128 111 95 70 51 45 40 49 50 60 62 68 61 62 68 66 66 62 68 65 64 64 66 63 66 59 62 60 58 51 43 57 202 194 196 189 
66 68 69 70 70 68 63 61 64 70 67 69 77 88 101 112 125 135 146 150 152 150 149 153 149 149 144 140 131 110 94 70 51 41 44 48 46 58 59 61 59 63 66 63 66 61 67 66 64 61 68 62 64 61 62 60 58 58 44 47 181 204 192 192 
73 73 71 69 72 65 61 64 62 67 70 72 74 86 99 115 121 134 143 149 148 147 150 154 148 150 147 139 129 112 96 69 54 49 43 43 51 57 61 59 60 61 63 64 62 66 64 68 64 59 64 65 66 58 60 60 63 61 54 46 144 200 186 193 
71 73 75 68 70 60 66 65 66 65 65 69 72 89 97 113 122 134 142 148 152 150 150 148 151 149 146 139 129 114 93 72 55 42 39 45 52 60 60 62 61 65 62 65 62 64 68 65 66 65 64 67 63 60 64 64 65 60 52 38 95 208 195 184 
76 70 73 72 69 69 71 65 66 66 66 68 76 86 101 116 123 132 141 148 148 148 146 148 148 149 145 137 126 114 97 76 55 43 43 48 49 53 57 59 61 61 63 63 64 60 64 63 66 63 67 64 69 62 66 65 65 61 57 45 55 193 197 189 
76 71 70 68 73 68 69 64 65 65 66 65 75 84 97 113 124 131 142 146 150 150 148 152 146 148 147 139 129 114 95 74 56 42 41 45 50 52 59 60 64 63 60 65 67 66 63 65 65 64 66 62 59 61 63 66 67 66 59 47 43 143 204 187 
76 76 72 70 70 71 72 64 67 68 65 70 74 83 95 112 121 136 141 151 150 149 148 149 150 149 148 140 127 111 96 75 56 41 40 47 55 54 58 63 61 62 61 64 66 65 67 65 67 66 64 65 64 60 66 66 66 66 59 51 45 112 210 191 
74 74 72 72 69 69 69 68 67 69 65 66 72 85 97 111 121 134 140 149 149 149 150 150 149 147 148 136 129 114 98 78 56 40 42 45 54 59 60 62 61 61 62 64 63 63 65 64 61 61 62 65 65 64 67 68 69 69 64 57 47 69 193 198 
70 73 71 72 72 67 67 65 66 65 68 70 69 79 93 110 122 135 146 148 153 146 149 147 148 150 149 141 130 113 101 75 53 37 36 44 47 57 56 59 62 62 59 60 62 61 67 67 61 62 62 63 62 62 69 68 70 67 68 62 57 53 118 215 
78 75 75 75 72 71 72 66 65 65 69 64 68 80 93 108 122 138 144 150 147 146 148 151 148 151 148 136 129 112 97 76 52 40 37 46 52 54 58 62 62 59 63 60 62 60 59 58 63 65 60 63 64 63 70 67 69 73 69 67 61 51 65 182 
72 74 74 78 76 72 71 69 63 64 62 62 67 80 93 109 123 132 143 148 151 148 149 151 153 150 147 137 129 117 96 73 51 43 40 47 53 47 55 60 59 61 64 65 64 64 61 61 62 62 60 62 64 65 68 70 71 72 72 67 67 58 50 97 
78 77 75 74 69 69 71 68 67 66 61 61 63 75 92 106 121 133 141 142 151 149 151 153 152 151 147 142 128 114 98 76 51 40 40 45 46 53 58 60 55 66 62 65 63 62 61 65 65 63 61 62 66 68 67 70 74 70 71 70 67 63 55 53 
75 74 76 75 70 72 69 67 63 68 62 59 63 73 92 107 116 136 145 149 150 150 150 148 154 155 148 141 128 116 96 74 54 41 39 44 48 52 55 61 58 67 64 62 62 60 63 64 60 65 66 66 66 69 68 70 73 72 76 74 74 69 55 52 
75 76 78 75 70 66 70 71 68 63 62 58 58 73 93 107 122 135 140 150 152 148 151 153 151 151 149 141 128 118 101 75 53 38 35 43 50 52 56 56 58 62 60 62 64 60 61 63 65 64 62 63 63 69 68 72 74 75 79 74 75 69 65 55 
72 77 75 70 70 72 67 66 66 64 61 59 59 74 90 105 122 130 141 146 151 153 151 150 153 152 149 143 129 114 99 79 54 38 37 42 49 50 57 53 62 61 63 61 62 62 62 58 61 64 63 64 65 65 67 72 70 74 80 77 74 71 66 59 
73 74 72 71 71 70 69 66 65 65 61 55 58 73 88 106 118 128 142 145 150 146 147 151 154 151 152 142 129 115 98 77 51 39 38 47 44 49 60 58 58 66 65 64 66 65 66 64 63 64 62 64 67 67 71 67 77 80 77 74 76 74 68 58 
75 72 72 72 70 74 72 62 64 63 58 54 60 76 90 104 117 130 140 148 152 149 153 154 152 152 151 141 129 116 102 79 52 40 37 44 52 55 62 56 65 62 64 63 67 69 65 65 62 62 60 60 64 65 70 71 75 77 76 80 76 70 68 61 
75 75 68 75 74 73 71 69 65 66 58 58 55 69 91 104 117 130 140 146 147 151 151 153 151 152 149 139 127 116 96 77 50 41 41 38 52 54 61 59 64 65 62 65 67 64 63 66 64 63 65 64 65 69 69 72 77 81 83 80 78 75 74 60 
72 73 74 75 73 69 70 67 64 65 63 59 58 73 90 105 119 129 139 146 148 150 151 151 150 148 148 139 131 115 101 79 59 44 37 42 49 52 63 60 62 64 67 65 66 68 67 64 64 62 66 65 69 72 70 74 74 76 77 78 77 74 74 64 
67 71 73 69 72 67 68 66 69 69 63 55 61 73 90 105 120 130 141 146 152 149 148 154 151 152 147 140 130 123 99 80 60 42 34 46 48 52 60 58 62 63 65 65 64 64 68 66 63 65 64 65 69 68 68 74 73 76 83 84 77 76 74 67 
69 72 70 72 72 71 70 69 64 67 63 57 59 73 91 106 119 131 138 144 149 150 149 151 155 150 152 145 131 117 102 81 57 43 40 45 46 52 63 60 62 66 68 67 67 68 68 64 68 67 66 66 68 67 63 70 109 81 79 81 78 79 75 73 
65 73 72 67 72 71 68 68 68 65 62 60 61 71 88 106 118 134 139 149 149 151 151 153 155 151 150 145 130 117 100 79 60 45 41 42 47 48 57 59 63 67 70 68 68 73 68 71 64 64 66 63 64 62 71 118 131 73 77 83 78 78 76 74 
72 76 73 75 70 68 69 70 66 69 62 57 59 74 89 106 116 131 141 148 150 150 153 152 151 153 150 145 132 116 99 80 63 44 41 46 49 54 60 65 67 66 66 71 73 73 67 69 68 63 65 64 66 63 89 110 80 78 82 79 81 78 83 81 
69 72 73 70 69 62 66 66 66 65 58 57 66 71 87 104 116 129 140 148 148 153 154 153 151 154 154 143 130 117 103 84 62 49 45 51 51 55 63 65 68 67 66 67 70 65 67 66 65 64 64 68 68 72 80 80 78 82 79 84 81 85 80 82 
72 74 72 72 68 62 64 69 63 61 60 57 60 71 87 100 115 129 140 145 150 152 155 156 153 152 151 145 130 116 102 81 59 47 47 52 59 61 63 59 64 65 70 68 67 68 67 67 67 68 69 66 70 69 77 92 77 77 80 88 83 83 84 82 
69 73 70 70 69 67 64 66 61 60 59 54 51 70 90 101 118 130 141 148 153 153 153 156 154 153 150 142 131 115 104 78 59 42 46 45 60 57 62 62 64 66 68 65 68 66 70 70 69 69 69 66 69 71 73 94 77 85 80 84 85 84 86 88 
67 71 69 66 68 67 66 62 66 64 60 54 57 71 89 105 118 123 139 147 151 153 155 153 154 152 150 140 133 122 103 78 56 47 42 47 56 57 64 61 69 68 67 65 69 69 73 68 66 67 67 66 70 73 73 80 82 81 78 80 81 79 81 82 
67 71 66 72 70 67 68 60 64 68 60 55 58 69 89 103 117 127 143 151 152 153 155 154 157 157 151 144 132 116 101 78 58 43 43 48 51 54 61 64 69 65 69 67 72 70 71 71 70 65 66 69 72 71 75 77 82 82 83 79 79 78 76 75 
67 72 69 69 67 63 67 60 63 66 62 53 57 68 88 105 122 134 141 147 148 152 156 154 155 154 151 146 131 115 98 75 59 46 39 46 53 53 60 63 66 69 70 64 70 67 69 69 68 70 68 67 72 74 75 75 81 81 83 85 83 87 82 85 
63 72 65 65 67 64 67 63 60 64 59 56 58 70 86 108 118 129 140 147 149 151 153 155 156 155 154 145 132 119 102 78 57 47 41 44 51 58 60 63 69 66 65 69 72 69 68 66 67 69 66 64 71 71 76 79 78 83 79 83 84 85 86 84 
71 67 69 68 64 65 64 64 62 65 61 59 56 69 85 105 113 131 140 148 152 152 154 155 154 155 151 144 133 118 100 77 58 46 41 48 54 55 60 64 65 70 70 69 68 62 69 66 67 66 66 71 71 73 76 80 79 84 83 83 85 82 81 134 
63 67 65 66 68 67 65 66 68 63 59 59 60 67 88 102 118 130 141 144 153 154 156 156 154 156 150 147 132 120 99 80 57 47 44 50 54 50 57 62 65 64 70 70 71 71 68 67 67 66 70 67 70 71 74 78 83 82 82 85 85 83 89 189 
65 70 68 66 69 66 69 63 65 65 60 60 54 65 87 105 121 129 139 146 151 152 156 156 157 155 154 144 134 123 103 77 54 45 43 48 54 52 65 60 63 69 71 68 66 67 73 71 67 69 66 65 70 70 75 84 80 81 82 87 91 90 98 163 
71 71 68 68 72 67 66 69 68 64 61 60 56 65 83 103 117 127 141 149 152 149 155 153 156 156 153 145 131 117 104 82 57 44 48 49 55 57 57 61 63 67 74 69 69 65 64 64 65 64 69 65 69 73 72 77 81 81 82 83 96 109 105 108 
66 66 71 66 73 74 70 69 65 64 65 53 55 65 84 97 118 123 136 147 155 148 154 153 155 156 155 147 133 120 103 81 58 44 49 49 55 58 65 62 64 74 71 65 68 65 66 64 58 66 62 71 67 68 73 71 73 78 79 101 123 127 111 110 
65 69 69 70 74 70 71 66 67 62 57 54 52 67 86 103 118 128 137 150 154 152 152 154 154 156 157 147 135 124 108 83 58 44 41 50 51 55 61 65 68 68 67 66 68 65 68 66 61 69 65 65 67 68 73 71 75 76 84 120 129 128 121 117 
