P2
64 64
255
98 101 97 97 107 102 100 97 97 96 103 99 99 97 104 104 98 101 102 103 101 101 100 101 103 103 101 100 102 105 101 101 105 103 105 105 105 103 104 103 107 104 102 101 100 101 101 99 99 106 105 100 100 100 97 101 104 102 103 106 100 102 96 105 
98 101 97 97 107 102 100 97 97 96 103 99 99 97 104 104 98 101 102 103 101 101 100 101 103 103 101 100 102 105 101 101 105 103 105 105 105 103 104 103 107 104 102 101 100 101 101 99 99 106 105 100 100 100 97 101 104 102 103 106 100 102 96 105 
99 99 99 97 104 99 101 99 97 97 102 99 98 98 104 103 100 103 104 104 101 101 102 102 102 105 100 98 101 102 100 101 104 102 103 101 104 103 102 103 104 106 101 98 98 100 100 98 98 102 106 98 99 99 96 102 101 102 102 103 101 99 97 103 
98 96 101 96 98 99 97 96 98 102 99 99 99 97 98 97 99 101 102 102 101 98 101 101 100 97 101 98 97 99 98 99 101 102 100 101 102 99 98 99 106 100 108 98 103 98 100 96 98 105 105 98 101 94 99 100 103 100 103 98 101 96 101 99 
92 95 95 99 99 98 97 99 99 96 98 97 100 98 98 102 98 99 101 103 101 104 103 99 98 103 103 100 98 107 100 100 102 100 96 100 98 100 98 95 96 99 98 103 98 95 93 96 102 103 103 100 93 95 98 100 99 98 96 99 97 97 98 99 
93 98 95 97 96 96 95 101 100 99 101 96 99 97 96 101 96 100 102 102 98 98 99 100 101 100 99 94 97 102 98 100 100 96 99 101 98 99 99 98 96 101 99 98 98 99 96 97 96 96 101 98 98 98 98 97 100 98 104 99 99 96 96 96 
93 91 94 97 96 98 99 101 100 99 97 97 98 97 98 100 95 98 103 98 98 99 103 102 98 97 98 102 100 99 99 98 95 100 95 100 96 98 98 101 100 99 100 99 97 96 98 94 98 99 99 99 95 95 100 98 103 103 103 100 101 98 100 98 
94 94 97 94 94 97 99 99 97 99 97 97 97 95 98 99 99 99 98 97 97 103 98 99 98 97 99 99 100 101 99 96 95 101 100 102 98 101 96 98 99 100 99 98 99 98 98 99 99 100 98 99 94 99 101 98 99 103 100 103 100 97 102 98 
96 94 95 100 95 97 99 98 97 98 98 98 102 97 95 98 99 102 101 100 98 103 102 100 106 101 102 97 100 101 101 99 97 96 101 101 99 97 101 102 101 103 101 98 102 100 96 95 95 101 100 99 98 95 98 99 102 105 102 106 101 99 100 97 
96 94 95 97 94 97 100 99 98 98 102 99 101 97 97 100 97 97 99 96 97 99 101 99 99 102 98 97 97 99 98 97 98 94 98 106 100 98 100 99 97 97 99 100 103 97 99 98 95 102 103 101 95 95 97 99 102 102 105 105 102 100 101 100 
92 95 96 96 97 97 99 96 95 101 95 98 98 100 97 100 97 97 99 100 97 97 98 99 99 96 97 99 95 97 98 99 99 96 101 98 96 96 94 101 101 97 97 97 97 98 106 98 100 99 99 98 94 95 98 97 99 101 102 107 111 101 100 97 
95 95 95 98 98 95 99 95 99 99 99 96 95 97 96 97 96 99 100 97 98 98 99 97 98 95 99 96 97 94 99 95 98 100 93 97 99 91 95 98 93 93 95 97 97 95 92 98 98 97 96 99 94 95 95 97 102 98 100 101 102 98 99 97 
94 96 90 93 98 99 96 98 94 95 97 98 93 95 96 96 95 96 98 96 93 99 101 100 95 97 95 95 96 95 98 102 103 100 96 96 93 94 94 93 90 93 94 90 93 93 92 94 92 93 95 94 94 95 92 93 97 96 97 100 100 99 98 99 
94 97 94 93 93 94 96 97 94 94 95 95 95 98 97 98 97 99 96 93 92 97 94 96 95 97 94 93 95 100 99 99 103 102 101 96 94 88 89 91 90 90 90 93 91 96 95 94 95 92 91 94 95 93 93 98 90 96 93 97 102 98 99 97 
95 94 93 93 96 93 95 95 92 97 96 96 97 99 92 98 97 97 97 99 97 96 95 100 93 96 92 93 94 93 94 101 102 104 103 97 91 90 91 91 89 86 87 90 86 92 98 94 90 92 92 90 89 94 94 92 96 97 98 94 97 96 98 98 
95 92 95 94 96 95 95 93 94 92 96 95 96 98 97 95 95 100 94 98 99 95 96 98 94 97 96 95 94 94 98 100 100 96 98 100 96 95 88 90 84 88 90 88 91 90 91 95 93 93 92 92 93 90 92 93 91 99 99 96 95 98 98 100 
94 94 98 90 95 94 96 95 93 93 93 96 96 95 96 96 95 96 96 97 98 98 98 95 95 97 101 96 94 94 96 95 99 98 99 91 92 96 91 87 89 90 87 86 90 86 91 93 93 90 93 92 92 90 91 92 90 95 97 95 98 96 93 96 
91 92 95 94 94 92 96 95 94 96 90 93 88 94 96 99 97 94 94 90 95 98 95 96 95 94 95 96 93 96 93 96 98 100 96 94 93 91 89 87 88 90 88 87 87 88 90 92 94 97 88 91 87 89 89 93 90 95 97 97 95 101 97 97 
86 94 95 94 93 92 98 95 92 91 88 94 87 93 92 95 92 91 96 92 94 91 94 95 95 98 103 98 95 95 94 92 94 95 93 93 89 92 91 90 91 91 88 89 93 88 95 93 93 92 88 87 92 88 85 93 89 93 96 96 97 96 100 97 
92 91 92 95 91 93 95 93 92 91 86 92 96 95 93 96 97 93 96 93 90 96 96 95 93 96 96 95 95 95 92 94 98 91 93 92 90 90 90 89 92 89 83 92 88 86 87 90 90 84 86 83 86 83 90 89 92 91 91 96 93 94 98 97 
93 86 88 93 93 92 92 94 91 90 89 90 88 91 93 91 94 94 94 93 92 97 95 93 96 92 96 92 97 94 92 93 94 94 92 93 92 92 94 90 92 91 88 91 89 89 84 84 87 86 87 88 86 86 88 86 87 87 94 95 93 97 101 97 
92 89 88 90 90 92 96 88 90 92 88 94 94 95 93 94 92 91 91 92 90 95 90 95 95 93 94 95 95 92 94 95 95 93 92 94 89 92 99 94 89 91 90 91 87 90 87 87 84 88 84 87 83 87 83 88 85 86 91 91 93 92 95 95 
92 93 91 91 92 94 89 91 90 91 94 94 93 95 98 91 94 92 91 90 95 98 94 95 94 98 92 97 91 94 90 91 98 98 90 94 88 89 91 94 91 90 88 89 88 100 104 135 117 134 121 117 105 106 90 88 86 87 88 91 88 87 94 92 
91 90 92 93 91 92 93 91 90 93 94 97 92 90 95 94 95 93 89 92 92 107 94 96 98 100 92 92 93 88 95 90 94 104 95 89 91 90 98 94 121 112 116 115 120 132 157 148 159 156 161 154 168 164 163 159 128 116 90 86 81 84 86 86 
93 90 91 94 92 93 91 94 90 91 93 92 93 99 91 92 93 90 93 92 94 93 93 97 98 96 92 94 93 95 88 90 93 92 104 105 113 113 126 125 124 123 126 136 149 145 148 165 161 163 158 172 164 179 168 176 178 163 166 151 118 96 86 85 
95 90 91 91 90 95 92 91 92 101 95 94 95 94 93 93 97 92 93 88 92 94 95 96 102 93 92 94 91 89 90 90 104 118 123 129 125 130 130 131 128 127 144 160 144 152 151 157 166 173 167 163 166 169 167 165 163 175 182 180 179 164 148 112 
93 93 92 89 89 90 92 94 95 95 93 95 90 96 95 94 94 96 94 92 93 92 92 91 94 93 91 90 91 90 102 115 118 125 125 134 122 115 124 122 123 138 149 156 155 152 156 163 170 167 166 164 172 153 156 159 170 167 169 178 173 185 183 178 
90 91 94 90 90 89 94 97 97 95 91 91 91 92 94 89 92 88 93 85 91 93 93 94 91 89 90 97 95 102 121 125 113 122 127 132 121 117 115 129 130 130 140 147 139 148 151 155 161 163 174 165 163 160 161 159 163 176 166 172 177 179 176 188 
92 87 89 88 91 90 96 89 90 89 94 90 95 93 95 92 92 87 89 88 93 93 97 101 112 111 105 96 99 115 127 118 122 119 123 117 121 122 130 130 120 129 129 133 144 135 146 147 148 159 163 168 162 166 162 169 157 170 174 167 171 181 179 179 
89 89 87 87 87 92 93 91 93 93 90 92 92 93 90 90 88 84 97 89 107 126 125 126 113 102 87 89 105 104 109 112 113 120 114 113 117 130 125 131 120 129 134 141 135 148 151 153 148 149 163 155 150 168 166 155 172 168 171 184 174 178 185 182 
84 86 92 88 89 86 91 91 89 92 90 93 94 91 85 88 83 101 154 121 128 125 117 110 98 98 91 91 95 99 107 108 110 102 107 106 121 113 117 129 123 132 128 132 133 147 143 146 158 155 148 152 161 164 171 163 158 180 173 172 183 176 176 183 
88 86 90 87 89 89 88 91 90 90 90 87 88 89 88 119 97 95 97 109 107 103 99 94 97 92 91 92 95 103 109 108 109 102 101 104 118 104 114 120 126 136 132 135 141 149 141 142 152 147 159 155 166 172 156 178 178 172 177 175 164 178 184 174 
90 87 91 89 87 87 94 90 90 86 90 86 88 86 102 154 77 86 94 92 95 95 88 92 92 91 96 93 98 109 110 107 105 100 104 112 115 112 112 116 124 125 116 133 131 146 133 136 150 141 166 155 154 166 173 177 178 175 165 175 177 178 181 181 
95 89 88 91 90 90 89 86 89 90 90 88 80 88 156 110 58 78 92 90 96 88 93 87 96 91 91 87 97 106 102 107 101 102 105 108 109 107 115 110 120 114 122 133 130 131 140 137 164 158 155 162 163 165 176 174 163 180 180 168 176 184 174 169 
87 86 85 85 89 89 86 93 89 90 90 87 91 87 116 82 73 79 85 85 94 86 88 95 101 91 88 91 100 100 104 107 102 102 102 106 111 113 106 107 112 119 120 118 128 134 136 146 146 164 161 160 163 163 165 171 172 170 175 175 175 170 185 180 
85 85 84 85 87 87 91 90 89 86 90 88 90 112 78 77 82 75 85 87 86 86 90 90 94 92 92 92 100 107 110 107 101 106 106 111 111 105 97 107 116 106 106 122 120 135 138 146 151 154 163 161 153 172 165 159 168 175 163 166 184 182 177 184 
88 85 84 85 87 84 89 87 89 85 86 83 111 99 76 80 83 85 82 80 77 83 84 86 94 92 98 94 96 105 93 103 109 106 108 109 110 100 101 114 110 124 114 123 125 119 140 133 149 151 144 162 152 156 173 176 169 168 180 183 177 182 185 180 
86 84 85 85 88 88 89 88 89 87 86 101 167 80 77 83 80 78 77 75 79 83 86 89 96 102 91 96 104 95 92 103 107 106 111 110 105 107 116 109 112 107 119 112 123 131 122 141 135 149 144 142 159 171 160 168 176 168 173 178 185 180 178 186 
85 82 88 83 88 86 83 87 92 88 84 119 109 78 81 78 73 74 73 80 81 88 89 84 92 87 99 98 92 94 102 108 100 104 98 109 113 111 111 106 108 115 101 120 126 124 126 127 145 130 153 164 153 166 172 169 169 179 177 168 177 184 180 175 
88 84 86 86 88 85 86 85 87 85 91 119 85 82 76 73 70 75 75 84 87 88 83 85 80 98 90 99 88 97 104 100 100 96 103 108 105 109 107 105 114 114 115 121 122 121 126 124 139 149 148 151 171 169 166 180 181 171 167 183 176 167 183 186 
87 86 92 86 91 87 83 84 90 89 103 91 81 75 71 77 74 78 79 83 93 81 81 87 93 93 91 92 93 94 101 100 99 91 105 100 107 103 113 105 104 104 114 130 107 123 128 138 140 125 159 161 159 175 178 168 166 182 171 167 178 184 175 179 
86 84 90 87 87 84 89 87 90 92 93 81 73 76 77 76 77 83 85 90 87 81 90 93 88 91 91 90 89 95 83 98 95 103 99 114 98 108 98 110 104 107 114 112 111 105 126 122 136 149 143 152 171 174 162 177 179 169 171 185 172 167 180 185 
84 87 87 86 90 86 93 89 91 96 80 72 76 72 75 76 78 88 86 85 83 93 91 86 90 90 92 84 94 87 97 95 102 102 105 108 114 105 118 98 111 107 113 114 105 122 117 127 139 134 153 155 155 174 174 168 172 180 185 176 177 180 166 163 
85 84 85 86 90 89 92 89 93 87 76 70 71 72 80 81 83 87 76 87 95 89 88 90 89 85 90 85 85 94 97 102 107 98 110 116 104 111 108 111 105 114 122 110 118 107 128 134 128 139 145 151 162 170 154 173 170 168 175 183 172 141 149 160 
86 86 88 87 89 88 92 95 81 78 74 74 76 72 80 83 78 79 85 89 89 84 80 96 84 86 84 84 87 98 94 103 94 107 106 110 105 100 113 102 110 116 109 114 116 127 118 125 134 125 146 148 147 163 168 161 161 179 166 149 148 148 179 191 
89 87 80 90 86 87 94 88 74 77 70 75 79 75 80 81 77 91 92 82 88 84 90 86 80 80 89 94 90 100 99 87 102 107 118 103 110 116 107 114 113 117 118 113 124 122 124 121 129 140 134 143 164 169 157 165 172 160 132 141 166 184 199 199 
83 91 86 86 89 90 90 77 74 74 75 77 81 80 79 77 87 87 86 87 86 85 85 78 77 84 93 98 101 97 100 103 103 119 109 115 117 112 119 110 119 118 119 116 113 114 112 118 123 129 145 158 153 160 168 150 138 131 157 190 196 196 191 197 
85 85 89 90 90 93 84 84 74 72 78 83 80 76 84 81 87 84 86 84 74 83 72 80 84 89 86 101 98 102 97 103 107 105 114 103 116 117 114 119 123 122 110 104 119 108 120 120 123 143 143 146 169 148 141 128 129 163 192 199 198 200 195 186 
86 86 87 89 97 88 88 81 79 85 72 82 78 78 82 83 88 84 82 79 81 87 86 90 88 91 96 91 106 94 104 101 111 108 98 113 111 116 115 120 122 108 113 114 111 114 116 121 130 128 147 158 145 120 115 148 172 195 194 194 193 194 194 194 
88 86 87 95 101 80 78 76 81 84 79 79 76 82 81 83 86 84 79 88 87 92 87 87 90 89 101 102 97 106 96 108 116 106 116 102 110 116 105 117 110 115 110 104 113 111 123 120 117 140 150 137 111 110 165 178 187 185 195 192 185 197 200 200 
88 83 87 104 95 72 72 72 75 84 79 78 77 77 78 81 84 86 78 87 87 87 87 88 95 100 97 102 97 96 110 102 111 111 102 110 112 116 113 111 108 109 105 107 108 114 110 119 126 140 128 104 130 177 189 181 180 185 182 198 191 187 195 193 
85 86 99 99 82 75 79 69 76 79 82 79 82 78 81 82 78 80 84 85 81 87 88 94 102 103 103 93 108 111 108 119 114 104 122 106 109 110 107 111 101 108 103 98 113 111 116 110 106 114 109 145 177 186 188 188 182 187 189 178 184 186 183 184 
79 92 138 83 71 65 69 69 69 77 82 85 82 75 82 79 84 84 80 82 88 85 88 95 104 97 102 114 105 116 118 110 114 108 110 118 113 109 116 102 109 108 108 104 109 113 107 101 105 124 154 165 181 182 191 190 190 174 184 183 177 182 184 179 
77 132 143 78 65 68 73 68 74 77 77 81 80 76 79 80 80 77 80 80 87 91 94 89 92 109 106 96 115 115 115 114 91 110 113 112 120 109 113 113 100 104 93 98 107 96 98 99 149 177 167 162 172 187 188 188 179 186 177 184 180 176 186 179 
83 168 131 68 61 67 75 72 78 81 76 81 76 79 77 80 76 84 85 88 86 95 94 88 98 93 106 105 111 122 103 96 107 108 105 116 106 110 108 99 108 95 95 95 96 91 115 157 160 184 172 174 176 179 178 182 177 181 186 173 184 178 168 176 
109 187 117 65 66 68 71 75 75 74 76 78 74 80 82 79 89 90 86 88 90 89 99 93 96 103 110 112 118 97 104 105 105 104 116 106 113 108 101 101 96 100 81 80 85 131 158 153 174 175 192 176 179 166 173 175 184 185 179 174 159 181 183 186 
170 175 97 63 73 72 70 70 71 78 72 80 77 80 79 79 82 86 89 82 91 96 94 98 105 104 115 103 102 106 105 104 109 108 108 114 112 108 98 94 98 80 78 96 152 166 168 170 175 175 182 177 166 174 168 181 176 172 160 163 180 190 191 183 
196 158 89 62 70 72 69 71 71 77 77 80 79 76 74 71 78 87 83 91 92 94 101 97 104 102 100 109 118 111 108 105 100 108 108 112 96 80 96 91 86 80 116 145 142 171 178 180 164 172 163 170 179 179 185 161 148 151 174 178 181 183 186 189 
200 139 80 62 72 68 66 74 74 76 82 83 74 78 80 77 81 87 83 79 97 97 99 103 110 107 102 100 115 106 90 102 106 111 107 91 84 91 87 83 92 122 155 161 153 173 186 176 168 153 156 161 176 183 170 158 167 179 172 178 177 186 184 186 
183 124 81 66 63 66 71 72 75 77 76 82 79 80 81 83 85 88 89 89 92 99 101 95 110 102 99 109 92 93 105 108 110 103 91 93 87 71 73 106 140 145 149 171 171 160 176 156 161 163 160 164 162 152 164 179 178 174 174 167 179 185 186 182 
169 141 88 67 66 71 69 75 77 70 79 82 75 82 81 87 83 90 81 97 96 93 104 96 92 104 98 78 95 109 105 107 97 89 104 82 76 77 110 147 155 157 164 175 151 144 157 162 157 163 171 146 147 156 174 172 175 170 175 179 173 184 183 180 
169 117 74 69 63 66 68 76 68 73 82 88 74 79 78 85 83 79 96 92 102 104 88 85 99 80 77 100 104 107 102 99 97 92 80 76 80 123 141 143 165 165 162 155 145 139 144 154 179 161 148 165 165 168 154 167 169 179 182 173 182 179 183 173 
159 110 72 61 66 70 70 70 72 76 79 86 69 75 91 74 85 94 98 101 97 88 96 89 80 91 99 104 103 95 92 99 81 80 76 73 130 149 156 154 167 158 147 144 146 145 151 165 143 145 166 175 171 164 156 154 181 178 184 175 171 176 172 182 
158 110 64 57 63 70 68 73 73 79 80 64 64 87 77 87 91 97 93 97 91 90 79 86 93 106 114 94 83 96 101 85 79 76 85 126 139 153 159 167 152 141 141 143 150 163 150 146 165 167 158 164 166 165 163 174 167 187 174 184 174 170 167 173 
