P2
64 64
255
126 150 137 142 137 87 46 35 32 22 49 34 40 58 93 61 28 54 51 91 38 8 17 59 57 16 26 65 18 14 12 27 65 80 22 19 19 16 18 20 16 13 22 19 9 89 120 74 144 169 150 155 169 186 192 186 170 156 168 190 144 54 53 54 
127 120 77 84 109 60 16 14 8 23 56 55 58 82 106 38 35 71 52 96 35 15 23 52 49 25 21 77 18 13 11 17 30 95 76 28 17 17 19 21 13 13 16 6 50 135 89 108 179 151 157 163 178 191 189 178 173 170 188 133 43 42 38 31 
122 102 66 28 59 45 12 9 20 71 87 51 57 98 49 66 48 64 66 111 33 17 21 50 16 46 26 86 21 16 12 10 12 44 95 89 43 10 12 18 17 15 10 18 110 110 86 169 160 148 160 167 180 193 185 178 179 182 141 42 31 30 19 20 
111 94 45 44 28 14 10 13 85 94 39 25 89 41 27 60 65 53 94 108 27 11 29 48 20 36 38 94 33 22 20 15 15 17 52 86 71 57 27 14 10 11 9 71 130 72 139 178 149 155 161 169 189 192 187 179 187 144 42 40 33 22 17 20 
105 93 43 36 13 21 22 61 86 35 16 72 56 12 15 53 95 70 88 67 24 16 28 30 14 23 17 79 60 22 19 17 18 20 24 27 19 40 55 24 9 7 24 120 92 92 179 151 154 165 164 174 196 190 186 192 154 55 52 42 26 17 11 26 
123 56 24 22 15 31 69 67 19 18 50 48 33 16 20 57 100 59 91 61 28 21 20 17 16 20 14 49 88 33 19 10 15 17 29 22 15 27 28 14 29 40 78 117 68 163 172 150 162 172 175 190 194 192 191 171 70 65 53 33 21 19 14 35 
47 22 13 15 24 71 72 29 17 50 45 28 55 20 28 69 94 57 118 61 20 21 23 21 23 15 14 31 99 40 18 19 16 19 30 16 12 16 13 15 12 40 93 63 107 164 134 128 145 165 185 193 191 188 177 90 71 82 72 56 49 26 14 38 
18 16 12 23 59 58 31 34 28 47 42 33 46 42 48 92 98 61 122 71 19 18 25 22 34 19 18 23 65 28 20 25 18 16 26 20 15 11 15 23 26 89 85 72 153 137 147 160 175 186 192 188 188 178 92 78 84 94 92 88 81 59 16 25 
17 14 18 52 74 59 53 39 19 47 54 60 58 67 47 98 85 48 115 88 29 30 20 18 29 19 14 18 35 23 28 28 18 17 22 18 14 12 8 26 67 119 66 129 167 130 158 168 183 188 191 187 170 89 81 86 82 86 104 105 99 83 53 50 
23 41 79 111 90 65 15 14 13 65 26 66 54 49 55 106 103 40 131 98 62 34 35 18 19 10 13 21 23 21 31 25 21 23 35 19 15 11 11 31 114 77 93 183 154 148 165 176 191 193 190 170 78 75 87 90 95 90 106 113 110 104 94 71 
79 86 69 47 70 30 12 14 26 88 23 71 54 43 55 89 118 70 135 81 65 49 57 19 20 13 19 19 21 19 20 18 22 28 22 12 10 9 10 78 114 61 149 172 147 158 173 185 195 190 173 76 67 80 95 93 100 98 105 109 110 112 107 91 
94 43 30 85 73 19 17 21 25 82 36 66 74 23 50 88 93 90 115 68 85 114 24 13 18 23 23 16 20 21 17 18 28 24 15 12 9 9 41 119 74 88 174 144 156 167 178 189 193 177 73 60 73 90 98 100 109 103 110 112 112 110 112 112 
123 107 88 114 75 75 34 31 13 67 39 49 88 43 54 78 80 108 109 107 123 41 14 27 24 18 25 23 17 23 21 21 28 23 16 9 6 16 102 112 70 129 153 148 163 167 186 195 181 78 48 64 80 92 98 103 113 110 115 115 120 113 107 112 
54 124 118 103 103 82 33 25 16 43 53 37 79 83 69 51 50 88 86 122 82 61 44 35 14 21 21 20 19 21 25 22 19 19 13 13 9 56 126 82 92 169 147 157 171 182 196 192 83 47 58 74 83 90 102 110 117 122 121 119 122 123 123 121 
72 77 70 67 79 47 19 14 15 32 49 38 33 90 97 79 85 72 67 86 47 77 30 24 20 17 20 17 18 16 25 23 23 25 17 12 25 111 101 69 126 161 164 170 180 195 197 104 37 57 71 75 83 97 97 107 117 121 123 125 131 133 132 132 
97 63 27 53 81 35 13 17 26 31 64 64 31 32 114 133 96 44 64 65 140 56 18 21 23 20 25 18 17 18 22 28 26 28 23 21 69 122 68 87 156 160 172 178 190 202 127 33 46 63 76 81 86 94 102 105 117 119 126 127 135 141 134 139 
83 55 53 103 63 14 14 18 20 38 74 100 63 49 51 68 100 71 97 140 102 35 37 33 26 20 26 24 21 17 23 25 26 22 24 29 120 95 74 138 158 168 179 184 193 154 30 38 52 70 76 85 87 90 104 102 112 120 125 127 133 145 135 140 
65 88 98 69 24 14 15 14 25 25 30 67 78 88 92 76 61 124 140 91 46 92 72 57 51 15 23 25 17 21 21 21 20 18 18 82 124 69 87 165 158 179 180 196 180 46 23 39 57 75 78 83 89 91 97 104 111 121 120 127 132 141 145 143 
101 109 73 41 24 25 20 16 16 18 23 42 50 56 95 107 106 54 25 18 50 117 103 79 51 24 24 22 25 23 22 22 23 19 32 125 97 79 124 167 174 183 193 199 71 13 25 46 60 76 79 84 87 90 99 105 112 118 118 126 132 140 147 147 
108 101 31 23 29 21 20 24 23 20 23 27 46 63 31 44 67 19 12 21 59 110 110 79 42 25 19 22 23 20 21 20 15 21 76 122 83 92 157 161 180 186 203 121 14 14 29 57 68 80 84 86 89 93 94 102 112 111 120 125 131 139 142 148 
41 48 49 25 27 20 22 21 20 20 30 23 22 46 57 31 53 19 11 16 68 101 113 81 75 24 22 19 21 14 24 18 12 37 125 101 84 128 178 176 176 191 161 23 16 22 33 56 71 82 82 86 86 87 95 104 107 115 120 122 126 135 145 150 
42 56 50 26 19 18 22 30 26 23 28 23 25 37 30 27 56 20 7 18 67 97 100 127 82 25 15 16 14 12 18 11 8 77 115 80 92 176 175 181 180 191 56 17 21 22 39 59 75 78 82 88 90 91 95 94 102 112 114 114 123 132 140 143 
62 38 39 25 20 23 29 28 29 23 27 25 29 31 29 20 44 23 10 32 68 94 74 137 119 55 13 15 13 10 11 7 28 120 94 84 119 179 179 188 199 111 23 21 28 24 34 57 71 84 81 83 91 96 93 96 104 110 110 115 122 123 128 137 
84 29 38 31 27 24 35 21 23 24 20 18 19 35 80 19 16 32 18 15 66 89 62 80 151 120 49 18 12 15 11 13 68 114 74 90 164 176 189 202 170 29 12 24 29 22 35 55 69 78 84 87 88 93 94 102 103 110 115 116 121 122 127 135 
112 39 32 33 34 25 40 22 24 16 20 23 13 33 53 30 30 27 17 31 72 113 96 41 80 140 124 25 15 15 13 17 105 97 76 109 191 190 196 201 66 12 12 27 36 24 38 52 65 74 79 88 91 91 94 97 105 103 113 119 120 126 124 130 
90 68 25 29 46 32 34 18 14 15 14 21 17 36 57 45 49 20 45 52 87 143 133 55 33 96 131 40 7 9 6 55 120 85 85 153 192 196 199 131 15 12 10 28 42 20 29 50 64 74 78 84 93 91 96 95 98 107 109 115 119 126 127 131 
62 113 34 35 41 26 32 18 11 13 12 17 28 60 90 58 38 19 55 72 112 162 164 86 20 55 106 31 6 3 13 104 105 88 100 174 193 198 163 22 10 11 10 33 47 25 32 49 67 70 79 87 90 92 90 93 99 99 108 114 119 124 122 129 
59 114 35 19 25 33 32 19 11 16 14 31 29 42 81 62 26 49 69 94 70 157 170 110 16 29 55 7 6 5 42 117 83 87 132 192 198 190 49 14 12 10 11 31 57 29 36 46 63 72 78 92 83 90 92 97 100 100 106 114 111 121 118 127 
52 74 42 15 20 20 27 21 18 17 18 22 52 61 54 56 42 118 97 83 42 56 103 74 16 15 25 10 14 10 83 107 87 98 181 198 195 93 11 16 14 10 10 39 65 28 39 49 60 71 80 83 90 92 91 95 97 101 106 108 113 117 118 118 
61 48 80 13 20 28 17 28 28 24 18 13 34 55 38 46 70 119 72 51 31 79 66 28 14 19 22 7 28 65 100 81 89 130 191 153 133 22 7 12 13 13 10 41 74 30 36 47 59 68 78 82 87 90 92 95 99 94 100 107 113 115 120 119 
84 31 102 21 17 22 33 47 24 16 8 25 37 55 79 83 60 109 131 99 66 60 39 15 10 19 9 20 104 117 102 80 80 123 136 139 120 36 13 11 13 14 18 42 74 37 37 47 58 74 78 83 88 89 88 95 95 102 103 110 109 111 120 120 
97 23 89 39 27 43 36 21 19 36 9 17 31 54 106 75 21 37 63 83 33 18 11 10 12 12 5 75 148 143 137 134 119 125 167 156 75 10 6 19 17 13 12 45 78 48 33 49 62 74 79 88 83 93 88 92 95 97 103 107 109 109 112 119 
126 29 79 98 20 28 21 21 28 51 10 15 27 44 31 18 14 27 66 82 48 13 13 13 17 6 7 131 147 154 156 155 164 167 160 91 26 10 10 17 17 17 9 46 76 45 34 51 59 75 79 87 88 90 87 90 94 97 107 102 109 107 114 118 
159 51 53 126 24 23 25 45 33 51 11 13 17 24 35 33 21 103 118 20 10 15 18 19 11 5 28 163 160 175 165 174 172 157 84 22 8 7 9 16 21 13 12 43 75 52 40 55 61 74 79 82 81 87 90 89 94 101 100 102 108 107 119 113 
153 78 37 132 27 21 19 52 36 40 28 10 12 12 16 45 48 118 100 21 21 22 25 19 9 7 82 143 150 175 173 183 182 104 14 10 15 12 14 19 20 19 9 41 87 57 43 61 65 70 76 83 82 86 90 91 92 98 99 106 112 110 111 119 
126 117 44 134 42 9 11 19 19 88 101 26 20 14 7 18 84 98 30 13 31 27 32 32 37 53 94 112 132 141 153 166 141 41 10 8 23 22 23 15 18 16 18 46 90 58 41 63 67 77 75 83 85 84 90 90 93 98 98 105 109 111 111 116 
93 145 72 120 75 7 17 28 14 104 139 71 13 8 9 30 93 63 27 13 59 57 80 79 89 113 78 91 91 101 172 176 35 14 10 15 45 62 38 17 15 13 23 45 95 69 46 58 71 74 79 82 85 86 88 94 90 95 98 99 108 110 109 115 
65 126 91 120 105 20 15 25 16 90 140 124 19 9 12 73 35 37 41 50 68 79 89 128 161 109 78 68 89 139 207 91 15 17 16 17 24 36 29 23 22 14 13 50 96 66 45 57 71 76 80 83 84 85 89 90 87 94 95 97 103 106 110 109 
51 101 110 120 121 56 17 30 22 67 103 64 30 18 43 36 21 47 91 85 91 101 133 166 141 68 75 91 118 188 149 26 22 28 28 24 30 35 29 27 24 19 19 49 96 71 47 61 71 76 83 84 84 88 83 89 93 95 98 102 104 108 108 108 
68 82 119 89 123 89 45 42 52 57 70 59 39 39 37 16 21 59 115 110 125 147 162 171 72 68 57 104 172 175 46 23 22 33 34 30 36 37 39 34 24 20 25 47 89 77 56 64 72 79 86 86 87 91 92 93 93 96 103 103 104 104 102 107 
73 54 108 80 132 99 51 50 74 63 60 55 22 27 31 16 42 142 137 131 149 160 175 128 61 62 64 106 186 57 16 17 20 21 23 20 22 29 40 36 24 18 17 30 89 78 58 63 73 75 83 83 88 87 88 87 93 95 100 101 106 107 103 102 
41 57 97 101 128 104 64 36 110 61 32 29 17 11 32 52 79 122 127 135 160 183 173 73 72 59 80 163 93 17 14 18 29 21 21 16 20 24 45 30 21 23 9 31 81 75 70 60 70 75 80 81 86 88 94 92 87 96 99 98 104 101 104 103 
35 51 92 108 97 98 99 70 137 25 26 12 35 43 60 77 73 100 131 144 172 185 98 68 58 66 136 129 23 15 23 22 29 27 21 23 19 31 43 39 22 20 15 23 75 71 80 49 71 73 79 83 85 91 88 91 90 93 101 97 102 108 100 101 
66 27 36 92 119 91 116 120 91 7 19 13 49 97 95 75 80 111 141 155 187 131 68 57 64 107 160 23 16 13 34 42 25 24 17 24 24 25 45 44 27 18 11 19 79 67 76 47 59 73 74 86 84 88 89 90 92 95 99 100 104 108 102 105 
70 64 26 44 107 98 114 132 48 17 16 47 96 114 150 149 126 149 179 184 157 61 74 67 94 163 63 23 17 15 50 58 26 24 15 26 22 27 39 55 34 15 13 19 70 62 76 52 56 69 74 79 86 88 89 93 91 92 102 99 101 102 104 103 
42 90 58 29 47 66 100 115 104 31 20 84 66 94 151 190 189 193 188 164 69 74 55 79 146 113 13 16 14 16 43 64 18 20 15 26 25 30 44 44 33 20 11 21 73 55 72 46 51 63 74 83 84 89 92 93 88 94 94 96 98 101 105 106 
42 48 91 59 53 79 75 103 78 85 94 136 107 104 162 182 200 197 179 83 76 66 67 123 165 24 18 15 21 16 24 51 17 18 17 22 26 37 37 40 43 13 15 17 82 51 68 44 48 60 71 77 82 92 94 88 88 88 91 95 94 99 103 107 
61 38 53 93 102 78 41 77 51 48 105 112 93 138 178 187 203 192 120 60 74 65 99 181 73 12 21 23 25 15 21 45 29 12 18 19 26 31 31 43 50 12 11 17 72 40 68 51 41 59 70 82 80 92 94 89 91 87 92 94 99 103 102 105 
84 68 59 76 124 73 38 50 33 62 103 109 98 97 187 215 204 172 75 69 56 92 168 125 22 20 23 21 21 20 17 35 32 20 19 25 26 31 27 39 52 21 17 17 70 42 61 54 46 54 64 77 82 84 91 86 84 88 92 93 98 99 97 101 
79 80 70 72 50 68 67 57 75 95 125 109 96 86 142 217 188 111 71 69 87 146 166 35 23 28 28 26 23 17 21 34 31 17 20 28 33 32 29 34 49 28 18 21 67 40 54 53 49 54 63 77 79 83 89 83 84 88 89 89 94 97 101 102 
93 68 60 66 37 45 86 80 102 104 121 111 98 79 121 203 131 70 78 103 153 173 69 27 30 28 27 26 21 18 17 24 27 24 15 21 32 26 33 33 43 31 17 26 57 36 56 54 38 46 58 73 75 75 84 79 82 86 87 90 89 92 95 102 
76 102 80 63 53 45 64 73 119 112 124 106 85 104 175 176 63 86 106 152 149 93 22 29 21 26 28 29 24 19 16 18 27 27 22 19 27 31 32 35 44 39 18 23 43 33 55 54 34 51 59 66 72 76 81 80 80 86 83 83 89 92 89 97 
37 78 106 83 83 75 90 80 129 131 119 115 73 127 203 112 82 116 144 185 105 30 29 29 26 30 33 32 30 22 21 29 27 25 28 22 25 40 29 34 42 40 19 26 54 46 56 48 33 42 54 66 72 74 76 77 76 81 83 89 87 95 89 95 
51 42 70 109 77 119 111 84 101 143 128 112 74 126 187 104 119 144 183 122 44 28 33 29 28 30 34 28 42 29 28 30 28 22 32 31 33 32 37 35 44 43 31 21 45 47 51 50 34 43 45 59 66 67 67 75 79 82 84 88 88 96 97 97 
61 43 35 80 127 113 77 111 62 119 94 122 85 143 194 130 151 164 165 41 30 28 28 32 32 30 30 32 28 22 25 32 25 24 29 33 36 30 39 33 39 38 28 24 36 50 43 54 31 39 39 49 60 71 68 66 75 76 81 81 84 90 91 92 
71 59 54 90 109 119 99 77 55 102 77 99 81 168 172 122 155 174 55 23 26 30 28 27 25 28 31 32 30 20 21 28 22 24 33 28 32 31 30 31 30 35 27 25 29 44 36 58 35 35 43 44 53 59 64 67 71 69 78 79 84 88 92 92 
84 83 107 75 65 107 105 67 45 109 100 96 86 159 184 166 191 81 30 28 26 27 25 26 23 33 29 31 32 24 26 33 26 29 27 27 34 31 30 31 32 34 39 25 24 36 31 51 38 29 43 43 53 54 60 67 68 73 74 82 85 91 89 92 
87 97 90 49 69 98 109 68 38 97 81 102 101 189 202 189 116 35 21 21 27 31 22 24 23 27 29 31 30 18 23 32 20 27 28 22 25 30 34 30 31 35 35 23 21 32 31 36 43 28 36 38 37 52 53 65 67 69 73 74 84 90 85 93 
92 94 78 59 58 65 111 79 69 107 58 89 73 149 199 138 35 27 25 27 29 33 31 28 25 26 32 32 27 21 24 34 25 26 29 21 19 19 32 30 28 33 37 23 20 28 36 32 44 25 29 42 31 33 48 59 60 67 70 73 77 87 91 92 
104 108 95 83 57 53 121 82 76 112 54 75 80 117 185 57 31 32 23 23 27 23 25 26 18 35 39 28 25 18 25 33 20 23 29 19 21 22 23 29 25 28 32 29 24 25 34 31 34 26 28 46 33 18 30 45 50 58 64 66 74 81 85 95 
122 115 106 101 80 56 122 97 71 128 65 53 85 88 172 41 57 31 26 28 30 30 24 29 21 45 36 30 27 16 27 34 23 18 29 28 20 21 23 23 27 30 28 28 28 27 33 29 37 34 24 44 43 19 18 25 38 48 60 60 66 76 85 89 
117 115 89 115 114 87 104 109 101 119 71 69 73 64 48 41 54 30 29 28 36 24 24 30 25 34 34 34 25 22 27 38 23 27 24 31 20 20 22 24 32 30 28 26 28 28 35 28 34 39 26 40 44 26 18 15 20 34 45 47 56 69 79 84 
88 100 106 122 120 90 95 99 116 125 76 68 72 78 37 43 35 33 25 27 29 28 22 25 23 32 31 36 23 21 29 40 22 25 24 36 28 19 24 20 23 32 33 25 33 24 27 34 32 39 26 34 42 42 23 19 16 17 29 40 48 62 73 82 
87 75 101 97 134 130 125 94 115 130 142 52 65 77 73 34 31 33 28 31 28 29 30 29 32 37 42 44 27 21 28 40 23 27 31 27 31 23 25 28 24 25 33 31 37 37 27 30 32 35 28 34 45 42 33 23 22 18 21 25 44 45 56 60 
