P2
64 64
255
64 69 68 72 70 68 66 65 67 60 60 51 49 63 87 100 117 128 139 150 156 156 152 155 156 156 154 142 135 125 109 81 60 43 40 47 51 51 64 63 65 66 66 69 65 63 65 65 64 63 58 62 66 64 69 77 89 110 112 115 127 129 127 123 
64 72 68 68 65 67 64 67 61 65 56 55 48 62 86 102 117 124 140 147 152 157 155 159 156 156 152 146 134 120 103 82 59 51 42 42 49 51 57 60 64 68 66 67 65 64 65 60 62 62 65 60 58 61 81 123 141 139 113 119 122 127 124 123 
62 68 66 62 68 64 60 60 60 60 52 48 48 56 79 100 116 128 141 146 153 154 157 158 156 154 153 141 131 119 109 82 59 47 37 45 50 54 54 52 63 61 71 66 64 62 61 64 62 63 59 53 52 69 129 153 198 122 108 117 118 123 125 123 
62 61 65 60 61 63 58 59 57 56 53 44 43 53 80 97 114 125 141 152 155 154 154 157 154 156 154 143 132 120 101 82 56 40 38 40 49 54 57 58 62 61 62 65 60 60 62 58 61 57 56 47 46 132 184 180 186 90 110 113 118 127 127 97 
62 69 66 60 59 63 58 57 58 53 47 48 40 52 77 101 115 128 142 153 155 153 156 156 155 157 153 144 132 118 102 83 57 42 40 44 51 53 60 62 65 62 62 62 61 67 60 65 58 55 53 51 48 143 170 185 128 94 108 116 122 127 113 67 
67 66 65 63 63 64 61 59 54 51 49 44 39 56 80 102 114 130 142 155 157 157 153 158 159 159 157 153 132 120 100 82 57 40 41 47 50 58 65 61 63 65 66 63 62 65 68 66 63 57 57 51 33 90 161 165 168 130 118 116 120 120 107 91 
65 65 70 61 67 61 63 60 56 58 50 44 38 52 78 98 114 129 141 151 155 157 158 160 163 160 156 147 134 117 102 83 62 43 42 49 49 61 65 64 68 67 66 70 68 70 69 64 69 63 60 39 15 76 149 50 94 176 173 137 127 122 81 44 
70 66 66 64 65 64 66 56 61 56 48 42 37 51 76 97 115 128 140 151 158 157 156 162 162 159 156 150 136 117 100 83 63 50 43 51 54 58 64 65 68 70 67 69 73 63 70 73 89 49 31 29 19 28 141 98 152 169 200 209 173 84 24 18 
64 70 67 65 64 66 64 57 59 57 49 42 35 54 76 96 116 126 140 149 158 158 160 159 159 157 159 149 135 120 100 81 62 47 49 52 56 62 67 69 70 74 71 72 71 69 63 51 40 23 49 36 60 95 152 129 148 184 238 221 114 32 48 15 
68 68 70 65 65 66 63 55 56 57 54 40 37 50 79 99 115 127 139 149 155 159 161 159 164 159 159 151 137 122 102 86 63 51 53 51 56 60 64 69 71 75 72 73 77 92 23 16 16 29 82 107 126 126 148 170 159 201 147 60 25 28 72 24 
73 72 68 68 73 69 61 57 56 49 47 45 36 50 76 97 115 130 142 149 153 157 160 161 161 162 160 153 139 123 106 85 63 49 48 55 60 62 69 71 77 76 79 74 93 88 14 13 42 74 133 130 119 121 113 137 165 105 32 31 20 21 70 79 
67 67 72 72 66 68 59 56 51 51 45 39 35 47 71 98 115 129 141 152 155 157 161 165 167 163 165 151 143 125 103 87 66 47 48 54 62 67 68 69 76 74 74 70 87 104 24 43 98 108 141 110 105 106 99 126 83 38 45 32 23 24 30 102 
68 71 70 67 66 66 59 56 49 53 47 41 37 43 74 97 113 127 142 149 155 159 159 163 163 163 163 153 142 124 106 87 67 45 45 49 57 62 66 69 75 80 74 70 73 121 97 111 114 100 115 137 93 56 43 52 70 50 27 15 20 20 16 52 
67 71 67 67 63 61 56 53 50 53 46 37 29 45 69 94 113 128 142 149 157 157 162 161 162 164 158 156 140 126 109 90 65 43 43 52 60 61 67 70 72 71 71 70 68 95 128 119 143 141 112 82 51 50 43 56 63 39 18 14 35 22 24 27 
68 66 63 60 61 56 54 51 49 47 41 29 23 36 68 96 113 126 138 146 153 160 162 162 163 163 163 154 139 126 109 89 62 46 46 54 56 60 65 68 72 74 70 70 73 78 106 139 121 88 87 73 38 34 58 74 46 31 14 23 56 28 44 49 
68 60 57 56 60 53 49 45 49 46 38 30 28 36 64 95 113 125 140 149 155 158 162 162 163 163 163 154 142 125 107 89 64 51 42 50 56 61 63 72 76 76 75 74 74 86 93 94 79 81 69 45 63 75 80 49 25 27 19 29 65 43 74 91 
60 59 58 56 53 52 52 46 46 46 34 29 27 42 63 93 108 124 138 146 154 158 158 159 165 161 162 152 140 126 109 89 67 48 45 49 57 60 64 67 72 75 74 78 77 86 80 76 109 119 99 118 136 117 74 35 31 30 26 42 83 49 100 87 
58 60 68 58 55 53 53 51 45 44 35 28 27 40 62 89 110 128 141 149 156 157 158 160 163 160 160 152 140 127 108 84 63 48 43 50 59 58 62 62 66 72 81 92 110 120 125 137 137 146 121 94 85 63 41 33 37 44 32 59 77 54 95 87 
55 58 65 55 52 48 47 47 43 39 35 28 23 39 72 92 112 127 138 148 155 157 159 160 162 161 160 153 137 125 107 89 64 43 42 48 54 55 62 68 78 104 132 122 127 112 112 116 112 58 32 39 61 41 31 37 38 36 38 71 66 59 94 63 
54 52 58 53 47 44 53 45 42 38 38 28 25 39 67 92 115 126 141 149 154 156 159 156 160 166 162 150 139 128 109 87 61 47 44 48 54 57 68 97 104 92 81 87 100 96 100 75 54 36 41 58 54 35 38 32 39 41 63 60 55 90 88 117 
51 51 48 48 47 40 46 47 42 40 33 27 28 32 64 93 110 126 142 150 155 155 158 159 164 159 158 152 139 121 107 84 67 47 41 53 52 60 71 77 71 76 78 86 100 79 69 61 72 62 64 63 48 41 28 31 45 72 87 32 54 107 118 97 
50 47 48 46 45 44 42 42 43 40 35 32 27 35 63 91 109 122 140 146 153 155 160 160 158 159 156 150 137 120 108 89 64 48 45 52 56 64 63 75 75 76 78 82 95 60 59 52 53 73 77 48 76 49 26 44 78 93 41 30 67 126 80 85 
50 49 44 42 40 42 39 39 39 36 31 28 22 37 58 92 111 125 136 147 150 155 159 155 155 155 153 148 137 125 107 91 64 44 45 50 56 57 68 70 70 70 77 77 79 42 61 99 109 96 47 60 81 52 52 88 80 40 25 30 45 106 97 75 
45 44 46 43 47 46 45 39 36 38 31 23 24 33 58 91 114 124 134 145 147 154 154 151 155 156 155 149 139 124 107 90 62 42 44 50 61 71 63 67 70 73 73 75 77 74 134 121 88 49 59 85 71 44 93 78 37 37 38 37 27 66 118 67 
45 46 45 44 42 46 49 39 40 39 32 24 24 32 62 89 112 126 133 147 154 153 151 150 154 156 157 143 133 120 108 89 62 44 38 45 74 104 64 62 71 70 83 113 134 119 76 41 30 61 113 84 49 103 73 25 26 71 44 48 31 89 122 80 
53 45 46 46 47 47 43 43 39 36 29 20 18 38 66 90 109 124 136 141 150 151 151 150 158 157 158 144 135 121 107 86 64 40 41 39 79 103 61 57 81 117 141 121 107 57 16 27 49 100 128 69 92 66 27 25 36 94 60 44 52 133 112 91 
48 49 46 47 52 47 49 40 33 35 30 21 20 35 57 90 111 122 135 146 149 151 150 149 153 155 155 145 135 121 109 88 57 40 41 38 62 119 80 83 134 114 82 99 102 37 23 44 97 108 66 83 62 34 34 31 64 72 101 53 84 112 88 111 
49 48 49 45 46 43 43 39 38 32 25 23 14 25 60 93 107 125 136 146 148 151 152 150 151 155 155 148 137 122 108 87 59 42 39 38 49 82 119 106 89 75 82 94 89 47 32 64 104 79 56 74 59 84 32 51 73 64 104 40 97 93 91 136 
47 50 51 43 47 39 43 44 38 30 21 20 16 21 57 88 107 124 135 145 148 153 153 156 154 156 154 149 137 125 109 84 59 42 40 42 49 62 69 80 89 98 99 103 99 53 23 56 84 62 69 62 70 33 57 65 51 104 79 51 90 66 101 143 
50 49 47 47 45 47 48 45 32 30 22 21 11 25 56 88 106 123 136 144 149 152 155 152 154 158 156 149 141 125 109 86 64 44 38 44 50 59 71 92 83 78 95 101 88 38 42 63 51 57 86 72 47 58 67 46 50 113 36 39 88 51 102 145 
52 49 49 46 48 47 43 38 29 27 24 16 10 20 53 87 104 124 138 144 150 154 151 153 154 156 159 149 140 126 108 87 64 42 33 45 63 92 100 84 71 77 82 81 59 37 45 64 43 73 102 55 54 54 45 34 93 88 21 45 108 49 94 136 
54 56 50 49 48 45 43 39 37 30 25 16 11 24 60 88 106 122 139 146 150 152 154 153 157 158 157 149 140 126 109 86 59 44 44 70 102 100 75 69 72 79 83 79 55 43 38 64 59 98 90 50 59 43 50 31 116 58 19 42 112 56 71 140 
61 51 48 54 47 50 42 40 35 32 32 18 12 34 62 90 106 122 138 145 150 149 152 150 152 157 159 151 142 127 105 89 69 62 79 80 72 62 62 64 68 84 88 79 53 37 38 66 77 91 77 55 45 18 40 84 101 46 26 26 97 67 51 129 
50 53 47 48 47 44 45 42 33 32 31 24 19 38 69 92 111 122 137 144 145 151 151 152 154 157 156 151 141 124 110 91 74 60 42 44 51 57 61 68 67 77 84 79 52 42 44 68 67 108 85 54 39 9 53 138 72 40 47 23 87 78 62 118 
47 48 47 45 45 46 49 40 34 33 35 30 29 47 77 98 116 125 135 143 149 152 151 154 153 156 157 148 144 126 109 92 70 46 37 45 52 58 61 65 68 76 81 63 49 53 48 66 72 111 72 49 17 16 92 109 38 50 64 39 72 81 65 106 
47 53 46 45 43 45 41 39 37 40 38 36 35 54 83 103 121 128 139 144 148 151 148 153 155 157 156 152 142 128 107 91 63 46 38 50 56 60 65 68 73 77 87 62 61 50 53 61 49 66 49 39 13 64 119 80 36 70 70 24 74 96 71 97 
44 51 43 48 43 40 43 41 32 34 40 40 47 59 87 108 119 129 138 142 146 146 147 149 151 157 160 155 143 125 113 94 68 46 38 48 56 58 63 65 73 90 83 64 50 25 47 65 49 52 33 10 43 108 77 42 61 58 51 39 69 95 53 94 
44 51 46 43 38 48 46 42 35 38 41 42 52 66 92 110 123 132 138 145 144 146 146 150 154 154 159 154 144 126 111 91 66 49 38 48 53 58 63 63 75 82 81 82 27 14 36 62 51 39 24 31 101 71 32 30 57 50 52 70 81 85 66 107 
46 51 45 46 51 48 47 42 40 38 35 43 58 71 94 114 126 131 138 144 144 147 150 151 151 156 156 154 143 129 111 95 68 49 44 48 53 58 59 65 67 77 104 112 36 14 37 61 37 44 34 102 94 39 21 30 49 49 49 75 97 81 90 96 
51 48 39 42 46 46 41 40 38 29 28 41 63 73 96 112 123 132 138 140 145 147 147 152 155 158 159 154 144 128 114 96 70 47 42 47 56 62 63 67 73 100 121 87 44 25 38 65 41 65 91 108 46 31 25 30 44 51 43 56 81 63 88 101 
41 46 37 42 40 39 42 42 33 30 29 40 55 78 99 113 125 133 137 145 146 147 146 149 154 159 157 151 145 129 113 92 68 51 42 47 50 53 60 59 90 118 90 80 47 38 41 49 71 110 79 41 39 21 28 24 48 47 47 45 59 46 86 82 
44 44 37 42 40 40 42 35 31 30 30 39 61 77 98 112 124 133 140 141 147 145 145 151 153 160 159 155 145 132 113 96 70 49 37 42 52 53 59 80 120 87 85 81 31 34 43 59 107 89 17 22 65 28 33 28 46 40 48 40 57 46 65 97 
43 40 40 39 37 32 37 38 34 34 36 45 52 74 93 112 123 130 139 141 147 149 150 153 151 156 158 156 144 133 116 92 67 46 37 45 52 48 66 108 91 74 97 78 31 33 62 85 108 59 18 28 44 53 42 40 45 29 65 44 46 46 46 94 
41 37 38 36 35 37 37 37 29 32 38 43 54 70 92 109 123 131 138 144 147 147 151 153 155 158 159 158 147 132 116 94 71 43 34 45 49 59 103 104 71 70 100 72 32 53 60 77 92 39 25 28 35 50 40 50 42 46 55 54 42 45 45 74 
43 31 31 32 35 41 38 36 32 31 35 38 52 68 93 110 126 131 140 145 148 150 150 154 157 160 161 155 149 130 114 94 73 42 37 39 47 90 109 67 65 72 93 61 38 42 23 88 72 30 34 29 52 38 37 57 43 69 57 64 52 46 53 55 
40 29 29 30 34 34 38 35 36 28 32 44 50 69 96 111 125 137 138 145 149 149 149 152 154 162 160 156 148 133 117 89 67 45 38 41 65 114 73 58 61 73 108 62 31 16 34 89 97 34 36 32 42 36 31 43 40 59 83 65 74 62 60 51 
28 29 27 29 28 31 37 36 32 28 32 42 51 67 95 112 127 139 143 148 151 150 155 154 158 160 157 158 146 131 114 91 68 41 33 54 105 88 54 56 72 97 114 51 24 18 52 32 70 40 38 37 45 41 33 29 33 64 107 69 81 78 62 51 
29 27 27 30 33 35 37 31 29 28 37 46 57 75 98 118 125 134 142 151 154 155 156 158 157 160 158 155 147 131 110 89 67 45 38 109 102 58 48 58 101 121 108 48 26 40 60 17 29 31 42 39 49 44 37 28 30 74 122 97 84 74 86 64 
25 28 27 28 29 31 37 32 30 32 35 56 58 75 96 117 125 136 144 151 153 155 156 155 156 161 162 155 143 130 110 91 66 47 92 113 66 45 50 76 113 109 94 44 27 50 35 25 16 37 44 43 53 36 48 41 32 72 118 107 76 72 74 78 
29 28 30 28 30 28 32 31 28 33 43 61 65 81 100 115 125 136 143 153 155 154 156 158 162 162 161 153 143 129 113 86 67 103 124 66 43 46 59 97 113 89 81 55 39 38 46 24 29 20 28 24 55 37 40 56 26 81 149 103 48 69 75 75 
27 30 29 30 30 33 35 34 26 30 42 55 64 74 97 115 125 133 139 151 154 156 158 159 161 163 161 156 144 131 112 86 103 124 69 41 44 47 75 117 86 79 74 57 41 34 83 40 32 15 20 20 66 42 33 74 22 87 156 100 42 40 73 87 
29 29 24 27 30 29 30 31 25 27 47 58 64 72 94 113 125 134 140 147 154 157 160 157 161 161 158 152 143 144 124 108 112 65 36 36 43 57 96 120 73 73 68 43 49 50 121 41 15 16 16 37 78 42 32 70 34 102 153 102 49 32 61 60 
31 24 26 28 26 23 27 27 24 27 43 56 63 67 92 112 125 133 140 149 152 159 158 160 162 162 163 154 145 140 148 110 77 39 30 36 47 82 129 81 67 79 61 28 38 84 102 31 23 24 20 46 75 33 65 56 53 131 131 93 97 31 57 70 
22 21 24 25 25 24 26 25 23 27 47 56 68 64 89 109 121 131 137 146 157 159 157 161 161 160 163 155 145 130 116 89 64 40 34 39 59 122 103 68 72 87 57 28 26 116 93 18 21 26 24 69 68 25 57 56 59 154 104 68 121 68 67 99 
37 25 20 23 22 31 27 25 26 27 51 65 55 60 86 105 118 129 134 149 156 161 158 159 156 162 161 155 145 127 113 91 64 40 33 36 84 127 69 66 76 78 34 28 38 125 84 13 23 18 23 80 48 24 33 60 69 175 117 48 81 113 86 108 
26 22 25 28 20 22 21 17 21 33 60 66 61 61 86 104 114 123 131 146 156 157 159 158 161 162 164 153 143 132 113 91 65 41 29 39 88 117 64 70 81 55 24 30 50 116 61 20 22 20 39 72 38 29 21 38 102 167 127 71 52 130 97 110 
28 21 25 23 23 20 23 20 17 44 75 70 69 74 87 100 112 122 132 145 154 156 157 158 156 159 162 154 146 131 116 94 66 41 29 35 88 112 60 66 57 49 39 31 51 97 32 27 22 15 45 63 29 40 25 27 127 150 122 112 59 102 123 111 
27 25 24 23 21 19 17 19 19 52 73 75 70 74 90 104 111 118 130 144 151 156 156 157 157 158 159 154 144 135 116 95 67 43 32 36 70 104 71 72 67 53 38 55 51 67 30 26 21 17 52 60 27 41 31 33 107 147 113 79 109 77 146 112 
21 23 20 22 22 22 23 23 29 59 70 72 70 73 93 100 113 118 131 146 151 155 157 155 155 158 158 151 140 129 114 93 67 49 34 37 58 92 81 77 51 45 45 74 62 56 29 21 16 19 58 58 19 31 34 26 87 120 89 84 95 83 113 125 
17 22 20 23 24 21 23 26 28 54 74 74 68 75 93 100 110 124 133 143 155 153 153 157 157 156 158 156 142 132 114 90 66 46 30 42 55 76 72 73 56 46 53 58 71 50 34 27 18 18 63 54 22 25 34 41 79 113 80 66 89 99 93 115 
20 23 21 22 21 19 24 21 31 59 72 74 70 71 91 103 109 120 135 143 155 157 155 158 157 155 158 153 143 133 114 92 66 43 30 44 52 78 71 75 38 41 42 35 92 47 30 31 25 20 60 50 19 33 31 50 76 100 88 35 38 51 96 104 
21 20 28 27 17 17 24 23 35 53 60 65 66 72 92 103 108 123 133 146 153 155 155 153 157 157 160 154 144 134 114 94 69 42 33 44 55 71 79 47 34 35 33 38 107 42 33 35 27 25 51 49 22 33 23 44 93 105 88 38 32 31 53 90 
24 17 26 27 24 21 23 20 27 45 57 66 71 80 96 104 110 124 134 147 152 155 153 156 157 157 160 154 146 133 113 94 64 42 32 40 52 70 79 29 26 31 25 45 94 60 24 36 41 23 49 42 20 28 19 23 92 115 114 50 29 42 56 73 
24 22 19 20 19 14 22 27 25 35 52 67 71 83 99 99 113 123 134 145 151 151 150 155 154 159 157 154 146 134 117 94 65 41 31 37 51 91 51 32 21 25 40 62 60 52 24 38 40 34 46 44 23 26 26 17 82 131 115 79 29 56 53 67 
