P2
64 64
255
131 132 134 129 133 136 132 129 132 147 185 199 206 208 212 212 212 200 169 113 77 72 79 79 88 89 90 93 97 88 94 89 93 99 91 92 90 91 90 90 94 93 95 95 96 94 94 86 96 96 98 96 91 98 97 91 86 86 86 92 123 145 148 114 
131 132 134 129 133 136 132 129 132 147 185 199 206 208 212 212 212 200 169 113 77 72 79 79 88 89 90 93 97 88 94 89 93 99 91 92 90 91 90 90 94 93 95 95 96 94 94 86 96 96 98 96 91 98 97 91 86 86 86 92 123 145 148 114 
131 130 133 130 132 133 132 128 129 145 181 197 205 208 211 211 213 203 176 122 77 71 76 81 88 89 88 92 95 90 92 91 94 96 92 91 90 89 90 92 94 93 94 94 96 95 93 87 95 94 98 95 93 98 95 91 85 86 89 94 116 133 125 87 
127 130 130 130 132 132 129 130 127 129 161 190 201 207 210 212 213 210 195 157 100 71 73 79 85 85 90 84 90 89 90 95 90 96 91 94 95 92 94 96 95 95 96 93 92 92 91 94 90 94 95 92 92 98 96 95 91 91 96 98 85 69 44 30 
130 131 130 128 128 129 128 129 129 125 136 174 194 204 208 211 210 212 205 183 131 84 76 77 82 82 87 90 92 90 90 93 91 93 92 92 87 90 92 94 95 91 95 90 95 92 94 93 92 96 96 95 96 96 97 98 97 94 95 78 47 27 22 19 
127 129 125 128 127 131 127 127 130 123 126 151 185 198 206 208 211 213 211 198 164 107 73 73 76 82 83 85 91 89 88 94 90 92 88 92 89 90 88 92 91 93 92 93 94 91 93 91 93 93 93 94 92 94 100 102 103 95 72 44 23 21 21 24 
129 126 130 127 125 129 128 128 130 124 125 132 168 191 202 208 211 213 214 209 187 143 87 75 77 84 83 84 87 89 88 92 92 90 91 91 89 88 93 91 94 91 93 89 92 92 92 91 97 96 91 96 93 94 104 103 92 79 43 36 20 18 22 25 
129 130 125 124 124 127 128 127 127 129 126 121 147 182 196 205 210 213 213 213 201 175 123 76 77 77 78 79 89 84 86 91 88 89 96 90 88 91 89 91 91 89 91 93 94 95 95 93 94 94 96 98 100 101 106 90 69 37 21 30 24 22 27 26 
124 128 132 124 126 123 128 125 126 125 124 123 126 165 190 202 209 211 214 213 210 194 157 98 73 76 78 80 88 84 86 89 89 91 91 89 91 95 91 94 93 94 96 95 92 98 96 96 98 98 97 99 103 102 92 64 32 21 19 18 24 24 14 24 
128 129 129 126 126 126 125 127 127 127 125 122 120 136 176 196 206 211 212 213 213 204 180 132 78 73 77 78 84 85 83 87 89 92 94 91 95 96 92 93 94 97 93 95 94 97 97 94 98 101 102 103 104 89 62 35 17 23 24 19 27 22 19 22 
129 131 125 126 126 127 128 129 126 125 124 125 123 120 155 187 201 207 210 214 215 211 198 166 105 76 81 78 84 80 88 87 88 89 92 96 90 91 92 96 90 93 96 104 97 97 98 101 100 104 105 107 92 63 35 23 19 30 29 22 22 23 23 24 
127 127 125 127 123 127 125 125 124 123 125 125 117 118 132 171 195 204 210 212 213 215 209 188 140 84 73 80 80 82 85 89 86 86 85 91 95 91 92 87 92 89 97 97 101 100 100 101 102 104 108 92 62 30 30 21 28 25 32 24 21 23 23 28 
128 129 126 127 126 127 124 125 127 125 124 123 121 119 121 150 185 199 208 212 214 216 214 202 175 119 74 74 79 83 88 93 90 92 90 92 94 90 92 90 90 89 93 98 93 99 100 100 105 105 92 60 35 52 24 18 21 19 19 20 19 24 28 29 
131 127 128 126 127 128 127 126 128 124 125 126 119 121 118 127 171 194 204 210 213 216 218 212 194 156 91 74 78 82 85 83 97 93 96 89 93 94 90 92 86 97 94 91 95 98 100 103 104 94 61 28 19 27 23 15 14 19 18 22 17 26 28 19 
130 127 131 130 129 131 128 125 126 126 126 123 120 120 119 118 143 184 199 208 211 214 216 216 208 184 129 73 77 79 84 85 86 90 91 94 92 91 93 89 91 92 93 98 94 101 101 106 90 56 25 15 14 21 21 22 18 21 23 22 23 27 23 38 
132 128 125 131 131 132 129 130 126 127 122 127 121 118 119 116 123 165 192 202 209 213 217 217 215 202 167 100 73 79 79 85 85 88 85 94 93 89 90 91 94 95 91 96 98 103 102 89 60 21 14 20 21 19 22 18 25 20 22 23 23 20 29 30 
131 128 131 129 133 130 130 131 128 128 126 126 126 123 118 114 112 130 173 196 205 211 215 218 219 214 198 154 91 77 77 80 85 87 85 87 90 95 94 93 97 93 95 99 103 103 91 66 35 13 21 13 30 26 25 16 28 25 26 22 23 23 30 32 
131 133 129 127 130 128 130 130 129 125 127 126 125 120 122 115 116 118 158 191 203 210 215 218 219 218 205 179 118 75 73 78 80 81 86 86 91 93 90 91 93 100 98 100 104 93 62 27 18 13 15 17 22 33 25 28 27 19 26 22 23 29 27 22 
131 130 130 129 130 130 128 127 131 125 123 123 123 121 123 118 116 113 129 173 197 208 214 216 218 219 213 197 158 94 68 70 79 82 83 83 89 94 93 97 95 101 101 101 86 58 29 14 16 16 20 24 25 26 27 28 24 25 26 23 21 29 21 18 
129 133 131 131 128 130 127 126 126 126 122 121 122 121 119 117 113 112 113 149 188 202 212 217 217 219 219 210 190 131 74 68 79 79 79 82 85 87 89 95 97 100 104 87 61 28 16 21 20 19 15 27 34 39 34 36 35 26 26 25 21 19 20 26 
128 130 133 130 129 128 128 125 125 125 122 122 123 117 117 115 116 112 110 126 173 199 209 214 218 219 221 215 200 169 102 69 75 79 76 81 82 84 90 92 100 99 91 63 30 20 17 20 16 20 20 25 25 27 28 25 24 26 21 18 22 17 19 19 
126 127 126 129 128 126 126 124 122 119 120 118 116 118 115 115 113 112 110 115 147 186 204 213 216 218 218 219 211 189 138 77 71 76 76 79 81 82 89 93 104 89 61 33 19 16 15 18 21 21 27 30 34 37 30 25 29 25 24 22 18 19 20 16 
128 126 126 128 127 125 122 122 122 119 117 113 119 113 113 116 113 114 112 114 123 169 197 206 213 218 218 220 217 203 173 103 70 73 75 80 85 81 94 97 88 63 30 20 19 19 19 20 22 24 25 31 31 34 30 29 24 26 28 16 17 21 20 19 
127 128 124 125 124 124 121 117 120 118 119 117 117 114 115 117 112 117 115 112 113 141 181 199 211 215 219 219 219 212 195 149 82 87 79 82 85 89 95 85 55 31 20 18 21 24 17 21 22 24 29 31 33 35 31 28 28 21 19 21 19 18 21 20 
126 127 123 123 122 124 121 120 118 115 118 115 117 114 112 114 114 113 114 111 117 120 161 191 205 212 216 218 219 218 207 180 119 78 74 84 85 95 83 64 28 13 19 17 17 20 18 22 26 33 26 36 36 34 34 30 24 15 16 16 23 19 22 21 
126 128 122 124 122 117 117 119 116 113 113 114 112 111 111 112 111 112 110 110 111 118 131 176 197 208 213 218 220 223 216 201 161 98 80 88 93 87 61 27 17 15 16 18 17 17 19 20 30 26 26 27 26 29 29 28 22 16 17 16 16 18 17 20 
122 124 120 122 115 118 115 114 116 111 110 113 111 110 110 112 113 115 115 110 112 113 116 149 187 202 210 216 220 222 223 213 193 141 89 89 88 71 29 18 13 13 20 17 20 22 18 22 29 29 25 25 26 24 25 26 21 20 25 23 22 18 17 16 
117 121 118 119 116 116 113 112 118 115 110 110 111 108 110 111 114 111 112 110 110 114 107 117 170 196 208 216 219 220 223 221 209 183 117 91 68 33 20 15 18 20 23 24 23 27 25 30 29 31 26 25 26 20 19 19 28 29 22 20 21 18 18 22 
116 120 118 115 116 114 113 116 112 111 113 107 110 108 107 111 111 112 112 111 111 112 107 107 136 181 203 214 218 220 222 224 221 204 158 77 34 16 17 18 15 16 19 22 29 31 28 24 30 25 25 26 23 21 21 28 31 24 19 20 18 19 24 18 
114 114 118 116 116 116 113 111 113 111 111 111 110 112 108 108 108 108 111 110 111 114 109 107 112 159 196 207 214 219 222 223 224 217 188 72 17 17 14 16 20 20 22 17 25 29 24 25 28 24 29 27 21 27 21 24 25 20 21 25 23 18 18 22 
112 114 114 116 115 118 113 113 111 112 112 112 111 108 112 111 109 111 112 113 111 114 111 108 106 125 176 197 210 216 221 224 227 222 189 46 9 17 14 17 20 23 21 22 29 28 26 25 28 31 20 19 18 21 25 34 26 23 17 28 24 18 27 24 
109 113 114 115 118 116 113 115 112 114 116 111 111 111 111 112 111 112 114 113 115 113 108 111 112 115 149 187 207 215 222 226 226 211 124 14 15 17 18 18 18 19 22 26 28 28 25 28 27 21 19 18 17 24 32 23 19 19 19 20 20 23 31 29 
110 111 110 112 112 118 112 111 113 114 114 111 110 107 112 109 107 112 117 114 115 116 114 112 113 110 121 164 202 215 223 224 212 165 41 12 17 12 14 17 24 21 23 31 26 24 28 29 24 17 19 17 20 25 25 26 22 17 17 19 22 28 23 16 
110 110 110 112 115 115 116 112 111 114 111 112 112 111 112 111 111 112 115 116 112 115 116 113 117 115 115 131 190 210 219 209 170 66 16 16 18 19 20 17 23 20 29 32 26 31 29 28 27 15 18 22 23 28 22 16 20 19 24 27 28 27 15 7 
109 111 114 114 115 117 116 111 113 112 111 112 111 110 113 112 112 114 113 115 110 115 115 117 117 120 120 120 162 200 204 167 71 17 16 19 21 17 17 19 21 27 22 22 28 28 28 22 20 22 21 27 27 23 19 20 19 18 31 34 32 19 8 6 
112 111 114 111 115 115 116 111 111 112 112 111 111 110 114 113 114 116 111 114 116 116 115 118 116 122 124 123 145 179 142 59 21 18 21 19 19 19 20 23 21 22 24 25 29 25 23 18 24 31 29 28 25 27 19 23 23 24 40 44 29 10 5 15 
110 111 112 113 116 116 114 112 112 112 111 111 111 114 113 115 114 115 113 118 112 117 119 121 120 119 126 126 131 111 50 22 19 20 22 16 21 23 21 25 27 24 25 26 23 25 18 16 24 35 25 22 28 21 20 29 29 40 45 30 17 8 14 69 
112 110 113 116 116 120 119 107 110 112 110 110 112 111 114 115 115 114 116 122 116 118 120 119 120 122 127 127 107 55 23 20 18 17 20 15 14 19 25 31 32 25 23 21 18 18 13 18 26 28 30 29 20 28 26 30 36 43 33 17 7 13 58 116 
112 114 115 114 120 117 116 110 110 111 112 112 111 113 114 113 113 114 117 113 113 117 118 120 122 127 129 119 75 24 18 20 19 17 18 16 18 27 24 26 29 29 24 19 16 20 22 29 31 29 24 24 23 23 27 33 50 36 17 13 14 48 105 137 
115 114 113 114 114 116 115 112 110 114 111 113 111 111 113 112 112 111 116 114 117 119 119 122 125 128 123 86 38 24 17 20 21 11 25 16 19 24 24 23 26 22 16 18 16 22 26 31 25 29 24 23 23 26 35 45 55 31 14 19 39 88 126 143 
117 115 111 112 110 116 113 112 112 110 113 111 112 117 113 116 114 114 114 114 115 118 115 121 127 122 95 46 16 26 18 23 17 19 24 21 23 31 21 28 26 24 25 18 16 29 28 31 21 22 24 18 22 31 45 58 53 29 18 41 88 119 131 146 
118 115 114 110 114 117 113 112 111 110 114 112 110 112 113 117 113 114 115 115 117 117 118 126 128 109 60 21 18 17 11 14 15 16 20 23 25 28 27 24 23 19 18 17 20 29 28 24 20 24 24 21 29 40 45 48 43 24 38 82 112 126 134 138 
118 117 116 110 113 117 116 114 111 113 113 110 109 113 115 111 112 112 115 116 119 118 120 126 118 76 29 16 16 12 12 16 20 22 27 27 27 24 27 23 23 18 19 23 25 27 25 19 20 21 27 26 34 49 54 40 36 49 78 109 126 125 126 133 
117 117 118 113 111 111 114 115 109 109 115 111 112 111 114 112 110 111 112 110 112 120 125 123 99 36 17 10 14 13 13 14 19 25 25 27 27 27 28 25 18 12 25 26 29 25 20 20 22 28 48 50 39 54 48 41 50 75 107 124 129 122 122 125 
112 117 122 116 111 112 111 116 113 111 112 112 112 113 113 115 109 113 112 113 117 122 124 108 52 20 17 16 18 17 17 22 30 30 28 29 27 27 24 22 20 19 32 33 24 20 18 20 25 35 38 40 44 55 47 51 80 105 122 129 129 119 114 116 
106 116 117 119 113 111 114 111 112 109 112 109 114 110 112 114 111 117 118 118 120 126 114 66 22 19 55 48 30 17 18 28 30 25 25 28 29 26 22 23 20 25 29 29 23 23 23 23 24 36 37 43 52 48 57 75 102 117 124 128 130 113 109 129 
103 110 115 119 115 111 115 112 110 113 111 109 114 111 113 114 113 112 117 117 125 127 90 32 19 18 20 21 17 17 20 23 24 25 21 25 25 22 20 20 24 32 35 20 24 29 24 25 24 34 42 46 55 58 74 97 116 121 126 129 124 111 127 139 
99 105 112 118 117 117 112 112 107 113 107 112 112 110 113 112 113 114 115 119 123 109 54 17 13 12 20 17 19 22 26 26 27 24 32 27 18 18 12 17 30 29 29 19 23 24 25 23 30 31 38 52 56 79 98 118 126 127 122 124 112 123 139 144 
92 98 108 116 116 117 113 109 110 109 109 108 111 113 113 113 115 119 121 122 116 78 26 21 10 11 15 17 23 28 28 34 26 23 26 17 18 14 17 28 30 26 17 21 29 29 29 32 42 38 34 51 72 100 114 123 126 127 119 116 125 135 142 145 
84 91 103 111 118 116 114 113 112 109 108 107 110 112 113 114 116 120 122 119 94 42 15 14 12 13 16 22 26 34 29 29 29 28 24 18 15 21 19 31 29 19 20 21 28 29 25 29 33 35 40 59 91 113 122 122 127 128 118 124 140 147 144 146 
70 86 96 103 115 115 115 114 110 108 107 113 111 109 113 116 117 120 123 106 56 14 11 13 13 16 16 18 27 27 29 31 28 25 26 20 16 20 31 27 22 18 28 19 30 30 32 30 32 36 57 82 110 119 120 120 129 122 120 137 144 147 145 144 
60 70 96 100 111 117 116 115 113 108 108 107 110 113 116 116 121 124 115 80 20 16 13 15 15 18 22 22 32 27 24 23 29 28 18 19 23 29 29 32 20 20 33 25 24 26 28 27 31 51 85 108 121 119 118 122 120 119 133 144 148 147 146 141 
43 62 86 92 102 110 114 115 110 107 107 106 106 116 113 116 122 121 99 40 15 17 16 21 19 19 23 24 25 29 24 26 34 24 21 20 27 32 21 17 16 23 24 27 36 25 25 26 39 78 107 123 123 119 120 113 115 126 137 148 147 147 146 143 
30 50 68 85 96 103 111 117 114 107 105 107 107 113 114 118 122 108 61 19 19 17 18 17 19 18 25 27 25 28 33 27 28 22 21 21 27 28 25 19 24 26 28 21 25 20 27 37 62 98 121 129 123 114 110 112 126 139 142 146 145 147 147 144 
17 34 56 73 86 95 105 112 112 106 105 104 109 113 116 118 118 82 25 17 16 18 17 19 28 22 28 22 22 29 24 27 25 18 24 29 30 27 24 24 26 30 29 26 20 19 28 60 95 121 128 124 120 113 109 125 134 140 144 143 142 143 146 145 
11 16 35 58 71 86 118 144 159 162 138 104 110 132 122 119 98 38 17 18 16 22 17 20 26 26 36 24 22 28 29 26 26 25 24 29 29 19 24 26 28 32 23 20 12 17 41 84 115 125 124 120 112 112 121 136 140 139 145 142 142 142 141 140 
12 9 18 42 84 160 192 206 212 209 196 160 174 195 148 109 56 19 18 15 21 24 21 23 28 23 28 27 23 32 33 31 27 28 24 26 20 21 26 30 27 23 22 21 16 33 73 110 125 126 118 111 112 118 132 140 140 142 141 140 137 137 138 140 
11 11 27 106 190 208 216 208 192 186 194 204 208 212 213 143 26 14 19 20 19 28 18 25 32 23 27 25 25 29 35 27 25 29 30 21 20 24 26 31 24 18 14 22 36 65 103 122 126 121 118 112 120 130 137 143 144 142 138 140 138 140 137 139 
20 30 123 200 212 209 192 178 187 201 206 213 215 217 210 196 43 13 21 20 22 22 21 27 34 28 28 38 31 23 26 27 28 27 30 27 20 26 34 39 27 17 17 18 53 95 119 126 125 118 116 115 129 137 145 149 139 139 141 140 137 137 137 137 
51 153 203 217 200 174 182 201 209 217 222 223 225 228 224 221 104 17 20 21 22 19 27 34 29 23 24 31 31 27 24 25 25 26 26 25 27 27 27 28 25 17 16 35 81 116 128 125 118 116 116 126 135 143 145 146 140 141 137 139 138 135 139 137 
171 207 213 188 155 186 206 213 216 220 219 217 218 222 229 229 171 22 21 21 21 21 21 25 29 27 29 23 23 21 20 23 23 23 20 24 28 31 25 25 21 19 36 68 105 126 127 123 117 117 123 134 138 141 142 141 138 142 139 140 139 140 135 136 
208 203 169 148 195 209 213 213 212 211 211 210 215 216 223 231 203 40 21 18 17 22 26 27 27 29 27 24 24 22 24 28 25 18 26 24 25 24 28 25 20 29 56 98 119 128 126 119 113 122 133 138 139 141 138 141 140 139 137 137 137 136 138 136 
196 155 155 193 211 215 210 207 205 206 210 205 198 208 219 230 212 67 20 18 19 22 21 25 23 27 28 24 20 25 20 19 15 17 28 24 31 30 27 26 22 37 81 115 130 126 121 118 119 130 137 138 139 139 134 139 139 140 139 138 137 139 137 135 
143 161 199 210 213 211 207 203 203 204 201 197 198 209 216 227 219 77 20 16 18 19 22 25 24 28 30 19 20 21 21 18 14 22 22 20 27 28 27 20 26 63 106 129 130 122 120 120 125 135 139 137 134 136 135 137 138 136 137 134 137 137 137 138 
