P2
85 85
255
185 187 186 188 190 190 192 193 194 195 194 194 195 196 195 198 198 203 203 204 197 135 147 139 129 123 84 77 62 88 122 181 216 171 19 14 11 20 28 27 24 22 24 21 28 41 26 29 29 32 49 96 125 129 120 120 122 129 135 139 139 137 137 136 136 136 134 133 133 133 136 135 133 135 134 135 136 133 136 136 135 136 133 134 134 
187 190 189 191 193 189 193 194 193 198 195 196 197 195 195 198 200 204 206 202 160 144 136 130 90 58 49 64 72 117 161 207 218 94 10 9 10 19 21 23 22 18 19 21 27 28 23 27 26 38 75 109 127 127 118 118 126 131 137 139 136 138 136 137 137 134 133 136 135 133 134 136 134 134 134 135 132 135 133 138 136 136 131 133 132 
189 193 191 192 192 193 193 195 196 196 194 196 196 196 195 200 202 206 208 174 149 134 104 59 51 59 59 76 96 154 197 214 186 26 12 13 12 20 25 22 23 21 18 26 24 31 26 27 32 50 95 121 125 124 120 119 130 139 140 136 137 137 136 139 135 135 135 135 136 135 134 136 134 135 131 135 134 136 135 133 134 134 132 129 136 
191 191 192 192 193 193 193 194 198 198 193 194 196 195 197 199 205 198 169 141 109 81 50 58 63 66 65 92 134 181 208 211 76 16 13 26 18 22 20 24 19 16 16 27 27 27 22 23 37 76 111 124 126 119 118 124 133 139 143 140 139 136 139 137 139 137 134 133 136 135 136 133 133 134 136 132 131 131 133 132 132 133 132 131 135 
192 192 191 193 191 192 191 196 198 196 197 197 198 196 199 198 175 144 111 78 58 54 55 56 60 70 83 129 173 198 211 144 17 12 14 20 25 23 20 27 16 19 17 26 29 22 19 23 59 95 121 128 120 118 118 130 137 142 139 138 141 136 139 138 139 134 135 133 134 135 136 134 133 134 132 133 135 134 133 132 135 133 135 133 133 
190 191 191 194 190 190 189 199 198 196 198 198 199 192 170 117 87 67 62 63 56 58 56 63 65 88 130 166 183 204 195 46 36 17 19 25 22 25 23 24 20 24 23 28 22 20 14 26 73 111 126 122 118 115 124 135 139 142 141 141 140 138 138 138 139 139 138 137 134 134 137 128 130 132 134 134 135 135 134 132 132 132 134 134 134 
189 189 191 189 193 183 191 200 196 199 201 189 149 92 68 59 59 59 66 59 62 60 67 83 100 137 169 181 192 188 79 15 20 16 20 25 27 21 26 27 23 18 27 27 20 20 16 41 88 119 123 120 119 120 131 141 145 139 140 141 139 138 139 140 140 137 136 136 138 137 135 133 133 133 133 131 135 134 132 135 134 133 130 130 132 
186 187 191 195 197 193 197 201 201 195 139 77 65 57 57 56 54 60 65 60 66 73 87 124 143 166 186 191 115 40 17 11 16 21 21 24 23 20 23 20 27 27 28 28 20 15 18 63 106 126 124 119 118 128 137 142 144 142 142 139 139 142 138 140 139 139 137 138 135 135 135 136 136 136 135 132 131 134 134 135 132 133 132 131 131 
188 192 190 194 191 191 198 198 180 106 68 62 66 61 61 57 57 61 71 85 93 110 134 157 176 189 196 116 18 17 15 18 20 23 27 23 17 17 25 15 24 24 31 30 22 22 37 83 116 124 124 117 121 132 141 143 143 142 141 141 135 139 140 140 138 140 138 139 135 137 135 136 134 133 133 132 134 133 131 132 134 133 132 134 132 
187 189 191 190 189 192 170 128 112 99 63 62 65 58 59 60 65 77 104 117 135 137 153 168 180 193 157 27 18 21 20 20 19 26 23 27 18 18 18 22 28 32 38 39 25 28 59 100 122 123 124 116 129 141 147 146 145 143 143 142 140 142 139 139 141 140 137 138 135 137 138 136 134 138 136 136 137 134 134 134 135 134 133 131 134 
187 188 193 193 175 123 78 81 118 107 85 66 66 62 74 97 107 129 137 139 148 151 159 172 192 147 35 12 19 22 21 20 30 28 28 26 17 18 17 16 25 34 24 39 37 40 82 115 125 124 121 120 133 144 146 143 144 142 141 141 141 139 141 139 140 141 139 140 140 139 139 137 134 134 136 133 133 133 135 134 135 134 133 129 130 
192 189 185 138 70 65 87 86 116 120 108 96 104 109 127 138 143 145 147 143 141 154 166 191 145 27 16 18 18 21 22 31 29 23 29 23 25 21 14 16 29 33 33 27 25 51 99 120 123 123 114 121 140 146 144 147 143 147 147 145 144 142 143 143 141 140 140 138 135 138 139 134 134 134 136 134 135 134 135 137 135 135 134 131 130 
190 142 61 60 71 60 85 78 105 120 128 138 136 137 143 142 143 140 149 146 154 169 195 163 32 14 14 16 20 26 32 32 27 24 24 18 25 21 24 23 30 22 15 23 29 79 111 124 122 122 115 128 146 146 143 146 147 147 147 146 142 140 142 140 141 140 138 142 137 138 137 136 135 133 137 135 133 135 134 138 135 132 135 131 130 
73 60 25 59 108 83 84 82 96 124 134 143 138 142 143 145 143 144 151 160 178 196 163 40 16 14 12 19 24 23 25 31 28 30 31 20 18 19 21 26 28 30 19 29 42 93 123 122 119 120 122 137 146 145 148 145 144 148 147 144 143 142 142 143 141 138 138 138 137 138 139 138 136 137 136 134 136 137 134 133 133 132 133 131 131 
31 76 63 43 119 107 84 99 81 116 134 137 136 146 148 146 151 154 166 177 191 169 41 15 18 17 20 21 23 25 29 27 25 26 26 22 18 23 22 25 24 26 25 27 65 106 121 121 115 118 130 143 145 146 149 147 145 148 148 145 145 142 143 144 145 141 141 140 139 138 136 134 136 136 138 137 135 136 135 133 133 132 136 132 133 
24 70 87 55 75 125 91 109 91 103 129 123 136 146 147 151 158 161 178 189 113 37 21 11 14 16 18 24 26 24 26 30 32 31 22 24 19 19 22 24 23 24 26 40 80 111 118 120 111 121 136 147 147 149 144 150 144 144 145 147 146 144 143 144 144 142 138 139 137 138 139 138 137 138 138 136 134 137 136 136 135 132 136 129 132 
60 46 74 82 68 95 117 92 105 82 123 128 130 142 146 150 160 186 180 83 16 16 19 10 19 18 21 20 21 31 32 33 36 28 23 24 18 17 24 26 27 22 34 52 93 114 110 112 107 126 143 147 149 148 148 148 147 149 145 141 144 145 146 142 143 144 140 141 139 139 137 137 139 134 139 137 136 136 137 135 133 130 133 131 130 
57 80 59 67 70 67 115 102 97 76 107 127 129 148 159 173 186 163 55 19 17 20 17 13 20 22 27 25 21 29 28 32 25 21 18 24 18 18 28 29 25 36 40 71 103 111 107 105 111 134 150 150 146 148 146 145 144 144 143 142 142 143 144 144 143 142 140 141 143 140 140 141 140 139 138 140 137 137 137 136 135 134 134 131 127 
50 51 98 82 76 83 95 122 102 100 106 128 137 164 181 182 117 42 20 20 14 19 16 18 23 29 28 25 22 28 28 27 29 22 21 23 17 23 29 25 27 36 52 87 112 110 102 99 118 141 148 150 150 149 146 143 142 145 145 141 143 144 146 145 142 144 141 139 140 141 137 135 139 143 141 140 135 137 136 138 132 137 134 133 135 
58 54 60 108 75 63 57 112 113 112 106 123 149 167 144 73 25 16 18 20 20 19 13 20 28 29 33 27 27 30 27 28 27 17 14 20 18 25 30 23 34 41 62 100 112 105 99 106 127 147 150 151 151 147 143 143 145 146 145 144 145 146 141 142 142 144 141 141 140 139 141 139 140 138 139 136 138 136 138 136 136 133 135 131 131 
58 55 45 44 97 58 56 65 118 113 112 125 138 113 88 41 13 12 15 22 18 21 22 21 24 29 29 29 31 32 29 32 22 14 20 22 24 25 25 20 32 47 78 106 111 102 104 109 135 149 153 148 151 149 147 144 147 145 142 147 145 143 143 141 141 145 143 144 142 140 143 142 143 139 138 139 138 137 136 136 138 131 134 132 128 
69 54 45 31 48 78 64 38 102 109 119 125 127 104 81 40 13 12 19 15 17 18 25 26 27 29 31 31 28 28 29 24 21 16 14 23 28 25 22 28 39 60 100 112 108 97 100 116 136 148 149 147 151 147 147 146 152 143 146 144 146 147 146 143 142 144 143 143 141 144 142 144 142 139 138 136 137 138 136 136 135 133 137 130 131 
77 60 46 33 15 52 70 46 65 111 111 129 133 111 77 26 20 15 12 13 19 18 30 31 28 26 30 32 37 36 28 21 22 16 17 18 24 23 23 28 42 78 103 112 105 97 106 126 137 146 148 150 148 146 148 149 145 143 145 144 145 144 145 146 143 141 143 144 137 140 140 142 141 139 142 135 138 139 138 138 137 135 133 133 134 
88 57 44 32 19 21 72 52 52 108 110 116 127 116 71 25 19 16 16 21 21 19 21 32 27 33 28 30 35 29 28 23 25 18 15 21 26 23 20 24 61 97 114 112 106 101 115 134 140 144 144 148 147 146 144 146 145 147 141 143 143 144 144 142 146 146 144 143 143 141 143 140 139 141 138 138 142 139 135 138 136 135 135 130 127 
90 59 49 27 19 17 33 56 45 92 120 129 130 121 46 23 27 24 20 21 19 18 27 24 33 30 32 43 34 37 27 20 18 19 20 22 20 18 24 32 73 106 118 113 101 107 124 134 133 134 144 147 148 147 146 149 147 145 144 141 141 141 143 142 143 144 143 145 142 140 140 139 142 138 137 137 138 137 137 140 136 134 133 134 132 
108 65 55 31 13 19 19 57 40 70 131 129 144 117 37 19 18 21 16 21 21 22 22 27 30 28 36 34 35 30 21 20 20 16 19 25 21 26 26 49 92 117 117 110 106 121 130 133 129 130 134 138 143 145 149 149 148 148 145 144 145 142 141 142 140 145 145 146 142 141 141 138 139 138 136 138 140 138 137 139 135 135 135 132 132 
123 74 55 37 13 17 20 36 47 50 126 134 150 113 31 18 22 15 23 20 20 25 27 29 29 31 31 39 38 25 19 16 18 19 22 25 16 23 33 65 105 120 113 106 111 130 135 133 130 128 132 131 134 137 138 142 146 142 143 143 144 141 140 141 141 144 144 146 143 140 141 139 139 139 135 137 137 137 139 140 136 136 134 132 130 
133 85 60 42 17 11 15 25 46 38 101 138 155 122 34 26 26 23 25 27 33 28 28 26 30 32 41 36 32 23 20 22 21 25 29 28 16 20 39 86 116 122 109 100 123 136 142 133 134 130 131 129 129 130 132 132 135 139 142 139 139 144 143 140 142 143 145 143 145 140 141 141 140 143 135 139 137 136 137 135 135 133 134 129 130 
147 97 65 43 23 22 13 12 29 43 67 132 149 130 55 30 31 19 24 22 24 30 32 29 34 33 39 39 29 25 19 17 22 26 27 25 17 19 50 98 120 114 108 111 130 142 141 137 132 132 131 128 129 128 128 129 127 129 133 132 139 139 139 140 140 141 140 141 142 144 143 139 140 137 141 136 135 136 134 136 134 133 134 133 130 
155 109 68 45 25 16 7 11 22 52 44 139 147 130 64 29 27 38 23 27 25 29 30 34 32 35 42 35 26 22 17 19 22 27 28 23 18 26 67 108 120 115 104 121 137 149 143 140 137 136 133 133 134 130 133 128 129 128 134 129 132 131 132 132 136 139 139 142 143 141 141 143 140 138 137 138 135 137 136 134 132 133 132 129 128 
163 121 72 52 32 16 12 12 17 48 37 137 147 128 65 31 27 26 27 32 25 27 36 32 34 36 39 37 29 18 21 22 22 26 25 19 19 42 92 118 120 112 107 125 142 148 147 143 140 137 136 132 131 131 130 129 125 127 128 130 130 129 126 124 129 130 132 137 139 141 139 140 137 135 136 137 135 134 133 132 134 132 130 126 128 
172 128 84 59 36 20 15 16 18 29 44 106 150 132 76 35 23 21 25 30 31 29 32 35 30 35 40 33 31 20 22 25 26 31 28 19 23 66 108 122 117 109 113 132 148 147 146 147 146 145 144 138 137 136 133 135 133 132 132 132 130 128 125 127 127 127 123 126 132 131 134 135 137 137 131 134 131 133 132 134 133 136 131 130 129 
179 137 97 60 46 26 20 16 14 23 52 78 151 149 75 25 22 21 27 30 29 38 36 29 33 35 31 27 28 23 20 21 29 25 19 18 28 77 115 123 115 110 123 141 149 149 145 146 145 142 143 142 143 142 140 136 135 134 133 134 134 129 127 128 126 127 130 129 127 125 129 127 125 129 132 130 133 130 133 129 133 132 130 130 127 
186 150 106 67 58 38 22 17 14 16 59 61 149 152 70 32 35 17 28 33 31 34 33 37 37 40 34 23 24 24 27 27 30 21 16 29 61 100 119 116 111 112 125 145 147 145 143 143 144 146 142 143 149 148 142 143 144 142 140 134 136 137 132 128 124 125 128 130 125 126 122 124 124 121 124 126 126 132 129 132 133 136 131 130 127 
188 165 116 71 57 38 20 12 16 18 45 49 139 155 89 37 28 21 25 30 28 29 33 40 40 36 32 24 18 23 23 26 28 20 18 29 77 107 119 113 110 114 131 144 145 146 142 141 142 142 141 143 145 148 147 144 147 148 141 138 135 137 133 132 127 129 130 131 125 125 125 125 121 120 120 122 125 124 124 132 134 129 129 129 129 
193 168 122 74 55 36 17 13 17 19 41 46 123 158 100 43 37 25 35 41 33 37 33 38 40 37 28 26 28 26 23 28 22 22 20 43 90 116 116 108 104 122 136 144 143 145 145 144 141 143 142 145 142 147 148 150 147 150 147 141 140 139 136 132 129 131 128 130 125 124 125 122 124 122 123 123 120 122 122 125 125 128 126 126 129 
191 172 130 78 44 27 16 12 15 15 29 33 120 163 112 43 44 29 43 42 31 31 36 36 41 31 24 22 28 25 26 33 23 19 31 64 98 114 114 108 110 128 140 143 145 143 145 143 144 141 141 143 145 145 146 146 151 148 145 145 141 138 138 140 135 133 131 132 127 127 125 124 125 123 121 122 123 121 118 121 122 120 119 124 123 
179 154 118 67 29 20 20 11 12 15 28 39 102 165 124 50 32 32 38 34 40 36 41 48 48 33 23 21 26 24 26 29 22 23 33 78 109 116 111 104 114 133 141 143 141 138 141 142 139 141 142 142 138 143 144 144 145 146 146 144 138 137 137 138 136 138 133 133 133 131 129 128 128 128 128 125 123 121 122 122 123 120 120 117 116 
145 117 82 51 28 20 14 11 13 13 31 46 74 170 128 76 28 25 44 36 34 30 39 45 37 26 21 22 22 29 27 25 19 23 46 87 112 118 111 102 122 138 144 141 141 140 138 139 139 140 138 139 140 139 138 141 144 144 141 145 144 137 134 134 140 137 138 137 137 134 132 131 134 127 130 126 122 123 121 120 119 119 119 119 115 
87 74 59 40 27 24 12 12 16 19 28 35 61 165 137 89 27 23 34 39 41 35 39 34 30 32 28 23 25 24 34 25 23 23 57 99 115 112 106 108 128 140 146 143 137 140 138 138 138 138 136 139 136 136 137 139 138 140 141 142 141 136 134 135 135 138 135 135 134 137 135 138 133 135 130 130 125 124 123 122 125 119 119 113 111 
49 56 70 66 63 49 21 18 18 16 23 36 59 164 132 101 38 29 29 49 45 38 43 36 28 20 27 24 21 23 33 28 26 28 69 111 116 108 104 116 132 142 141 142 139 139 138 137 138 139 138 138 136 135 135 138 139 140 140 141 140 135 138 136 134 136 137 136 139 136 136 137 138 137 135 132 129 129 124 124 123 120 117 114 115 
85 86 100 75 67 52 29 26 15 16 18 38 47 157 134 97 45 23 27 50 30 34 40 40 28 24 27 24 27 27 30 30 30 35 82 113 115 107 106 125 138 141 143 139 139 140 137 136 136 137 137 135 134 137 135 134 138 137 139 140 137 136 136 135 134 134 136 135 139 138 136 137 138 134 134 132 133 132 130 128 125 120 117 113 113 
56 72 64 48 47 39 32 39 19 19 22 44 43 153 138 94 65 20 23 46 32 40 40 34 23 22 22 25 27 29 27 21 32 51 98 114 113 103 107 128 139 141 137 137 135 134 137 134 135 135 136 135 134 135 135 137 136 139 140 139 138 136 136 136 134 134 134 134 131 136 138 139 139 137 139 134 129 131 134 133 127 124 118 117 117 
23 30 31 33 38 32 43 20 18 11 21 48 37 151 144 87 70 27 22 50 34 39 34 27 24 22 21 24 23 27 24 15 30 72 112 119 113 103 117 133 141 141 139 138 137 133 134 134 138 137 135 134 132 131 135 136 136 138 136 137 137 134 133 133 132 134 135 138 134 136 137 136 137 136 134 130 128 126 129 128 125 125 122 118 119 
18 24 28 26 28 35 33 14 18 12 14 50 30 147 152 93 69 46 21 44 40 35 37 27 19 23 25 23 26 30 25 12 26 84 116 115 108 107 121 136 138 139 138 138 137 134 136 133 130 136 136 135 134 136 135 135 137 137 137 138 139 132 134 133 136 131 135 133 133 134 134 134 136 135 133 132 127 128 124 127 125 124 122 119 117 
20 21 31 32 26 27 20 18 17 14 21 41 28 137 152 91 71 44 34 41 38 36 30 21 21 24 23 24 26 31 23 15 35 94 121 114 110 115 133 141 140 139 136 135 134 130 135 132 132 132 134 131 135 137 132 131 134 135 135 135 135 132 135 133 134 135 132 134 132 130 134 132 133 132 128 126 127 123 125 122 122 120 120 120 118 
20 13 19 26 26 25 15 22 20 13 20 46 23 133 161 95 65 38 32 46 45 33 28 20 18 22 22 24 29 24 23 23 58 106 120 117 111 123 137 142 136 139 137 133 135 132 131 130 130 133 130 131 131 137 131 131 135 138 134 131 134 132 133 132 136 134 131 132 133 130 130 132 132 128 126 124 124 122 121 116 117 118 119 115 116 
41 17 13 24 23 26 19 20 19 11 25 45 18 129 157 93 65 56 40 52 37 37 30 18 20 21 31 30 22 20 20 33 80 114 122 115 112 127 138 139 137 135 137 135 136 129 135 133 131 132 130 131 132 133 131 131 133 129 131 133 134 134 133 132 131 134 132 131 129 128 130 133 130 125 124 122 120 118 116 118 112 116 115 113 114 
57 28 18 25 17 22 20 18 30 21 24 51 18 132 156 110 52 68 42 59 34 33 26 20 25 25 22 26 18 20 30 47 94 118 116 115 114 131 140 137 137 135 136 137 133 132 130 130 130 131 133 131 128 130 130 132 130 130 130 131 128 133 132 131 131 131 127 129 126 126 128 127 125 125 122 121 122 118 115 110 113 111 110 108 110 
65 32 14 14 12 18 18 18 17 16 29 51 17 124 161 120 50 70 46 64 30 35 22 20 25 26 28 27 23 25 24 63 106 119 116 110 121 132 140 136 138 137 135 138 131 132 132 132 131 130 128 129 131 132 131 134 130 131 136 132 131 130 131 128 128 126 129 131 125 126 125 125 121 123 117 120 117 111 109 110 105 109 111 121 129 
59 28 19 16 16 18 16 16 15 15 41 49 22 117 160 123 48 64 53 59 31 29 23 28 26 23 36 24 19 19 25 77 114 121 117 115 127 137 140 137 135 133 133 135 130 133 128 132 130 131 132 131 128 131 128 132 133 129 130 129 132 130 129 131 128 124 128 127 125 129 123 126 120 115 116 116 113 109 110 108 114 121 131 138 147 
57 27 24 22 16 23 25 17 29 21 44 43 24 99 163 131 55 62 61 59 38 21 24 25 20 21 29 27 24 18 40 90 117 115 113 115 131 141 137 137 135 135 134 132 132 131 130 130 130 132 144 133 131 133 131 133 135 135 133 131 131 129 129 130 128 127 128 123 123 121 121 120 119 121 113 113 110 107 116 126 134 143 150 157 162 
42 15 35 33 24 26 23 24 34 26 49 42 25 99 157 144 70 59 72 36 34 28 17 22 18 22 28 30 17 27 55 102 119 115 110 122 136 140 135 133 137 134 131 133 131 131 126 131 131 134 139 147 131 133 129 132 134 134 129 130 127 128 127 125 125 124 121 124 121 120 116 118 120 115 113 110 115 124 141 147 152 163 166 170 173 
27 28 56 45 24 25 24 19 34 26 48 35 21 92 148 147 86 51 67 43 36 20 24 24 22 21 35 26 24 59 75 106 116 109 111 124 138 138 134 136 135 134 129 131 130 127 128 130 129 134 140 145 131 131 130 132 133 135 134 130 129 125 125 125 123 119 117 120 120 115 112 117 116 116 114 123 134 147 158 165 168 172 175 174 176 
54 51 51 41 21 23 17 13 25 31 54 40 24 86 148 156 99 46 71 42 28 22 25 26 16 30 29 24 25 56 93 115 113 108 117 132 141 140 137 134 133 133 132 132 133 131 132 129 127 130 131 129 130 133 128 128 130 133 130 130 128 125 123 124 121 120 119 116 114 114 115 113 114 122 135 145 157 165 171 172 179 178 179 176 176 
62 64 61 47 21 25 13 16 19 26 45 39 20 86 142 164 109 49 63 36 23 24 21 16 19 40 27 19 20 62 106 113 109 104 120 138 141 137 136 132 134 131 132 128 131 129 133 131 132 132 128 129 130 130 131 129 129 130 131 127 126 126 122 126 120 118 120 117 114 116 111 112 126 141 154 165 173 176 179 180 180 179 180 179 176 
72 73 66 49 26 31 13 19 23 30 41 36 22 82 141 160 112 49 50 35 23 28 26 22 24 39 23 16 24 73 112 112 109 108 125 137 136 137 135 129 134 134 131 128 127 131 133 130 128 129 128 128 129 129 129 130 131 132 125 122 125 122 121 119 121 122 116 114 114 109 116 130 151 165 173 177 182 182 181 181 179 178 178 179 177 
82 79 73 56 29 30 15 20 23 34 43 38 21 77 141 166 119 55 53 40 24 26 21 14 24 28 20 18 32 87 115 113 110 113 127 137 138 133 136 136 129 131 129 130 129 131 131 130 129 131 132 129 128 129 129 127 128 129 126 124 124 123 120 121 119 121 113 110 109 113 136 155 171 181 183 184 184 184 182 181 181 178 178 178 179 
82 76 71 59 27 27 19 22 26 35 37 30 17 70 142 164 130 51 47 33 18 31 20 15 26 27 17 16 43 95 112 109 110 118 136 139 134 135 136 132 131 130 130 129 128 130 127 134 132 131 130 126 128 130 128 126 125 128 125 124 123 120 123 122 119 115 112 111 114 140 159 171 181 187 187 186 185 181 180 181 179 178 179 179 177 
86 83 77 60 34 23 17 19 32 25 45 30 11 63 141 164 135 60 38 31 16 30 23 18 27 24 18 23 63 102 117 110 109 124 138 140 138 133 135 132 131 128 128 131 132 130 130 130 130 129 128 127 130 126 127 125 125 123 123 120 121 120 116 117 115 114 112 115 139 158 173 181 187 189 188 187 184 182 182 179 177 176 178 180 180 
87 84 80 67 35 26 21 24 31 33 44 22 10 57 137 157 138 70 33 18 12 34 15 24 29 21 19 26 79 112 114 110 109 134 140 138 136 135 136 131 133 131 133 132 130 130 135 131 130 133 130 130 129 127 128 124 126 125 124 121 119 117 119 114 114 113 114 136 155 173 182 188 189 189 188 185 184 182 180 179 178 179 182 180 181 
91 84 81 63 31 29 18 31 36 33 47 22 16 44 137 155 141 92 34 24 17 26 17 25 26 18 17 41 91 117 113 109 118 133 141 139 136 136 132 134 136 129 129 130 130 131 127 127 136 130 129 124 126 126 125 125 126 123 122 121 118 116 115 112 112 112 129 153 172 181 185 188 187 187 186 185 185 182 182 180 179 181 183 182 184 
90 87 82 64 26 29 20 30 29 39 50 23 14 41 134 147 132 115 25 18 13 19 15 25 24 15 15 53 100 114 115 110 122 137 142 137 137 136 134 135 136 132 131 132 133 129 130 129 129 128 128 128 126 124 125 129 124 121 125 123 120 116 115 110 113 120 147 170 179 183 185 185 186 186 188 185 186 184 183 181 182 183 185 188 191 
91 88 77 56 27 28 19 29 23 36 57 22 12 32 129 148 111 133 30 15 12 17 33 25 22 20 18 69 108 121 116 112 131 142 143 138 135 132 135 136 135 131 127 130 130 127 128 126 127 125 128 128 127 123 125 124 128 123 121 121 116 114 111 107 113 141 163 177 184 184 184 184 184 185 185 185 182 185 184 183 186 187 190 192 193 
92 89 74 49 27 25 19 28 24 35 57 16 9 28 128 147 113 140 38 16 20 20 38 26 22 16 28 79 110 115 113 120 136 143 140 136 134 131 135 133 132 133 130 127 127 129 129 129 126 126 128 124 128 125 125 121 125 123 120 120 117 113 109 104 128 155 175 183 188 186 182 182 181 185 186 184 185 185 186 187 190 192 197 195 197 
90 86 75 43 30 21 22 21 20 33 56 16 9 21 130 155 118 140 62 16 9 17 41 31 27 20 42 96 115 115 112 135 152 147 140 136 135 134 135 137 131 132 128 130 129 128 125 125 124 127 128 124 124 125 120 124 120 121 120 116 111 110 106 116 144 170 179 185 186 184 184 185 183 185 184 186 185 187 192 192 196 197 198 198 197 
90 85 68 38 23 16 26 19 27 40 55 15 10 16 120 154 119 132 86 26 11 17 35 28 28 19 56 105 115 113 110 132 153 149 136 135 135 135 134 132 133 130 134 127 127 128 126 125 127 127 125 124 123 121 124 123 123 122 119 114 112 108 110 134 161 176 184 186 186 182 183 181 181 184 183 185 187 192 196 198 199 198 198 197 195 
92 84 63 32 23 22 28 28 27 42 58 13 7 12 107 146 116 126 94 33 12 21 30 29 17 22 80 111 115 113 120 141 140 144 137 136 138 133 132 135 131 130 129 127 127 127 127 124 125 124 125 123 123 127 122 119 124 118 116 115 110 111 123 149 171 183 186 185 183 181 184 181 183 184 186 189 192 196 199 202 202 199 197 194 195 
88 83 52 30 14 18 27 36 29 40 59 12 11 17 95 147 115 132 103 39 10 25 29 23 15 42 89 117 114 111 123 142 141 142 142 135 137 136 136 133 134 132 132 129 128 130 125 126 126 126 124 122 122 124 120 118 122 117 118 114 106 111 138 166 181 185 187 186 183 181 182 182 183 187 190 194 198 199 203 203 202 201 197 193 194 
90 72 47 27 20 23 22 34 39 45 59 14 8 15 78 142 129 132 112 37 6 23 23 20 15 53 101 118 113 112 131 140 140 141 136 135 133 131 132 135 133 130 132 131 129 130 127 127 128 128 126 125 123 123 120 118 117 119 113 111 107 124 152 176 183 187 185 184 181 182 182 184 185 191 194 198 200 202 203 203 203 199 197 194 194 
84 70 45 16 17 26 20 35 36 45 53 13 5 16 68 138 139 126 118 42 10 28 18 22 22 68 109 116 111 116 131 142 140 140 138 133 123 133 135 134 132 133 129 131 133 129 125 127 130 126 124 125 124 120 118 117 121 116 115 110 113 137 167 180 186 186 184 183 183 184 182 185 187 195 200 201 201 202 202 201 202 200 199 198 196 
84 62 30 17 20 22 30 39 38 43 47 21 6 13 56 134 140 123 120 55 18 20 15 17 37 82 116 115 113 117 138 140 138 139 135 135 130 132 131 132 130 134 135 133 129 127 129 128 130 128 124 126 124 125 123 116 121 115 109 109 126 158 176 185 187 186 184 182 182 183 184 189 195 198 202 203 202 199 201 199 200 201 201 200 198 
84 58 18 17 21 24 18 33 41 45 39 26 7 13 45 124 140 124 129 81 23 18 13 14 49 95 119 119 114 122 143 140 137 136 134 134 134 130 132 129 126 128 130 130 129 128 129 127 128 128 126 124 124 122 120 118 116 111 109 115 141 168 183 188 186 184 185 184 184 183 189 194 198 203 202 202 201 198 197 200 200 201 201 201 200 
77 37 20 18 20 28 23 36 46 43 43 24 7 12 27 118 146 133 132 92 25 18 13 16 70 105 123 121 116 127 141 137 136 133 133 133 130 129 129 133 128 129 131 129 129 134 130 130 128 129 126 126 132 124 119 117 113 108 109 122 151 178 185 189 186 183 183 184 184 187 192 195 200 202 202 200 200 196 198 199 200 200 203 201 200 
66 25 15 18 19 22 25 35 41 43 38 23 11 18 19 108 148 133 124 98 35 15 11 15 80 114 120 121 115 134 140 139 136 135 136 134 129 129 130 129 129 130 129 128 126 127 131 126 128 129 125 124 124 124 122 114 115 106 111 136 161 181 187 187 187 185 183 184 184 189 195 199 201 200 201 200 198 197 199 199 201 202 201 203 201 
38 17 17 20 22 27 24 30 47 33 38 16 16 15 13 94 146 146 120 100 36 18 12 22 86 122 124 117 122 139 141 139 136 133 132 133 132 128 133 131 130 130 133 131 131 128 127 131 127 128 126 126 124 119 118 116 112 108 116 149 170 183 188 185 183 182 182 185 189 194 196 198 198 200 199 198 201 200 199 200 200 204 203 202 201 
22 17 20 21 27 30 30 37 48 30 40 19 22 13 10 86 140 146 110 110 48 20 19 44 99 126 123 120 126 140 139 136 134 135 135 132 128 130 130 127 128 129 128 129 124 122 125 129 125 123 122 123 124 121 121 113 112 107 124 153 174 183 187 187 185 186 185 189 194 197 199 199 197 198 198 200 203 201 202 203 203 203 205 203 201 
22 20 21 21 26 23 28 39 40 38 41 19 23 19 7 63 141 148 102 122 50 14 31 59 110 125 120 118 129 137 137 136 133 132 132 130 130 130 128 128 128 132 129 128 127 127 126 124 123 123 124 127 122 119 119 114 112 112 131 161 179 185 188 186 187 186 188 191 197 198 199 200 198 199 200 201 203 205 203 203 204 204 205 202 200 
22 29 27 19 30 26 32 43 45 38 44 16 21 22 8 44 135 147 111 126 64 14 35 79 119 124 123 123 131 140 139 138 135 134 130 129 129 129 130 129 132 131 126 129 128 128 127 125 127 124 125 121 120 121 118 115 109 116 141 165 183 186 186 186 186 186 190 195 201 199 200 201 201 202 201 200 204 205 204 203 204 203 202 200 199 
22 26 24 24 29 27 30 56 49 40 41 19 23 16 10 30 131 151 107 123 71 23 35 96 120 123 119 123 138 139 138 133 133 134 131 131 131 129 127 127 130 130 129 128 128 127 124 127 127 124 121 122 122 123 116 112 110 121 148 173 184 186 187 185 186 189 195 196 201 201 199 199 201 200 200 202 205 205 204 203 205 203 200 200 200 
20 26 23 23 31 32 36 62 45 52 36 26 36 18 12 21 118 153 106 117 67 26 46 108 123 120 123 128 140 137 134 136 136 132 129 131 132 130 129 128 127 128 130 131 127 126 127 127 124 126 126 121 120 118 114 114 111 124 155 177 185 184 186 186 188 192 196 199 202 200 199 200 199 199 200 202 204 203 204 204 206 202 202 201 202 
22 22 20 26 29 38 32 70 37 58 36 25 40 18 12 13 105 152 106 117 61 39 65 113 121 120 119 131 139 135 134 133 135 135 130 132 132 128 128 127 126 127 128 129 127 124 125 124 128 124 123 123 122 120 112 112 112 133 157 176 185 185 185 186 188 194 198 202 201 201 201 198 198 201 202 202 203 204 204 205 203 203 203 204 205 
25 26 25 27 41 38 37 64 38 49 34 31 35 29 15 16 86 152 119 120 62 55 86 118 124 117 124 130 140 134 137 135 135 131 130 130 130 130 128 129 128 129 128 123 126 126 127 126 127 125 125 119 118 120 114 109 113 137 164 181 187 185 185 188 193 198 202 202 202 200 200 198 198 200 201 202 202 203 203 205 203 207 203 206 204 
21 22 22 24 40 35 43 58 36 49 33 31 29 17 11 10 64 145 129 117 58 78 93 119 122 114 125 136 137 134 134 134 132 131 130 130 130 128 129 127 127 126 123 124 124 126 126 125 124 128 124 119 122 120 114 110 116 144 166 183 185 187 186 191 196 200 202 203 201 199 200 199 199 200 203 202 201 203 204 206 205 205 205 206 204 
24 25 21 29 40 37 47 55 38 46 29 39 25 21 12 12 61 135 124 108 61 86 98 118 122 118 126 136 134 133 136 134 132 130 129 128 127 127 126 128 131 129 127 122 124 126 120 125 125 125 125 122 120 119 114 108 115 145 173 184 185 185 188 194 200 203 202 201 201 198 200 201 201 200 203 200 202 203 205 206 205 204 205 204 204 
