P2
85 85
255
137 136 133 136 138 134 134 132 132 138 129 131 132 127 129 129 130 131 138 138 142 146 151 151 149 148 143 134 119 118 90 80 64 62 61 69 71 73 73 74 78 74 76 79 76 75 78 76 78 78 74 74 79 83 83 88 83 90 93 91 96 94 91 102 98 101 97 97 107 102 100 97 97 96 103 99 99 97 104 104 98 101 102 103 101 
137 136 133 136 138 134 134 132 132 138 129 131 132 127 129 129 130 131 138 138 142 146 151 151 149 148 143 134 119 118 90 80 64 62 61 69 71 73 73 74 78 74 76 79 76 75 78 76 78 78 74 74 79 83 83 88 83 90 93 91 96 94 91 102 98 101 97 97 107 102 100 97 97 96 103 99 99 97 104 104 98 101 102 103 101 
138 133 134 134 136 132 130 130 131 134 128 127 131 128 128 130 130 128 136 138 142 146 150 150 149 148 143 132 119 111 88 78 65 61 60 66 70 69 73 74 75 74 73 76 73 73 76 73 76 76 74 74 79 80 84 87 85 89 92 91 93 94 90 97 99 99 99 97 104 99 101 99 97 97 102 99 98 98 104 103 100 103 104 104 101 
133 133 133 130 134 133 128 125 129 128 128 125 129 127 123 130 131 128 132 140 144 145 149 150 150 146 141 131 120 102 90 76 60 55 58 59 62 64 74 76 69 70 69 72 69 71 74 72 70 73 71 75 76 79 86 84 87 91 95 92 94 89 90 95 98 96 101 96 98 99 97 96 98 102 99 99 99 97 98 97 99 101 102 102 101 
129 133 130 130 133 131 132 128 128 131 130 126 129 126 126 130 126 131 137 142 146 146 148 149 149 145 140 127 116 106 87 78 61 57 56 57 64 68 67 68 72 70 67 76 71 74 72 71 71 72 74 75 79 79 80 85 84 89 88 93 93 93 93 97 92 95 95 99 99 98 97 99 99 96 98 97 100 98 98 102 98 99 101 103 101 
131 133 130 122 132 131 130 130 130 128 131 128 125 128 129 126 129 131 138 142 145 146 150 148 148 144 142 125 110 102 91 74 59 56 55 60 64 65 64 71 66 71 70 71 73 73 67 71 73 67 73 74 78 79 81 86 87 90 92 92 90 93 90 98 93 98 95 97 96 96 95 101 100 99 101 96 99 97 96 101 96 100 102 102 98 
131 130 130 130 132 131 128 130 130 130 133 128 128 127 128 129 131 139 140 146 147 147 145 146 144 142 139 126 112 104 85 74 63 55 57 61 59 65 67 73 70 75 74 77 77 70 67 73 67 70 68 74 82 78 81 86 86 85 89 88 92 92 92 92 93 91 94 97 96 98 99 101 100 99 97 97 98 97 98 100 95 98 103 98 98 
131 132 130 130 131 131 130 128 129 130 128 128 127 128 127 132 136 142 144 146 146 147 145 144 142 140 131 126 113 98 87 78 62 60 59 59 62 70 67 69 73 74 75 74 74 71 67 72 75 66 68 74 77 78 80 84 84 86 91 93 94 92 93 98 94 94 97 94 94 97 99 99 97 99 97 97 97 95 98 99 99 99 98 97 97 
129 130 130 127 130 129 130 129 127 129 130 129 125 126 128 137 138 143 145 144 144 142 143 141 142 137 131 124 111 102 87 72 59 55 53 60 57 70 70 63 74 72 72 77 71 70 70 73 68 68 67 69 77 78 81 81 83 87 89 91 92 92 93 94 96 94 95 100 95 97 99 98 97 98 98 98 102 97 95 98 99 102 101 100 98 
129 130 132 129 131 129 132 134 134 134 128 130 128 129 132 137 141 144 143 144 145 142 143 137 142 136 130 122 113 106 94 80 64 56 56 62 63 67 66 66 70 71 76 73 70 72 73 70 68 73 68 75 77 81 85 82 89 87 88 87 93 91 88 96 96 94 95 97 94 97 100 99 98 98 102 99 101 97 97 100 97 97 99 96 97 
130 130 129 128 131 130 133 132 133 131 126 129 127 130 133 139 141 144 140 144 142 140 141 137 137 137 130 124 113 103 94 85 66 61 56 60 62 65 69 69 78 73 70 74 71 73 67 67 75 68 69 70 78 78 81 81 85 86 87 90 92 89 91 92 92 95 96 96 97 97 99 96 95 101 95 98 98 100 97 100 97 97 99 100 97 
131 129 125 130 132 130 131 132 134 131 131 132 127 128 131 137 145 147 143 139 142 141 140 138 134 137 130 123 118 104 96 79 63 56 59 62 65 64 68 70 81 68 70 68 68 72 70 71 69 73 71 72 75 80 77 84 82 89 87 87 90 90 91 91 95 95 95 98 98 95 99 95 99 99 99 96 95 97 96 97 96 99 100 97 98 
129 127 127 130 133 132 132 131 135 129 131 132 130 134 137 142 143 143 145 143 139 138 138 131 135 135 132 125 115 103 89 75 63 54 53 62 60 60 66 74 73 72 72 66 74 74 70 69 69 68 71 75 76 80 76 81 87 90 89 87 90 88 95 94 94 96 90 93 98 99 96 98 94 95 97 98 93 95 96 96 95 96 98 96 93 
128 130 130 129 131 133 133 131 133 134 129 131 132 137 141 142 143 145 143 144 137 135 135 135 135 135 135 125 116 103 83 70 55 56 48 54 60 65 68 71 68 71 72 76 73 73 68 70 70 67 71 74 76 73 80 82 87 89 85 90 90 93 88 97 94 97 94 93 93 94 96 97 94 94 95 95 95 98 97 98 97 99 96 93 92 
131 132 132 132 131 131 133 131 132 134 132 133 135 141 144 148 148 145 144 139 134 134 132 134 138 137 134 127 115 102 87 73 60 53 50 59 66 62 68 71 68 72 73 71 75 70 75 70 72 68 72 75 74 75 82 83 83 88 89 89 89 92 92 96 95 94 93 93 96 93 95 95 92 97 96 96 97 99 92 98 97 97 97 99 97 
131 133 132 132 133 132 135 135 135 134 135 139 140 143 143 147 146 144 142 137 134 133 129 134 135 137 137 128 114 102 88 75 60 57 52 59 63 66 66 70 75 76 77 68 75 70 69 70 73 68 73 73 74 75 78 83 84 87 91 91 91 92 92 90 95 92 95 94 96 95 95 93 94 92 96 95 96 98 97 95 95 100 94 98 99 
129 131 132 129 132 133 134 135 135 137 134 139 143 148 148 148 146 144 144 137 135 134 133 133 136 136 135 126 118 104 91 72 60 57 57 63 62 65 65 68 71 72 75 75 78 70 66 67 69 68 71 70 74 77 79 80 84 84 89 90 92 86 91 92 94 94 98 90 95 94 96 95 93 93 93 96 96 95 96 96 95 96 96 97 98 
135 133 133 131 132 137 137 135 135 138 140 141 146 143 145 144 143 143 144 135 134 134 132 134 135 139 134 125 114 101 85 72 61 53 59 59 65 65 64 73 70 71 72 73 70 70 72 69 67 66 67 69 76 79 79 82 83 83 87 86 90 89 92 91 91 92 95 94 94 92 96 95 94 96 90 93 88 94 96 99 97 94 94 90 95 
132 133 132 135 138 141 136 137 139 140 144 146 145 144 143 145 144 141 138 133 129 132 134 133 134 134 133 124 112 100 91 72 59 52 52 57 64 63 66 68 70 67 69 69 71 71 69 68 67 73 73 70 76 78 81 80 87 82 88 85 85 87 94 90 86 94 95 94 93 92 98 95 92 91 88 94 87 93 92 95 92 91 96 92 94 
136 135 136 134 134 135 135 137 139 143 145 144 142 141 141 137 140 139 137 135 132 132 137 135 135 136 132 125 112 105 87 70 54 47 50 56 63 65 67 68 71 75 66 70 70 68 70 71 71 70 66 69 75 78 81 83 83 83 89 85 86 86 87 94 92 91 92 95 91 93 95 93 92 91 86 92 96 95 93 96 97 93 96 93 90 
138 138 138 134 135 139 136 139 141 145 146 142 141 136 135 140 139 136 136 133 134 133 135 135 136 136 130 125 112 98 85 65 58 47 50 59 57 65 71 73 70 65 66 68 69 68 69 69 67 69 71 69 70 77 80 81 85 87 86 89 88 91 91 87 93 86 88 93 93 92 92 94 91 90 89 90 88 91 93 91 94 94 94 93 92 
133 135 137 135 134 136 136 142 145 147 143 136 135 134 131 134 132 130 134 135 135 131 134 134 134 136 134 122 112 103 89 68 55 49 51 57 59 67 68 69 67 72 72 71 71 76 64 73 67 67 72 69 73 76 77 81 85 88 89 84 84 90 91 91 92 89 88 90 90 92 96 88 90 92 88 94 94 95 93 94 92 91 91 92 90 
137 132 138 135 135 135 139 146 150 146 138 131 128 130 127 130 128 130 134 139 135 135 133 133 138 136 133 124 117 98 86 68 61 47 51 61 61 65 67 68 69 69 71 69 65 72 71 69 70 70 69 71 76 73 79 84 82 85 86 86 87 92 93 90 92 93 91 91 92 94 89 91 90 91 94 94 93 95 98 91 94 92 91 90 95 
139 136 138 134 133 138 139 145 144 136 134 128 124 125 121 121 124 127 136 138 140 137 133 139 136 136 131 126 116 105 91 71 58 51 50 59 61 61 67 69 70 71 75 76 71 69 70 70 69 69 71 70 79 78 82 81 84 87 86 89 86 89 89 88 91 90 92 93 91 92 93 91 90 93 94 97 92 90 95 94 95 93 89 92 92 
138 136 137 136 132 137 146 148 149 137 129 125 119 119 116 120 119 128 138 137 136 134 134 134 139 138 131 125 114 101 93 72 60 54 49 57 60 61 64 66 69 69 70 74 70 69 71 69 66 68 70 70 79 80 78 75 81 85 88 85 89 89 92 90 93 90 91 94 92 93 91 94 90 91 93 92 93 99 91 92 93 90 93 92 94 
136 135 133 133 135 141 147 147 145 134 127 116 115 112 110 112 117 129 138 142 138 137 136 136 137 138 131 126 115 102 90 69 57 50 54 57 58 61 62 66 70 69 72 68 68 68 70 71 72 68 70 74 76 78 79 81 83 89 87 88 86 86 92 90 95 90 91 91 90 95 92 91 92 101 95 94 95 94 93 93 97 92 93 88 92 
135 132 135 136 138 144 146 146 138 127 120 114 108 105 109 107 118 129 138 140 141 135 136 137 141 137 134 124 114 102 87 69 56 50 50 53 60 56 66 67 71 70 69 73 68 75 68 67 70 70 73 71 71 77 80 81 83 86 88 89 85 87 90 89 93 93 92 89 89 90 92 94 95 95 93 95 90 96 95 94 94 96 94 92 93 
132 136 134 139 143 144 145 142 134 128 115 108 95 93 101 108 117 133 137 139 139 137 137 137 141 138 134 127 113 105 86 69 54 45 54 53 58 59 62 64 67 70 64 66 70 70 70 69 73 67 69 73 77 81 86 82 83 86 83 87 90 89 89 90 90 91 94 90 90 89 94 97 97 95 91 91 91 92 94 89 92 88 93 85 91 
132 133 135 140 147 149 144 137 127 120 108 99 88 91 96 111 122 131 139 141 141 138 139 142 141 140 135 129 117 102 90 66 54 44 46 51 53 58 62 62 64 65 67 64 68 69 69 66 69 73 72 69 72 77 83 78 84 83 85 86 89 85 92 87 92 87 89 88 91 90 96 89 90 89 94 90 95 93 95 92 92 87 89 88 93 
135 137 140 143 150 147 138 131 121 113 99 86 83 82 100 118 126 134 140 140 142 142 138 138 139 138 132 125 118 104 85 66 52 42 46 50 64 62 64 62 62 64 66 70 63 67 67 63 63 74 74 70 73 79 78 81 84 84 84 85 87 88 86 89 89 89 87 87 87 92 93 91 93 93 90 92 92 93 90 90 88 84 97 89 107 
135 137 146 148 148 144 134 128 121 105 87 74 68 79 96 113 124 134 140 144 140 141 138 141 136 140 133 131 116 107 90 67 53 50 46 52 58 55 61 67 69 70 65 65 65 67 65 67 69 69 72 72 75 74 77 76 84 83 85 82 87 90 85 87 84 86 92 88 89 86 91 91 89 92 90 93 94 91 85 88 83 101 154 121 128 
137 141 146 151 146 138 130 120 112 94 74 64 64 85 99 117 126 134 143 143 142 142 142 138 140 139 134 126 118 101 88 70 53 43 47 50 55 54 58 60 61 63 63 62 65 65 66 70 67 67 69 69 73 76 77 80 81 83 79 83 86 89 88 84 88 86 90 87 89 89 88 91 90 90 90 87 88 89 88 119 97 95 97 109 107 
141 147 155 150 144 132 127 118 105 81 66 50 56 81 98 115 127 134 141 142 143 142 141 140 140 138 138 125 117 102 86 67 51 43 45 49 48 51 57 63 63 63 60 66 65 67 67 66 70 69 69 71 72 77 70 79 82 81 84 82 85 83 84 82 90 87 91 89 87 87 94 90 90 86 90 86 88 86 102 154 77 86 94 92 95 
146 152 155 148 138 130 119 113 95 74 57 43 61 81 101 115 126 139 142 143 142 143 144 137 137 138 133 121 114 102 86 70 50 44 41 46 51 56 62 59 58 62 63 62 63 67 65 68 68 68 72 66 71 69 67 78 78 80 80 81 85 81 80 84 95 89 88 91 90 90 89 86 89 90 90 88 80 88 156 110 58 78 92 90 96 
147 150 149 141 133 125 116 99 84 59 41 42 59 81 98 111 124 140 140 145 142 137 141 138 138 137 131 124 109 98 84 67 52 40 40 49 54 57 60 63 60 66 67 64 64 68 66 67 71 66 68 69 72 75 75 78 79 79 78 79 81 82 85 83 87 86 85 85 89 89 86 93 89 90 90 87 91 87 116 82 73 79 85 85 94 
149 147 146 139 131 120 108 89 70 45 41 48 63 82 99 111 121 136 142 145 144 137 140 141 140 139 130 122 108 101 85 69 47 40 39 50 56 51 59 64 70 72 71 72 66 71 67 65 69 68 72 67 75 74 73 78 82 84 74 77 82 82 84 85 85 85 84 85 87 87 91 90 89 86 90 88 90 112 78 77 82 75 85 87 86 
148 148 144 133 126 114 98 84 58 45 40 51 65 80 97 112 123 135 143 145 145 142 142 138 136 134 132 122 111 102 84 66 44 44 39 49 53 58 61 63 67 68 65 75 67 67 61 66 64 69 63 69 71 75 76 75 80 77 83 84 82 81 83 82 88 85 84 85 87 84 89 87 89 85 86 83 111 99 76 80 83 85 82 80 77 
149 146 137 130 120 107 86 68 48 44 42 51 65 86 99 109 127 137 143 145 143 142 141 138 139 137 131 120 113 98 86 67 44 41 42 50 53 58 63 61 66 64 68 71 67 71 66 68 65 66 67 69 72 72 77 75 81 79 79 80 78 79 83 86 86 84 85 85 88 88 89 88 89 87 86 101 167 80 77 83 80 78 77 75 79 
144 139 134 125 113 96 76 53 57 50 43 52 67 85 99 112 123 138 141 143 142 144 142 138 136 134 132 123 115 97 85 63 44 42 41 49 51 51 63 62 70 63 62 63 64 68 66 67 68 69 68 69 71 73 76 78 77 78 83 84 80 81 82 90 85 82 88 83 88 86 83 87 92 88 84 119 109 78 81 78 73 74 73 80 81 
140 135 126 118 105 86 63 45 50 54 49 47 64 83 97 113 124 133 142 143 146 144 145 140 137 134 133 126 113 102 83 68 50 39 46 49 57 52 63 69 72 66 64 68 69 65 68 65 69 66 68 71 70 73 78 80 83 85 84 78 79 79 85 80 88 84 86 86 88 85 86 85 87 85 91 119 85 82 76 73 70 75 75 84 87 
133 133 121 109 93 77 58 45 50 51 52 50 69 87 100 115 124 135 138 143 144 142 144 141 140 138 132 123 112 97 81 63 53 42 38 49 51 56 59 62 62 63 64 63 69 69 64 69 69 68 67 69 73 76 77 76 77 80 82 80 80 86 87 90 87 86 92 86 91 87 83 84 90 89 103 91 81 75 71 77 74 78 79 83 93 
135 127 116 99 81 63 46 48 52 51 48 52 66 84 100 113 124 133 139 146 143 143 145 141 140 134 130 121 109 97 79 62 48 42 42 50 54 58 61 62 60 70 68 67 67 67 66 65 65 68 72 72 72 74 77 79 79 78 82 81 80 82 83 88 86 84 90 87 87 84 89 87 90 92 93 81 73 76 77 76 77 83 85 90 87 
124 121 108 90 69 53 46 52 52 52 53 55 68 83 97 113 124 132 141 144 146 145 142 143 140 135 127 121 109 96 76 76 53 42 43 50 53 56 63 63 63 66 63 66 67 63 76 71 67 69 65 71 66 74 78 79 80 83 81 81 82 85 82 88 84 87 87 86 90 86 93 89 91 96 80 72 76 72 75 76 78 88 86 85 83 
117 113 96 75 55 45 54 53 58 57 48 59 66 84 100 111 123 136 142 143 144 143 141 140 142 138 130 122 109 97 83 69 53 44 50 51 58 56 58 60 64 64 67 65 66 70 73 68 66 65 68 68 72 74 75 76 78 80 80 80 80 81 82 85 85 84 85 86 90 89 92 89 93 87 76 70 71 72 80 81 83 87 76 87 95 
113 102 84 62 50 49 55 55 56 52 49 55 69 84 101 115 123 134 140 142 144 141 140 142 144 138 129 120 111 97 81 67 53 44 40 49 50 58 59 64 59 62 63 70 69 70 72 69 69 66 68 69 75 75 75 75 79 79 82 81 83 81 86 86 86 86 88 87 89 88 92 95 81 78 74 74 76 72 80 83 78 79 85 89 89 
101 93 70 54 50 53 56 53 58 54 54 52 69 81 96 113 120 129 137 141 144 142 141 140 138 139 130 121 109 95 79 68 50 40 44 52 58 59 62 64 61 63 68 71 67 71 70 67 68 67 66 72 72 73 73 75 80 80 83 83 80 83 87 90 89 87 80 90 86 87 94 88 74 77 70 75 79 75 80 81 77 91 92 82 88 
90 81 61 49 53 56 63 55 58 53 56 54 62 84 94 114 122 132 138 139 143 145 140 138 139 137 133 122 108 94 81 63 54 43 43 56 55 60 63 65 65 59 62 68 64 64 67 63 64 65 69 72 72 70 73 81 79 79 83 82 82 84 85 85 83 91 86 86 89 90 90 77 74 74 75 77 81 80 79 77 87 87 86 87 86 
82 67 49 50 54 61 62 57 56 57 49 52 64 81 99 113 120 128 137 139 145 143 141 143 140 135 131 124 110 96 78 64 51 42 49 52 59 66 65 66 70 65 65 66 65 67 67 67 69 67 66 73 71 71 74 77 81 79 82 84 81 83 84 84 85 85 89 90 90 93 84 84 74 72 78 83 80 76 84 81 87 84 86 84 74 
67 57 50 53 53 57 58 59 57 54 49 56 61 80 98 109 119 131 135 140 141 142 143 140 138 138 130 125 109 101 82 76 50 41 52 53 59 59 66 63 68 69 63 65 64 64 67 68 65 71 69 70 70 69 74 79 78 81 88 85 82 83 81 86 86 86 87 89 97 88 88 81 79 85 72 82 78 78 82 83 88 84 82 79 81 
59 50 53 54 55 59 62 57 59 57 52 52 68 79 93 108 120 129 135 138 142 140 141 139 136 134 132 121 106 94 83 67 55 42 43 42 56 58 63 63 66 67 66 68 63 66 63 65 67 65 70 70 74 73 73 77 79 82 84 82 83 78 84 85 88 86 87 95 101 80 78 76 81 84 79 79 76 82 81 83 86 84 79 88 87 
57 52 55 59 55 57 55 56 60 56 52 54 62 79 93 112 117 131 134 139 142 139 141 140 140 138 133 121 112 97 82 66 52 43 43 47 55 56 61 63 64 70 67 66 67 69 64 70 65 72 72 68 71 72 77 74 77 80 84 82 83 86 83 84 88 83 87 104 95 72 72 72 75 84 79 78 77 77 78 81 84 86 78 87 87 
60 55 56 60 60 58 59 61 58 56 54 57 65 78 97 111 118 129 136 140 142 142 145 141 140 136 130 122 110 94 83 70 60 41 40 48 50 58 61 60 66 63 64 66 66 69 66 68 70 69 64 69 69 74 76 76 78 83 84 85 87 84 86 84 85 86 99 99 82 75 79 69 76 79 82 79 82 78 81 82 78 80 84 85 81 
52 55 58 59 59 60 59 62 59 59 53 61 65 84 97 111 116 130 133 136 142 140 140 138 137 135 130 122 112 97 82 65 59 41 44 47 56 60 63 63 65 61 62 69 72 65 63 66 66 69 67 67 69 73 75 73 77 80 81 84 86 87 85 81 79 92 138 83 71 65 69 69 69 77 82 85 82 75 82 79 84 84 80 82 88 
53 52 58 61 60 58 61 64 61 58 57 59 71 81 99 108 118 130 133 138 138 135 138 142 133 137 131 123 112 101 82 67 54 44 43 47 53 58 60 61 60 62 63 66 70 66 68 63 63 66 68 69 69 71 74 76 79 76 80 85 81 80 80 78 77 132 143 78 65 68 73 68 74 77 77 81 80 76 79 80 80 77 80 80 87 
59 56 58 63 59 62 56 55 58 57 54 52 67 83 95 110 121 130 134 139 142 138 139 137 139 138 135 123 112 99 82 69 60 43 44 51 53 56 60 60 65 68 66 65 67 67 69 66 64 66 69 68 69 71 74 78 82 80 83 82 79 83 79 79 83 168 131 68 61 67 75 72 78 81 76 81 76 79 77 80 76 84 85 88 86 
62 60 57 59 60 56 58 62 60 54 55 54 65 78 96 112 119 129 133 137 140 141 141 135 135 139 136 124 114 101 86 69 52 43 45 49 55 51 59 60 63 65 65 66 69 68 70 69 67 68 68 69 76 77 78 74 80 76 78 82 84 80 73 75 109 187 117 65 66 68 71 75 75 74 76 78 74 80 82 79 89 90 86 88 90 
60 63 58 58 59 62 60 61 58 58 48 52 62 77 99 112 120 129 135 138 140 138 139 138 138 138 137 125 113 98 82 70 52 45 43 50 54 55 61 62 58 61 59 66 65 69 73 66 68 69 70 77 76 71 76 80 74 81 81 81 76 76 72 80 170 175 97 63 73 72 70 70 71 78 72 80 77 80 79 79 82 86 89 82 91 
59 65 57 57 58 56 53 56 52 51 51 50 62 79 94 110 120 127 134 138 142 136 138 136 136 137 136 121 112 100 91 74 55 44 44 47 49 58 60 59 58 62 63 65 66 64 66 66 62 69 71 78 72 75 73 76 74 79 78 77 75 75 69 95 196 158 89 62 70 72 69 71 71 77 77 80 79 76 74 71 78 87 83 91 92 
55 59 58 59 57 59 57 59 61 56 50 52 61 77 91 110 118 128 136 139 141 137 139 139 137 137 133 121 111 99 83 66 57 36 39 45 49 55 54 56 58 59 62 59 63 64 64 62 68 66 68 71 68 72 71 76 75 78 76 78 73 65 66 147 200 139 80 62 72 68 66 74 74 76 82 83 74 78 80 77 81 87 83 79 97 
67 58 58 58 56 54 54 57 55 53 50 52 58 73 95 104 119 128 136 139 137 138 138 137 137 140 134 122 111 100 83 67 47 38 41 46 50 50 55 58 60 60 65 64 62 64 62 60 64 67 67 72 70 72 72 71 72 77 75 77 70 66 77 187 183 124 81 66 63 66 71 72 75 77 76 82 79 80 81 83 85 88 89 89 92 
54 58 55 58 61 61 59 61 61 59 56 49 60 80 95 106 117 128 134 139 141 139 138 138 137 138 132 124 112 95 85 66 46 37 38 42 48 52 58 57 60 66 62 63 63 65 64 65 67 64 65 69 71 70 71 74 75 78 79 74 75 63 101 205 169 141 88 67 66 71 69 75 77 70 79 82 75 82 81 87 83 90 81 97 96 
57 57 59 59 59 59 59 62 63 55 58 53 62 78 91 105 118 127 136 138 142 144 142 142 137 135 132 125 112 98 81 60 50 37 39 40 44 50 59 64 57 63 64 66 66 68 66 63 64 67 64 69 71 73 68 69 75 79 78 77 70 66 135 205 169 117 74 69 63 66 68 76 68 73 82 88 74 79 78 85 83 79 96 92 102 
62 57 60 60 57 59 58 64 60 57 54 51 59 77 90 106 118 126 136 141 143 143 142 141 141 138 131 123 113 98 80 64 45 47 44 46 41 53 57 61 64 66 68 65 64 67 63 65 64 67 64 68 69 70 74 71 75 80 84 86 69 71 177 198 159 110 72 61 66 70 70 70 72 76 79 86 69 75 91 74 85 94 98 101 97 
61 58 61 59 60 60 63 61 62 63 60 53 64 75 93 104 117 126 137 146 143 142 145 140 141 141 130 123 113 98 83 68 48 39 41 44 47 53 58 62 63 67 64 64 66 69 66 67 66 67 68 68 69 72 75 79 76 78 78 80 72 79 189 188 158 110 64 57 63 70 68 73 73 79 80 64 64 87 77 87 91 97 93 97 91 
60 61 63 64 61 65 66 63 64 62 65 61 63 80 93 102 117 130 136 141 145 143 146 143 143 140 135 127 116 101 82 69 52 42 46 45 49 55 58 61 62 62 64 67 66 69 65 63 63 68 72 72 71 72 74 74 77 79 80 70 63 90 207 185 149 123 72 58 71 68 72 76 71 72 62 71 78 85 88 88 92 93 83 94 88 
61 63 62 63 65 64 68 64 64 62 62 61 63 78 89 110 116 127 138 142 145 143 145 143 140 143 135 129 118 101 83 69 51 47 43 47 52 56 61 62 65 67 65 68 66 64 67 67 66 64 69 73 70 71 76 76 77 79 77 73 65 113 205 186 146 95 75 63 71 63 73 71 68 56 73 84 86 78 89 96 84 90 91 82 95 
63 67 66 62 64 68 64 63 62 60 62 56 65 74 95 105 117 128 136 141 140 142 143 146 144 144 139 126 119 103 82 67 51 42 45 46 53 61 63 63 67 67 62 71 69 65 68 74 69 64 68 71 74 75 75 75 82 79 79 70 62 145 201 189 122 92 73 61 61 64 67 66 63 75 79 86 77 91 78 84 97 82 71 90 87 
66 65 65 68 65 66 68 69 65 63 60 62 63 72 92 105 120 128 134 141 143 142 144 140 143 145 138 128 118 104 86 67 50 42 47 48 52 52 62 60 64 65 65 66 66 67 71 71 67 64 64 68 79 73 75 78 75 80 80 68 66 171 201 177 112 82 78 64 61 62 69 71 75 77 72 75 80 65 75 93 78 73 93 92 88 
70 67 66 68 69 63 66 66 66 62 64 59 65 78 92 107 118 128 134 138 142 144 148 146 142 143 140 130 120 105 85 73 50 41 44 47 54 52 59 64 69 70 68 67 67 69 62 72 66 62 64 65 72 71 73 78 76 79 73 64 64 191 201 158 102 83 82 69 60 67 69 72 73 72 66 75 65 74 85 84 86 87 84 88 92 
66 66 70 69 67 66 66 65 68 63 63 65 70 79 92 108 119 123 130 142 141 145 149 147 146 147 147 128 120 102 87 69 48 45 44 48 54 59 60 61 63 64 64 69 69 68 63 69 68 65 63 67 68 72 72 73 77 75 71 60 76 204 188 137 103 98 86 70 72 65 70 73 62 71 65 59 79 78 85 84 72 80 93 93 96 
67 69 65 62 65 63 67 66 69 60 65 63 72 78 95 108 120 126 135 141 143 147 147 150 147 148 144 134 122 106 88 69 51 43 41 48 56 62 57 64 66 68 64 68 67 64 68 68 67 66 65 69 67 72 73 73 71 73 69 60 97 209 190 131 114 93 89 70 70 71 74 65 68 63 63 78 62 78 73 64 82 87 84 89 82 
69 66 66 64 63 64 66 66 70 63 62 64 71 78 95 108 122 132 139 140 147 150 150 148 150 150 147 135 122 105 87 66 50 46 46 51 58 59 60 60 69 64 63 68 66 67 66 64 59 65 67 70 69 74 71 75 71 70 65 54 130 209 179 143 113 94 93 67 71 71 70 75 76 72 69 67 76 79 74 82 82 91 88 79 81 
66 70 66 64 67 68 67 64 69 65 64 61 66 80 93 108 121 133 138 142 146 145 149 151 149 151 146 139 122 109 84 70 53 43 46 50 62 63 56 60 63 68 68 66 64 65 64 65 60 64 70 65 69 69 69 70 71 67 59 57 156 205 181 143 125 104 92 80 65 69 67 73 73 71 69 81 64 80 76 73 89 86 75 84 89 
64 65 67 67 69 64 60 66 68 63 63 65 72 81 96 108 123 129 139 144 149 149 153 153 151 150 145 135 122 107 86 72 51 44 42 45 53 54 58 63 57 65 65 70 63 65 62 63 62 67 62 64 65 68 69 74 70 65 57 60 188 205 171 152 120 104 90 76 72 69 78 75 69 66 73 72 78 80 84 83 83 78 83 88 95 
70 64 65 66 68 57 64 65 68 64 67 65 72 81 93 107 120 133 141 146 149 149 155 151 151 151 146 136 123 106 81 73 53 43 42 47 52 55 61 58 61 60 64 71 66 64 62 66 64 64 67 63 64 68 72 68 66 64 55 70 205 199 174 159 120 121 91 92 76 85 75 67 69 67 74 75 74 80 81 79 87 97 86 92 95 
70 65 62 67 67 64 62 64 62 61 64 63 69 80 92 110 120 129 142 148 150 153 154 150 150 152 144 136 120 104 84 73 50 39 41 46 53 56 61 64 62 64 61 65 63 62 64 65 64 61 63 66 66 69 72 70 65 70 54 76 207 197 167 161 124 112 105 96 92 86 78 82 70 72 70 70 77 75 62 81 83 83 92 89 86 
65 61 64 67 68 67 63 65 64 65 62 61 67 77 92 109 119 133 140 144 152 149 152 148 151 150 146 137 118 106 91 73 52 44 43 46 51 58 62 63 60 65 62 65 63 66 65 64 63 67 63 63 69 68 67 72 67 66 55 84 212 190 172 154 115 122 103 106 81 106 84 77 66 71 66 80 70 71 74 82 88 84 79 80 76 
60 67 70 63 60 63 63 64 64 68 63 63 68 81 92 110 119 133 141 146 151 149 153 150 149 152 145 135 121 108 88 74 55 44 46 52 59 58 61 58 61 67 66 68 64 61 66 67 61 67 62 63 69 68 70 72 67 64 54 92 214 194 168 149 148 126 112 113 97 93 90 71 72 74 67 68 72 81 71 91 92 71 65 71 107 
64 64 64 66 62 64 62 63 61 64 61 63 70 78 96 110 122 133 140 150 151 150 151 152 147 150 145 134 123 105 88 70 50 46 42 51 56 62 63 62 63 63 72 66 66 63 63 66 63 64 62 67 66 67 65 68 66 65 53 86 211 181 166 152 136 138 118 113 109 106 89 81 79 73 50 65 76 67 84 87 82 71 69 99 115 
64 65 61 68 59 64 65 64 63 62 62 65 66 78 97 111 127 134 144 149 147 147 152 149 145 148 141 136 122 107 91 71 54 48 45 46 54 62 62 62 69 67 64 63 66 63 64 64 64 64 63 69 66 66 71 64 66 63 55 95 212 181 173 144 137 128 124 112 111 99 102 92 78 64 66 60 57 78 82 78 77 70 106 106 110 
64 64 59 62 61 58 59 63 61 62 63 64 66 81 98 113 123 134 141 146 147 147 148 148 146 148 143 134 122 107 87 71 55 41 47 45 52 60 58 64 63 68 66 64 63 66 62 65 64 62 64 65 68 65 68 65 63 62 51 108 204 176 165 150 141 134 144 110 105 111 108 87 70 69 63 56 72 75 72 69 64 109 116 108 104 
59 74 61 64 61 66 64 61 61 62 63 63 68 83 96 110 123 134 142 144 150 149 149 150 150 149 145 136 124 113 89 70 54 42 44 48 56 61 61 65 65 66 65 64 66 59 62 65 64 65 64 65 70 63 65 64 63 55 49 122 206 174 160 154 137 130 114 123 108 101 112 91 74 71 67 73 74 75 69 68 100 114 112 107 105 
62 63 63 60 61 62 62 60 59 61 60 63 68 80 100 109 124 134 143 148 150 149 147 148 148 147 148 136 121 109 92 71 59 44 47 50 54 58 61 65 64 62 64 64 63 60 65 63 63 65 70 68 66 63 68 65 60 56 49 145 196 170 169 153 156 116 136 118 107 96 112 93 81 81 77 66 72 65 72 105 116 112 110 104 101 
65 65 67 60 56 61 62 63 60 62 59 65 73 85 97 109 123 134 141 147 147 150 146 148 152 146 146 136 122 113 90 74 51 43 46 49 57 58 60 64 65 65 63 63 65 63 65 63 59 62 63 64 64 60 66 66 58 53 47 158 190 182 164 174 144 144 118 136 116 112 105 106 84 90 76 74 63 67 101 95 106 107 102 103 105 
61 62 65 65 65 60 63 63 63 63 64 64 71 84 98 112 121 133 142 146 149 150 152 152 151 151 144 136 123 114 93 77 58 41 46 44 54 57 61 62 60 66 60 61 63 57 63 64 65 65 64 63 62 66 65 61 58 50 48 175 196 184 185 156 169 141 146 130 126 99 121 110 101 76 71 60 60 103 109 104 87 105 101 100 114 
