P2
64 64
255
160 157 173 183 179 184 189 189 191 180 182 191 190 186 178 189 194 193 189 191 194 201 196 190 191 185 189 196 198 199 196 200 199 201 201 204 210 214 182 103 87 98 116 121 125 126 129 127 127 126 120 115 104 81 66 45 21 35 102 183 210 204 180 150 
153 163 184 173 177 181 186 189 188 187 180 179 188 188 188 182 190 195 193 187 179 186 167 182 190 185 193 196 196 197 192 200 197 199 200 199 205 209 210 191 135 98 112 121 123 124 128 126 127 125 119 116 97 80 53 37 73 155 201 209 190 170 162 192 
166 179 181 174 167 172 182 181 186 188 187 185 186 185 188 190 183 194 197 185 149 147 180 193 193 191 190 197 192 195 194 193 195 196 194 195 198 207 207 211 206 141 106 119 121 123 123 125 123 121 118 109 91 73 68 121 188 211 196 182 168 170 194 208 
165 163 179 177 176 167 178 180 180 185 186 178 189 194 188 188 192 192 183 158 146 169 182 187 191 192 194 198 192 194 195 194 191 190 188 191 195 198 204 207 209 194 124 118 127 127 123 120 121 119 111 101 94 115 172 207 211 189 179 178 180 200 208 205 
169 163 170 179 179 172 172 181 178 175 183 175 184 192 193 191 192 184 142 147 177 184 181 184 189 193 190 192 193 194 193 192 192 191 189 185 190 192 194 200 200 205 161 116 126 123 122 116 121 117 109 126 172 200 209 192 177 180 170 187 201 207 205 203 
173 165 168 162 158 178 173 159 167 179 180 182 181 191 194 192 171 154 165 172 179 178 185 188 190 188 188 188 184 191 188 189 190 190 189 189 181 188 188 189 200 202 190 120 123 125 120 117 112 118 158 195 209 198 177 182 180 172 195 203 206 203 200 198 
172 170 160 163 163 154 165 171 157 166 183 186 180 170 176 166 152 172 178 183 177 177 172 175 183 180 186 188 186 182 184 181 180 187 189 188 181 178 186 180 185 194 196 131 121 122 120 119 143 178 201 205 181 179 181 169 183 202 205 201 199 196 193 193 
158 161 167 152 172 163 151 169 174 170 179 158 152 141 159 162 172 180 169 166 163 172 173 179 186 180 185 190 187 178 174 181 179 179 183 182 181 172 178 177 180 185 193 167 113 119 133 175 193 200 185 182 188 179 177 193 203 205 198 198 194 192 192 194 
158 158 154 167 157 168 167 168 179 174 178 154 153 170 174 172 179 172 158 164 180 180 186 178 188 184 181 184 181 172 170 175 179 178 174 180 177 173 174 182 175 176 182 190 143 154 190 206 193 169 179 177 179 192 198 200 200 197 196 195 192 194 191 194 
161 155 149 157 168 156 176 185 177 167 161 165 167 164 165 170 180 180 179 172 176 182 183 181 178 183 176 165 175 169 169 173 176 176 170 176 173 171 163 174 171 174 176 184 185 196 198 184 181 185 183 187 194 201 197 195 196 195 193 193 192 190 189 192 
159 155 152 148 151 168 166 167 164 165 168 169 169 170 172 164 165 176 178 184 174 177 181 179 178 169 170 168 155 163 171 174 175 164 174 169 173 164 153 155 169 170 181 193 191 176 173 189 186 183 194 201 204 199 194 188 191 194 193 192 191 191 189 194 
158 155 159 149 156 148 161 159 159 174 176 170 163 166 167 157 166 173 174 183 180 173 175 177 169 169 161 156 160 155 168 173 173 169 161 160 162 150 143 153 176 195 194 171 165 166 186 188 188 196 202 204 199 196 183 187 192 191 192 192 186 190 191 194 
160 157 155 152 143 152 150 155 167 165 165 162 158 168 172 169 159 167 174 181 181 178 167 161 165 168 173 162 154 163 151 170 169 168 150 159 138 145 162 190 194 179 158 163 185 185 190 196 198 199 198 198 193 186 188 191 191 193 191 191 190 191 195 195 
140 130 148 163 148 141 149 160 156 160 144 155 165 161 170 174 173 158 171 177 175 171 165 158 160 165 163 173 167 152 161 151 165 159 144 142 149 187 196 185 170 170 182 178 186 192 197 197 195 193 193 192 188 188 190 192 192 191 189 191 191 193 195 197 
147 143 141 140 152 156 151 142 141 147 160 153 156 164 159 174 173 170 161 167 167 160 161 157 150 166 168 167 165 150 153 137 154 145 147 169 194 192 167 171 183 180 185 193 196 194 194 192 188 183 185 185 188 189 187 192 191 191 188 195 194 192 196 197 
147 144 149 149 141 144 130 132 144 150 157 158 156 157 154 156 174 171 165 158 159 162 158 156 150 148 163 171 159 153 133 136 138 162 186 189 168 169 178 180 185 190 198 197 192 189 189 187 181 181 180 184 187 186 192 190 192 192 190 194 191 196 195 199 
140 144 151 141 125 139 148 147 152 149 148 159 158 149 151 147 161 171 163 158 147 153 157 158 144 154 149 162 154 142 131 147 177 191 170 165 172 170 177 191 200 196 195 192 191 185 174 183 185 181 181 186 187 189 193 193 192 193 192 195 192 200 199 199 
150 118 126 138 154 141 138 148 140 149 151 148 155 148 140 154 148 152 155 150 156 146 152 156 144 147 140 144 143 144 168 188 176 154 158 174 175 189 193 200 197 194 191 186 182 184 184 185 183 183 185 188 189 192 193 194 191 193 195 195 196 199 200 202 
121 119 144 155 142 146 148 152 143 135 151 148 156 146 147 140 149 139 136 145 155 150 139 149 146 127 138 129 148 180 181 164 160 169 173 184 192 196 193 190 188 185 184 183 179 185 184 185 187 186 188 191 192 194 194 193 193 196 194 196 198 201 202 202 
143 141 137 145 146 135 140 147 146 142 137 148 137 147 142 148 134 141 141 139 141 147 136 139 140 127 141 172 183 173 158 161 167 182 192 187 187 184 183 177 171 171 182 180 182 186 187 188 187 187 193 193 195 195 196 194 193 195 196 198 202 202 204 197 
142 143 140 143 135 145 136 134 143 149 141 133 148 137 145 144 144 132 145 146 123 139 132 127 133 164 179 181 151 159 177 171 184 195 194 187 179 176 173 173 175 177 181 184 185 185 186 189 190 192 195 196 195 196 195 194 194 197 196 201 202 203 208 170 
138 139 134 133 132 138 138 143 136 141 144 131 133 136 131 139 139 139 131 141 129 120 131 137 172 190 159 157 158 173 185 184 186 192 188 179 178 179 181 178 181 183 185 187 186 188 190 190 192 193 194 195 194 194 195 196 195 198 198 203 203 204 197 135 
138 138 142 140 116 117 122 121 125 142 136 140 121 105 90 55 130 134 134 118 128 114 150 180 176 159 151 169 182 185 189 190 186 188 182 177 179 183 183 183 184 185 187 190 189 191 193 189 193 194 193 198 195 196 197 195 195 198 200 204 206 202 160 144 
89 87 95 136 135 134 141 121 85 112 106 120 139 93 112 53 31 108 134 118 119 163 179 166 143 150 166 182 198 194 191 183 182 186 185 185 182 184 182 184 187 186 189 193 191 192 192 193 193 195 196 196 194 196 196 196 195 200 202 206 208 174 149 134 
105 100 74 56 74 96 98 111 86 76 66 35 54 36 69 70 13 52 133 136 166 174 142 137 146 167 181 177 188 189 188 182 183 187 186 186 186 186 182 185 187 188 191 191 192 192 193 193 193 194 198 198 193 194 196 195 197 199 205 198 169 141 109 81 
86 64 59 61 86 57 46 49 48 39 42 23 24 26 21 25 15 34 135 184 157 129 139 151 179 191 191 185 188 187 182 181 185 189 188 182 183 183 183 185 188 186 192 192 191 193 191 192 191 196 198 196 197 197 198 196 199 198 175 144 111 78 58 54 
36 39 56 99 77 31 53 42 24 23 24 15 21 21 20 19 34 110 174 150 124 145 175 187 189 189 187 184 189 184 184 184 188 187 185 185 180 182 187 186 187 191 190 191 191 194 190 190 189 199 198 196 198 198 199 192 170 117 87 67 62 63 56 58 
33 82 88 44 42 43 47 53 23 18 16 10 24 22 29 96 133 170 138 120 143 187 195 196 192 186 187 181 186 181 181 183 185 184 186 185 182 184 185 188 186 189 189 189 191 189 193 183 191 200 196 199 201 189 149 92 68 59 59 59 66 59 62 60 
86 59 49 65 46 36 62 49 33 22 14 11 10 17 68 164 160 117 117 153 172 187 189 189 185 187 185 185 183 185 183 182 187 187 184 185 183 183 185 182 186 190 186 187 191 195 197 193 197 201 201 195 139 77 65 57 57 56 54 60 65 60 66 73 
59 90 88 29 39 26 64 68 15 13 20 12 23 95 161 150 92 105 167 187 176 176 175 180 184 186 184 181 183 181 177 181 179 184 183 182 183 183 184 185 185 187 188 192 190 194 191 191 198 198 180 106 68 62 66 61 61 57 57 61 71 85 93 110 
79 88 48 60 61 19 65 64 11 9 14 43 110 174 134 90 101 161 184 185 173 169 172 172 182 184 181 179 180 183 171 176 183 182 179 181 179 186 184 186 188 187 187 189 191 190 189 192 170 128 112 99 63 62 65 58 59 60 65 77 104 117 135 137 
53 53 72 61 34 13 67 41 14 11 31 120 160 126 94 118 168 176 182 172 164 166 168 177 180 179 179 180 180 174 177 179 178 179 179 181 183 183 184 185 186 188 187 188 193 193 175 123 78 81 118 107 85 66 66 62 74 97 107 129 137 139 148 151 
44 73 76 21 14 14 86 64 16 47 126 158 113 101 133 179 183 181 175 169 166 168 176 176 176 175 178 177 177 174 174 174 179 180 183 178 181 182 185 186 185 190 192 189 185 138 70 65 87 86 116 120 108 96 104 109 127 138 143 145 147 143 141 154 
59 63 28 11 22 18 90 50 60 141 150 108 95 137 178 188 182 174 175 167 165 170 175 171 172 171 169 177 172 170 175 176 176 179 180 181 182 184 184 188 190 192 190 142 61 60 71 60 85 78 105 120 128 138 136 137 143 142 143 140 149 146 154 169 
82 18 15 52 8 29 87 75 139 144 100 103 146 173 186 188 173 170 166 164 169 174 172 171 167 166 169 166 168 172 172 174 177 182 184 180 181 185 187 187 187 163 73 60 25 59 108 83 84 82 96 124 134 143 138 142 143 145 143 144 151 160 178 196 
38 14 70 66 5 53 124 153 121 95 99 148 184 178 186 184 173 166 164 167 169 170 172 168 170 166 167 168 158 168 177 180 179 178 177 179 184 186 184 183 130 29 31 76 63 43 119 107 84 99 81 116 134 137 136 146 148 146 151 154 166 177 191 169 
13 61 120 22 13 105 147 123 89 102 152 183 188 184 179 180 175 170 166 169 169 164 170 169 165 161 162 164 165 164 174 180 180 185 181 179 182 182 168 102 45 26 24 70 87 55 75 125 91 109 91 103 129 123 136 146 147 151 158 161 178 189 113 37 
18 127 97 10 47 136 94 92 108 163 180 186 186 183 180 178 178 171 172 169 168 171 172 162 163 156 163 168 169 166 175 181 182 181 180 178 173 166 146 89 49 56 60 46 74 82 68 95 117 92 105 82 123 128 130 142 146 150 160 186 180 83 16 16 
31 125 54 75 105 81 78 105 170 183 187 182 182 183 175 174 172 170 167 164 170 170 172 163 151 154 167 170 167 170 176 178 176 178 170 165 175 177 162 129 65 44 57 80 59 67 70 67 115 102 97 76 107 127 129 148 159 173 186 163 55 19 17 20 
72 107 95 127 108 54 97 145 177 180 182 181 183 180 171 172 170 164 168 167 168 170 165 158 159 161 171 174 171 171 177 174 170 166 165 174 176 179 171 145 93 62 50 51 98 82 76 83 95 122 102 100 106 128 137 164 181 182 117 42 20 20 14 19 
82 80 94 108 93 96 156 158 176 175 174 175 180 176 172 169 167 166 167 164 167 161 160 162 161 159 172 172 172 170 172 169 173 170 175 180 185 185 174 160 113 72 58 54 60 108 75 63 57 112 113 112 106 123 149 167 144 73 25 16 18 20 20 19 
64 65 76 122 94 154 143 162 169 165 164 172 176 171 164 156 158 159 165 158 158 161 164 162 162 160 164 165 166 170 178 177 176 177 180 180 182 188 182 175 139 94 58 55 45 44 97 58 56 65 118 113 112 125 138 113 88 41 13 12 15 22 18 21 
59 46 75 93 108 125 138 160 165 157 165 168 171 161 158 155 150 166 159 159 162 163 161 160 161 164 154 163 175 181 183 176 178 175 181 181 180 181 181 179 155 110 69 54 45 31 48 78 64 38 102 109 119 125 127 104 81 40 13 12 19 15 17 18 
58 56 111 126 146 152 155 162 163 166 175 173 165 156 153 150 159 161 163 166 166 156 154 163 160 151 160 173 176 181 186 179 182 180 184 181 182 184 186 177 158 118 77 60 46 33 15 52 70 46 65 111 111 129 133 111 77 26 20 15 12 13 19 18 
66 95 135 122 165 168 163 168 170 176 177 169 162 151 144 151 154 155 166 167 160 143 146 155 151 164 173 181 180 186 190 182 181 179 182 182 187 181 182 177 157 135 88 57 44 32 19 21 72 52 52 108 110 116 127 116 71 25 19 16 16 21 21 19 
128 136 130 137 171 166 167 172 178 178 175 167 151 145 141 147 152 159 171 164 151 136 146 154 163 169 174 180 181 184 188 184 184 181 183 184 188 188 186 183 168 138 90 59 49 27 19 17 33 56 45 92 120 129 130 121 46 23 27 24 20 21 19 18 
157 132 107 142 176 163 169 179 182 183 168 155 148 145 140 147 157 168 170 157 143 141 149 151 166 168 176 182 178 182 189 186 186 186 188 190 191 191 191 189 176 148 108 65 55 31 13 19 19 57 40 70 131 129 144 117 37 19 18 21 16 21 21 22 
141 140 108 130 171 163 156 181 175 172 161 152 146 145 144 151 166 174 153 131 135 145 150 159 168 173 177 182 180 185 189 189 186 187 190 191 199 198 196 196 182 160 123 74 55 37 13 17 20 36 47 50 126 134 150 113 31 18 22 15 23 20 20 25 
143 142 118 131 154 149 155 180 164 168 155 155 155 150 148 155 165 137 122 136 142 151 157 166 168 177 178 186 182 187 188 188 187 186 189 194 195 198 199 199 190 171 133 85 60 42 17 11 15 25 46 38 101 138 155 122 34 26 26 23 25 27 33 28 
145 147 122 140 166 151 168 182 179 166 151 152 155 156 156 155 133 121 136 141 146 151 159 171 166 177 178 183 182 187 185 188 187 191 195 196 194 198 196 200 191 176 147 97 65 43 23 22 13 12 29 43 67 132 149 130 55 30 31 19 24 22 24 30 
146 153 126 139 156 160 171 182 182 162 151 154 156 151 145 125 122 126 139 144 145 155 165 175 174 174 180 186 185 183 190 189 187 190 197 196 198 197 201 199 191 181 155 109 68 45 25 16 7 11 22 52 44 139 147 130 64 29 27 38 23 27 25 29 
161 164 134 136 147 154 176 190 183 154 152 153 144 141 123 123 130 133 143 147 145 155 165 171 176 177 178 180 185 187 190 192 190 189 194 196 197 198 199 199 197 185 163 121 72 52 32 16 12 12 17 48 37 137 147 128 65 31 27 26 27 32 25 27 
165 166 130 123 147 158 181 188 166 148 144 147 145 122 127 129 137 143 147 149 148 155 166 170 178 179 180 182 185 186 190 189 191 192 194 195 197 200 200 200 200 193 172 128 84 59 36 20 15 16 18 29 44 106 150 132 76 35 23 21 25 30 31 29 
175 168 134 108 159 173 183 170 153 140 138 141 124 129 134 133 143 147 150 151 153 153 161 166 177 177 177 182 185 183 192 189 190 190 194 197 198 196 202 202 203 195 179 137 97 60 46 26 20 16 14 23 52 78 151 149 75 25 22 21 27 30 29 38 
176 172 148 107 158 179 171 153 141 133 127 127 127 131 135 138 145 149 146 152 152 157 160 166 174 178 181 181 186 184 184 187 189 189 192 195 197 197 200 200 201 199 186 150 106 67 58 38 22 17 14 16 59 61 149 152 70 32 35 17 28 33 31 34 
172 174 163 134 167 168 148 148 135 126 133 140 134 133 139 139 146 150 149 151 154 159 156 163 173 175 179 182 181 180 182 182 187 187 191 190 194 196 197 199 200 193 188 165 116 71 57 38 20 12 16 18 45 49 139 155 89 37 28 21 25 30 28 29 
171 176 167 161 169 159 147 131 125 134 137 139 138 138 141 142 148 156 153 152 156 155 152 158 168 171 176 183 182 180 179 183 186 187 188 191 193 196 197 200 198 197 193 168 122 74 55 36 17 13 17 19 41 46 123 158 100 43 37 25 35 41 33 37 
176 177 170 169 163 124 84 96 113 119 126 134 139 141 144 149 153 153 155 158 155 154 155 161 163 168 174 179 180 179 179 179 181 184 188 189 190 192 196 200 197 193 191 172 130 78 44 27 16 12 15 15 29 33 120 163 112 43 44 29 43 42 31 31 
185 179 179 159 80 41 58 74 80 95 103 106 114 127 141 147 150 156 159 157 153 153 152 153 161 161 170 180 182 180 175 173 180 181 185 187 186 190 194 194 194 189 179 154 118 67 29 20 20 11 12 15 28 39 102 165 124 50 32 32 38 34 40 36 
185 184 143 72 66 75 75 69 63 65 53 62 75 86 108 130 144 154 162 156 153 153 153 148 154 163 168 176 178 178 170 172 176 178 181 187 186 190 193 191 187 173 145 117 82 51 28 20 14 11 13 13 31 46 74 170 128 76 28 25 44 36 34 30 
182 131 90 100 116 113 114 104 93 80 60 33 35 35 52 69 105 130 150 152 153 157 152 150 151 155 169 175 177 178 168 171 173 175 178 186 184 184 184 172 143 113 87 74 59 40 27 24 12 12 16 19 28 35 61 165 137 89 27 23 34 39 41 35 
113 83 101 114 123 116 112 130 126 108 88 74 53 45 35 32 40 67 112 138 145 145 140 146 151 156 166 172 173 173 169 169 180 176 172 177 166 151 117 85 68 52 49 56 70 66 63 49 21 18 18 16 23 36 59 164 132 101 38 29 29 49 45 38 
81 92 93 106 105 106 72 118 130 116 90 96 62 63 55 49 47 50 70 104 137 137 139 141 143 149 163 168 175 176 171 169 172 168 162 161 123 83 55 60 73 73 85 86 100 75 67 52 29 26 15 16 18 38 47 157 134 97 45 23 27 50 30 34 
74 70 72 79 79 75 26 67 115 80 61 65 68 88 68 75 65 69 67 90 115 125 127 136 136 145 163 172 177 179 175 170 174 164 147 126 89 87 78 85 82 56 56 72 64 48 47 39 32 39 19 19 22 44 43 153 138 94 65 20 23 46 32 40 
