P2
64 64
255
149 123 72 58 71 68 72 76 71 72 62 71 78 85 88 88 92 93 83 94 88 78 90 95 95 103 99 93 98 105 95 82 71 89 139 138 139 157 156 148 147 137 132 155 162 140 151 165 166 169 161 155 159 170 178 176 170 166 177 168 180 174 179 165 
146 95 75 63 71 63 73 71 68 56 73 84 86 78 89 96 84 90 91 82 95 94 82 91 104 100 113 110 103 96 74 67 97 119 132 155 146 141 135 138 137 152 158 135 135 149 171 165 164 162 163 157 170 170 178 168 172 171 163 175 166 178 162 151 
122 92 73 61 61 64 67 66 63 75 79 86 77 91 78 84 97 82 71 90 87 89 94 96 103 99 90 93 95 72 59 100 137 139 128 139 155 125 119 129 153 160 132 136 152 157 154 171 161 156 173 173 159 159 165 175 167 165 168 162 176 151 148 154 
112 82 78 64 61 62 69 71 75 77 72 75 80 65 75 93 78 73 93 92 88 94 93 95 90 82 89 95 77 70 102 123 130 140 142 117 121 131 120 140 145 123 141 160 158 151 152 154 167 171 163 178 160 156 158 163 171 164 167 166 146 143 162 170 
102 83 82 69 60 67 69 72 73 72 66 75 65 74 85 84 86 87 84 88 92 97 97 88 85 94 86 78 77 105 123 141 133 134 132 116 112 116 153 121 108 140 152 156 155 155 160 165 156 162 159 153 165 161 154 168 160 175 165 143 140 156 178 174 
103 98 86 70 72 65 70 73 62 71 65 59 79 78 85 84 72 80 93 93 96 87 74 84 90 83 83 75 107 111 127 133 138 115 119 120 132 128 103 120 135 138 148 151 154 162 162 159 152 147 147 154 152 177 173 157 165 147 145 153 167 164 158 172 
114 93 89 70 70 71 74 65 68 63 63 78 62 78 73 64 82 87 84 89 82 73 87 92 83 82 85 115 121 119 123 126 123 117 117 129 136 100 121 137 144 141 128 152 166 160 157 145 147 147 146 143 169 166 176 166 137 131 153 172 160 157 161 154 
113 94 93 67 71 71 70 75 76 72 69 67 76 79 74 82 82 91 88 79 81 94 93 91 84 79 115 128 118 128 114 114 113 117 141 110 98 119 129 134 135 141 148 145 153 156 151 150 145 146 159 161 141 169 153 146 128 149 165 160 156 159 155 163 
125 104 92 80 65 69 67 73 73 71 69 81 64 80 76 73 89 86 75 84 89 95 93 79 75 106 119 120 125 130 113 103 116 132 112 97 116 126 138 132 129 147 152 131 128 141 147 151 159 152 150 166 154 131 136 136 164 160 153 160 163 162 163 153 
120 104 90 76 72 69 78 75 69 66 73 72 78 80 84 83 83 78 83 88 95 88 77 74 107 122 114 124 125 117 112 113 118 110 97 112 125 123 120 141 149 138 133 143 136 139 140 162 167 168 148 144 149 127 150 162 156 161 156 149 155 168 160 155 
120 121 91 92 76 85 75 67 69 67 74 75 74 80 81 79 87 97 86 92 95 80 70 104 116 124 119 114 109 112 120 124 97 95 112 120 117 126 127 128 147 124 125 133 141 145 157 145 157 164 157 131 128 142 155 169 160 146 156 157 151 151 163 155 
124 112 105 96 92 86 78 82 70 72 70 70 77 75 62 81 83 83 92 89 86 77 96 112 117 122 121 107 104 118 138 94 103 117 127 121 122 125 137 115 111 133 121 139 156 158 153 157 141 134 135 132 159 161 143 152 155 149 153 156 166 154 144 162 
115 122 103 106 81 106 84 77 66 71 66 80 70 71 74 82 88 84 79 80 76 99 114 105 119 121 107 110 117 128 89 89 112 123 124 121 129 134 121 103 112 112 134 141 143 165 152 147 138 111 138 163 160 160 154 140 140 159 156 154 162 167 154 149 
148 126 112 113 97 93 90 71 72 74 67 68 72 81 71 91 92 71 65 71 107 119 104 115 117 107 114 113 128 84 92 109 120 116 121 128 129 126 111 107 120 125 120 139 134 134 156 130 125 138 152 153 161 155 148 147 142 144 158 158 156 156 162 151 
136 138 118 113 109 106 89 81 79 73 50 65 76 67 84 87 82 71 69 99 115 115 108 101 110 109 127 114 79 87 114 118 123 122 121 130 118 124 114 124 132 138 114 110 146 131 116 125 145 158 157 146 142 144 153 149 147 146 138 150 159 150 139 141 
137 128 124 112 111 99 102 92 78 64 66 60 57 78 82 78 77 70 106 106 110 109 109 100 106 119 121 81 86 105 112 121 120 128 119 114 114 115 131 133 114 119 121 116 125 125 118 136 147 152 154 149 143 141 140 152 148 153 149 134 143 155 144 139 
141 134 144 110 105 111 108 87 70 69 63 56 72 75 72 69 64 109 116 108 104 104 100 107 111 113 80 90 105 108 108 120 127 116 115 107 115 129 117 126 119 137 133 123 105 125 149 130 136 143 136 138 152 150 139 146 149 146 147 139 133 130 159 148 
137 130 114 123 108 101 112 91 74 71 67 73 74 75 69 68 100 114 112 107 105 89 105 116 97 90 87 96 113 119 113 114 116 113 110 118 114 112 102 124 131 130 128 110 123 122 138 145 135 123 129 134 139 163 145 134 138 134 138 145 143 142 134 151 
156 116 136 118 107 96 112 93 81 81 77 66 72 65 72 105 116 112 110 104 101 101 108 102 79 97 99 116 114 112 126 107 105 112 121 104 105 113 125 120 125 112 104 125 137 143 126 131 134 134 128 132 139 138 140 130 134 135 141 139 145 151 142 129 
144 144 118 136 116 112 105 106 84 90 76 74 63 67 101 95 106 107 102 103 105 115 88 83 85 93 116 116 115 117 119 110 108 118 95 98 107 121 125 128 112 103 124 128 135 132 136 123 119 139 145 125 126 128 117 115 131 136 142 146 144 136 127 126 
169 141 146 130 126 99 121 110 101 76 71 60 60 103 109 104 87 105 101 100 114 95 87 90 93 116 108 108 117 122 104 116 105 91 93 104 122 128 115 122 100 121 135 136 129 129 132 124 125 119 139 137 139 133 126 118 106 98 102 84 94 134 137 138 
147 155 137 141 113 125 109 126 103 97 67 51 82 98 106 104 101 91 105 111 92 85 98 90 117 113 106 108 113 106 109 103 91 105 102 106 128 124 113 95 106 121 129 140 135 121 115 93 100 105 104 114 119 129 123 98 121 120 118 85 43 126 142 135 
170 137 152 128 141 130 124 121 122 90 68 72 93 95 94 96 98 96 113 96 78 92 91 111 117 114 107 110 108 115 101 86 99 106 115 109 108 119 91 122 121 118 123 119 100 68 79 92 87 73 69 65 77 102 108 80 124 120 132 119 77 94 121 126 
153 151 135 141 126 117 131 122 123 94 80 90 85 91 93 94 93 110 92 78 87 91 106 111 106 112 104 101 115 89 88 103 97 107 113 125 98 95 115 122 128 126 113 83 67 91 125 110 105 88 90 80 75 54 62 79 130 146 143 140 118 95 84 82 
181 158 154 131 117 125 112 133 112 104 83 80 91 84 80 91 101 96 77 93 88 108 113 110 105 100 110 101 90 87 97 100 104 106 110 109 96 109 117 121 119 123 104 82 110 111 110 92 89 84 75 70 68 62 37 78 137 147 140 140 108 104 108 101 
175 170 158 139 115 97 119 108 147 97 75 75 83 94 83 98 95 70 82 88 104 111 107 104 106 108 101 86 90 101 95 102 106 101 102 93 108 122 106 116 122 97 80 120 122 108 92 69 75 77 59 48 39 37 33 72 127 131 136 126 110 114 92 81 
187 179 154 135 107 101 83 127 104 78 73 75 81 91 92 91 66 78 89 102 113 103 103 102 107 108 90 100 96 103 100 107 107 99 90 106 112 116 110 107 93 81 104 109 113 91 65 78 85 66 66 79 80 58 66 93 98 108 108 119 103 80 48 42 
189 178 161 131 100 80 97 93 99 85 83 82 78 84 100 69 82 80 94 106 104 103 102 103 102 85 94 100 101 106 100 99 105 96 100 109 114 108 109 100 72 90 111 110 96 81 89 103 80 74 101 106 94 55 48 66 67 62 104 93 57 53 52 34 
182 186 165 145 93 81 73 113 107 100 82 90 83 90 77 77 82 91 108 107 103 103 104 100 90 87 92 100 105 106 106 101 88 96 108 112 105 104 109 73 97 105 101 91 79 86 97 86 86 79 87 61 55 34 42 45 43 69 87 78 84 60 50 66 
188 188 164 129 110 74 89 137 108 123 86 94 88 78 67 84 89 102 102 110 105 108 102 89 92 94 97 99 104 104 99 94 94 105 109 105 106 91 73 91 103 104 101 83 78 101 95 84 75 45 37 27 32 29 27 31 49 77 79 113 69 81 72 105 
183 197 167 133 94 96 119 109 124 94 115 93 70 72 77 83 100 99 108 104 104 102 80 93 95 90 103 101 103 103 95 90 110 107 106 107 97 70 92 99 102 106 97 79 75 71 48 46 50 48 46 29 29 34 29 43 84 73 111 66 61 34 58 65 
186 177 174 134 125 92 100 119 118 127 101 90 68 80 78 94 106 102 97 108 97 89 89 96 93 94 99 106 99 89 85 110 117 104 107 98 96 54 105 106 103 84 68 55 40 38 51 70 58 47 32 22 22 19 31 76 98 88 81 50 19 24 39 83 
175 188 172 164 125 108 92 127 103 121 104 71 69 85 94 110 101 104 105 101 79 87 92 97 94 93 95 101 95 89 95 106 102 107 106 105 104 62 104 101 77 62 43 27 33 73 76 39 31 29 28 18 30 17 59 105 93 89 50 20 13 24 91 69 
185 173 188 160 155 132 113 104 128 91 91 76 80 83 104 104 105 99 96 76 75 92 94 98 99 101 89 93 88 84 110 105 100 100 104 114 110 70 96 83 47 36 28 49 77 54 25 23 19 30 24 18 22 22 87 87 79 50 22 25 24 86 92 42 
179 193 174 188 152 135 153 114 141 93 64 80 96 99 107 102 107 100 73 70 86 91 95 94 91 96 94 86 87 108 99 76 65 70 96 112 106 68 65 42 48 36 55 65 34 35 19 18 34 34 12 18 22 59 107 46 52 25 17 32 86 102 68 63 
199 177 195 161 135 161 144 139 108 93 65 90 91 95 104 106 99 88 81 95 91 94 97 90 89 98 91 84 104 108 106 104 91 74 59 69 86 69 39 37 45 59 47 42 34 31 24 36 46 16 11 15 41 73 71 25 29 27 25 70 80 51 93 93 
193 205 180 159 136 157 160 143 95 55 78 100 100 91 96 101 81 67 98 95 93 97 86 89 84 90 86 99 102 110 108 106 71 45 70 54 43 58 56 43 51 63 49 42 31 22 39 78 26 10 11 25 61 58 51 19 22 22 35 78 42 67 78 49 
211 194 198 167 132 152 159 156 101 66 94 103 100 98 93 90 78 84 91 93 96 92 89 87 91 90 92 108 99 93 85 78 64 38 34 33 52 54 39 62 58 47 38 31 15 22 82 60 14 14 15 40 71 49 25 16 23 38 40 44 26 45 79 20 
198 207 197 174 166 152 167 165 103 99 95 97 100 100 90 81 84 92 98 101 97 95 90 91 85 92 105 97 82 82 83 87 74 72 60 57 38 35 53 65 37 26 20 13 23 51 102 50 11 12 17 42 73 47 16 26 30 23 29 22 20 63 72 11 
149 209 195 177 183 170 173 125 61 121 93 85 97 98 90 86 88 94 100 93 110 103 95 96 86 91 94 98 96 94 85 66 61 59 52 46 45 58 73 63 32 22 15 12 23 59 103 30 14 19 25 41 45 46 23 23 35 23 26 21 17 70 59 15 
78 199 190 183 179 176 182 102 103 111 84 80 92 86 78 96 95 96 101 93 94 88 82 93 100 94 85 81 95 81 66 49 37 54 44 58 58 68 72 44 27 27 21 14 26 77 85 21 15 25 69 20 26 24 29 33 57 61 61 61 36 88 55 41 
54 168 216 193 180 180 186 119 117 92 89 83 85 72 76 89 97 99 94 78 81 73 92 97 95 92 98 105 87 70 37 36 46 37 48 47 57 69 59 46 33 30 26 17 35 55 65 33 32 40 50 17 22 23 23 31 25 34 36 27 24 64 40 43 
53 151 209 209 192 186 180 155 104 88 93 93 74 68 82 96 94 93 87 83 81 102 102 98 91 70 72 103 92 68 41 44 41 30 33 33 49 64 55 42 33 22 25 28 45 35 52 62 62 34 21 22 19 19 19 22 26 22 20 15 14 44 42 70 
50 149 211 205 200 188 181 134 87 89 90 92 84 82 92 92 84 84 82 96 108 103 97 92 91 72 79 83 63 53 45 44 35 27 22 21 43 52 46 40 51 40 33 24 51 19 56 84 76 36 14 19 26 20 23 22 31 19 21 17 17 54 81 76 
51 145 212 204 208 200 168 82 70 88 94 86 86 92 92 87 69 78 96 106 100 99 99 97 80 59 49 54 29 34 65 45 24 22 21 19 27 55 43 47 58 62 31 23 51 20 35 81 103 58 17 21 20 25 20 16 22 19 10 13 39 77 95 47 
52 139 210 208 201 203 125 69 66 85 86 84 89 91 92 74 78 92 102 99 101 99 84 87 93 41 17 27 19 45 52 26 17 22 23 22 24 55 61 36 49 66 32 21 52 28 15 61 97 105 38 24 19 21 18 17 11 9 14 33 99 89 75 63 
56 114 214 208 205 185 87 68 69 75 81 80 83 83 74 81 92 92 90 78 101 85 82 92 92 59 18 14 29 61 31 21 21 17 19 24 19 35 56 46 37 56 46 20 58 32 12 24 66 119 72 66 69 30 10 14 10 13 28 107 125 69 73 129 
62 79 200 209 211 154 70 74 75 75 76 85 82 85 88 96 91 97 97 65 82 78 80 71 67 55 16 19 54 64 18 16 13 25 22 24 22 25 34 56 41 42 44 33 60 39 27 30 45 126 40 25 32 21 15 10 7 21 109 127 83 84 136 165 
62 62 171 214 211 129 80 75 83 83 79 80 70 75 103 97 87 84 83 54 48 57 48 36 46 51 28 20 68 48 17 17 15 32 21 33 21 24 21 40 46 34 34 39 60 35 44 27 36 117 46 15 12 12 9 7 15 90 142 83 83 136 171 148 
70 68 117 220 211 109 79 78 88 87 81 64 75 102 96 93 103 84 70 66 49 52 49 22 33 33 17 23 83 36 20 17 27 41 29 30 21 22 31 21 31 37 28 28 66 67 74 27 20 86 75 14 13 10 11 14 77 137 97 80 131 161 154 147 
76 73 83 185 215 126 76 81 80 81 84 77 92 87 95 94 101 99 81 74 70 56 29 23 26 16 15 27 80 25 13 20 47 32 28 27 18 27 29 18 25 37 26 23 51 82 98 49 24 53 103 17 8 9 13 68 137 103 88 124 168 152 167 155 
81 75 71 123 220 155 84 83 78 70 86 92 92 94 85 103 94 85 68 66 32 24 25 36 27 13 16 15 74 30 24 28 30 24 38 19 25 29 29 26 34 28 14 36 62 63 51 70 58 67 141 50 7 11 53 128 104 87 114 171 150 162 168 166 
82 79 75 86 189 172 88 87 78 71 100 91 92 99 99 90 91 60 62 40 26 26 47 60 17 17 15 15 54 56 41 34 25 35 33 20 25 29 21 29 48 30 13 23 75 45 45 41 18 29 124 42 7 38 118 113 84 101 160 150 151 163 176 173 
84 80 80 83 124 161 89 83 69 95 97 102 95 97 104 100 77 53 22 24 24 32 74 53 11 18 18 13 30 72 31 18 27 59 31 20 24 22 17 41 38 35 18 22 46 22 53 24 9 9 81 82 26 110 117 85 100 151 139 144 157 161 178 173 
79 81 91 98 90 113 76 83 84 97 106 102 104 99 95 82 56 26 29 45 13 12 69 33 13 45 22 20 11 29 50 24 58 50 21 14 24 23 14 56 23 52 22 18 20 32 72 27 8 5 28 85 99 130 89 90 141 145 139 137 145 165 178 172 
75 80 109 86 56 77 84 70 99 89 100 101 94 102 93 72 46 16 49 41 12 11 81 39 26 44 16 27 16 18 31 74 70 30 15 14 30 13 19 69 14 31 46 26 26 22 100 37 7 6 15 68 111 83 83 140 158 134 137 138 142 155 176 177 
82 91 118 56 86 132 143 76 86 94 96 109 92 84 92 70 30 28 83 32 10 13 87 56 29 17 26 20 41 35 77 60 42 25 11 18 31 14 25 64 13 27 74 30 19 61 47 16 18 11 50 113 75 69 128 161 140 143 147 137 140 156 178 180 
90 91 149 91 90 105 156 102 86 94 103 97 84 92 85 34 20 44 88 16 10 17 88 74 15 14 18 16 43 69 60 48 33 16 18 18 29 20 40 49 10 20 85 21 17 70 19 30 20 27 113 95 59 119 170 144 152 160 153 140 137 157 177 179 
174 132 97 15 20 24 39 89 106 100 99 86 76 81 57 22 46 58 74 9 13 33 99 56 9 19 25 34 38 28 27 30 16 13 18 18 25 24 39 24 10 46 79 19 37 55 36 17 18 91 124 68 93 175 154 146 162 170 151 132 129 155 179 182 
136 60 31 12 13 12 38 120 159 167 86 65 69 51 19 30 63 78 37 15 16 55 114 47 9 24 16 22 24 27 30 33 19 20 30 21 21 36 45 34 23 46 60 29 48 23 11 11 68 124 76 78 156 160 150 161 173 179 142 132 137 167 179 186 
134 54 28 20 11 17 76 129 148 139 82 43 45 43 28 41 66 94 16 15 34 67 111 53 7 17 13 33 50 41 26 46 32 19 28 18 17 15 44 71 24 60 39 37 41 13 14 42 121 96 71 139 156 153 162 169 185 173 135 133 149 174 179 186 
132 87 31 19 11 17 76 110 91 58 67 32 55 42 29 62 66 31 17 25 65 58 76 71 9 15 29 56 37 33 53 46 48 21 25 13 15 10 17 54 62 81 17 56 24 8 18 98 128 75 127 174 145 157 167 183 187 154 128 144 165 181 188 178 
124 85 30 58 48 16 79 99 97 49 53 55 34 26 45 77 54 22 24 64 77 23 51 103 18 17 21 40 28 16 20 49 75 34 13 10 15 15 13 34 54 89 21 41 8 7 62 132 98 107 171 151 151 164 177 190 179 140 134 158 180 189 172 94 
133 159 110 123 108 70 98 85 106 61 40 33 24 36 54 96 48 38 47 87 49 8 22 90 37 19 23 61 21 15 13 40 81 45 15 11 13 22 14 15 15 32 51 9 8 33 125 91 89 166 159 150 160 177 186 189 166 147 150 173 191 158 74 65 
