P2
85 85
255
23 24 26 28 38 35 52 52 42 47 23 37 29 22 14 12 63 127 136 105 61 99 106 117 119 122 129 137 132 137 135 130 135 133 133 127 128 131 126 127 129 128 125 126 125 126 125 127 125 124 120 122 115 112 109 109 119 151 174 184 187 186 191 197 200 203 202 201 200 200 201 202 201 200 202 201 201 204 208 206 205 204 204 206 205 
27 22 23 33 36 41 49 49 37 45 32 34 32 18 13 10 55 119 138 106 69 96 108 114 118 125 134 138 134 133 136 136 129 133 128 127 126 127 128 126 130 126 125 128 125 124 126 124 123 123 123 119 116 114 111 107 122 152 175 186 186 189 196 199 203 202 202 200 202 201 203 202 202 200 200 201 206 206 207 206 207 206 205 205 206 
25 22 29 27 41 41 52 56 38 48 44 34 40 17 10 8 40 118 146 100 80 105 113 116 119 122 132 137 135 135 134 133 129 131 132 129 125 127 130 133 128 128 127 127 120 125 125 125 123 122 121 118 118 115 109 106 122 156 173 186 189 194 196 202 206 203 203 201 201 202 203 203 203 202 202 203 205 204 210 208 207 206 205 207 205 
25 28 29 29 44 39 48 53 43 52 38 30 39 19 11 12 29 117 143 89 90 106 117 122 118 122 134 138 134 136 134 131 129 129 129 125 127 123 127 132 126 127 130 128 125 125 126 124 122 122 119 119 116 114 108 104 126 154 176 185 193 196 200 204 204 203 202 200 202 203 202 203 203 202 204 204 207 206 207 208 207 207 206 208 206 
23 22 29 30 50 28 49 44 42 56 37 21 37 29 11 11 22 104 141 89 106 111 121 119 124 118 134 136 137 136 130 131 133 130 130 130 128 126 131 128 129 127 129 127 126 124 126 124 123 123 124 121 117 114 107 104 130 159 176 189 197 200 203 205 203 204 204 203 203 201 200 203 201 202 205 205 208 207 207 208 208 206 206 207 207 
22 27 26 42 42 31 56 42 48 54 34 13 47 41 16 17 21 90 140 104 118 110 124 120 123 125 138 134 145 133 133 133 134 132 130 131 127 128 127 129 129 125 126 129 126 125 123 123 125 123 122 120 116 110 106 106 132 165 179 189 198 202 206 204 205 204 204 202 202 201 202 202 204 204 204 204 206 206 207 210 211 208 207 208 208 
22 26 28 45 29 31 53 47 42 55 33 19 46 49 17 17 19 76 136 109 125 113 125 120 126 125 137 136 136 135 131 133 132 133 131 130 134 128 127 130 126 129 131 130 126 126 124 125 125 124 124 118 117 111 106 110 138 167 184 195 201 204 206 205 204 205 204 202 204 201 203 205 205 204 205 204 207 207 208 209 209 208 207 207 207 
21 29 32 37 27 38 57 44 46 53 40 24 42 54 19 18 19 66 139 119 125 114 129 119 127 128 139 137 136 132 131 134 135 131 134 131 132 128 128 128 125 125 128 127 127 123 127 126 122 125 122 118 117 110 102 109 138 170 187 196 206 206 207 206 204 204 205 205 205 203 206 205 206 206 207 209 208 208 208 207 206 206 205 206 206 
23 28 27 22 23 44 63 40 48 46 25 25 41 60 19 16 18 62 144 126 124 120 128 119 128 130 138 138 137 138 132 136 132 131 133 134 132 131 132 131 130 127 131 126 126 125 129 127 123 125 122 122 112 110 102 110 142 173 192 203 206 207 205 205 206 204 205 205 205 204 205 207 206 206 207 208 209 208 208 207 207 205 205 204 205 
21 23 39 18 19 43 66 44 56 53 35 36 35 63 22 21 24 61 139 132 122 126 133 121 128 129 138 138 139 138 138 139 135 135 133 132 134 135 130 132 131 133 128 123 125 125 128 124 122 126 121 118 114 107 103 109 145 178 196 204 210 208 207 205 206 203 206 206 206 207 208 206 207 207 209 208 208 207 206 203 202 205 201 200 200 
28 23 33 22 21 46 57 37 55 49 39 39 28 67 21 21 22 61 135 136 126 126 134 123 129 134 137 138 137 135 132 134 136 134 133 133 135 132 134 129 130 134 128 127 125 129 126 126 126 123 125 118 114 110 100 109 145 184 201 207 210 209 207 207 206 205 205 207 208 208 209 208 209 210 210 209 206 203 204 202 199 200 199 198 198 
26 28 33 22 22 52 56 39 56 47 47 32 28 70 24 25 22 59 133 142 124 128 133 127 131 137 138 138 136 137 135 134 137 138 136 133 133 132 131 133 131 130 130 127 127 126 126 124 121 118 121 116 112 108 99 107 148 185 202 209 211 210 209 206 207 206 208 207 210 210 210 210 210 208 208 205 202 199 199 198 197 197 199 200 197 
23 25 29 20 24 67 50 48 53 51 45 31 34 60 25 23 24 56 127 144 123 128 130 124 131 136 138 135 135 136 133 135 135 134 136 134 133 138 135 132 131 132 130 131 126 127 125 124 122 123 119 117 111 104 96 106 150 189 205 212 212 209 208 207 207 207 208 210 211 212 212 211 208 205 204 201 199 199 199 199 199 201 200 201 203 
31 27 27 25 22 71 50 45 55 59 40 29 37 60 30 34 25 51 131 150 125 133 127 123 134 135 138 139 135 139 135 137 135 136 135 136 138 138 138 134 133 134 130 129 127 127 126 125 123 122 121 113 111 104 95 103 148 190 206 213 212 210 208 210 209 209 208 210 211 211 210 207 205 203 202 200 200 201 203 203 204 203 203 204 205 
26 26 20 21 20 68 51 48 55 54 41 34 33 58 36 18 25 43 132 147 126 138 124 123 138 133 138 139 137 135 135 134 137 135 136 132 135 135 135 134 130 132 129 129 128 126 126 124 125 121 120 115 107 103 98 102 151 192 210 213 214 214 210 209 208 211 211 210 211 210 207 207 203 203 202 204 204 204 203 205 203 204 204 205 204 
23 29 20 23 24 76 53 45 54 55 47 40 45 53 38 20 30 34 131 153 134 142 120 127 137 138 139 140 141 137 136 134 137 134 134 132 131 135 135 135 132 133 129 132 127 127 127 124 124 120 118 113 105 104 97 100 157 194 208 214 214 214 211 210 209 211 209 208 207 208 208 205 205 204 206 207 206 206 204 205 203 203 203 203 202 
22 27 23 24 26 83 55 48 62 49 44 38 46 56 40 27 29 32 131 153 134 143 117 134 134 143 139 139 137 139 137 135 138 133 132 134 132 133 137 136 130 131 132 129 125 128 124 122 123 122 119 113 108 101 95 105 162 196 210 215 213 214 211 208 207 207 207 206 206 206 206 206 206 207 206 206 207 204 201 201 201 201 200 199 197 
36 33 18 22 31 79 56 50 64 57 38 39 46 50 36 37 25 36 133 148 135 143 116 130 134 144 139 141 134 140 135 137 135 133 132 134 131 136 134 135 133 134 133 130 128 124 125 123 123 120 117 115 108 104 96 112 172 202 214 215 214 213 210 208 208 205 207 205 206 207 210 208 208 207 205 205 202 202 203 200 200 200 199 198 198 
42 25 23 25 36 86 63 50 67 53 40 48 46 42 36 45 22 27 136 153 134 138 121 131 134 142 140 140 138 132 131 133 133 132 132 132 131 132 133 134 130 131 129 129 123 125 123 122 122 117 115 113 109 103 94 118 180 204 214 217 215 212 207 205 205 206 206 206 209 209 209 209 207 205 203 200 201 199 198 198 199 199 197 198 195 
32 22 23 24 35 84 60 53 70 49 42 56 48 45 37 47 34 27 133 156 135 142 120 128 137 139 139 140 138 135 130 130 134 133 134 134 133 130 134 131 132 132 132 129 126 124 123 121 120 122 118 113 109 99 98 127 184 208 217 219 214 210 205 204 205 205 207 208 208 209 209 209 205 203 202 197 197 199 196 195 195 195 192 187 181 
24 27 24 24 43 86 61 47 67 45 40 54 47 48 33 51 25 28 134 149 135 143 124 129 131 133 137 135 136 133 129 135 132 132 133 134 132 131 134 133 132 130 126 125 124 124 121 119 119 119 114 109 105 98 99 137 190 209 219 218 212 208 205 204 206 207 208 209 210 210 208 206 203 201 198 198 199 195 194 189 185 180 170 156 134 
23 28 25 28 46 81 63 59 64 53 47 59 55 51 44 56 31 34 136 145 130 136 120 116 117 123 124 127 126 127 129 134 128 134 132 132 131 129 129 131 130 129 127 124 125 121 121 122 117 118 117 110 104 99 101 152 195 211 217 215 213 208 204 205 207 207 207 208 208 208 205 205 200 200 198 196 194 190 187 175 155 133 101 70 45 
28 22 29 36 46 79 66 62 60 56 47 61 58 54 38 54 32 40 142 143 135 129 113 104 102 107 114 118 116 122 127 124 128 132 131 131 135 131 133 130 129 128 128 127 125 124 125 121 117 118 115 109 99 96 111 168 198 212 216 213 210 207 204 206 205 206 207 206 206 202 203 200 200 198 194 188 180 170 154 126 85 47 23 20 21 
27 26 24 36 44 78 65 60 67 60 52 52 56 53 37 48 41 42 142 142 137 121 102 96 89 92 99 105 109 108 116 113 116 119 125 126 123 126 130 132 129 127 127 127 124 122 121 117 115 117 108 105 99 95 120 178 201 213 215 210 207 204 204 205 205 204 204 204 202 202 201 199 194 187 182 168 146 118 76 45 24 21 12 16 19 
28 27 25 37 41 76 72 56 69 58 49 56 58 47 40 43 43 52 150 135 136 109 87 98 82 86 89 96 97 98 101 110 103 110 115 116 118 118 125 129 129 129 126 125 124 121 120 119 115 112 109 104 96 95 137 188 207 212 213 207 203 203 203 203 204 201 201 202 200 199 199 193 183 171 157 133 89 47 24 18 17 16 16 21 27 
25 33 23 39 40 74 70 55 70 58 50 53 58 56 44 43 37 58 148 127 133 101 81 92 89 79 83 84 89 90 94 95 91 97 98 102 106 108 112 115 121 121 119 121 122 121 120 120 115 111 105 102 96 100 151 191 208 212 209 201 200 202 202 202 205 201 200 200 199 196 194 187 173 155 137 100 56 22 17 19 18 24 19 34 46 
22 26 27 45 49 71 74 50 59 65 51 48 58 54 48 47 43 62 153 128 128 98 90 92 99 90 85 88 82 91 87 86 89 90 88 91 92 97 100 104 105 109 111 112 116 117 115 117 114 110 107 102 96 100 157 196 206 210 205 198 199 199 199 203 201 201 200 199 194 192 187 180 166 148 113 68 31 20 14 16 19 31 41 49 52 
27 27 29 40 62 72 79 53 61 60 47 50 61 52 42 55 44 71 158 126 118 98 98 109 104 106 91 97 90 88 86 85 84 83 80 83 83 85 87 83 93 94 94 98 98 104 106 108 106 105 101 102 94 100 160 193 206 207 201 196 195 199 200 202 200 202 201 201 192 184 175 167 149 122 75 30 15 16 20 29 32 43 48 55 53 
18 14 22 33 60 56 79 46 57 55 46 46 60 51 38 51 35 81 154 126 115 102 108 113 108 112 109 101 102 97 93 91 85 85 79 80 79 78 75 75 81 85 88 91 87 87 91 92 92 92 93 88 85 96 160 192 203 203 197 195 196 199 201 202 202 201 202 200 192 179 167 146 101 61 29 15 14 22 30 33 41 49 55 55 53 
16 11 18 30 49 58 80 39 58 56 49 43 56 42 41 36 35 87 146 124 116 107 115 115 113 114 117 107 106 104 101 100 94 88 87 82 77 75 74 73 74 68 73 79 74 75 77 76 84 88 81 71 68 85 149 186 200 200 197 193 197 199 199 199 200 201 199 197 190 171 150 101 43 19 21 22 28 37 37 40 42 56 52 52 57 
18 12 18 37 45 60 79 44 55 51 46 39 52 44 43 40 35 94 142 122 118 117 122 119 117 117 122 114 113 110 108 105 103 102 98 89 86 85 80 75 71 70 68 73 71 65 72 74 87 88 81 63 48 68 139 186 199 199 196 195 199 202 202 199 199 198 193 188 177 150 116 53 15 19 30 41 43 43 43 48 51 55 54 56 56 
44 17 17 33 29 58 77 36 48 52 42 42 49 39 47 31 35 108 141 121 111 124 126 125 120 121 120 119 114 114 114 113 110 109 106 102 97 93 89 87 79 76 70 73 65 63 69 83 99 96 87 66 48 61 141 189 200 200 197 197 202 204 201 199 199 197 184 166 146 103 56 24 19 36 44 51 50 47 53 52 55 60 60 54 61 
153 58 25 27 23 49 75 40 50 52 40 48 56 39 44 25 37 122 133 119 113 126 127 124 126 126 121 119 117 117 115 116 115 113 110 105 103 98 101 94 90 82 83 83 72 64 78 87 107 101 83 67 43 70 150 189 201 202 199 201 205 206 203 201 199 195 170 132 85 36 16 18 35 47 54 48 48 51 58 59 62 63 64 55 50 
204 166 64 26 17 36 65 33 40 44 34 40 52 40 40 21 34 133 127 116 116 133 128 125 125 125 124 124 120 121 119 119 117 113 116 111 110 106 105 98 95 96 89 87 82 71 79 92 105 106 88 66 50 93 162 195 202 203 203 203 205 206 203 200 198 191 154 92 35 25 16 33 58 58 54 48 48 48 59 63 67 67 61 56 49 
203 206 172 68 20 31 58 29 33 37 31 45 47 42 35 15 34 132 129 117 116 130 126 129 124 126 124 122 122 124 122 124 118 115 115 115 113 108 106 103 104 99 96 96 95 82 88 98 107 106 87 68 60 119 179 197 205 205 205 205 205 206 201 196 192 176 130 66 19 17 33 57 62 61 56 56 50 57 68 70 73 67 63 57 53 
202 206 207 170 58 31 52 34 34 34 39 53 49 44 41 20 46 142 124 119 119 128 130 131 125 126 125 124 129 121 124 121 119 120 119 116 118 115 109 107 111 106 105 104 97 92 94 103 103 106 91 78 78 140 186 200 205 205 205 206 206 205 200 193 182 161 110 42 15 23 48 59 61 63 58 54 53 66 73 75 72 65 60 61 60 
201 206 209 208 158 44 33 28 22 27 32 44 34 47 44 17 51 147 117 119 118 126 130 130 127 128 124 119 125 122 121 123 121 118 119 117 117 115 113 109 109 108 105 106 99 99 95 100 105 105 100 84 94 158 193 204 205 207 205 206 206 206 200 188 170 136 88 30 23 39 62 61 60 64 64 58 60 76 83 85 74 67 61 52 64 
201 205 206 210 210 135 29 21 13 18 29 45 33 36 33 17 64 147 113 116 124 129 131 129 127 125 125 121 123 120 122 123 119 121 119 119 116 113 114 113 109 110 106 109 102 103 102 104 113 108 99 91 118 175 197 207 206 206 206 208 207 204 197 181 155 113 68 32 39 57 66 62 56 61 61 63 72 80 83 77 71 66 61 63 71 
199 205 207 208 211 204 100 29 17 18 23 38 23 37 22 14 73 147 113 117 126 128 128 127 126 128 126 123 125 120 120 123 120 124 119 121 117 116 114 113 114 109 108 106 105 105 104 108 114 113 104 95 132 185 201 208 207 206 207 206 205 202 196 173 130 87 48 39 51 65 67 57 61 63 65 69 79 81 81 76 68 63 57 65 72 
199 203 204 209 211 215 185 60 19 18 22 30 17 32 23 18 92 135 108 118 120 128 126 127 129 125 124 123 127 126 124 122 123 123 120 120 119 117 114 119 114 110 106 105 111 103 106 112 112 114 112 105 147 189 206 212 209 206 208 205 207 200 191 162 110 61 43 46 59 67 61 63 68 66 70 79 85 86 75 63 63 63 66 76 74 
196 202 204 207 211 216 214 145 20 13 21 49 15 33 16 17 106 129 109 119 125 130 128 125 125 125 123 127 127 122 120 124 119 119 120 118 118 117 116 117 112 112 108 110 108 102 101 107 110 117 117 119 163 192 208 211 206 207 208 204 202 200 187 148 84 46 45 53 61 63 57 69 69 67 73 83 82 73 66 59 62 66 71 73 77 
197 202 203 205 210 214 214 201 69 19 14 22 14 24 10 19 113 128 107 117 131 129 126 128 125 124 121 121 126 121 119 119 120 119 119 116 118 118 115 116 114 111 111 106 103 100 97 104 124 136 149 159 178 195 207 210 208 209 207 204 202 198 178 125 67 46 53 59 62 57 64 70 75 78 81 82 70 66 57 56 61 74 73 74 71 
199 200 202 206 209 211 213 216 149 18 14 19 11 15 9 26 121 136 109 119 131 129 125 124 124 126 124 123 126 123 120 121 120 120 116 115 115 119 115 114 114 109 106 104 103 95 103 120 138 157 170 179 193 201 208 210 209 208 206 204 198 191 158 103 58 53 57 65 63 56 66 71 75 80 83 78 67 61 55 58 63 73 74 76 74 
199 204 202 204 207 211 213 215 202 59 13 16 10 13 5 31 128 133 108 124 131 131 129 128 125 127 122 125 124 125 120 120 118 119 114 114 113 115 116 111 113 107 101 104 97 97 115 142 161 178 184 188 197 204 210 211 209 209 206 200 198 179 137 77 58 60 62 66 61 65 70 72 76 83 79 74 67 61 62 63 68 75 73 70 75 
197 203 202 204 207 210 212 214 214 133 10 9 7 10 5 46 122 131 113 125 129 130 132 132 124 126 128 126 122 124 124 123 117 120 116 115 115 115 115 110 110 107 103 101 99 111 142 167 181 188 188 193 200 208 211 210 209 209 205 199 189 162 105 63 56 62 63 60 65 69 75 76 81 85 76 67 61 59 62 67 71 76 72 67 77 
196 201 204 204 205 207 211 214 216 192 32 17 8 9 6 63 121 123 121 127 130 129 127 130 126 128 125 125 121 120 123 119 119 115 110 111 113 112 113 110 108 103 100 100 97 128 173 189 197 195 190 193 200 209 213 210 210 209 205 197 177 138 86 59 60 61 59 58 68 73 77 82 85 85 71 62 64 57 64 74 72 73 71 73 83 
201 200 200 205 205 209 207 213 214 213 101 11 6 7 5 75 118 117 123 127 129 127 128 128 127 125 127 123 124 123 116 122 119 115 115 113 114 110 107 107 109 108 107 96 105 158 189 203 207 203 196 195 200 208 212 211 209 207 202 189 159 115 73 59 61 61 61 63 68 70 83 84 83 84 68 61 57 62 68 77 76 75 74 72 76 
200 199 202 205 204 206 206 211 214 215 156 10 4 4 9 89 114 123 121 137 129 130 125 125 126 122 129 123 122 121 117 118 119 119 115 113 114 112 107 106 109 104 101 97 111 176 201 210 212 208 199 200 204 210 213 211 211 207 197 177 138 92 66 64 59 58 55 59 68 74 79 81 81 74 67 60 56 64 74 74 79 74 76 77 79 
195 198 199 203 203 206 207 208 212 216 196 40 7 5 13 95 110 119 120 138 124 129 127 127 122 123 123 124 120 122 119 122 117 120 113 110 115 112 109 107 103 100 97 94 125 185 205 213 212 206 202 203 206 210 212 211 209 203 191 159 118 78 68 63 61 58 55 65 68 78 84 83 77 66 64 61 62 70 78 75 75 77 80 75 73 
196 198 199 202 201 204 206 206 210 212 207 89 4 5 20 107 108 121 121 137 127 124 126 126 126 126 124 123 120 119 119 121 121 117 119 114 114 112 108 106 101 101 95 98 140 190 206 213 210 205 199 201 207 212 211 209 205 198 178 141 104 78 73 72 66 63 63 64 71 82 88 77 72 66 61 60 66 75 78 78 75 72 67 69 60 
194 197 198 201 203 203 205 206 209 211 214 143 5 5 20 105 110 118 123 132 131 123 125 125 125 123 122 120 121 121 119 121 119 119 116 115 114 112 110 106 108 101 98 105 146 192 207 209 205 198 197 203 208 213 211 210 204 193 161 121 97 82 74 69 70 64 67 66 71 80 82 80 73 67 62 63 66 73 76 76 73 73 67 64 56 
194 197 197 201 204 203 206 205 206 210 212 183 26 5 30 104 115 122 124 132 137 124 122 123 123 120 120 121 121 117 120 119 118 121 117 115 117 108 110 107 103 102 99 109 149 195 207 210 202 196 195 202 209 212 211 207 198 181 140 104 89 87 76 71 60 65 67 73 70 79 80 79 67 62 58 62 72 76 72 80 69 74 66 60 62 
194 194 196 198 202 202 206 205 207 209 210 203 61 6 41 104 115 124 123 127 137 126 126 124 123 125 125 119 120 118 120 119 120 122 120 115 116 109 106 103 103 104 103 109 160 196 207 209 200 195 196 201 210 212 209 205 194 165 120 93 83 87 75 73 65 67 62 68 73 79 78 68 62 60 56 65 74 78 76 70 68 69 60 61 68 
193 194 195 198 199 201 203 204 204 207 207 209 112 5 56 105 118 123 124 130 130 131 124 125 123 124 122 120 118 122 119 119 121 120 119 118 117 113 108 109 107 107 104 110 164 193 205 210 199 193 195 202 213 213 208 200 185 148 107 85 80 86 75 71 71 60 67 70 72 74 70 65 56 55 57 70 76 77 79 62 67 69 61 65 65 
192 197 197 197 199 200 203 203 204 203 207 210 160 9 62 98 120 123 127 130 130 130 121 124 122 126 122 120 120 121 118 121 119 120 120 118 113 110 110 107 108 107 101 111 151 185 200 205 198 191 194 203 212 212 207 196 178 134 92 86 84 81 79 72 68 61 58 68 69 73 62 54 56 59 67 71 78 77 74 66 73 67 64 64 70 
190 194 195 197 197 200 201 204 205 203 206 207 191 32 66 101 120 126 128 133 129 127 125 124 124 124 126 121 123 122 119 122 122 119 118 116 115 110 108 112 114 107 108 108 133 168 190 192 191 190 195 205 214 211 206 194 168 123 87 84 80 78 74 75 68 64 62 67 74 59 50 45 57 72 74 76 71 73 66 66 70 69 66 64 69 
189 193 194 197 196 199 201 204 202 204 203 207 204 86 71 106 121 123 120 131 129 124 125 125 126 124 122 128 125 123 124 122 121 121 121 118 118 114 109 114 110 112 110 109 115 134 164 173 173 182 195 207 214 210 202 192 160 113 84 79 75 76 70 67 60 60 64 72 65 54 38 48 65 76 75 71 74 66 63 66 66 66 68 72 73 
188 192 195 196 196 201 201 202 203 203 204 205 205 139 76 111 120 116 103 114 119 118 122 123 125 128 130 126 127 124 124 124 122 124 121 119 116 110 115 114 115 115 115 113 116 116 127 141 147 173 198 208 215 207 201 187 150 105 81 76 75 69 67 61 56 64 71 64 61 49 46 57 71 83 75 71 70 62 59 65 69 71 66 72 71 
188 189 193 197 198 201 203 202 203 202 203 204 207 182 87 118 119 100 89 99 101 104 110 112 114 120 126 126 129 128 125 129 126 126 124 123 122 116 121 114 120 120 121 118 115 113 105 114 131 174 200 214 214 209 198 178 137 97 80 78 74 62 66 57 60 65 64 61 51 43 53 62 75 80 72 66 64 61 61 64 69 70 68 77 63 
189 191 192 196 199 199 200 201 204 204 204 203 207 202 115 118 105 79 68 84 79 89 92 102 103 110 112 119 121 123 129 128 128 124 125 124 121 118 119 124 125 128 124 119 116 115 107 118 133 183 204 217 214 207 195 166 123 91 77 77 71 68 59 55 63 70 65 49 49 48 60 67 76 73 72 69 64 60 64 67 72 68 68 66 57 
187 191 192 193 197 200 200 202 201 204 204 203 207 209 151 107 75 63 51 72 59 68 74 78 89 96 100 105 108 118 116 121 120 120 122 125 124 121 118 123 132 132 125 120 118 112 111 116 143 189 206 215 212 204 188 151 109 82 75 68 61 58 54 60 66 67 55 43 45 56 70 76 74 67 68 67 57 64 69 75 73 67 69 57 43 
184 190 193 196 198 199 201 205 202 206 205 205 207 211 185 90 54 49 39 53 43 56 55 68 67 70 79 82 93 97 98 105 109 112 112 116 120 125 129 130 134 136 122 115 105 105 109 125 164 196 209 216 210 197 178 137 98 81 69 60 49 47 53 62 68 62 45 39 49 58 77 72 68 67 70 67 62 65 78 79 69 69 61 53 37 
183 190 193 196 197 198 201 203 201 203 203 208 208 211 201 85 43 52 48 58 40 42 43 47 56 57 64 67 67 76 74 81 91 93 95 102 113 116 124 135 143 140 128 118 101 105 107 135 181 203 213 215 206 191 157 116 89 70 58 52 43 50 55 65 64 53 37 48 61 71 78 66 65 67 67 65 66 68 79 79 70 68 56 44 29 
184 189 190 193 196 197 199 201 202 204 203 207 208 209 210 113 47 58 55 62 50 53 51 49 53 47 49 52 50 52 57 61 66 69 73 79 91 102 114 125 137 137 123 130 135 128 123 141 186 208 214 212 200 176 132 100 74 59 49 41 44 51 65 62 57 45 43 58 72 73 75 66 65 70 64 62 70 76 81 73 72 64 48 42 24 
183 187 190 193 196 196 199 201 202 202 203 204 209 208 211 149 44 57 61 66 67 62 54 53 57 48 41 44 38 39 43 41 43 45 46 46 64 77 95 107 114 123 140 155 149 131 132 162 195 209 214 208 191 154 116 82 58 45 30 29 39 49 56 50 51 46 51 69 78 74 60 62 66 69 62 62 68 76 78 67 69 62 50 33 28 
182 189 187 191 196 195 199 198 201 204 202 204 207 207 211 186 54 57 66 71 70 67 66 66 58 56 55 45 45 37 32 27 29 23 23 26 32 43 62 79 86 131 173 180 169 137 141 173 198 209 211 203 183 142 97 63 47 34 24 31 50 53 50 44 47 58 67 81 80 69 64 61 60 62 64 63 72 76 78 73 68 55 35 32 27 
179 185 186 190 193 195 196 197 199 203 202 204 207 207 208 205 93 53 68 72 78 76 75 70 65 63 59 51 44 40 39 31 26 22 17 20 15 25 31 57 107 165 189 186 173 148 146 180 200 208 208 198 170 122 75 46 39 28 31 40 48 53 49 42 53 65 71 83 80 69 61 61 56 61 62 66 73 79 76 72 60 50 34 31 23 
180 184 185 187 193 194 198 199 198 202 203 204 205 206 208 208 136 56 66 74 81 78 78 76 75 71 64 62 55 50 49 32 30 24 19 17 11 17 18 59 140 187 196 195 164 131 153 190 205 210 204 187 149 91 53 32 28 31 37 47 53 50 37 40 58 72 82 78 69 61 56 56 60 52 65 72 83 82 76 67 56 40 39 28 27 
178 181 185 187 190 192 195 197 200 198 201 202 206 204 206 211 173 61 62 73 73 80 79 81 80 75 69 69 62 61 56 45 33 31 17 22 18 13 14 60 154 192 200 194 150 134 170 194 203 205 195 168 111 47 32 28 26 34 41 47 47 43 43 54 67 78 85 74 58 53 57 56 56 56 62 77 87 85 73 64 56 49 44 36 28 
176 180 185 186 190 194 196 198 197 199 200 203 203 203 207 209 199 76 55 67 79 84 80 82 79 76 69 71 60 65 57 50 49 37 34 21 17 16 17 59 146 186 195 189 155 151 178 192 198 192 173 121 58 27 25 27 34 38 48 37 38 41 51 67 78 82 75 62 58 53 49 53 55 63 71 85 92 77 74 64 54 53 41 34 32 
171 178 179 185 190 190 194 196 198 199 198 203 204 199 203 207 206 115 51 65 74 82 83 81 83 79 75 68 71 66 55 57 52 43 38 29 22 23 28 57 129 177 192 190 181 176 181 188 184 165 123 63 29 25 23 24 36 42 44 36 40 48 60 75 79 73 65 51 47 50 50 50 56 69 77 88 87 79 71 58 57 56 41 33 35 
168 176 179 181 187 190 193 196 196 201 202 202 203 200 204 206 207 161 55 59 66 74 81 85 84 80 78 69 72 68 63 63 55 49 50 43 33 36 39 54 119 177 194 195 194 185 174 163 146 115 74 41 26 25 27 34 40 41 33 36 50 62 73 76 76 65 61 54 50 47 53 53 63 76 85 91 79 69 72 61 52 45 36 33 47 
166 173 176 177 186 187 190 194 198 198 199 201 204 201 203 206 208 190 66 57 67 74 75 79 79 79 76 72 70 77 67 70 59 56 55 50 51 54 51 71 123 179 199 204 200 183 159 123 98 66 42 34 23 27 38 45 43 41 34 47 55 69 81 78 77 63 50 50 45 50 52 62 77 83 90 82 77 66 71 60 51 42 37 43 41 
162 170 174 177 182 185 189 192 193 197 199 202 202 203 204 207 207 202 93 54 65 71 77 77 77 78 83 74 72 74 71 72 62 60 59 65 64 61 55 74 128 176 200 204 193 164 121 79 52 40 34 27 30 37 42 45 38 39 43 61 70 81 78 74 69 53 45 42 44 53 59 66 79 90 89 77 81 70 69 54 49 32 37 47 48 
162 166 170 178 181 185 188 190 196 197 199 202 203 201 202 205 206 206 135 51 58 71 73 76 76 79 78 78 72 79 75 76 69 67 68 70 71 67 62 72 119 167 191 191 170 129 72 51 51 45 40 33 44 46 50 46 42 46 58 75 84 87 78 67 57 49 39 40 37 51 66 69 85 89 85 81 77 72 62 45 34 38 43 45 44 
160 163 172 173 179 181 188 190 192 195 199 195 202 201 204 206 203 205 174 57 59 64 70 74 75 79 83 81 76 81 80 76 70 74 77 80 80 77 71 71 99 142 156 153 120 73 55 56 57 48 43 47 46 50 47 42 47 55 70 81 91 77 65 57 49 52 39 39 45 58 76 81 94 90 91 79 78 69 54 40 37 44 41 40 33 
161 167 169 171 178 180 185 188 191 194 197 201 202 202 204 205 206 207 193 72 55 59 64 72 75 77 82 82 82 86 81 75 79 81 81 87 85 82 76 75 85 108 111 100 74 57 52 49 46 52 52 58 52 48 44 44 56 68 75 81 83 68 60 43 40 40 33 39 51 75 82 88 93 94 90 77 78 63 47 41 40 34 35 36 30 
162 166 170 173 175 179 181 186 191 191 193 196 203 203 202 203 204 206 204 108 52 56 66 67 75 75 77 85 84 87 87 80 82 83 90 93 89 86 83 82 79 83 84 77 66 58 60 59 58 66 59 57 54 44 42 46 59 72 80 81 68 61 48 46 43 36 35 47 65 81 86 86 95 94 88 84 73 57 47 40 34 34 35 31 27 
155 163 164 170 175 175 179 184 185 191 193 196 202 202 202 203 204 206 206 147 52 51 63 66 73 74 78 83 85 91 87 86 87 90 94 92 86 84 84 83 77 75 74 70 65 62 63 72 70 72 61 58 53 49 54 55 66 80 73 72 56 54 53 50 42 44 37 58 73 88 90 97 102 88 83 78 67 47 43 36 32 34 33 29 32 
153 161 160 163 171 174 176 184 183 187 192 194 199 201 201 198 204 204 205 175 51 47 60 67 73 76 81 85 89 88 90 92 93 94 93 96 88 84 86 81 78 73 74 72 69 67 71 78 78 73 66 58 49 51 56 63 70 74 54 54 49 43 48 45 50 46 50 63 78 92 96 97 95 83 84 70 54 43 31 32 31 30 24 26 23 
156 160 164 166 169 172 174 180 186 189 191 192 196 198 201 199 198 204 205 194 75 46 59 66 68 81 82 82 87 86 90 96 97 96 96 88 84 85 85 85 80 81 73 74 67 70 81 84 81 72 64 58 54 61 68 73 72 65 58 43 42 43 46 40 54 51 59 80 91 96 115 94 90 79 69 63 49 40 36 31 30 34 28 29 27 
153 160 164 160 169 172 173 180 187 186 190 192 195 196 199 200 201 204 204 202 110 46 55 62 71 71 72 83 84 84 90 98 98 97 95 89 90 86 84 84 81 79 74 76 78 86 87 86 82 75 65 63 61 67 70 71 75 61 54 46 45 46 47 46 48 61 76 87 98 100 98 91 86 74 66 51 41 34 29 34 36 27 25 31 32 
154 160 158 162 167 172 175 178 182 185 190 191 195 196 199 200 201 201 203 206 147 46 52 61 71 81 77 80 77 85 92 94 96 93 92 93 91 88 85 85 79 79 82 81 87 91 95 88 79 70 63 64 68 77 70 65 64 59 59 55 51 59 45 49 57 71 86 99 104 102 98 84 82 67 59 42 32 25 22 26 30 41 30 42 47 
150 157 154 163 169 172 174 178 181 184 188 190 193 194 198 198 201 201 201 205 177 58 51 60 63 66 70 77 79 82 91 91 93 90 93 97 97 91 84 84 82 88 87 85 95 95 95 85 75 70 62 63 67 68 59 60 54 56 60 58 58 53 50 59 71 87 97 109 107 103 92 85 69 59 41 31 33 20 27 28 30 37 40 53 62 
146 151 153 158 164 169 175 177 179 183 184 191 191 192 195 198 200 199 202 206 196 86 61 62 67 71 63 65 74 87 87 89 88 94 100 103 96 91 91 89 88 90 98 103 107 100 92 83 73 62 65 61 57 55 52 52 54 66 62 63 58 58 52 67 74 90 103 109 106 103 93 71 57 46 32 26 22 22 25 25 31 43 51 64 69 
