P2
64 64
255
67 95 103 69 94 123 83 109 116 141 134 103 120 104 110 48 25 22 25 28 27 28 29 27 29 38 46 38 19 19 33 44 26 24 23 28 30 22 22 24 16 21 27 27 33 32 29 39 37 39 29 32 43 43 44 33 27 27 23 30 28 34 32 34 
54 103 119 73 59 99 83 110 131 146 121 113 134 153 144 101 40 30 28 30 28 29 29 28 32 50 48 40 24 20 29 45 24 27 24 24 31 23 23 26 23 21 27 26 33 37 33 35 37 37 32 26 32 38 54 45 33 30 34 47 46 53 53 61 
32 72 118 66 53 111 111 61 123 139 125 83 49 78 134 145 96 47 20 18 22 23 28 22 27 47 51 39 17 16 31 36 24 24 24 23 28 24 21 27 22 21 26 23 30 36 34 29 33 32 32 25 25 39 44 45 48 49 62 76 79 81 91 96 
24 37 70 64 90 141 112 62 81 136 146 119 64 33 54 148 162 131 48 20 23 23 24 25 28 45 55 31 18 15 42 39 22 22 21 22 29 27 22 25 23 19 26 23 31 31 34 26 37 30 26 21 21 35 44 51 53 65 75 79 90 93 96 94 
18 34 86 101 120 141 80 67 82 101 127 84 104 70 32 94 147 149 130 48 26 28 26 30 35 45 58 30 22 23 46 45 23 23 27 23 26 29 22 20 23 21 24 24 29 31 35 28 29 34 28 22 24 27 45 50 57 69 80 86 95 95 94 88 
42 57 80 119 146 107 48 74 69 70 101 112 68 63 56 73 136 105 140 130 34 21 25 31 41 43 57 31 22 22 36 47 30 28 31 22 21 25 33 27 21 28 29 29 24 27 35 37 28 31 28 31 21 30 50 55 57 74 84 90 93 95 89 91 
111 115 119 147 133 51 62 60 90 74 78 113 86 45 104 114 147 101 54 153 104 30 20 27 26 40 48 22 19 21 43 49 24 26 28 24 22 22 31 27 23 26 25 22 26 22 33 34 31 31 31 28 24 24 42 56 61 76 79 88 87 91 90 90 
65 77 107 142 70 54 70 80 63 98 93 89 91 80 102 140 149 83 54 66 147 56 19 25 28 40 52 22 22 23 45 49 20 24 24 19 26 19 30 27 24 22 25 20 23 30 36 38 31 32 31 30 25 20 40 53 60 77 88 88 85 90 89 92 
66 58 87 112 34 85 85 76 84 75 102 102 93 89 97 102 146 67 58 47 68 124 34 27 23 39 47 24 20 14 42 44 20 23 22 19 23 18 28 31 29 26 23 20 27 32 28 35 33 47 33 27 25 21 32 48 62 71 80 82 87 89 88 86 
84 81 123 83 46 45 98 91 90 89 63 135 105 103 118 97 104 135 45 24 82 118 87 24 27 40 40 23 17 13 52 44 27 26 33 22 26 18 32 30 38 33 28 24 27 26 28 32 37 44 39 32 27 24 32 52 67 72 78 78 81 89 88 91 
93 121 75 40 49 53 49 102 102 94 72 111 140 104 115 88 76 111 123 25 32 76 133 44 28 37 28 25 20 21 49 46 24 28 29 27 28 24 26 31 38 44 28 29 26 29 30 33 33 44 52 34 29 26 31 54 66 71 82 81 82 85 88 91 
104 59 52 35 50 63 58 63 96 105 101 133 126 126 114 118 38 28 102 96 25 46 109 108 25 34 33 30 25 25 53 45 29 31 30 25 25 23 31 31 36 36 34 28 25 24 36 37 37 36 53 36 27 30 28 57 63 75 81 82 83 83 91 92 
45 33 45 35 34 62 78 59 82 98 109 119 119 121 127 140 68 12 66 161 71 25 63 154 40 27 30 21 20 21 47 43 29 28 26 32 29 25 28 31 40 38 28 28 27 25 38 33 38 44 58 53 30 21 24 56 57 80 79 80 87 94 89 90 
27 36 39 54 41 42 76 80 65 68 91 117 118 113 146 130 123 26 20 127 162 42 69 117 80 23 19 18 23 22 44 44 26 29 26 27 30 28 27 30 39 39 26 25 30 30 45 42 32 48 63 65 35 19 19 48 52 83 81 79 85 96 85 79 
49 23 40 58 53 48 55 89 74 64 75 111 128 115 126 97 119 86 45 86 154 114 69 64 140 32 26 23 30 30 51 45 32 35 32 35 35 32 33 36 39 46 33 34 36 33 53 47 34 54 70 72 48 27 20 45 56 89 87 84 82 87 78 87 
86 37 28 42 41 54 46 66 93 70 60 109 126 115 115 96 105 120 77 89 82 132 56 29 163 52 24 22 23 21 52 39 37 37 25 23 28 19 25 34 35 44 30 30 25 23 35 41 36 54 76 76 55 21 16 39 54 89 88 79 77 83 95 93 
84 71 27 36 50 51 44 52 81 88 62 107 129 109 111 123 110 134 69 99 36 120 133 25 148 100 14 14 19 16 50 36 28 33 23 22 24 20 24 26 37 46 25 23 21 16 35 41 36 62 80 83 69 23 16 33 57 80 84 69 79 98 102 93 
62 58 67 34 45 58 54 51 49 91 67 104 90 91 98 129 120 160 121 91 19 41 167 58 128 143 15 12 16 17 44 35 31 37 24 27 25 24 26 27 36 36 34 30 26 17 34 40 35 63 85 81 69 32 14 35 54 75 71 76 91 98 99 93 
73 36 63 65 36 75 71 57 40 59 72 103 63 94 106 100 123 157 144 75 17 14 81 94 116 171 17 11 12 13 40 38 28 40 22 24 23 18 21 29 51 43 27 30 39 17 28 28 36 67 83 84 73 37 10 27 48 72 84 84 88 97 100 97 
68 35 41 77 62 63 81 87 76 49 61 92 61 110 114 88 122 155 135 81 34 10 37 122 121 194 24 21 16 14 41 37 30 47 23 23 20 20 26 25 39 47 26 30 29 18 30 28 50 76 81 83 68 33 11 24 52 75 80 81 92 97 94 97 
62 46 25 49 64 60 81 92 93 74 48 68 58 101 121 130 116 144 99 27 41 16 38 142 145 195 32 17 15 14 47 33 32 50 25 25 24 23 26 31 41 34 22 22 25 19 24 27 58 67 73 82 65 40 17 23 58 69 83 82 92 95 88 93 
69 58 26 53 45 72 70 91 82 74 57 67 53 84 135 141 125 140 132 29 21 56 22 133 168 181 17 12 12 13 46 30 37 64 22 22 22 20 25 25 38 33 23 23 35 28 27 40 65 78 74 62 68 48 17 25 59 71 84 86 93 95 88 90 
26 37 20 58 38 71 69 81 73 69 52 65 57 86 123 138 118 129 141 62 20 27 21 126 179 148 18 14 20 21 55 38 35 66 29 29 27 31 21 28 40 30 18 18 23 23 27 49 69 71 63 71 79 48 17 26 61 67 80 90 97 94 92 92 
14 29 28 46 51 55 78 81 93 75 62 52 50 89 126 120 93 142 116 94 30 20 17 119 176 86 26 9 13 22 58 32 39 53 20 32 25 21 24 24 41 40 26 18 20 30 26 57 61 64 70 89 83 53 17 26 65 72 82 92 96 92 92 96 
20 29 22 27 50 48 61 81 99 72 54 52 37 83 144 109 105 143 109 124 95 41 32 140 141 59 115 14 12 27 55 36 43 41 24 30 25 25 20 29 27 29 35 25 26 33 33 52 69 78 86 87 83 55 13 33 63 74 79 93 96 95 96 95 
20 34 23 22 43 40 52 64 112 89 32 33 38 88 136 122 131 144 65 76 125 72 107 164 119 124 177 28 15 29 44 31 39 33 31 27 34 30 22 23 26 24 29 31 28 27 47 70 81 87 88 90 84 57 14 43 60 75 81 96 96 96 103 99 
23 41 33 13 47 38 37 36 100 103 40 46 69 99 122 123 137 145 121 68 113 53 136 149 108 113 94 19 19 34 39 23 32 33 39 26 33 33 26 34 21 22 24 24 38 40 57 83 83 89 90 86 84 45 16 53 63 76 83 87 93 93 99 103 
20 39 35 9 40 45 31 58 99 90 91 76 84 102 120 123 122 75 119 121 129 141 173 124 29 18 14 37 33 40 31 25 34 29 35 21 32 29 23 35 27 23 28 30 40 45 67 87 90 90 87 83 75 37 15 59 62 74 88 88 92 96 98 101 
22 38 40 11 40 64 28 26 46 52 93 107 114 105 114 135 105 54 75 109 118 145 149 127 88 37 38 66 21 44 27 29 38 28 36 33 35 28 24 34 22 23 22 33 40 51 71 88 91 90 87 90 80 32 16 59 64 74 89 95 95 98 94 99 
24 48 21 25 43 65 36 23 21 30 58 105 128 112 100 125 108 85 61 58 81 115 97 142 151 119 118 82 62 70 37 32 31 32 48 57 30 24 30 31 20 20 21 40 41 53 73 90 90 89 87 89 78 27 21 60 70 81 87 90 97 97 95 100 
20 41 29 28 66 64 29 23 11 21 52 102 132 101 114 112 112 70 73 10 11 47 48 28 35 63 70 81 111 108 91 115 95 89 61 30 32 22 22 30 20 22 28 40 52 64 79 92 87 91 93 87 71 37 30 63 71 84 90 92 98 99 97 97 
17 37 31 23 79 55 17 44 15 32 52 89 107 73 129 79 97 108 89 48 12 31 70 16 21 48 10 18 46 47 37 99 91 74 79 47 32 25 33 28 21 26 38 45 54 67 84 88 90 95 94 92 59 29 39 64 69 88 96 92 97 100 98 103 
20 37 16 26 79 57 17 35 63 44 64 76 104 91 99 108 81 109 115 101 20 28 84 14 30 23 15 28 44 31 26 48 34 36 62 92 38 26 21 23 20 30 42 53 60 73 86 88 92 94 95 93 59 22 51 70 77 95 97 95 98 99 102 103 
29 34 14 50 58 52 62 28 64 66 62 76 73 103 96 88 73 90 115 128 72 22 89 18 25 16 22 38 31 36 23 41 31 31 23 44 37 26 20 16 17 36 49 54 66 74 86 90 91 97 95 84 47 24 57 76 81 95 95 95 102 103 104 103 
31 35 19 72 43 37 76 49 19 84 78 77 72 108 117 98 60 37 69 106 125 55 75 32 30 12 28 36 31 20 22 35 39 26 26 26 35 24 23 19 25 35 51 56 72 73 87 85 93 94 93 77 35 29 58 72 84 95 98 97 105 107 105 106 
25 40 45 49 37 36 57 81 19 22 112 150 98 124 100 94 76 46 43 100 101 109 95 70 124 12 22 32 29 27 32 32 33 23 27 23 28 23 17 20 31 48 53 59 75 80 86 91 92 90 86 68 28 44 65 76 91 94 102 102 104 107 106 104 
17 42 82 26 23 28 36 89 52 22 31 65 63 98 104 100 55 27 30 74 102 140 118 142 101 15 23 28 20 18 30 27 22 24 24 23 18 25 18 21 31 44 62 69 79 84 85 93 89 88 84 50 22 52 66 85 93 97 100 102 103 109 109 106 
16 54 70 24 15 23 48 96 66 47 23 29 27 29 72 125 88 26 27 48 66 110 165 151 36 19 22 29 21 22 33 33 23 25 24 16 19 22 18 24 40 46 61 76 79 80 88 94 89 88 73 31 30 61 68 90 94 100 98 103 104 103 106 106 
17 66 32 28 24 23 64 104 103 48 54 30 31 17 27 95 109 27 34 74 70 52 119 86 13 23 30 24 14 21 28 25 19 19 16 16 18 25 24 30 41 54 69 75 80 82 85 92 88 87 57 28 37 60 80 96 97 103 101 105 102 105 104 103 
22 57 17 32 43 29 43 100 103 103 34 40 29 16 28 49 60 35 28 86 91 70 92 65 12 22 29 18 23 24 18 25 26 16 11 12 18 26 38 40 43 61 78 78 83 83 90 92 90 79 37 24 47 64 90 102 99 98 99 102 104 107 107 110 
25 27 26 44 48 87 77 77 112 133 59 25 48 48 23 35 33 22 37 98 46 74 98 31 17 25 23 13 21 25 22 24 18 16 15 15 21 26 43 44 54 70 80 82 82 79 86 86 85 56 15 36 58 72 95 96 98 100 101 101 103 110 109 111 
24 19 38 68 14 65 90 68 104 105 142 62 37 39 39 49 56 49 69 132 23 34 51 27 20 22 17 12 31 19 18 21 20 18 16 15 32 27 47 49 60 76 81 87 84 82 83 86 75 25 16 48 67 86 96 100 95 103 97 98 101 105 106 107 
29 28 30 30 11 26 70 57 90 97 127 126 95 31 53 75 93 91 36 35 23 21 22 28 35 28 19 20 26 20 17 19 14 17 19 18 26 32 51 52 67 81 85 86 81 88 84 80 42 13 22 59 79 93 98 100 100 98 99 101 101 106 107 106 
34 33 21 18 27 25 22 73 76 103 113 111 130 83 103 72 66 83 70 26 20 17 22 27 29 19 19 22 20 15 12 16 14 15 14 19 32 39 58 60 71 82 79 83 83 85 84 52 13 14 43 67 86 97 98 102 103 98 101 104 104 105 105 105 
18 35 34 25 29 22 13 30 70 86 125 132 90 118 91 70 65 47 83 52 16 15 22 29 17 21 24 29 28 19 20 14 11 16 13 21 37 45 59 68 75 79 80 85 83 85 65 23 12 25 59 82 94 96 100 102 103 100 102 104 103 107 103 104 
13 20 44 24 23 38 22 21 22 60 96 142 127 112 108 56 78 96 110 58 17 15 26 24 14 19 16 13 19 15 14 16 14 17 21 35 42 51 63 72 78 78 83 80 88 76 30 16 20 48 74 92 94 96 102 102 102 101 104 100 101 104 104 104 
21 17 20 34 29 54 31 23 18 19 56 109 113 129 123 82 88 62 81 95 21 22 28 20 20 20 17 14 18 14 14 21 17 14 28 48 46 60 70 81 83 80 87 85 78 39 17 16 31 63 85 96 93 100 100 99 99 102 109 102 106 103 106 104 
30 28 15 33 42 42 32 28 20 25 44 58 97 126 151 116 67 71 105 95 25 27 20 19 18 18 22 19 17 14 9 15 17 19 40 45 45 61 75 81 83 82 87 79 37 12 23 37 57 80 93 93 94 103 100 100 99 103 107 108 105 103 103 106 
24 38 34 17 36 43 37 30 34 46 35 47 45 56 90 120 102 97 50 28 23 22 22 19 24 17 22 17 11 10 16 24 20 32 42 51 52 71 77 90 84 81 75 35 11 10 31 56 74 92 92 93 95 98 101 102 98 103 104 106 104 106 104 107 
16 38 63 28 21 37 53 29 23 62 59 29 63 65 79 59 102 132 63 21 23 22 21 25 26 19 18 18 16 13 18 20 27 44 43 51 66 70 81 86 78 68 27 10 18 34 54 69 86 88 90 93 97 93 101 102 100 106 103 107 103 104 101 108 
15 39 68 62 29 30 66 26 38 48 74 39 61 108 108 38 49 63 73 25 25 19 21 21 22 20 17 15 11 17 27 26 40 47 52 66 69 70 79 69 38 17 14 15 44 62 72 79 88 89 93 93 95 96 101 103 100 106 106 104 103 105 105 103 
19 32 67 43 44 34 43 64 31 43 33 58 48 84 135 76 52 20 65 38 21 18 19 24 24 14 13 18 12 12 13 28 48 49 60 65 65 53 31 18 15 18 36 57 66 74 81 83 91 88 93 96 97 99 100 102 101 103 105 101 103 108 110 108 
26 20 70 41 19 23 36 104 36 37 30 57 57 65 129 96 53 30 46 46 20 13 23 24 16 17 14 23 20 17 25 41 49 48 44 30 26 25 18 19 36 47 63 66 75 83 87 84 89 92 101 96 95 97 103 101 100 103 103 98 102 108 107 104 
24 22 44 74 17 28 37 72 96 35 32 40 66 87 100 151 95 27 28 43 17 14 20 27 20 27 17 19 19 21 23 22 20 24 14 15 26 33 43 59 65 67 72 77 84 85 93 88 87 89 94 95 96 94 99 103 102 104 100 106 102 106 106 101 
33 26 28 84 40 25 23 36 97 55 49 33 62 98 94 113 121 69 31 37 18 16 19 17 20 24 28 17 19 15 12 17 21 22 40 40 46 53 57 60 70 80 84 86 93 90 92 94 96 93 94 91 96 97 99 99 96 105 102 101 105 104 101 102 
17 19 59 71 90 14 12 43 45 87 42 46 40 104 94 67 75 90 65 28 21 26 31 32 27 17 14 14 14 16 25 33 35 40 52 52 59 58 72 75 83 87 87 84 86 87 90 94 92 94 92 94 95 91 98 101 95 98 101 104 101 101 100 103 
16 11 37 78 106 45 12 26 50 63 76 36 43 82 88 98 52 83 67 34 17 19 34 20 13 14 14 18 27 28 38 47 55 54 67 72 70 76 80 83 85 86 87 88 89 90 90 92 98 96 91 93 89 94 94 100 100 103 100 101 99 98 102 111 
30 16 21 72 102 72 25 8 24 66 96 40 26 55 86 97 83 54 42 34 19 17 23 21 19 21 23 17 22 29 42 53 58 66 79 78 78 79 78 84 88 89 89 93 90 93 93 94 92 92 95 93 90 95 103 98 100 104 102 100 100 102 101 106 
70 34 16 70 85 79 47 15 14 47 67 104 29 20 51 73 98 46 18 36 20 17 24 27 25 20 22 16 33 48 56 63 66 78 77 79 82 78 81 83 87 90 90 90 91 93 94 89 97 92 94 96 94 94 100 96 101 99 100 99 103 102 102 105 
106 34 15 20 64 84 34 35 13 38 47 88 70 17 48 48 91 73 53 52 21 15 13 14 19 23 26 33 47 54 60 69 71 77 80 80 84 83 82 83 87 88 92 90 87 93 90 88 94 94 96 99 96 94 94 96 96 100 96 103 104 104 101 99 
128 52 17 18 42 92 43 38 33 23 58 46 78 29 41 44 84 71 85 95 29 11 8 12 15 22 34 46 53 57 68 71 71 78 74 80 83 83 85 81 86 89 96 92 92 92 89 91 93 97 95 95 97 96 94 95 95 100 97 100 102 101 98 102 
122 99 25 16 47 95 88 26 37 38 47 60 42 42 21 47 64 73 57 102 94 33 12 12 18 29 37 43 53 57 69 68 71 80 80 79 87 85 84 86 88 87 94 92 89 91 93 96 95 97 93 96 98 97 91 94 103 100 106 102 100 98 96 102 
60 105 70 25 39 111 87 24 14 23 40 60 48 39 25 23 28 75 44 63 102 87 35 24 35 45 51 48 55 62 70 72 76 81 83 79 84 87 88 86 91 90 89 90 93 92 93 93 94 94 92 92 96 95 94 94 99 96 101 100 104 101 94 99 
43 70 110 49 33 120 69 18 28 19 24 41 57 45 33 24 26 76 45 25 76 55 81 25 47 49 50 58 56 63 68 71 73 76 81 83 87 86 88 89 88 90 98 97 90 93 92 91 93 91 96 98 97 100 96 93 94 96 101 105 101 101 95 99 
