P2
64 64
255
51 59 36 33 35 30 16 29 46 24 20 25 52 86 64 92 85 81 81 89 101 116 127 129 127 142 158 175 175 181 177 174 172 166 134 109 96 87 52 40 25 20 23 30 31 33 38 32 43 20 18 11 21 48 37 151 144 87 70 27 22 50 34 39 
22 26 23 22 19 18 20 24 26 24 16 10 14 27 85 106 92 90 88 93 103 110 118 125 130 140 160 173 177 182 185 182 174 150 107 59 39 27 19 22 21 17 18 24 28 26 28 35 33 14 18 12 14 50 30 147 152 93 69 46 21 44 40 35 
21 22 24 18 14 16 16 37 67 57 27 17 14 12 27 74 102 96 90 91 99 106 114 119 128 140 162 175 187 187 191 185 159 90 40 29 25 30 22 39 39 24 20 21 31 32 26 27 20 18 17 14 21 41 28 137 152 91 71 44 34 41 38 36 
19 20 18 17 15 24 27 70 150 150 88 36 13 12 13 41 88 98 89 90 98 100 109 117 125 137 161 177 192 194 197 175 80 23 24 19 28 33 50 86 106 63 20 13 19 26 26 25 15 22 20 13 20 46 23 133 161 95 65 38 32 46 45 33 
49 29 34 28 9 30 48 56 173 188 168 126 43 25 59 40 79 87 81 86 95 101 110 111 125 138 156 185 199 204 195 111 31 23 22 19 24 42 119 91 143 101 41 17 13 24 23 26 19 20 19 11 25 45 18 129 157 93 65 56 40 52 37 37 
73 48 47 62 26 40 67 39 173 190 189 176 109 37 75 64 63 81 75 84 90 99 103 106 122 143 166 189 207 207 152 62 39 30 48 24 27 43 62 83 155 123 57 28 18 25 17 22 20 18 30 21 24 51 18 132 156 110 52 68 42 59 34 33 
72 88 39 54 59 55 31 97 198 199 197 192 147 64 53 82 57 72 74 80 84 94 99 112 130 146 170 195 206 197 112 60 81 38 68 61 53 64 36 114 149 121 65 32 14 14 12 18 18 18 17 16 29 51 17 124 161 120 50 70 46 64 30 35 
68 86 82 46 31 42 94 176 193 193 189 177 135 94 65 86 75 74 86 78 84 94 103 111 129 147 182 204 209 187 82 77 107 87 52 65 66 46 89 159 148 113 59 28 19 16 16 18 16 16 15 15 41 49 22 117 160 123 48 64 53 59 31 29 
63 81 101 96 90 117 167 183 190 196 191 158 108 115 91 78 95 80 78 84 90 91 95 105 126 152 189 212 210 173 79 60 91 112 95 72 77 108 161 160 146 103 57 27 24 22 16 23 25 17 29 21 44 43 24 99 163 131 55 62 61 59 38 21 
66 68 83 99 115 127 139 155 164 164 158 157 133 112 95 94 95 86 81 80 90 92 88 110 126 153 185 212 210 169 106 78 75 88 115 115 122 137 145 133 112 71 42 15 35 33 24 26 23 24 34 26 49 42 25 99 157 144 70 59 72 36 34 28 
98 91 71 81 62 91 103 102 109 99 125 145 151 155 141 109 87 86 85 90 88 92 92 107 121 151 182 212 213 176 151 142 128 112 118 100 93 109 112 73 52 37 27 28 56 45 24 25 24 19 34 26 48 35 21 92 148 147 86 51 67 43 36 20 
113 98 84 90 69 96 105 99 89 92 123 120 130 131 117 102 85 84 92 95 88 89 88 105 118 142 176 210 216 182 144 127 115 107 105 85 82 84 81 56 41 38 54 51 51 41 21 23 17 13 25 31 54 40 24 86 148 156 99 46 71 42 28 22 
118 107 106 103 95 99 106 107 105 119 126 129 124 117 121 118 89 86 96 98 92 90 86 95 120 138 177 207 216 190 156 136 125 110 100 94 99 92 94 80 62 52 62 64 61 47 21 25 13 16 19 26 45 39 20 86 142 164 109 49 63 36 23 24 
116 109 113 111 108 110 113 122 124 130 136 137 132 134 136 111 95 95 100 99 91 87 88 90 114 141 176 201 214 195 169 154 137 127 115 107 103 94 90 85 72 69 72 73 66 49 26 31 13 19 23 30 41 36 22 82 141 160 112 49 50 35 23 28 
128 121 123 128 123 131 134 138 141 144 139 143 134 141 132 107 93 99 106 99 87 90 89 89 113 137 167 201 216 196 174 164 142 131 127 120 112 95 93 94 86 79 82 79 73 56 29 30 15 20 23 34 43 38 21 77 141 166 119 55 53 40 24 26 
148 148 140 138 140 139 149 151 147 145 139 146 138 141 124 105 101 111 107 99 92 91 90 89 111 141 168 199 213 202 176 165 152 137 129 124 119 105 99 94 88 82 82 76 71 59 27 27 19 22 26 35 37 30 17 70 142 164 130 51 47 33 18 31 
147 152 147 143 142 143 148 148 144 142 147 147 141 130 121 108 103 109 101 96 89 91 89 85 101 127 168 192 214 204 177 164 158 143 131 122 115 106 100 98 93 87 86 83 77 60 34 23 17 19 32 25 45 30 11 63 141 164 135 60 38 31 16 30 
149 152 148 156 152 151 147 143 145 152 153 150 139 128 119 114 107 110 107 98 90 96 85 85 97 124 161 192 213 208 184 161 153 151 135 119 111 106 101 100 95 88 87 84 80 67 35 26 21 24 31 33 44 22 10 57 137 157 138 70 33 18 12 34 
149 158 151 144 156 154 157 155 151 152 154 149 143 133 120 115 117 112 107 99 94 94 88 91 98 118 154 194 212 206 187 160 146 139 137 129 117 105 98 94 90 91 91 84 81 63 31 29 18 31 36 33 47 22 16 44 137 155 141 92 34 24 17 26 
150 156 156 153 153 155 152 154 155 156 149 142 135 127 125 117 113 110 108 102 93 93 91 87 95 119 152 191 210 211 192 161 146 140 135 129 119 107 101 96 89 90 90 87 82 64 26 29 20 30 29 39 50 23 14 41 134 147 132 115 25 18 13 19 
152 156 155 157 161 156 153 149 154 149 148 142 136 131 121 116 115 115 111 105 98 96 86 94 96 118 143 189 214 215 195 160 145 136 134 131 119 113 107 96 94 89 91 88 77 56 27 28 19 29 23 36 57 22 12 32 129 148 111 133 30 15 12 17 
148 151 156 155 161 161 150 147 150 147 148 136 131 125 120 113 110 115 108 102 96 88 89 95 97 112 146 183 208 214 200 162 144 139 136 126 120 114 107 96 96 90 92 89 74 49 27 25 19 28 24 35 57 16 9 28 128 147 113 140 38 16 20 20 
139 146 153 155 153 161 152 148 151 145 141 136 131 123 109 109 104 112 104 101 92 85 92 92 100 115 136 173 205 215 202 163 144 144 132 129 122 114 109 100 93 90 90 86 75 43 30 21 22 21 20 33 56 16 9 21 130 155 118 140 62 16 9 17 
139 143 150 150 153 153 151 144 146 144 140 135 128 120 114 106 103 103 104 97 90 86 86 92 96 114 129 155 200 216 205 164 141 136 134 123 117 122 109 102 95 94 90 85 68 38 23 16 26 19 27 40 55 15 10 16 120 154 119 132 86 26 11 17 
139 142 152 148 149 149 149 142 145 140 137 134 124 120 107 98 99 98 103 95 87 88 83 89 99 105 128 156 195 213 209 170 134 134 131 126 114 115 104 102 96 93 92 84 63 32 23 22 28 28 27 42 58 13 7 12 107 146 116 126 94 33 12 21 
130 135 141 148 139 145 147 144 145 141 136 135 127 120 103 97 97 98 96 94 91 82 82 87 92 98 130 156 193 211 214 183 139 140 128 123 113 112 105 98 96 94 88 83 52 30 14 18 27 36 29 40 59 12 11 17 95 147 115 132 103 39 10 25 
134 128 134 142 141 144 142 143 141 135 134 130 123 117 105 100 94 95 96 91 88 84 82 85 88 105 125 151 180 209 219 197 129 132 126 122 116 112 108 98 93 93 90 72 47 27 20 23 22 34 39 45 59 14 8 15 78 142 129 132 112 37 6 23 
132 127 129 131 134 140 137 140 135 137 138 130 121 111 103 98 94 92 93 91 86 82 82 84 88 101 121 139 169 209 221 205 136 134 125 123 115 113 104 100 95 92 84 70 45 16 17 26 20 35 36 45 53 13 5 16 68 138 139 126 118 42 10 28 
121 126 126 124 131 136 138 133 133 134 128 124 114 109 100 90 89 86 94 99 85 84 85 78 90 98 120 137 161 207 223 207 145 130 127 121 119 113 103 102 94 93 84 62 30 17 20 22 30 39 38 43 47 21 6 13 56 134 140 123 120 55 18 20 
119 120 122 129 130 131 137 131 135 130 127 119 115 112 95 82 78 89 96 99 92 87 86 84 93 99 114 138 157 203 224 211 151 118 118 120 121 110 104 97 91 89 84 58 18 17 21 24 18 33 41 45 39 26 7 13 45 124 140 124 129 81 23 18 
117 121 123 125 126 130 129 131 132 131 124 117 108 109 83 69 81 95 103 100 103 103 95 87 89 97 108 137 160 199 224 210 148 116 117 117 116 108 100 94 93 87 77 37 20 18 20 28 23 36 46 43 43 24 7 12 27 118 146 133 132 92 25 18 
119 120 127 125 127 128 129 133 130 129 125 118 114 111 86 68 81 99 105 101 106 107 106 89 81 87 108 134 163 190 212 205 143 116 118 117 109 104 100 92 89 87 66 25 15 18 19 22 25 35 41 43 38 23 11 18 19 108 148 133 124 98 35 15 
117 117 116 121 126 122 129 128 129 128 126 117 113 109 83 70 86 99 97 94 85 97 96 91 80 79 97 117 152 183 194 189 127 117 116 114 112 109 104 95 91 81 38 17 17 20 22 27 24 30 47 33 38 16 16 15 13 94 146 146 120 100 36 18 
118 120 123 120 122 125 127 128 130 127 130 121 114 107 97 79 94 97 87 30 18 37 61 66 81 83 86 98 138 172 186 152 124 118 117 116 110 104 94 91 90 65 22 17 20 21 27 30 30 37 48 30 40 19 22 13 10 86 140 146 110 110 48 20 
117 115 117 118 126 127 128 127 128 128 129 120 117 115 102 80 86 92 80 55 46 66 66 55 54 71 81 91 118 162 172 144 137 117 115 112 106 104 99 96 86 39 22 20 21 21 26 23 28 39 40 38 41 19 23 19 7 63 141 148 102 122 50 14 
117 110 119 119 122 122 122 127 131 126 131 124 117 118 111 93 81 85 89 91 91 93 91 79 75 70 81 89 123 169 158 144 131 123 116 109 105 102 94 95 70 24 22 29 27 19 30 26 32 43 45 38 44 16 21 22 8 44 135 147 111 126 64 14 
111 113 118 115 125 117 123 127 128 128 128 127 120 119 115 108 102 95 84 87 89 93 96 81 81 101 133 157 171 171 153 139 128 123 116 109 103 98 98 88 46 18 22 26 24 24 29 27 30 56 49 40 41 19 23 16 10 30 131 151 107 123 71 23 
111 113 116 114 122 122 123 122 128 128 130 125 125 125 121 115 109 107 96 96 96 107 123 116 110 138 178 184 181 171 151 139 123 120 115 112 103 100 94 76 27 24 20 26 23 23 31 32 36 62 45 52 36 26 36 18 12 21 118 153 106 117 67 26 
111 107 111 118 120 122 125 128 130 128 128 128 124 127 120 117 117 112 107 105 109 124 156 158 124 144 179 182 179 174 154 134 125 117 112 107 97 98 94 57 27 27 22 22 20 26 29 38 32 70 37 58 36 25 40 18 12 13 105 152 106 117 61 39 
106 110 115 121 121 121 121 122 125 128 127 126 122 121 122 120 116 116 112 112 123 141 177 180 143 152 180 183 180 177 150 133 117 113 115 105 103 102 84 27 24 27 25 26 25 27 41 38 37 64 38 49 34 31 35 29 15 16 86 152 119 120 62 55 
104 103 108 113 118 118 120 120 118 122 121 126 122 117 119 119 116 116 117 121 127 154 190 186 158 151 184 187 184 179 147 130 120 111 114 103 101 96 55 21 26 27 21 22 22 24 40 35 43 58 36 49 33 31 29 17 11 10 64 145 129 117 58 78 
108 105 107 108 112 115 116 118 115 120 121 127 121 116 114 120 122 119 122 123 136 163 197 192 167 153 186 191 181 173 149 131 114 114 111 104 104 89 26 23 21 24 24 25 21 29 40 37 47 55 38 46 29 39 25 21 12 12 61 135 124 108 61 86 
107 99 106 103 105 112 114 115 112 113 115 124 114 119 113 117 120 125 126 129 141 166 198 194 167 147 175 192 184 174 147 121 109 112 107 106 100 63 22 22 23 25 23 24 26 28 38 35 52 52 42 47 23 37 29 22 14 12 63 127 136 105 61 99 
100 99 102 102 106 105 107 111 112 112 109 116 110 112 113 114 116 122 124 130 141 168 193 199 174 168 195 191 184 176 150 115 106 106 106 106 96 30 18 20 21 38 27 22 23 33 36 41 49 49 37 45 32 34 32 18 13 10 55 119 138 106 69 96 
101 99 100 105 108 107 101 106 110 103 103 111 114 112 106 110 121 127 133 130 131 132 147 153 179 180 155 139 136 154 145 102 94 100 108 105 68 25 20 18 26 38 25 22 29 27 41 41 52 56 38 48 44 34 40 17 10 8 40 118 146 100 80 105 
101 102 101 106 99 95 92 91 95 100 102 110 105 111 107 111 106 104 101 96 93 91 105 104 118 122 111 101 104 115 106 76 91 107 111 101 31 23 19 23 28 25 25 28 29 29 44 39 48 53 43 52 38 30 39 19 11 12 29 117 143 89 90 106 
107 106 107 114 91 57 53 70 83 88 93 95 92 91 87 81 78 79 79 75 76 72 81 87 101 97 62 51 67 78 61 70 97 113 111 74 23 22 19 23 29 23 23 22 29 30 50 28 49 44 42 56 37 21 37 29 11 11 22 104 141 89 106 111 
108 110 110 110 84 58 59 46 41 47 53 57 58 64 72 62 59 56 52 47 52 63 71 76 81 68 62 54 68 86 81 92 107 116 104 36 20 21 19 24 28 20 22 27 26 42 42 31 56 42 48 54 34 13 47 41 16 17 21 90 140 104 118 110 
115 112 112 110 91 86 87 82 70 61 59 64 68 76 78 77 79 79 75 77 78 75 85 95 101 106 98 86 92 106 102 105 113 110 67 20 23 23 22 29 25 21 22 26 28 45 29 31 53 47 42 55 33 19 46 49 17 17 19 76 136 109 125 113 
112 115 112 110 109 102 90 86 86 84 81 77 75 83 90 95 89 108 119 123 132 132 146 160 164 158 119 95 98 113 116 109 112 95 29 19 23 22 22 26 22 23 21 29 32 37 27 38 57 44 46 53 40 24 42 54 19 18 19 66 139 119 125 114 
109 112 110 110 115 104 96 92 86 87 84 86 75 77 80 90 101 121 139 155 155 154 158 168 176 159 110 96 104 117 119 108 105 53 19 18 19 23 24 26 17 15 23 28 27 22 23 44 63 40 48 46 25 25 41 60 19 16 18 62 144 126 124 120 
108 105 109 115 112 109 103 98 88 87 82 86 85 89 82 80 91 106 109 117 124 120 110 112 122 119 95 107 113 120 116 109 87 21 19 19 19 21 29 20 19 16 21 23 39 18 19 43 66 44 56 53 35 36 35 63 22 21 24 61 139 132 122 126 
102 104 105 108 112 108 104 99 96 93 87 84 85 88 89 85 83 94 98 97 106 105 99 98 99 95 102 116 117 123 108 101 52 19 24 24 21 25 29 22 25 19 28 23 33 22 21 46 57 37 55 49 39 39 28 67 21 21 22 61 135 136 126 126 
99 101 102 104 105 107 109 99 98 94 95 89 91 87 81 81 81 88 90 93 100 93 91 86 85 100 117 120 115 115 105 67 35 13 23 21 25 29 22 27 31 25 26 28 33 22 22 52 56 39 56 47 47 32 28 70 24 25 22 59 133 142 124 128 
99 96 102 101 106 107 102 104 99 96 95 91 94 90 88 84 81 77 77 81 79 76 80 84 103 126 121 111 113 113 76 41 27 19 19 15 18 23 18 28 30 34 23 25 29 20 24 67 50 48 53 51 45 31 34 60 25 23 24 56 127 144 123 128 
95 96 104 102 105 108 103 102 98 99 96 94 96 92 97 99 94 90 87 90 93 97 104 117 122 124 111 104 111 107 32 42 24 20 23 20 19 28 28 27 42 36 31 27 27 25 22 71 50 45 55 59 40 29 37 60 30 34 25 51 131 150 125 133 
97 95 99 105 101 102 102 101 103 98 101 102 98 101 108 112 113 115 120 120 117 119 122 123 126 119 103 112 110 73 14 43 27 21 19 21 21 30 26 30 31 35 26 26 20 21 20 68 51 48 55 54 41 34 33 58 36 18 25 43 132 147 126 138 
97 99 105 99 101 102 105 105 106 106 104 111 109 112 118 123 128 133 140 136 128 126 126 128 124 117 114 115 110 30 19 46 24 15 20 25 24 27 27 38 31 38 23 29 20 23 24 76 53 45 54 55 47 40 45 53 38 20 30 34 131 153 134 142 
95 99 103 101 103 103 107 109 109 111 115 124 121 118 118 131 139 140 145 145 137 131 125 129 124 117 117 120 82 10 20 34 22 20 23 25 23 30 36 33 44 28 22 27 23 24 26 83 55 48 62 49 44 38 46 56 40 27 29 32 131 153 134 143 
96 96 97 102 102 105 110 109 109 115 120 127 133 128 127 131 142 148 145 141 143 134 138 135 125 117 124 117 47 17 28 36 19 22 24 23 29 33 36 29 37 20 36 33 18 22 31 79 56 50 64 57 38 39 46 50 36 37 25 36 133 148 135 143 
89 93 97 100 100 108 115 114 113 122 125 133 141 142 137 134 139 142 138 136 144 142 141 135 119 117 125 102 20 17 38 28 22 28 30 23 30 30 39 34 32 18 42 25 23 25 36 86 63 50 67 53 40 48 46 42 36 45 22 27 136 153 134 138 
90 93 97 99 102 104 109 113 115 117 121 126 141 145 141 140 143 138 141 138 145 151 148 133 117 122 121 74 17 20 37 28 31 33 31 29 31 29 35 40 23 19 32 22 23 24 35 84 60 53 70 49 42 56 48 45 37 47 34 27 133 156 135 142 
82 84 92 95 98 99 107 114 112 117 118 118 130 137 137 141 146 146 142 140 141 142 139 127 114 120 108 63 14 19 35 27 34 35 35 32 31 33 37 45 21 28 24 27 24 24 43 86 61 47 67 45 40 54 47 48 33 51 25 28 134 149 135 143 
64 73 86 85 92 92 98 102 105 111 113 118 125 124 136 140 139 145 134 133 134 133 131 122 113 114 103 64 18 23 36 37 36 38 36 36 34 31 43 42 29 38 23 28 25 28 46 81 63 59 64 53 47 59 55 51 44 56 31 34 136 145 130 136 
